<?xml version="1.0" encoding="utf-8"?>
<!-- Generator: Adobe Illustrator 17.0.0, SVG Export Plug-In . SVG Version: 6.00 Build 0)  -->
<!DOCTYPE svg PUBLIC "-//W3C//DTD SVG 1.1//EN" "http://www.w3.org/Graphics/SVG/1.1/DTD/svg11.dtd">
<svg version="1.1" id="Layer_1" xmlns="http://www.w3.org/2000/svg" xmlns:xlink="http://www.w3.org/1999/xlink" x="0px" y="0px"
	 width="842px" height="1191px" viewBox="0 0 842 1191" enable-background="new 0 0 842 1191" xml:space="preserve">
<title>A3 Portrait</title>
<desc>Created with Sketch.</desc>
<g id="Page-1">
	<g id="A3-Portrait">
		<g id="Discovery-Research">
			<polygon id="BG" fill="#912B88" points="0,1191 842,1191 842,0 0,0 			"/>
			<g id="Heading" transform="translate(440.000000, 441.180207)">
				<g enable-background="new    ">
					<path fill="#FFFFFF" d="M-315.896-284.12c0,1.51-0.188,2.886-0.563,4.129c-0.375,1.243-0.947,2.305-1.716,3.186
						c-0.769,0.882-1.732,1.564-2.89,2.047c-1.158,0.483-2.52,0.724-4.086,0.724h-6.469v-20.172h6.469
						c1.566,0,2.927,0.241,4.086,0.724c1.158,0.483,2.121,1.165,2.89,2.047c0.769,0.882,1.341,1.944,1.716,3.186
						C-316.084-287.006-315.896-285.63-315.896-284.12z M-318.554-284.514c0-1.05-0.131-2.035-0.394-2.954
						c-0.263-0.919-0.663-1.718-1.202-2.398c-0.539-0.68-1.228-1.217-2.067-1.611c-0.839-0.394-1.835-0.591-2.989-0.591h-3.938
						v15.895h3.938c1.153,0,2.149-0.195,2.989-0.584c0.839-0.389,1.528-0.923,2.067-1.604c0.539-0.68,0.94-1.479,1.202-2.398
						c0.262-0.919,0.394-1.904,0.394-2.954V-284.514z"/>
					<path fill="#FFFFFF" d="M-310.453-280.491c0.047,0.675,0.183,1.299,0.408,1.871c0.225,0.572,0.532,1.067,0.921,1.484
						c0.389,0.417,0.848,0.741,1.378,0.971c0.53,0.23,1.118,0.345,1.765,0.345c0.797,0,1.498-0.134,2.103-0.401
						c0.605-0.267,1.16-0.603,1.667-1.006l1.21,1.702c-0.647,0.516-1.395,0.94-2.243,1.273c-0.849,0.333-1.798,0.499-2.848,0.499
						c-1.041,0-1.983-0.185-2.827-0.556c-0.844-0.37-1.564-0.886-2.159-1.547c-0.595-0.661-1.053-1.449-1.371-2.363
						c-0.319-0.914-0.478-1.911-0.478-2.989c0-1.097,0.157-2.103,0.471-3.017c0.314-0.914,0.757-1.702,1.329-2.363
						c0.572-0.661,1.256-1.177,2.053-1.547c0.797-0.37,1.683-0.556,2.658-0.556c0.947,0,1.8,0.185,2.56,0.556
						c0.759,0.371,1.406,0.886,1.941,1.547s0.944,1.449,1.231,2.363c0.286,0.914,0.429,1.911,0.429,2.989v0.746H-310.453z
						 M-306.501-286.624c-0.6,0-1.135,0.117-1.603,0.352c-0.469,0.234-0.87,0.549-1.202,0.942c-0.333,0.394-0.595,0.846-0.788,1.357
						c-0.192,0.511-0.302,1.039-0.331,1.583h7.609c-0.019-0.553-0.115-1.085-0.288-1.597c-0.174-0.511-0.417-0.961-0.731-1.35
						c-0.314-0.389-0.694-0.701-1.139-0.935C-305.421-286.506-305.93-286.624-306.501-286.624z"/>
					<path fill="#FFFFFF" d="M-294.603-288.41v1.646c0.422-0.591,0.994-1.06,1.716-1.407c0.722-0.347,1.552-0.52,2.489-0.52
						c0.928,0,1.767,0.185,2.517,0.556c0.75,0.371,1.392,0.889,1.927,1.554c0.534,0.666,0.944,1.456,1.231,2.37
						c0.286,0.914,0.429,1.915,0.429,3.003c0,1.088-0.143,2.087-0.429,2.996c-0.286,0.91-0.696,1.695-1.231,2.356
						c-0.534,0.661-1.177,1.177-1.927,1.547c-0.75,0.37-1.589,0.556-2.517,0.556c-0.938,0-1.767-0.174-2.489-0.52
						c-0.722-0.347-1.294-0.816-1.716-1.407v6.021h-2.363v-18.751H-294.603z M-286.742-281.293c0-0.75-0.089-1.449-0.267-2.096
						c-0.178-0.647-0.441-1.207-0.788-1.681c-0.347-0.473-0.776-0.846-1.287-1.118c-0.511-0.272-1.095-0.408-1.751-0.408
						c-0.628,0-1.179,0.108-1.652,0.324c-0.474,0.216-0.87,0.511-1.188,0.886c-0.319,0.375-0.56,0.818-0.724,1.329
						c-0.164,0.511-0.246,1.067-0.246,1.667v2.335c0,0.6,0.082,1.156,0.246,1.667c0.164,0.511,0.405,0.954,0.724,1.329
						c0.319,0.375,0.715,0.671,1.188,0.886c0.473,0.216,1.024,0.324,1.652,0.324c0.656,0,1.24-0.136,1.751-0.408
						c0.511-0.272,0.94-0.645,1.287-1.118c0.347-0.473,0.609-1.034,0.788-1.681c0.178-0.647,0.267-1.345,0.267-2.096V-281.293z"/>
					<path fill="#FFFFFF" d="M-272.636-275.469c-0.422,0.488-0.992,0.896-1.709,1.224s-1.559,0.492-2.524,0.492
						c-0.713,0-1.374-0.101-1.983-0.302c-0.61-0.202-1.139-0.49-1.589-0.865c-0.45-0.375-0.802-0.83-1.055-1.364
						c-0.253-0.535-0.38-1.139-0.38-1.815c0-0.563,0.091-1.076,0.274-1.54s0.441-0.87,0.773-1.217
						c0.333-0.347,0.734-0.631,1.202-0.851c0.469-0.22,0.994-0.373,1.575-0.457l5.077-0.689v-0.914c0-0.544-0.084-1.001-0.253-1.372
						c-0.169-0.37-0.396-0.663-0.682-0.879c-0.286-0.216-0.624-0.37-1.013-0.464c-0.389-0.094-0.809-0.141-1.259-0.141
						c-0.806,0-1.559,0.113-2.257,0.338c-0.699,0.225-1.329,0.488-1.892,0.788l-0.886-1.871c0.825-0.469,1.69-0.807,2.595-1.013
						c0.905-0.206,1.798-0.309,2.679-0.309c1.753,0,3.08,0.396,3.98,1.189c0.9,0.793,1.35,1.948,1.35,3.467v6.625
						c0,0.478,0.094,0.879,0.281,1.203c0.187,0.324,0.487,0.579,0.9,0.767l-1.336,1.688c-0.45-0.113-0.837-0.312-1.16-0.598
						c-0.323-0.286-0.551-0.631-0.682-1.034L-272.636-275.469z M-276.841-280.435c-0.394,0.056-0.752,0.136-1.076,0.239
						c-0.323,0.103-0.598,0.241-0.823,0.415c-0.225,0.174-0.401,0.387-0.527,0.64c-0.127,0.253-0.19,0.563-0.19,0.928
						c0,0.422,0.08,0.797,0.239,1.125c0.159,0.328,0.375,0.605,0.647,0.83c0.272,0.225,0.588,0.396,0.949,0.513
						c0.361,0.117,0.738,0.176,1.132,0.176c0.441,0,0.872-0.061,1.294-0.183c0.422-0.122,0.797-0.297,1.125-0.527
						c0.328-0.23,0.593-0.509,0.795-0.837c0.201-0.328,0.302-0.703,0.302-1.125v-2.771L-276.841-280.435z"/>
					<path fill="#FFFFFF" d="M-258.98-286.3h-0.38c-0.61,0-1.191,0.07-1.744,0.211c-0.553,0.141-1.041,0.394-1.463,0.76
						c-0.422,0.366-0.759,0.865-1.013,1.498s-0.38,1.442-0.38,2.427v7.371h-2.363v-14.376h2.363v2.279
						c0.178-0.422,0.417-0.792,0.717-1.111c0.3-0.319,0.64-0.584,1.02-0.795c0.38-0.211,0.788-0.368,1.224-0.471
						c0.436-0.103,0.879-0.155,1.329-0.155h0.689V-286.3z"/>
					<path fill="#FFFFFF" d="M-252.496-277.607c0,0.244,0.016,0.471,0.049,0.682c0.033,0.211,0.113,0.396,0.239,0.556
						c0.127,0.16,0.312,0.286,0.556,0.38c0.244,0.094,0.577,0.141,0.999,0.141c0.113,0,0.246-0.005,0.401-0.014
						c0.155-0.009,0.316-0.021,0.485-0.035c0.169-0.014,0.333-0.033,0.492-0.056c0.159-0.023,0.295-0.044,0.408-0.063l0.253,2.068
						c-0.272,0.037-0.553,0.07-0.844,0.098c-0.244,0.028-0.516,0.051-0.816,0.07c-0.3,0.019-0.6,0.028-0.9,0.028
						c-0.572,0-1.085-0.059-1.54-0.176c-0.455-0.117-0.842-0.307-1.16-0.57c-0.319-0.262-0.563-0.607-0.731-1.034
						c-0.169-0.427-0.253-0.945-0.253-1.554v-9.242h-2.714v-2.082h2.714v-4.698l2.363-0.83v5.528h3.994v2.082h-3.994V-277.607z"/>
					<path fill="#FFFFFF" d="M-234.804-274.034h-2.363v-9.045c0-0.638-0.077-1.177-0.232-1.618
						c-0.155-0.441-0.361-0.797-0.619-1.069c-0.258-0.272-0.563-0.469-0.914-0.591c-0.352-0.122-0.724-0.183-1.118-0.183
						c-0.394,0-0.781,0.077-1.16,0.232c-0.38,0.155-0.717,0.396-1.013,0.724c-0.295,0.328-0.534,0.743-0.717,1.245
						c-0.183,0.502-0.274,1.104-0.274,1.808v8.496h-2.363v-14.376h2.363v1.646c0.478-0.666,1.034-1.153,1.667-1.463
						c0.633-0.309,1.334-0.464,2.103-0.464c0.319,0,0.666,0.045,1.041,0.134c0.375,0.089,0.743,0.227,1.104,0.415
						c0.361,0.188,0.694,0.434,0.999,0.738c0.305,0.305,0.551,0.673,0.738,1.104c0.262-0.441,0.565-0.814,0.907-1.118
						c0.342-0.305,0.703-0.551,1.083-0.738c0.38-0.188,0.774-0.324,1.181-0.408c0.408-0.084,0.813-0.127,1.217-0.127
						c0.778,0,1.467,0.132,2.067,0.394c0.6,0.263,1.106,0.614,1.519,1.055c0.412,0.441,0.724,0.952,0.935,1.533
						c0.211,0.582,0.316,1.191,0.316,1.829v9.847h-2.363v-9.045c0-0.638-0.08-1.177-0.239-1.618
						c-0.16-0.441-0.375-0.797-0.647-1.069c-0.272-0.272-0.586-0.469-0.942-0.591c-0.356-0.122-0.727-0.183-1.111-0.183
						c-0.394,0-0.781,0.077-1.16,0.232c-0.38,0.155-0.717,0.396-1.013,0.724c-0.295,0.328-0.534,0.743-0.717,1.245
						c-0.183,0.502-0.274,1.104-0.274,1.808V-274.034z"/>
					<path fill="#FFFFFF" d="M-220.529-280.491c0.047,0.675,0.183,1.299,0.408,1.871c0.225,0.572,0.532,1.067,0.921,1.484
						c0.389,0.417,0.849,0.741,1.378,0.971c0.529,0.23,1.118,0.345,1.765,0.345c0.797,0,1.498-0.134,2.103-0.401
						c0.605-0.267,1.16-0.603,1.667-1.006l1.209,1.702c-0.647,0.516-1.395,0.94-2.243,1.273c-0.849,0.333-1.798,0.499-2.848,0.499
						c-1.041,0-1.983-0.185-2.827-0.556s-1.564-0.886-2.159-1.547c-0.595-0.661-1.053-1.449-1.371-2.363
						c-0.319-0.914-0.478-1.911-0.478-2.989c0-1.097,0.157-2.103,0.471-3.017c0.314-0.914,0.757-1.702,1.329-2.363
						c0.572-0.661,1.256-1.177,2.053-1.547c0.797-0.37,1.683-0.556,2.658-0.556c0.947,0,1.8,0.185,2.56,0.556
						c0.759,0.371,1.406,0.886,1.941,1.547s0.944,1.449,1.231,2.363c0.286,0.914,0.429,1.911,0.429,2.989v0.746H-220.529z
						 M-216.577-286.624c-0.6,0-1.134,0.117-1.603,0.352c-0.469,0.234-0.87,0.549-1.202,0.942c-0.333,0.394-0.595,0.846-0.788,1.357
						c-0.192,0.511-0.302,1.039-0.331,1.583h7.609c-0.019-0.553-0.115-1.085-0.288-1.597c-0.174-0.511-0.417-0.961-0.731-1.35
						c-0.314-0.389-0.694-0.701-1.139-0.935C-215.497-286.506-216.006-286.624-216.577-286.624z"/>
					<path fill="#FFFFFF" d="M-207.042-288.41h2.363v1.646c0.487-0.666,1.09-1.153,1.807-1.463c0.717-0.309,1.517-0.464,2.398-0.464
						c0.797,0,1.495,0.132,2.096,0.394c0.6,0.263,1.102,0.619,1.505,1.069c0.403,0.45,0.705,0.971,0.907,1.561
						c0.202,0.591,0.302,1.215,0.302,1.871v9.762h-2.363v-9.017c0-0.628-0.077-1.165-0.232-1.611
						c-0.155-0.445-0.366-0.806-0.633-1.083c-0.267-0.276-0.582-0.478-0.942-0.605c-0.361-0.127-0.748-0.19-1.16-0.19
						c-0.45,0-0.893,0.082-1.329,0.246c-0.436,0.164-0.83,0.41-1.181,0.739c-0.352,0.328-0.635,0.741-0.851,1.238
						c-0.216,0.497-0.323,1.083-0.323,1.758v8.524h-2.363V-288.41z"/>
					<path fill="#FFFFFF" d="M-187.746-277.607c0,0.244,0.016,0.471,0.049,0.682c0.033,0.211,0.113,0.396,0.239,0.556
						c0.127,0.16,0.312,0.286,0.556,0.38c0.244,0.094,0.577,0.141,0.999,0.141c0.113,0,0.246-0.005,0.401-0.014
						c0.155-0.009,0.316-0.021,0.485-0.035s0.333-0.033,0.492-0.056c0.159-0.023,0.295-0.044,0.408-0.063l0.253,2.068
						c-0.272,0.037-0.553,0.07-0.844,0.098c-0.244,0.028-0.516,0.051-0.816,0.07c-0.3,0.019-0.6,0.028-0.9,0.028
						c-0.572,0-1.085-0.059-1.54-0.176c-0.455-0.117-0.842-0.307-1.16-0.57c-0.319-0.262-0.563-0.607-0.731-1.034
						c-0.169-0.427-0.253-0.945-0.253-1.554v-9.242h-2.714v-2.082h2.714v-4.698l2.363-0.83v5.528h3.994v2.082h-3.994V-277.607z"/>
					<path fill="#FFFFFF" d="M-172.164-288.41h2.855v2.082h-2.855v12.294h-2.363v-12.294h-2.391v-2.082h2.391v-2.673
						c0-0.619,0.098-1.144,0.295-1.576c0.197-0.431,0.471-0.781,0.823-1.048c0.352-0.267,0.769-0.459,1.252-0.577
						c0.483-0.117,1.01-0.176,1.582-0.176c0.581,0,1.064,0.026,1.449,0.077c0.384,0.052,0.67,0.091,0.858,0.12l-0.183,2.026
						c-0.141-0.009-0.302-0.023-0.485-0.042c-0.183-0.019-0.371-0.033-0.563-0.042c-0.192-0.009-0.378-0.019-0.556-0.028
						c-0.178-0.009-0.323-0.014-0.436-0.014c-0.338,0-0.614,0.049-0.83,0.148c-0.216,0.098-0.387,0.227-0.513,0.387
						c-0.127,0.16-0.213,0.343-0.26,0.549c-0.047,0.206-0.07,0.422-0.07,0.647V-288.41z"/>
					<path fill="#FFFFFF" d="M-160.814-288.692c0.994,0,1.899,0.185,2.714,0.556c0.816,0.371,1.512,0.886,2.088,1.547
						s1.024,1.449,1.343,2.363c0.319,0.914,0.478,1.92,0.478,3.017c0,1.078-0.16,2.075-0.478,2.989
						c-0.319,0.914-0.766,1.702-1.343,2.363c-0.577,0.661-1.273,1.177-2.088,1.547s-1.721,0.556-2.714,0.556
						c-0.994,0-1.896-0.185-2.707-0.556c-0.811-0.37-1.507-0.886-2.088-1.547c-0.582-0.661-1.032-1.449-1.35-2.363
						c-0.319-0.914-0.478-1.911-0.478-2.989c0-1.097,0.159-2.103,0.478-3.017c0.319-0.914,0.769-1.702,1.35-2.363
						c0.581-0.661,1.277-1.177,2.088-1.547C-162.711-288.507-161.808-288.692-160.814-288.692z M-160.814-275.821
						c0.684,0,1.287-0.143,1.807-0.429c0.52-0.286,0.956-0.673,1.308-1.16c0.352-0.487,0.616-1.053,0.795-1.695
						c0.178-0.642,0.267-1.315,0.267-2.019v-0.169c0-0.722-0.089-1.407-0.267-2.054c-0.178-0.647-0.443-1.212-0.795-1.695
						c-0.352-0.483-0.788-0.867-1.308-1.153c-0.52-0.286-1.123-0.429-1.807-0.429c-0.684,0-1.287,0.143-1.807,0.429
						c-0.52,0.286-0.956,0.671-1.308,1.153c-0.352,0.483-0.617,1.048-0.795,1.695c-0.178,0.647-0.267,1.332-0.267,2.054v0.169
						c0,0.703,0.089,1.376,0.267,2.019c0.178,0.642,0.443,1.208,0.795,1.695c0.352,0.488,0.788,0.874,1.308,1.16
						C-162.101-275.963-161.499-275.821-160.814-275.821z"/>
					<path fill="#FFFFFF" d="M-143.389-286.3h-0.38c-0.61,0-1.191,0.07-1.744,0.211c-0.553,0.141-1.041,0.394-1.463,0.76
						c-0.422,0.366-0.759,0.865-1.013,1.498c-0.253,0.633-0.38,1.442-0.38,2.427v7.371h-2.363v-14.376h2.363v2.279
						c0.178-0.422,0.417-0.792,0.717-1.111c0.3-0.319,0.64-0.584,1.02-0.795c0.38-0.211,0.788-0.368,1.224-0.471
						c0.436-0.103,0.879-0.155,1.329-0.155h0.689V-286.3z"/>
					<path fill="#FFFFFF" d="M-119.846-277.607h0.141l3.432-16.599h2.531l-4.486,20.172h-2.939l-4.289-16.472l-4.275,16.472h-2.953
						l-4.472-20.172h2.503l3.488,16.599h0.169l4.388-16.599h2.391L-119.846-277.607z"/>
					<path fill="#FFFFFF" d="M-105.656-288.692c0.994,0,1.899,0.185,2.714,0.556c0.816,0.371,1.512,0.886,2.088,1.547
						c0.577,0.661,1.024,1.449,1.343,2.363c0.319,0.914,0.478,1.92,0.478,3.017c0,1.078-0.16,2.075-0.478,2.989
						c-0.319,0.914-0.766,1.702-1.343,2.363c-0.577,0.661-1.273,1.177-2.088,1.547c-0.816,0.37-1.721,0.556-2.714,0.556
						c-0.994,0-1.897-0.185-2.707-0.556c-0.811-0.37-1.507-0.886-2.088-1.547c-0.582-0.661-1.032-1.449-1.35-2.363
						c-0.319-0.914-0.478-1.911-0.478-2.989c0-1.097,0.159-2.103,0.478-3.017c0.319-0.914,0.769-1.702,1.35-2.363
						c0.581-0.661,1.277-1.177,2.088-1.547C-107.552-288.507-106.65-288.692-105.656-288.692z M-105.656-275.821
						c0.684,0,1.287-0.143,1.807-0.429c0.52-0.286,0.956-0.673,1.308-1.16c0.352-0.487,0.616-1.053,0.795-1.695
						c0.178-0.642,0.267-1.315,0.267-2.019v-0.169c0-0.722-0.089-1.407-0.267-2.054c-0.178-0.647-0.443-1.212-0.795-1.695
						c-0.352-0.483-0.788-0.867-1.308-1.153c-0.52-0.286-1.123-0.429-1.807-0.429c-0.684,0-1.287,0.143-1.807,0.429
						c-0.52,0.286-0.956,0.671-1.308,1.153c-0.352,0.483-0.617,1.048-0.795,1.695c-0.178,0.647-0.267,1.332-0.267,2.054v0.169
						c0,0.703,0.089,1.376,0.267,2.019c0.178,0.642,0.443,1.208,0.795,1.695c0.352,0.488,0.788,0.874,1.308,1.16
						C-106.943-275.963-106.34-275.821-105.656-275.821z"/>
					<path fill="#FFFFFF" d="M-88.231-286.3h-0.38c-0.61,0-1.191,0.07-1.744,0.211c-0.553,0.141-1.041,0.394-1.463,0.76
						c-0.422,0.366-0.759,0.865-1.013,1.498c-0.253,0.633-0.38,1.442-0.38,2.427v7.371h-2.363v-14.376h2.363v2.279
						c0.178-0.422,0.417-0.792,0.717-1.111c0.3-0.319,0.64-0.584,1.02-0.795s0.788-0.368,1.224-0.471
						c0.436-0.103,0.879-0.155,1.329-0.155h0.689V-286.3z"/>
					<path fill="#FFFFFF" d="M-83.097-281.349l6.765-7.062h2.967l-5.471,5.711l5.724,8.665h-2.883l-4.514-7.09l-2.588,2.659v4.431
						h-2.363v-20.172h2.363V-281.349z"/>
					<path fill="#FFFFFF" d="M-56.517-275.469c-0.422,0.488-0.992,0.896-1.709,1.224c-0.717,0.328-1.559,0.492-2.524,0.492
						c-0.713,0-1.374-0.101-1.983-0.302c-0.61-0.202-1.139-0.49-1.589-0.865c-0.45-0.375-0.802-0.83-1.055-1.364
						c-0.253-0.535-0.38-1.139-0.38-1.815c0-0.563,0.091-1.076,0.274-1.54s0.441-0.87,0.774-1.217
						c0.333-0.347,0.733-0.631,1.202-0.851c0.469-0.22,0.994-0.373,1.575-0.457l5.077-0.689v-0.914c0-0.544-0.084-1.001-0.253-1.372
						c-0.169-0.37-0.396-0.663-0.682-0.879c-0.286-0.216-0.624-0.37-1.013-0.464c-0.389-0.094-0.809-0.141-1.259-0.141
						c-0.807,0-1.559,0.113-2.257,0.338c-0.699,0.225-1.329,0.488-1.892,0.788l-0.886-1.871c0.825-0.469,1.69-0.807,2.595-1.013
						c0.905-0.206,1.798-0.309,2.679-0.309c1.753,0,3.08,0.396,3.98,1.189c0.9,0.793,1.35,1.948,1.35,3.467v6.625
						c0,0.478,0.094,0.879,0.281,1.203c0.188,0.324,0.487,0.579,0.9,0.767l-1.336,1.688c-0.45-0.113-0.837-0.312-1.16-0.598
						c-0.323-0.286-0.551-0.631-0.682-1.034L-56.517-275.469z M-60.722-280.435c-0.394,0.056-0.752,0.136-1.076,0.239
						c-0.323,0.103-0.598,0.241-0.823,0.415c-0.225,0.174-0.401,0.387-0.527,0.64s-0.19,0.563-0.19,0.928
						c0,0.422,0.079,0.797,0.239,1.125c0.159,0.328,0.375,0.605,0.647,0.83c0.272,0.225,0.588,0.396,0.949,0.513
						c0.361,0.117,0.738,0.176,1.132,0.176c0.441,0,0.872-0.061,1.294-0.183c0.422-0.122,0.797-0.297,1.125-0.527
						c0.328-0.23,0.593-0.509,0.795-0.837c0.202-0.328,0.302-0.703,0.302-1.125v-2.771L-60.722-280.435z"/>
					<path fill="#FFFFFF" d="M-50.202-288.41h2.363v1.646c0.487-0.666,1.09-1.153,1.807-1.463c0.717-0.309,1.517-0.464,2.398-0.464
						c0.797,0,1.495,0.132,2.096,0.394c0.6,0.263,1.102,0.619,1.505,1.069c0.403,0.45,0.705,0.971,0.907,1.561
						c0.202,0.591,0.302,1.215,0.302,1.871v9.762h-2.363v-9.017c0-0.628-0.077-1.165-0.232-1.611
						c-0.155-0.445-0.366-0.806-0.633-1.083c-0.267-0.276-0.582-0.478-0.942-0.605c-0.361-0.127-0.748-0.19-1.16-0.19
						c-0.45,0-0.893,0.082-1.329,0.246c-0.436,0.164-0.83,0.41-1.181,0.739c-0.352,0.328-0.635,0.741-0.851,1.238
						c-0.216,0.497-0.323,1.083-0.323,1.758v8.524h-2.363V-288.41z"/>
					<path fill="#FFFFFF" d="M-25.154-275.68c-0.422,0.591-0.996,1.06-1.723,1.407c-0.727,0.347-1.554,0.52-2.482,0.52
						c-0.928,0-1.767-0.185-2.517-0.556c-0.75-0.37-1.392-0.886-1.927-1.547c-0.534-0.661-0.945-1.447-1.231-2.356
						c-0.286-0.909-0.429-1.908-0.429-2.996c0-1.088,0.143-2.089,0.429-3.003c0.286-0.914,0.696-1.704,1.231-2.37
						c0.534-0.666,1.176-1.184,1.927-1.554c0.75-0.37,1.589-0.556,2.517-0.556c0.928,0,1.756,0.174,2.482,0.52
						c0.726,0.347,1.301,0.816,1.723,1.407v-7.441h2.363v20.172h-2.363V-275.68z M-33.016-281.152c0,0.75,0.089,1.449,0.267,2.096
						c0.178,0.647,0.441,1.208,0.788,1.681c0.347,0.474,0.774,0.846,1.28,1.118c0.506,0.272,1.092,0.408,1.758,0.408
						c0.628,0,1.179-0.108,1.653-0.324c0.473-0.216,0.87-0.511,1.188-0.886c0.319-0.375,0.558-0.818,0.717-1.329
						c0.159-0.511,0.239-1.067,0.239-1.667v-2.335c0-0.6-0.08-1.156-0.239-1.667c-0.16-0.511-0.399-0.954-0.717-1.329
						c-0.319-0.375-0.715-0.67-1.188-0.886c-0.473-0.216-1.025-0.324-1.653-0.324c-0.666,0-1.252,0.136-1.758,0.408
						c-0.506,0.272-0.933,0.645-1.28,1.118c-0.347,0.474-0.61,1.034-0.788,1.681c-0.178,0.647-0.267,1.346-0.267,2.096V-281.152z"/>
					<path fill="#FFFFFF" d="M-12.089-294.206h7.074c0.947,0,1.805,0.157,2.574,0.471c0.769,0.314,1.427,0.75,1.976,1.308
						c0.548,0.558,0.97,1.226,1.266,2.005c0.295,0.779,0.443,1.632,0.443,2.56c0,0.938-0.162,1.793-0.485,2.567
						s-0.776,1.437-1.357,1.99c-0.582,0.554-1.273,0.983-2.074,1.287c-0.802,0.305-1.676,0.457-2.623,0.457h-4.318v7.526h-2.475
						V-294.206z M-1.386-287.918c0-0.591-0.094-1.139-0.281-1.646c-0.188-0.506-0.459-0.945-0.816-1.315
						c-0.357-0.37-0.79-0.661-1.301-0.872c-0.511-0.211-1.09-0.316-1.737-0.316h-4.093v8.384h4.093c0.647,0,1.226-0.103,1.737-0.309
						c0.511-0.206,0.944-0.49,1.301-0.851c0.356-0.361,0.628-0.792,0.816-1.294c0.188-0.501,0.281-1.048,0.281-1.639V-287.918z"/>
					<path fill="#FFFFFF" d="M5.519-280.491c0.047,0.675,0.183,1.299,0.408,1.871c0.225,0.572,0.532,1.067,0.921,1.484
						c0.389,0.417,0.849,0.741,1.378,0.971c0.53,0.23,1.118,0.345,1.765,0.345c0.797,0,1.498-0.134,2.103-0.401
						s1.16-0.603,1.667-1.006l1.209,1.702c-0.647,0.516-1.395,0.94-2.243,1.273c-0.849,0.333-1.798,0.499-2.848,0.499
						c-1.041,0-1.983-0.185-2.827-0.556s-1.563-0.886-2.159-1.547c-0.596-0.661-1.053-1.449-1.371-2.363
						c-0.319-0.914-0.478-1.911-0.478-2.989c0-1.097,0.157-2.103,0.471-3.017c0.314-0.914,0.757-1.702,1.329-2.363
						c0.572-0.661,1.256-1.177,2.053-1.547c0.797-0.37,1.683-0.556,2.658-0.556c0.947,0,1.8,0.185,2.56,0.556
						c0.759,0.371,1.406,0.886,1.941,1.547s0.944,1.449,1.231,2.363c0.286,0.914,0.429,1.911,0.429,2.989v0.746H5.519z
						 M9.471-286.624c-0.6,0-1.134,0.117-1.603,0.352c-0.469,0.234-0.87,0.549-1.202,0.942c-0.333,0.394-0.596,0.846-0.788,1.357
						c-0.192,0.511-0.302,1.039-0.331,1.583h7.609c-0.019-0.553-0.115-1.085-0.288-1.597c-0.174-0.511-0.417-0.961-0.731-1.35
						c-0.314-0.389-0.694-0.701-1.139-0.935C10.551-286.506,10.043-286.624,9.471-286.624z"/>
					<path fill="#FFFFFF" d="M19.006-288.41h2.363v1.646c0.487-0.666,1.09-1.153,1.807-1.463c0.717-0.309,1.517-0.464,2.398-0.464
						c0.797,0,1.495,0.132,2.096,0.394c0.6,0.263,1.102,0.619,1.505,1.069c0.403,0.45,0.705,0.971,0.907,1.561
						c0.202,0.591,0.302,1.215,0.302,1.871v9.762h-2.363v-9.017c0-0.628-0.077-1.165-0.232-1.611
						c-0.155-0.445-0.366-0.806-0.633-1.083c-0.267-0.276-0.582-0.478-0.942-0.605c-0.361-0.127-0.748-0.19-1.16-0.19
						c-0.45,0-0.893,0.082-1.329,0.246c-0.436,0.164-0.83,0.41-1.181,0.739c-0.352,0.328-0.635,0.741-0.851,1.238
						c-0.216,0.497-0.323,1.083-0.323,1.758v8.524h-2.363V-288.41z"/>
					<path fill="#FFFFFF" d="M44.209-278.015c0,0.675-0.148,1.278-0.443,1.808c-0.295,0.53-0.687,0.978-1.174,1.343
						c-0.488,0.366-1.048,0.642-1.681,0.83c-0.633,0.188-1.282,0.281-1.948,0.281c-1.05,0-2.06-0.181-3.031-0.542
						s-1.831-0.879-2.581-1.554l1.294-1.674c0.225,0.197,0.485,0.403,0.781,0.619c0.295,0.216,0.626,0.415,0.992,0.598
						c0.366,0.183,0.759,0.333,1.181,0.45c0.422,0.117,0.867,0.176,1.336,0.176c0.384,0,0.752-0.049,1.104-0.148
						c0.352-0.098,0.659-0.244,0.921-0.436c0.262-0.192,0.471-0.422,0.626-0.689c0.155-0.267,0.232-0.57,0.232-0.907
						c0-0.375-0.082-0.689-0.246-0.942c-0.164-0.253-0.387-0.469-0.668-0.647c-0.281-0.178-0.61-0.333-0.984-0.464
						c-0.375-0.131-0.769-0.262-1.181-0.394l-0.9-0.295c-0.506-0.169-0.994-0.361-1.463-0.577c-0.469-0.216-0.884-0.48-1.245-0.795
						c-0.361-0.314-0.647-0.687-0.858-1.118c-0.211-0.431-0.316-0.947-0.316-1.547c0-0.487,0.103-0.973,0.309-1.456
						c0.206-0.483,0.522-0.916,0.949-1.301c0.427-0.384,0.968-0.696,1.624-0.935c0.656-0.239,1.43-0.359,2.321-0.359
						c0.984,0,1.896,0.164,2.735,0.492c0.839,0.328,1.549,0.736,2.131,1.224l-1.238,1.702c-0.206-0.197-0.45-0.384-0.731-0.563
						c-0.281-0.178-0.582-0.335-0.9-0.471c-0.319-0.136-0.652-0.246-0.999-0.331c-0.347-0.084-0.689-0.127-1.027-0.127
						c-0.516,0-0.952,0.059-1.308,0.176c-0.357,0.117-0.642,0.27-0.858,0.457c-0.216,0.188-0.373,0.399-0.471,0.633
						c-0.098,0.234-0.148,0.464-0.148,0.689c0,0.328,0.07,0.603,0.211,0.823c0.141,0.22,0.326,0.41,0.556,0.57
						c0.23,0.16,0.492,0.295,0.788,0.408c0.295,0.113,0.602,0.225,0.921,0.338l1.181,0.394c0.563,0.188,1.078,0.387,1.547,0.598
						c0.469,0.211,0.881,0.452,1.238,0.724c0.45,0.357,0.799,0.769,1.048,1.238C44.084-279.248,44.209-278.681,44.209-278.015z"/>
					<path fill="#FFFFFF" d="M47.401-292.56c0-0.225,0.044-0.436,0.134-0.633c0.089-0.197,0.206-0.37,0.352-0.52
						c0.145-0.15,0.319-0.269,0.52-0.359c0.202-0.089,0.415-0.134,0.64-0.134s0.436,0.045,0.633,0.134
						c0.197,0.089,0.368,0.209,0.513,0.359c0.145,0.15,0.262,0.324,0.352,0.52c0.089,0.197,0.134,0.408,0.134,0.633
						s-0.045,0.438-0.134,0.64c-0.089,0.202-0.206,0.375-0.352,0.52c-0.146,0.146-0.316,0.263-0.513,0.352
						c-0.197,0.089-0.408,0.134-0.633,0.134s-0.438-0.044-0.64-0.134c-0.202-0.089-0.375-0.206-0.52-0.352
						c-0.146-0.145-0.263-0.319-0.352-0.52C47.445-292.122,47.401-292.335,47.401-292.56z M50.2-274.034h-2.363v-14.376H50.2
						V-274.034z"/>
					<path fill="#FFFFFF" d="M60.269-288.692c0.994,0,1.899,0.185,2.714,0.556c0.816,0.371,1.512,0.886,2.088,1.547
						s1.024,1.449,1.343,2.363c0.319,0.914,0.478,1.92,0.478,3.017c0,1.078-0.16,2.075-0.478,2.989
						c-0.319,0.914-0.766,1.702-1.343,2.363c-0.577,0.661-1.273,1.177-2.088,1.547c-0.816,0.37-1.721,0.556-2.714,0.556
						c-0.994,0-1.897-0.185-2.707-0.556c-0.811-0.37-1.507-0.886-2.088-1.547c-0.582-0.661-1.032-1.449-1.35-2.363
						c-0.319-0.914-0.478-1.911-0.478-2.989c0-1.097,0.159-2.103,0.478-3.017c0.319-0.914,0.769-1.702,1.35-2.363
						c0.581-0.661,1.277-1.177,2.088-1.547C58.373-288.507,59.276-288.692,60.269-288.692z M60.269-275.821
						c0.684,0,1.287-0.143,1.807-0.429c0.52-0.286,0.956-0.673,1.308-1.16c0.352-0.487,0.616-1.053,0.795-1.695
						c0.178-0.642,0.267-1.315,0.267-2.019v-0.169c0-0.722-0.089-1.407-0.267-2.054c-0.178-0.647-0.443-1.212-0.795-1.695
						c-0.352-0.483-0.788-0.867-1.308-1.153c-0.52-0.286-1.123-0.429-1.807-0.429c-0.684,0-1.287,0.143-1.807,0.429
						c-0.52,0.286-0.956,0.671-1.308,1.153c-0.352,0.483-0.617,1.048-0.795,1.695c-0.178,0.647-0.267,1.332-0.267,2.054v0.169
						c0,0.703,0.089,1.376,0.267,2.019c0.178,0.642,0.443,1.208,0.795,1.695c0.352,0.488,0.788,0.874,1.308,1.16
						C58.983-275.963,59.585-275.821,60.269-275.821z"/>
					<path fill="#FFFFFF" d="M70.353-288.41h2.363v1.646c0.487-0.666,1.09-1.153,1.807-1.463c0.717-0.309,1.517-0.464,2.398-0.464
						c0.797,0,1.495,0.132,2.096,0.394c0.6,0.263,1.102,0.619,1.505,1.069c0.403,0.45,0.705,0.971,0.907,1.561
						c0.202,0.591,0.302,1.215,0.302,1.871v9.762h-2.363v-9.017c0-0.628-0.077-1.165-0.232-1.611
						c-0.155-0.445-0.366-0.806-0.633-1.083c-0.267-0.276-0.582-0.478-0.942-0.605c-0.361-0.127-0.748-0.19-1.16-0.19
						c-0.45,0-0.893,0.082-1.329,0.246c-0.436,0.164-0.83,0.41-1.181,0.739c-0.352,0.328-0.635,0.741-0.851,1.238
						c-0.216,0.497-0.323,1.083-0.323,1.758v8.524h-2.363V-288.41z"/>
					<path fill="#FFFFFF" d="M95.556-278.015c0,0.675-0.148,1.278-0.443,1.808c-0.295,0.53-0.687,0.978-1.174,1.343
						c-0.488,0.366-1.048,0.642-1.681,0.83s-1.282,0.281-1.948,0.281c-1.05,0-2.06-0.181-3.031-0.542s-1.831-0.879-2.581-1.554
						l1.294-1.674c0.225,0.197,0.485,0.403,0.781,0.619c0.295,0.216,0.626,0.415,0.992,0.598c0.366,0.183,0.759,0.333,1.181,0.45
						c0.422,0.117,0.867,0.176,1.336,0.176c0.384,0,0.752-0.049,1.104-0.148c0.352-0.098,0.659-0.244,0.921-0.436
						c0.262-0.192,0.471-0.422,0.626-0.689s0.232-0.57,0.232-0.907c0-0.375-0.082-0.689-0.246-0.942
						c-0.164-0.253-0.387-0.469-0.668-0.647c-0.281-0.178-0.61-0.333-0.984-0.464c-0.375-0.131-0.769-0.262-1.181-0.394l-0.9-0.295
						c-0.506-0.169-0.994-0.361-1.463-0.577c-0.469-0.216-0.884-0.48-1.245-0.795c-0.361-0.314-0.647-0.687-0.858-1.118
						c-0.211-0.431-0.316-0.947-0.316-1.547c0-0.487,0.103-0.973,0.309-1.456c0.206-0.483,0.522-0.916,0.949-1.301
						c0.427-0.384,0.968-0.696,1.624-0.935c0.656-0.239,1.43-0.359,2.321-0.359c0.984,0,1.896,0.164,2.735,0.492
						c0.839,0.328,1.549,0.736,2.131,1.224l-1.238,1.702c-0.206-0.197-0.45-0.384-0.731-0.563c-0.281-0.178-0.582-0.335-0.9-0.471
						c-0.319-0.136-0.652-0.246-0.999-0.331c-0.347-0.084-0.689-0.127-1.027-0.127c-0.516,0-0.952,0.059-1.308,0.176
						c-0.357,0.117-0.642,0.27-0.858,0.457c-0.216,0.188-0.373,0.399-0.471,0.633c-0.098,0.234-0.148,0.464-0.148,0.689
						c0,0.328,0.07,0.603,0.211,0.823c0.141,0.22,0.326,0.41,0.556,0.57c0.23,0.16,0.492,0.295,0.788,0.408
						c0.295,0.113,0.602,0.225,0.921,0.338l1.181,0.394c0.563,0.188,1.078,0.387,1.547,0.598c0.469,0.211,0.881,0.452,1.238,0.724
						c0.45,0.357,0.799,0.769,1.048,1.238C95.431-279.248,95.556-278.681,95.556-278.015z"/>
				</g>
				<polygon id="Tag" fill="#FFFFFF" points="-331.878,-309.481 -214.188,-309.481 -214.188,-335.304 -331.878,-335.304 				"/>
				<g enable-background="new    ">
					<path fill="#912B88" d="M-314.004-322.459c0,1.032-0.139,1.972-0.418,2.821c-0.279,0.849-0.695,1.575-1.249,2.177
						c-0.554,0.603-1.248,1.069-2.081,1.398c-0.833,0.33-1.807,0.495-2.922,0.495h-5.074v-13.784h5.074
						c1.115,0,2.089,0.165,2.922,0.495c0.833,0.33,1.526,0.796,2.081,1.398c0.554,0.603,0.971,1.328,1.249,2.177
						C-314.143-324.431-314.004-323.49-314.004-322.459z M-316.897-322.728c0-0.583-0.072-1.126-0.216-1.629
						c-0.144-0.503-0.375-0.94-0.692-1.312c-0.317-0.372-0.729-0.665-1.235-0.879c-0.506-0.215-1.118-0.322-1.836-0.322h-2.085
						v8.824h2.085c0.711,0,1.32-0.107,1.826-0.322c0.506-0.215,0.918-0.509,1.235-0.884c0.317-0.375,0.549-0.815,0.697-1.322
						c0.147-0.506,0.221-1.048,0.221-1.624V-322.728z"/>
					<path fill="#912B88" d="M-311.755-329.351h2.787v13.784h-2.787V-329.351z"/>
					<path fill="#912B88" d="M-305.163-319.44c0.179,0.205,0.397,0.407,0.654,0.606c0.256,0.199,0.54,0.377,0.851,0.534
						c0.311,0.157,0.649,0.282,1.014,0.375c0.365,0.093,0.759,0.139,1.182,0.139c0.788,0,1.392-0.165,1.812-0.495
						c0.42-0.33,0.629-0.732,0.629-1.206c0-0.493-0.184-0.868-0.553-1.125c-0.368-0.256-0.953-0.458-1.754-0.606l-0.432-0.077
						c-0.577-0.102-1.15-0.237-1.72-0.404c-0.57-0.166-1.086-0.407-1.547-0.721c-0.461-0.314-0.836-0.716-1.124-1.206
						c-0.288-0.49-0.432-1.11-0.432-1.86c0-0.436,0.096-0.892,0.288-1.37s0.498-0.916,0.918-1.317c0.42-0.4,0.961-0.729,1.624-0.985
						c0.663-0.256,1.466-0.384,2.407-0.384c1.115,0,2.109,0.184,2.984,0.553c0.875,0.369,1.581,0.854,2.119,1.456l-1.855,1.73
						c-0.378-0.416-0.863-0.743-1.456-0.98c-0.593-0.237-1.203-0.356-1.831-0.356c-0.724,0-1.289,0.138-1.696,0.413
						c-0.407,0.276-0.61,0.634-0.61,1.077c0,0.288,0.066,0.529,0.197,0.721c0.131,0.192,0.315,0.351,0.553,0.476
						c0.237,0.125,0.522,0.229,0.855,0.312c0.333,0.083,0.705,0.167,1.115,0.25l0.221,0.038c0.551,0.103,1.099,0.232,1.643,0.389
						c0.545,0.157,1.039,0.388,1.485,0.692c0.445,0.305,0.806,0.702,1.081,1.192c0.275,0.49,0.413,1.117,0.413,1.879
						c0,0.692-0.144,1.304-0.432,1.836c-0.288,0.532-0.67,0.985-1.144,1.36c-0.474,0.375-1.022,0.657-1.643,0.846
						c-0.622,0.189-1.269,0.284-1.941,0.284c-0.679,0-1.309-0.058-1.888-0.173c-0.58-0.115-1.105-0.279-1.576-0.49
						c-0.471-0.211-0.891-0.449-1.259-0.711c-0.368-0.263-0.69-0.545-0.966-0.846L-305.163-319.44z"/>
					<path fill="#912B88" d="M-294.457-322.459c0-0.987,0.149-1.911,0.447-2.773c0.298-0.862,0.726-1.611,1.283-2.249
						c0.557-0.637,1.233-1.14,2.028-1.509c0.794-0.369,1.688-0.553,2.681-0.553c0.717,0,1.382,0.093,1.994,0.279
						c0.612,0.186,1.163,0.449,1.653,0.788c0.49,0.34,0.911,0.75,1.264,1.23c0.352,0.481,0.631,1.019,0.836,1.615l-2.681,0.894
						c-0.077-0.256-0.199-0.52-0.365-0.793c-0.167-0.272-0.378-0.519-0.634-0.74c-0.256-0.221-0.556-0.402-0.899-0.543
						c-0.343-0.141-0.726-0.211-1.148-0.211c-0.634,0-1.177,0.13-1.629,0.389c-0.452,0.26-0.822,0.603-1.11,1.029
						c-0.288,0.426-0.501,0.91-0.639,1.451c-0.138,0.542-0.207,1.094-0.207,1.658v0.077c0,0.57,0.069,1.126,0.207,1.668
						c0.138,0.542,0.351,1.024,0.639,1.447s0.658,0.764,1.11,1.024c0.452,0.259,0.995,0.389,1.629,0.389
						c0.423,0,0.806-0.07,1.148-0.211c0.343-0.141,0.642-0.322,0.899-0.543c0.256-0.221,0.468-0.466,0.634-0.735
						c0.167-0.269,0.288-0.532,0.365-0.788l2.681,0.884c-0.205,0.596-0.484,1.134-0.836,1.615c-0.352,0.481-0.774,0.893-1.264,1.235
						c-0.49,0.343-1.041,0.605-1.653,0.788c-0.612,0.182-1.277,0.274-1.994,0.274c-0.993,0-1.887-0.183-2.681-0.548
						c-0.794-0.365-1.47-0.868-2.028-1.509c-0.557-0.641-0.985-1.391-1.283-2.249C-294.308-320.539-294.457-321.465-294.457-322.459
						z"/>
					<path fill="#912B88" d="M-274.381-329.543c1.025,0,1.944,0.184,2.758,0.553c0.814,0.369,1.504,0.871,2.071,1.509
						c0.567,0.638,0.999,1.388,1.297,2.249c0.298,0.862,0.447,1.786,0.447,2.773c0,0.993-0.149,1.919-0.447,2.778
						c-0.298,0.859-0.73,1.609-1.297,2.249c-0.567,0.641-1.257,1.144-2.071,1.509c-0.814,0.365-1.733,0.548-2.758,0.548
						c-1.032,0-1.953-0.183-2.763-0.548c-0.811-0.365-1.499-0.868-2.066-1.509c-0.567-0.641-0.999-1.391-1.297-2.249
						c-0.298-0.859-0.447-1.785-0.447-2.778c0-0.987,0.149-1.911,0.447-2.773c0.298-0.862,0.73-1.611,1.297-2.249
						c0.567-0.637,1.256-1.14,2.066-1.509C-276.333-329.359-275.412-329.543-274.381-329.543z M-274.381-317.893
						c0.602,0,1.132-0.114,1.59-0.341c0.458-0.227,0.844-0.543,1.158-0.947c0.314-0.404,0.551-0.881,0.711-1.432
						c0.16-0.551,0.24-1.153,0.24-1.807v-0.077c0-0.647-0.08-1.248-0.24-1.802c-0.16-0.554-0.397-1.033-0.711-1.437
						c-0.314-0.404-0.7-0.719-1.158-0.947c-0.458-0.227-0.988-0.341-1.59-0.341c-0.602,0-1.134,0.114-1.595,0.341
						c-0.461,0.227-0.847,0.543-1.158,0.947c-0.311,0.404-0.546,0.883-0.706,1.437c-0.16,0.554-0.24,1.155-0.24,1.802v0.077
						c0,0.654,0.08,1.256,0.24,1.807c0.16,0.551,0.396,1.029,0.706,1.432c0.311,0.404,0.697,0.72,1.158,0.947
						C-275.515-318.007-274.983-317.893-274.381-317.893z"/>
					<path fill="#912B88" d="M-262.848-315.567l-3.892-13.784h3.123l2.662,10.362h0.096l2.604-10.362h3.085l-3.892,13.784H-262.848z
						"/>
					<path fill="#912B88" d="M-253.392-329.351h9.284v2.528h-6.497v2.932h5.987v2.518h-5.987v3.287h6.871v2.518h-9.658V-329.351z"/>
					<path fill="#912B88" d="M-241.542-329.351h5.334c0.82,0,1.544,0.119,2.172,0.356c0.628,0.237,1.153,0.554,1.576,0.952
						c0.423,0.397,0.743,0.854,0.961,1.37c0.218,0.516,0.327,1.056,0.327,1.62c0,0.455-0.069,0.886-0.207,1.293
						c-0.138,0.407-0.327,0.775-0.567,1.105c-0.24,0.33-0.524,0.615-0.851,0.856c-0.327,0.24-0.679,0.428-1.057,0.562l3.018,5.671
						h-3.21l-2.499-4.96h-2.21v4.96h-2.787V-329.351z M-234.085-324.958c0-0.275-0.05-0.532-0.149-0.769
						c-0.099-0.237-0.25-0.442-0.452-0.615c-0.202-0.173-0.453-0.308-0.754-0.404c-0.301-0.096-0.65-0.144-1.048-0.144h-2.268v3.883
						h2.268c0.397,0,0.746-0.049,1.048-0.149c0.301-0.099,0.553-0.237,0.754-0.413s0.352-0.383,0.452-0.62
						C-234.135-324.426-234.085-324.682-234.085-324.958z"/>
					<path fill="#912B88" d="M-227.588-329.351l2.797,5.316h0.038l2.854-5.316h3.123l-4.603,8.17v5.614h-2.816v-5.614l-4.603-8.17
						H-227.588z"/>
				</g>
			</g>
			<g enable-background="new    ">
				<path fill="#FFFFFF" d="M169.507,401.137h-36.095l-5.506,18.085H106.97l31.88-97.497h25.899l32.356,97.497h-22.024
					L169.507,401.137z M138.714,383.732h25.491l-12.643-41.202h-0.272L138.714,383.732z"/>
				<path fill="#FFFFFF" d="M211.583,395.956c2.673,2.406,5.868,4.471,9.585,6.197c3.715,1.725,7.477,2.588,11.284,2.588
					c2.764,0,4.939-0.532,6.526-1.598c1.586-1.064,2.379-2.436,2.379-4.113c0-2.856-3.059-5.076-9.177-6.663l-5.302-1.428
					c-2.629-0.634-5.28-1.506-7.953-2.618c-2.674-1.11-5.132-2.572-7.375-4.385c-2.243-1.812-4.056-4.022-5.438-6.629
					c-1.383-2.606-2.073-5.813-2.073-9.62c0-3.036,0.668-5.926,2.005-8.669c1.336-2.742,3.239-5.155,5.71-7.241
					c2.469-2.084,5.472-3.739,9.007-4.963c3.535-1.224,7.477-1.836,11.828-1.836c6.208,0,11.748,0.975,16.62,2.924
					c4.871,1.949,8.711,4.147,11.522,6.595l-9.788,12.452c-2.311-1.68-5.042-3.121-8.191-4.324c-3.15-1.203-6.311-1.805-9.483-1.805
					c-2.946,0-5.234,0.536-6.865,1.607c-1.631,1.071-2.447,2.358-2.447,3.862c0,1.596,0.714,2.884,2.141,3.864
					c1.427,0.98,3.501,1.836,6.22,2.564l7.885,2.244c7.522,2.131,12.915,5.009,16.178,8.635c3.263,3.627,4.894,8.204,4.894,13.734
					c0,3.083-0.635,6.017-1.903,8.805c-1.269,2.788-3.127,5.269-5.574,7.445s-5.484,3.887-9.109,5.133
					c-3.626,1.246-7.749,1.87-12.371,1.87c-3.535,0-6.855-0.318-9.958-0.952c-3.105-0.634-5.982-1.506-8.633-2.618
					c-2.651-1.11-5.042-2.368-7.171-3.773c-2.131-1.404-3.943-2.81-5.438-4.215L211.583,395.956z"/>
				<path fill="#FFFFFF" d="M292.134,374.961l24.267-28.556h23.383l-26.306,29.779l27.054,43.037h-22.568l-18.149-29.643
					l-7.681,8.363v21.281h-18.761v-97.497h18.761V374.961z"/>
				<path fill="#FFFFFF" d="M436.853,395.426l8.905-49.02h19.849l-16.79,72.817h-22.296l-10.876-47.321l-11.556,47.321h-21.956
					l-16.858-72.817h20.461l8.633,49.02l12.643-49.02h17.945L436.853,395.426z"/>
				<path fill="#FFFFFF" d="M476.211,321.726h18.761v30.935c0.996-0.997,2.118-1.96,3.365-2.89c1.246-0.929,2.617-1.744,4.113-2.448
					c1.495-0.702,3.161-1.268,4.996-1.7c1.835-0.43,3.863-0.646,6.084-0.646c3.943,0,7.477,0.646,10.604,1.938
					c3.127,1.292,5.766,3.071,7.919,5.337c2.152,2.267,3.795,4.919,4.928,7.955c1.132,3.037,1.699,6.323,1.699,9.858v49.156h-18.761
					v-42.357c0-2.584-0.295-4.77-0.884-6.561c-0.59-1.79-1.393-3.24-2.413-4.351c-1.02-1.11-2.221-1.926-3.603-2.448
					c-1.383-0.52-2.889-0.782-4.52-0.782c-1.903,0-3.682,0.34-5.336,1.02c-1.655,0.68-3.093,1.711-4.316,3.094
					c-1.224,1.383-2.175,3.117-2.855,5.201c-0.68,2.085-1.02,4.533-1.02,7.343v39.842h-18.761V321.726z"/>
				<path fill="#FFFFFF" d="M594.828,412.355c-0.771,0.862-1.711,1.779-2.821,2.754c-1.111,0.975-2.425,1.859-3.943,2.652
					c-1.519,0.794-3.297,1.462-5.336,2.006s-4.328,0.816-6.865,0.816c-3.626,0-6.967-0.578-10.026-1.734
					c-3.059-1.156-5.744-2.776-8.055-4.861c-2.311-2.084-4.124-4.498-5.438-7.241c-1.315-2.742-1.971-5.722-1.971-8.941
					c0-5.847,1.812-10.629,5.438-14.346c3.625-3.716,8.633-6.051,15.023-7.003l20.936-3.06v-1.36c0-3.263-0.997-5.847-2.991-7.751
					c-1.995-1.904-5.234-2.856-9.72-2.856c-1.859,0-3.739,0.216-5.642,0.646c-1.903,0.431-3.728,0.918-5.472,1.462
					c-1.745,0.544-3.365,1.168-4.86,1.87c-1.495,0.703-2.81,1.326-3.943,1.87l-7.341-14.346c4.169-2.312,8.803-4.215,13.901-5.711
					s10.388-2.244,15.872-2.244c3.353,0,6.74,0.352,10.162,1.054c3.421,0.703,6.526,1.983,9.313,3.841
					c2.787,1.859,5.064,4.385,6.831,7.581c1.767,3.195,2.651,7.264,2.651,12.204v29.915c0,2.131,0.554,3.705,1.665,4.725
					c1.11,1.02,2.639,1.961,4.588,2.822l-8.497,13.462c-3.444-0.363-6.209-1.258-8.293-2.686
					C597.909,416.469,596.187,414.622,594.828,412.355z M577.79,389.647c-2.32,0.363-4.184,1.168-5.592,2.414
					c-1.409,1.247-2.114,2.935-2.114,5.065c0,2.357,0.864,4.385,2.591,6.085c1.727,1.7,4.273,2.55,7.638,2.55
					c3.545,0,6.342-1.02,8.387-3.06c2.046-2.04,3.068-4.736,3.068-8.091v-7.343L577.79,389.647z"/>
				<path fill="#FFFFFF" d="M650.227,397.534c0,0.862,0.112,1.677,0.34,2.448c0.226,0.771,0.622,1.439,1.19,2.006
					c0.566,0.567,1.37,1.009,2.413,1.326c1.042,0.318,2.379,0.476,4.01,0.476c0.68,0,1.45-0.034,2.311-0.102
					c0.86-0.068,1.722-0.147,2.583-0.238c0.86-0.09,1.665-0.204,2.413-0.34s1.37-0.249,1.869-0.34l1.699,16.589
					c-1.767,0.226-3.603,0.43-5.506,0.612c-1.631,0.181-3.444,0.328-5.438,0.442c-1.995,0.113-4.011,0.17-6.05,0.17
					c-6.481,0-11.534-1.472-15.158-4.419c-3.626-2.946-5.438-7.637-5.438-14.074v-39.366h-13.119v-16.317h13.119v-20.601
					l18.761-5.031v25.632h19.101v16.317h-19.101V397.534z"/>
			</g>
			<g enable-background="new    ">
				<path fill="#FFFFFF" d="M132.46,581.445h-18.761v-95.797h18.761v6.255c2.039-2.13,4.554-3.943,7.545-5.439
					s6.616-2.244,10.876-2.244c4.803,0,9.165,0.964,13.085,2.89c3.919,1.927,7.284,4.579,10.094,7.955
					c2.809,3.377,4.984,7.377,6.526,12c1.54,4.623,2.311,9.632,2.311,15.026c0,5.395-0.793,10.402-2.379,15.026
					c-1.587,4.623-3.807,8.612-6.662,11.966c-2.855,3.355-6.277,5.983-10.264,7.887c-3.988,1.904-8.384,2.856-13.187,2.856
					c-2.131,0-4.068-0.193-5.812-0.578c-1.745-0.386-3.342-0.918-4.792-1.598c-1.451-0.68-2.787-1.484-4.011-2.414
					c-1.224-0.928-2.334-1.938-3.331-3.026V581.445z M131.916,528.821c0,1.949,0.351,3.751,1.054,5.405
					c0.702,1.655,1.71,3.094,3.025,4.317c1.314,1.224,2.889,2.176,4.724,2.856c1.835,0.68,3.909,1.02,6.22,1.02
					c2.673,0,5.041-0.487,7.103-1.462c2.062-0.974,3.795-2.346,5.2-4.113c1.404-1.768,2.469-3.864,3.195-6.289
					c0.724-2.424,1.088-5.087,1.088-7.989v-0.884c0-2.9-0.363-5.575-1.088-8.023c-0.725-2.448-1.791-4.566-3.195-6.357
					c-1.405-1.79-3.139-3.184-5.2-4.181c-2.063-0.996-4.43-1.496-7.103-1.496c-2.311,0-4.384,0.34-6.22,1.02
					c-1.835,0.68-3.41,1.632-4.724,2.856c-1.315,1.224-2.323,2.675-3.025,4.351c-0.703,1.677-1.054,3.491-1.054,5.439V528.821z"/>
				<path fill="#FFFFFF" d="M211.108,528.549c0.318,2.186,1.01,4.19,2.076,6.011c1.066,1.822,2.417,3.381,4.052,4.68
					c1.635,1.298,3.519,2.31,5.653,3.039c2.134,0.729,4.405,1.092,6.811,1.092c2.769,0,5.765-0.533,8.989-1.6
					c3.223-1.067,6.175-2.622,8.854-4.665l9.041,13.132c-3.403,2.856-7.576,5.167-12.521,6.935
					c-4.945,1.768-10.207,2.652-15.786,2.652c-5.036,0-9.776-0.862-14.222-2.584c-4.446-1.722-8.335-4.215-11.669-7.479
					c-3.335-3.263-5.966-7.229-7.894-11.898c-1.929-4.668-2.892-9.926-2.892-15.773c0-5.348,0.85-10.334,2.551-14.958
					c1.701-4.623,4.083-8.635,7.145-12.034c3.061-3.399,6.724-6.062,10.989-7.989c4.263-1.926,8.981-2.89,14.153-2.89
					c4.808,0,9.277,0.873,13.405,2.618c4.127,1.745,7.711,4.193,10.751,7.343c3.039,3.151,5.42,6.924,7.144,11.32
					c1.724,4.397,2.586,9.247,2.586,14.55v8.499H211.108z M226.334,500.537c-4.034,0-7.443,1.349-10.23,4.045
					c-2.787,2.697-4.408,5.949-4.86,9.756h29.365c-0.091-3.852-1.495-7.115-4.214-9.79
					C233.675,501.875,230.321,500.537,226.334,500.537z"/>
				<path fill="#FFFFFF" d="M304.234,484.22c5.392,0,10.287,0.964,14.683,2.89c4.395,1.927,8.157,4.589,11.284,7.989
					c3.127,3.399,5.54,7.411,7.239,12.034c1.699,4.623,2.549,9.61,2.549,14.958c0,5.395-0.861,10.392-2.583,14.992
					c-1.723,4.601-4.146,8.578-7.273,11.932c-3.127,3.355-6.889,5.995-11.284,7.921c-4.396,1.926-9.268,2.89-14.615,2.89
					c-5.393,0-10.288-0.964-14.683-2.89c-4.396-1.926-8.157-4.566-11.284-7.921c-3.127-3.354-5.552-7.331-7.273-11.932
					c-1.723-4.6-2.583-9.597-2.583-14.992c0-5.348,0.85-10.334,2.549-14.958c1.699-4.623,4.113-8.635,7.239-12.034
					c3.127-3.399,6.899-6.062,11.318-7.989C293.935,485.184,298.84,484.22,304.234,484.22z M304.234,542.419
					c2.673,0,5.041-0.498,7.103-1.496c2.062-0.996,3.795-2.38,5.2-4.147c1.404-1.768,2.469-3.886,3.195-6.357
					c0.724-2.47,1.088-5.178,1.088-8.125v-0.476c0-2.946-0.363-5.654-1.088-8.125c-0.725-2.47-1.791-4.6-3.195-6.391
					c-1.405-1.79-3.139-3.184-5.2-4.181c-2.063-0.996-4.43-1.496-7.103-1.496c-2.674,0-5.042,0.499-7.103,1.496
					c-2.063,0.998-3.796,2.391-5.2,4.181c-1.405,1.791-2.471,3.921-3.195,6.391c-0.725,2.471-1.088,5.179-1.088,8.125v0.476
					c0,2.947,0.362,5.655,1.088,8.125c0.724,2.471,1.79,4.589,3.195,6.357c1.404,1.768,3.137,3.151,5.2,4.147
					C299.192,541.921,301.559,542.419,304.234,542.419z"/>
				<path fill="#FFFFFF" d="M371.189,581.445h-18.761v-95.797h18.761v6.255c2.039-2.13,4.554-3.943,7.545-5.439
					s6.616-2.244,10.876-2.244c4.803,0,9.165,0.964,13.085,2.89c3.919,1.927,7.284,4.579,10.094,7.955
					c2.809,3.377,4.984,7.377,6.526,12c1.54,4.623,2.311,9.632,2.311,15.026c0,5.395-0.793,10.402-2.379,15.026
					c-1.587,4.623-3.807,8.612-6.662,11.966c-2.855,3.355-6.277,5.983-10.264,7.887c-3.988,1.904-8.384,2.856-13.187,2.856
					c-2.131,0-4.068-0.193-5.812-0.578c-1.745-0.386-3.342-0.918-4.792-1.598c-1.451-0.68-2.787-1.484-4.011-2.414
					c-1.224-0.928-2.335-1.938-3.331-3.026V581.445z M370.645,528.821c0,1.949,0.35,3.751,1.054,5.405
					c0.702,1.655,1.71,3.094,3.025,4.317c1.314,1.224,2.889,2.176,4.724,2.856c1.835,0.68,3.909,1.02,6.22,1.02
					c2.673,0,5.041-0.487,7.103-1.462c2.062-0.974,3.795-2.346,5.2-4.113c1.404-1.768,2.469-3.864,3.195-6.289
					c0.724-2.424,1.088-5.087,1.088-7.989v-0.884c0-2.9-0.363-5.575-1.088-8.023c-0.725-2.448-1.791-4.566-3.195-6.357
					c-1.405-1.79-3.139-3.184-5.2-4.181c-2.063-0.996-4.43-1.496-7.103-1.496c-2.311,0-4.384,0.34-6.22,1.02
					c-1.835,0.68-3.41,1.632-4.724,2.856c-1.315,1.224-2.323,2.675-3.025,4.351c-0.703,1.677-1.054,3.491-1.054,5.439V528.821z"/>
				<path fill="#FFFFFF" d="M433.862,460.968h18.761v77.648c0,1.54,0.442,2.717,1.326,3.532c0.884,0.816,2.299,1.223,4.248,1.223
					c0.906,0,1.688-0.056,2.345-0.17c0.656-0.113,1.506-0.283,2.549-0.509l1.495,16.044c-1.269,0.18-2.629,0.362-4.079,0.544
					c-1.224,0.136-2.641,0.26-4.248,0.374c-1.609,0.112-3.275,0.17-4.996,0.17c-2.674,0-5.076-0.34-7.205-1.02
					c-2.131-0.68-3.954-1.688-5.472-3.026c-1.519-1.336-2.685-3.002-3.501-4.997c-0.816-1.994-1.224-4.306-1.224-6.935V460.968z"/>
				<path fill="#FFFFFF" d="M490.622,528.549c0.318,2.186,1.01,4.19,2.077,6.011c1.066,1.822,2.417,3.381,4.052,4.68
					c1.635,1.298,3.519,2.31,5.653,3.039c2.134,0.729,4.405,1.092,6.811,1.092c2.769,0,5.765-0.533,8.989-1.6
					c3.223-1.067,6.175-2.622,8.854-4.665l9.041,13.132c-3.403,2.856-7.576,5.167-12.521,6.935
					c-4.945,1.768-10.207,2.652-15.786,2.652c-5.036,0-9.776-0.862-14.222-2.584s-8.336-4.215-11.669-7.479
					c-3.335-3.263-5.966-7.229-7.894-11.898c-1.929-4.668-2.892-9.926-2.892-15.773c0-5.348,0.85-10.334,2.551-14.958
					c1.702-4.623,4.083-8.635,7.145-12.034c3.061-3.399,6.724-6.062,10.989-7.989c4.263-1.926,8.981-2.89,14.153-2.89
					c4.808,0,9.277,0.873,13.405,2.618c4.127,1.745,7.711,4.193,10.751,7.343c3.039,3.151,5.42,6.924,7.144,11.32
					c1.724,4.397,2.586,9.247,2.586,14.55v8.499H490.622z M505.848,500.537c-4.034,0-7.443,1.349-10.23,4.045
					c-2.787,2.697-4.408,5.949-4.86,9.756h29.365c-0.091-3.852-1.495-7.115-4.214-9.79
					C513.189,501.875,509.835,500.537,505.848,500.537z"/>
				<path fill="#FFFFFF" d="M623.581,558.464v-6.255c-0.997,1.088-2.097,2.097-3.297,3.026c-1.201,0.93-2.539,1.734-4.01,2.414
					c-1.473,0.68-3.082,1.212-4.826,1.598c-1.745,0.385-3.682,0.578-5.812,0.578c-4.804,0-9.2-0.952-13.187-2.856
					c-3.988-1.904-7.409-4.532-10.264-7.887c-2.855-3.354-5.064-7.343-6.628-11.966c-1.563-4.623-2.345-9.631-2.345-15.026
					c0-5.393,0.77-10.402,2.311-15.026c1.54-4.623,3.705-8.623,6.492-12c2.787-3.376,6.152-6.028,10.094-7.955
					c3.943-1.926,8.315-2.89,13.119-2.89c4.259,0,7.873,0.737,10.842,2.21c2.967,1.473,5.472,3.297,7.511,5.473v-30.935h18.761
					v97.497H623.581z M624.125,515.291c0-1.948-0.35-3.762-1.052-5.439c-0.701-1.676-1.708-3.128-3.019-4.351
					c-1.312-1.224-2.884-2.176-4.715-2.856c-1.831-0.68-3.9-1.02-6.206-1.02c-2.668,0-5.03,0.499-7.087,1.496
					c-2.058,0.998-3.788,2.391-5.19,4.181c-1.402,1.791-2.464,3.909-3.187,6.357c-0.724,2.448-1.086,5.123-1.086,8.023v0.884
					c0,2.901,0.361,5.565,1.086,7.989c0.723,2.425,1.785,4.521,3.187,6.289c1.402,1.768,3.131,3.139,5.19,4.113
					c2.057,0.975,4.419,1.462,7.087,1.462c2.306,0,4.375-0.34,6.206-1.02c1.831-0.68,3.403-1.632,4.715-2.856
					c1.311-1.224,2.317-2.662,3.019-4.317c0.701-1.654,1.052-3.456,1.052-5.405V515.291z"/>
				<path fill="#FFFFFF" d="M690.537,484.22c5.392,0,10.287,0.964,14.683,2.89c4.395,1.927,8.157,4.589,11.284,7.989
					c3.127,3.399,5.54,7.411,7.239,12.034c1.699,4.623,2.549,9.61,2.549,14.958c0,5.395-0.861,10.392-2.583,14.992
					c-1.723,4.601-4.146,8.578-7.273,11.932c-3.127,3.355-6.889,5.995-11.284,7.921c-4.396,1.926-9.268,2.89-14.615,2.89
					c-5.393,0-10.288-0.964-14.683-2.89c-4.396-1.926-8.157-4.566-11.284-7.921c-3.127-3.354-5.552-7.331-7.273-11.932
					c-1.723-4.6-2.583-9.597-2.583-14.992c0-5.348,0.85-10.334,2.549-14.958c1.699-4.623,4.113-8.635,7.239-12.034
					c3.127-3.399,6.899-6.062,11.318-7.989C680.238,485.184,685.143,484.22,690.537,484.22z M690.537,542.419
					c2.673,0,5.041-0.498,7.103-1.496c2.062-0.996,3.795-2.38,5.2-4.147c1.404-1.768,2.469-3.886,3.195-6.357
					c0.724-2.47,1.088-5.178,1.088-8.125v-0.476c0-2.946-0.363-5.654-1.088-8.125c-0.725-2.47-1.791-4.6-3.195-6.391
					c-1.405-1.79-3.139-3.184-5.2-4.181c-2.063-0.996-4.43-1.496-7.103-1.496c-2.674,0-5.042,0.499-7.103,1.496
					c-2.063,0.998-3.796,2.391-5.2,4.181c-1.405,1.791-2.471,3.921-3.195,6.391c-0.725,2.471-1.088,5.179-1.088,8.125v0.476
					c0,2.947,0.362,5.655,1.088,8.125c0.724,2.471,1.79,4.589,3.195,6.357c1.404,1.768,3.137,3.151,5.2,4.147
					C685.495,541.921,687.862,542.419,690.537,542.419z"/>
			</g>
			<g enable-background="new    ">
				<path fill="#FFFFFF" d="M130.693,719.331v83.287h-11.692v-97.497h16.382l51.389,83.287v-83.287h11.692v97.497h-16.45
					L130.693,719.331z"/>
				<path fill="#FFFFFF" d="M248.562,731.773c4.803,0,9.177,0.896,13.119,2.686c3.943,1.791,7.307,4.283,10.094,7.479
					c2.787,3.195,4.95,7.003,6.492,11.422c1.54,4.419,2.311,9.281,2.311,14.584c0,5.213-0.771,10.028-2.311,14.448
					c-1.541,4.419-3.705,8.227-6.492,11.422c-2.787,3.195-6.152,5.689-10.094,7.479s-8.316,2.686-13.119,2.686
					c-4.804,0-9.166-0.896-13.085-2.686c-3.92-1.79-7.285-4.283-10.094-7.479c-2.81-3.195-4.986-7.003-6.526-11.422
					c-1.541-4.419-2.311-9.235-2.311-14.448c0-5.303,0.77-10.164,2.311-14.584c1.54-4.419,3.715-8.227,6.526-11.422
					c2.809-3.195,6.174-5.688,10.094-7.479C239.396,732.669,243.758,731.773,248.562,731.773z M248.562,793.984
					c3.307,0,6.22-0.69,8.735-2.074c2.515-1.382,4.622-3.252,6.322-5.609c1.699-2.356,2.979-5.087,3.841-8.193
					c0.86-3.104,1.292-6.357,1.292-9.756v-0.816c0-3.49-0.431-6.799-1.292-9.926c-0.861-3.128-2.141-5.858-3.841-8.193
					c-1.699-2.334-3.807-4.192-6.322-5.575c-2.515-1.382-5.427-2.074-8.735-2.074c-3.309,0-6.22,0.692-8.735,2.074
					c-2.515,1.383-4.622,3.241-6.322,5.575c-1.699,2.335-2.98,5.065-3.841,8.193c-0.861,3.128-1.292,6.437-1.292,9.926v0.816
					c0,3.399,0.43,6.652,1.292,9.756c0.86,3.105,2.141,5.836,3.841,8.193c1.699,2.357,3.807,4.227,6.322,5.609
					C242.342,793.293,245.253,793.984,248.562,793.984z"/>
				<path fill="#FFFFFF" d="M314.158,785.349c0,1.179,0.079,2.278,0.238,3.297c0.158,1.02,0.544,1.915,1.156,2.686
					c0.612,0.771,1.506,1.383,2.685,1.836c1.178,0.454,2.787,0.68,4.826,0.68c0.544,0,1.19-0.022,1.937-0.068
					c0.748-0.045,1.529-0.102,2.345-0.17c0.816-0.068,1.608-0.158,2.379-0.272c0.77-0.112,1.427-0.214,1.971-0.306l1.224,9.994
					c-1.315,0.181-2.674,0.34-4.078,0.476c-1.179,0.136-2.493,0.249-3.943,0.34c-1.451,0.09-2.901,0.136-4.35,0.136
					c-2.765,0-5.246-0.284-7.443-0.85c-2.199-0.566-4.068-1.484-5.608-2.754c-1.541-1.268-2.719-2.934-3.535-4.997
					c-0.816-2.062-1.224-4.566-1.224-7.513v-44.669h-13.119v-10.062h13.119v-22.708l11.42-4.011v26.72h19.305v10.062h-19.305
					V785.349z"/>
				<path fill="#FFFFFF" d="M432.639,789.088l12.575-55.955h12.1l-16.994,69.485h-14.615l-14.071-55.683l-14.343,55.683h-14.071
					l-16.858-69.485h12.303l12.1,55.955l14.615-55.955h12.915L432.639,789.088z"/>
				<path fill="#FFFFFF" d="M472.064,705.121h11.42v35.966c2.356-3.218,5.268-5.575,8.735-7.071c3.467-1.496,7.33-2.244,11.59-2.244
					c3.851,0,7.228,0.635,10.128,1.904c2.899,1.27,5.324,2.992,7.273,5.167c1.948,2.176,3.409,4.691,4.384,7.547
					c0.974,2.856,1.461,5.871,1.461,9.043v47.185h-11.42v-43.581c0-3.036-0.374-5.631-1.122-7.785
					c-0.748-2.152-1.767-3.898-3.059-5.235c-1.292-1.336-2.81-2.312-4.554-2.924c-1.745-0.612-3.614-0.918-5.608-0.918
					c-2.175,0-4.328,0.397-6.458,1.19c-2.131,0.794-4.034,1.983-5.71,3.569c-1.677,1.587-3.037,3.581-4.079,5.983
					c-1.043,2.403-1.563,5.235-1.563,8.499v41.202h-11.42V705.121z"/>
				<path fill="#FFFFFF" d="M586.875,795.683c-2.039,2.357-4.792,4.329-8.259,5.915c-3.467,1.586-7.535,2.38-12.202,2.38
					c-3.445,0-6.639-0.488-9.585-1.462c-2.946-0.974-5.506-2.368-7.681-4.181c-2.175-1.812-3.875-4.011-5.098-6.595
					c-1.224-2.584-1.835-5.507-1.835-8.771c0-2.72,0.442-5.201,1.326-7.445c0.884-2.244,2.129-4.204,3.739-5.881
					c1.608-1.676,3.545-3.048,5.812-4.113c2.265-1.064,4.803-1.802,7.613-2.21l24.539-3.331v-4.419c0-2.628-0.408-4.838-1.224-6.629
					c-0.816-1.79-1.915-3.206-3.297-4.249c-1.383-1.042-3.014-1.79-4.894-2.244c-1.881-0.453-3.909-0.68-6.084-0.68
					c-3.898,0-7.535,0.544-10.91,1.632c-3.376,1.088-6.424,2.357-9.143,3.807l-4.282-9.043c3.987-2.266,8.168-3.898,12.541-4.895
					c4.373-0.996,8.689-1.496,12.949-1.496c8.473,0,14.887,1.915,19.237,5.745c4.35,3.831,6.526,9.417,6.526,16.759v32.023
					c0,2.312,0.452,4.249,1.359,5.813c0.906,1.564,2.356,2.799,4.35,3.705l-6.458,8.159c-2.175-0.544-4.045-1.506-5.608-2.89
					c-1.563-1.382-2.663-3.048-3.297-4.997L586.875,795.683z M566.55,771.683c-1.903,0.272-3.637,0.658-5.2,1.156
					c-1.563,0.499-2.889,1.168-3.977,2.006c-1.088,0.839-1.937,1.87-2.549,3.094c-0.612,1.224-0.918,2.72-0.918,4.487
					c0,2.04,0.384,3.853,1.156,5.439c0.77,1.587,1.812,2.924,3.127,4.011c1.314,1.088,2.843,1.915,4.588,2.482
					c1.744,0.567,3.569,0.85,5.472,0.85c2.129,0,4.214-0.294,6.254-0.884c2.039-0.588,3.851-1.438,5.438-2.55
					c1.586-1.11,2.866-2.458,3.841-4.045c0.974-1.586,1.461-3.399,1.461-5.439v-13.394L566.55,771.683z"/>
				<path fill="#FFFFFF" d="M635.341,785.349c0,1.179,0.079,2.278,0.238,3.297c0.158,1.02,0.544,1.915,1.156,2.686
					c0.612,0.771,1.506,1.383,2.685,1.836c1.178,0.454,2.787,0.68,4.826,0.68c0.544,0,1.19-0.022,1.937-0.068
					c0.748-0.045,1.529-0.102,2.345-0.17c0.816-0.068,1.608-0.158,2.379-0.272c0.77-0.112,1.427-0.214,1.971-0.306l1.224,9.994
					c-1.315,0.181-2.674,0.34-4.078,0.476c-1.179,0.136-2.493,0.249-3.943,0.34c-1.451,0.09-2.901,0.136-4.35,0.136
					c-2.765,0-5.246-0.284-7.443-0.85c-2.199-0.566-4.068-1.484-5.608-2.754c-1.541-1.268-2.719-2.934-3.535-4.997
					c-0.816-2.062-1.224-4.566-1.224-7.513v-44.669h-13.119v-10.062h13.119v-22.708l11.42-4.011v26.72h19.305v10.062h-19.305
					V785.349z"/>
			</g>
			<g enable-background="new    ">
				<path fill="#FFFFFF" d="M134.024,924.591c0,1.179,0.079,2.278,0.238,3.297c0.158,1.02,0.544,1.915,1.156,2.686
					c0.612,0.771,1.506,1.383,2.685,1.836c1.178,0.454,2.787,0.68,4.826,0.68c0.544,0,1.19-0.022,1.937-0.068
					c0.748-0.044,1.529-0.102,2.345-0.17c0.816-0.068,1.608-0.158,2.379-0.272c0.77-0.113,1.427-0.215,1.971-0.306l1.224,9.994
					c-1.315,0.18-2.674,0.34-4.079,0.476c-1.179,0.136-2.493,0.249-3.943,0.34c-1.451,0.09-2.901,0.136-4.35,0.136
					c-2.765,0-5.246-0.284-7.443-0.85c-2.199-0.566-4.068-1.484-5.608-2.754c-1.541-1.268-2.719-2.934-3.535-4.997
					c-0.816-2.062-1.224-4.566-1.224-7.513v-44.669h-13.119v-10.062h13.119v-22.708l11.42-4.011v26.72h19.305v10.062h-19.305
					V924.591z"/>
				<path fill="#FFFFFF" d="M167.467,844.364h11.42v35.966c2.356-3.218,5.268-5.575,8.735-7.071s7.33-2.244,11.59-2.244
					c3.851,0,7.228,0.635,10.128,1.904c2.9,1.27,5.324,2.992,7.273,5.167c1.948,2.176,3.409,4.691,4.384,7.547
					c0.974,2.856,1.461,5.871,1.461,9.043v47.185h-11.42v-43.581c0-3.036-0.374-5.631-1.122-7.785
					c-0.748-2.152-1.767-3.898-3.059-5.235c-1.292-1.336-2.81-2.312-4.554-2.924c-1.745-0.612-3.614-0.918-5.608-0.918
					c-2.175,0-4.328,0.397-6.458,1.19c-2.131,0.794-4.034,1.983-5.71,3.569c-1.677,1.587-3.037,3.581-4.079,5.983
					c-1.043,2.403-1.563,5.235-1.563,8.499v41.202h-11.42V844.364z"/>
				<path fill="#FFFFFF" d="M250.533,910.653c0.226,3.263,0.884,6.278,1.971,9.043c1.088,2.765,2.571,5.157,4.452,7.173
					c1.88,2.017,4.101,3.581,6.662,4.691c2.56,1.111,5.404,1.666,8.531,1.666c3.851,0,7.239-0.646,10.162-1.938
					c2.923-1.292,5.608-2.912,8.055-4.861l5.846,8.227c-3.127,2.493-6.741,4.545-10.842,6.153c-4.102,1.608-8.69,2.414-13.765,2.414
					c-5.03,0-9.585-0.896-13.663-2.686c-4.079-1.79-7.557-4.283-10.434-7.479c-2.878-3.195-5.088-7.003-6.628-11.422
					c-1.541-4.419-2.311-9.235-2.311-14.448c0-5.303,0.758-10.164,2.277-14.584c1.518-4.419,3.659-8.227,6.424-11.422
					c2.764-3.195,6.072-5.688,9.924-7.479c3.851-1.79,8.134-2.686,12.847-2.686c4.577,0,8.701,0.896,12.371,2.686
					c3.671,1.791,6.798,4.283,9.381,7.479c2.583,3.195,4.565,7.003,5.948,11.422c1.382,4.419,2.073,9.236,2.073,14.448v3.603
					H250.533z M269.634,881.01c-2.901,0-5.484,0.567-7.749,1.7c-2.267,1.134-4.204,2.652-5.812,4.555
					c-1.609,1.904-2.878,4.091-3.807,6.561c-0.929,2.471-1.461,5.021-1.597,7.649h36.775c-0.091-2.674-0.556-5.246-1.393-7.717
					c-0.839-2.47-2.017-4.646-3.535-6.527c-1.519-1.88-3.354-3.388-5.506-4.521C274.857,881.577,272.398,881.01,269.634,881.01z"/>
				<path fill="#FFFFFF" d="M307.225,872.375h12.915l17.13,57.383l16.314-57.383h12.779l-25.287,79.955
					c-0.771,2.448-1.767,4.453-2.991,6.017c-1.224,1.564-2.617,2.81-4.18,3.739c-1.563,0.928-3.297,1.574-5.2,1.938
					c-1.903,0.362-3.92,0.544-6.05,0.544c-1.903,0-3.875-0.102-5.914-0.306c-2.039-0.204-4.192-0.488-6.458-0.85l1.699-9.994
					c0.906,0.181,1.88,0.34,2.923,0.476c0.86,0.136,1.835,0.249,2.923,0.34c1.088,0.09,2.197,0.136,3.331,0.136
					c2.492,0,4.429-0.544,5.812-1.632c1.382-1.088,2.367-2.856,2.957-5.303l0.68-3.195L307.225,872.375z"/>
				<path fill="#FFFFFF" d="M461.868,928.33l12.575-55.955h12.1l-16.994,69.485h-14.615l-14.071-55.683l-14.343,55.683H412.45
					l-16.858-69.485h12.303l12.1,55.955l14.615-55.955h12.915L461.868,928.33z"/>
				<path fill="#FFFFFF" d="M540.787,934.925c-2.039,2.357-4.792,4.329-8.259,5.915c-3.467,1.586-7.535,2.38-12.202,2.38
					c-3.444,0-6.639-0.488-9.585-1.462c-2.946-0.974-5.506-2.368-7.681-4.181c-2.175-1.812-3.875-4.011-5.098-6.595
					c-1.224-2.584-1.835-5.507-1.835-8.771c0-2.72,0.442-5.201,1.326-7.445s2.13-4.204,3.739-5.881
					c1.608-1.676,3.545-3.048,5.812-4.113c2.265-1.064,4.803-1.802,7.613-2.21l24.539-3.331v-4.419c0-2.628-0.408-4.838-1.224-6.629
					c-0.816-1.79-1.915-3.206-3.297-4.249c-1.383-1.042-3.014-1.79-4.894-2.244c-1.881-0.452-3.909-0.68-6.084-0.68
					c-3.898,0-7.535,0.544-10.91,1.632c-3.376,1.088-6.424,2.357-9.143,3.807l-4.282-9.043c3.987-2.266,8.168-3.898,12.541-4.895
					c4.373-0.996,8.689-1.496,12.949-1.496c8.473,0,14.887,1.915,19.237,5.745c4.35,3.831,6.526,9.417,6.526,16.759v32.023
					c0,2.312,0.452,4.249,1.359,5.813c0.906,1.564,2.356,2.799,4.35,3.705l-6.458,8.159c-2.175-0.544-4.044-1.506-5.608-2.89
					c-1.563-1.382-2.663-3.048-3.297-4.997L540.787,934.925z M520.463,910.925c-1.903,0.272-3.637,0.658-5.2,1.156
					c-1.563,0.499-2.889,1.168-3.977,2.006c-1.088,0.839-1.937,1.87-2.549,3.094c-0.612,1.224-0.918,2.72-0.918,4.487
					c0,2.04,0.384,3.853,1.156,5.439c0.77,1.587,1.812,2.924,3.127,4.011c1.314,1.088,2.843,1.915,4.588,2.482
					c1.744,0.567,3.569,0.85,5.472,0.85c2.13,0,4.214-0.294,6.254-0.884c2.039-0.588,3.851-1.438,5.438-2.55
					c1.586-1.11,2.865-2.458,3.841-4.045c0.974-1.586,1.461-3.399,1.461-5.439v-13.394L520.463,910.925z"/>
				<path fill="#FFFFFF" d="M571.308,872.375h11.42v7.955c2.356-3.218,5.268-5.575,8.735-7.071s7.33-2.244,11.59-2.244
					c3.851,0,7.228,0.635,10.128,1.904c2.9,1.27,5.324,2.992,7.273,5.167c1.948,2.176,3.409,4.691,4.384,7.547
					c0.974,2.856,1.461,5.871,1.461,9.043v47.185h-11.42v-43.581c0-3.036-0.374-5.631-1.122-7.785
					c-0.748-2.152-1.767-3.898-3.059-5.235c-1.292-1.336-2.81-2.312-4.554-2.924c-1.745-0.612-3.614-0.918-5.608-0.918
					c-2.175,0-4.316,0.397-6.424,1.19c-2.107,0.794-4.011,1.983-5.71,3.569c-1.699,1.587-3.071,3.581-4.112,5.983
					c-1.043,2.403-1.563,5.235-1.563,8.499v41.202h-11.42V872.375z"/>
				<path fill="#FFFFFF" d="M664.57,924.591c0,1.179,0.078,2.278,0.238,3.297c0.158,1.02,0.544,1.915,1.156,2.686
					c0.612,0.771,1.506,1.383,2.685,1.836c1.178,0.454,2.787,0.68,4.826,0.68c0.544,0,1.19-0.022,1.937-0.068
					c0.748-0.044,1.529-0.102,2.345-0.17c0.816-0.068,1.608-0.158,2.379-0.272c0.77-0.113,1.427-0.215,1.971-0.306l1.224,9.994
					c-1.315,0.18-2.674,0.34-4.079,0.476c-1.179,0.136-2.493,0.249-3.943,0.34c-1.451,0.09-2.901,0.136-4.35,0.136
					c-2.765,0-5.246-0.284-7.443-0.85c-2.199-0.566-4.068-1.484-5.608-2.754c-1.541-1.268-2.719-2.934-3.535-4.997
					c-0.816-2.062-1.224-4.566-1.224-7.513v-44.669h-13.119v-10.062h13.119v-22.708l11.42-4.011v26.72h19.305v10.062H664.57V924.591
					z"/>
			</g>
		</g>
	</g>
</g>
</svg>
