<?xml version="1.0" encoding="utf-8"?>
<!-- Generator: Adobe Illustrator 17.0.0, SVG Export Plug-In . SVG Version: 6.00 Build 0)  -->
<!DOCTYPE svg PUBLIC "-//W3C//DTD SVG 1.1//EN" "http://www.w3.org/Graphics/SVG/1.1/DTD/svg11.dtd">
<svg version="1.1" id="Layer_1" xmlns="http://www.w3.org/2000/svg" xmlns:xlink="http://www.w3.org/1999/xlink" x="0px" y="0px"
	 width="155.906px" height="155.906px" viewBox="0 0 155.906 155.906" enable-background="new 0 0 155.906 155.906"
	 xml:space="preserve">
<path fill-rule="evenodd" clip-rule="evenodd" fill="#231F20" d="M27.682,96.25c10.105,27.764,40.804,42.079,68.568,31.974
	s42.079-40.804,31.974-68.568c-10.105-27.764-40.804-42.079-68.568-31.974C31.892,37.787,17.577,68.486,27.682,96.25z M11.883,102
	c13.281,36.49,53.628,55.304,90.118,42.023c36.49-13.281,55.304-53.628,42.023-90.118c-13.281-36.49-53.628-55.304-90.118-42.023
	C17.416,25.164-1.398,65.511,11.883,102z"/>
<circle fill="#F47738" cx="77.92" cy="77.937" r="50.333"/>
<g>
	<defs>
		<circle id="SVGID_1_" cx="77.953" cy="77.953" r="77.953"/>
	</defs>
	<clipPath id="SVGID_2_">
		<use xlink:href="#SVGID_1_"  overflow="visible"/>
	</clipPath>
	<g clip-path="url(#SVGID_2_)">
		<defs>
			<rect id="SVGID_3_" x="0" y="0" width="155.906" height="155.906"/>
		</defs>
		<clipPath id="SVGID_4_">
			<use xlink:href="#SVGID_3_"  overflow="visible"/>
		</clipPath>
		<path clip-path="url(#SVGID_4_)" fill="#979797" d="M77.953,156.211c-20.904,0-40.556-8.14-55.337-22.921
			C7.835,118.509-0.306,98.856-0.306,77.953s8.14-40.556,22.921-55.337C37.397,7.835,57.049-0.306,77.953-0.306
			s40.556,8.14,55.337,22.921c14.781,14.781,22.921,34.434,22.921,55.337s-8.14,40.556-22.921,55.337
			C118.509,148.071,98.856,156.211,77.953,156.211z M77.953,0.306c-20.74,0-40.239,8.077-54.905,22.742
			C8.382,37.714,0.306,57.213,0.306,77.953s8.077,40.239,22.742,54.905C37.714,147.523,57.213,155.6,77.953,155.6
			s40.239-8.077,54.905-22.742c14.666-14.666,22.742-34.164,22.742-54.905s-8.077-40.239-22.742-54.905
			C118.192,8.382,98.693,0.306,77.953,0.306z"/>
	</g>
</g>
<g>
	<defs>
		<circle id="SVGID_5_" cx="77.953" cy="77.953" r="71.839"/>
	</defs>
	<clipPath id="SVGID_6_">
		<use xlink:href="#SVGID_5_"  overflow="visible"/>
	</clipPath>
	<g clip-path="url(#SVGID_6_)">
		<defs>
			<rect id="SVGID_7_" x="0" y="0" width="155.906" height="155.906"/>
		</defs>
		<clipPath id="SVGID_8_">
			<use xlink:href="#SVGID_7_"  overflow="visible"/>
		</clipPath>
		<path clip-path="url(#SVGID_8_)" fill="#979797" d="M77.953,150.097c-19.271,0-37.388-7.504-51.014-21.131
			C13.313,115.34,5.808,97.223,5.808,77.953c0-19.27,7.504-37.388,21.131-51.014C40.565,13.313,58.682,5.808,77.953,5.808
			s37.388,7.504,51.014,21.131c13.626,13.626,21.131,31.743,21.131,51.014c0,19.271-7.504,37.388-21.131,51.014
			C115.34,142.593,97.223,150.097,77.953,150.097z M77.953,6.42c-19.107,0-37.071,7.441-50.582,20.952S6.42,58.846,6.42,77.953
			c0,19.107,7.441,37.071,20.952,50.582c13.511,13.511,31.474,20.952,50.582,20.952s37.071-7.441,50.582-20.952
			c13.511-13.511,20.952-31.474,20.952-50.582c0-19.107-7.441-37.071-20.952-50.582S97.06,6.42,77.953,6.42z"/>
	</g>
</g>
<g>
	<defs>
		<circle id="SVGID_9_" cx="77.953" cy="77.953" r="51.968"/>
	</defs>
	<clipPath id="SVGID_10_">
		<use xlink:href="#SVGID_9_"  overflow="visible"/>
	</clipPath>
	<g clip-path="url(#SVGID_10_)">
		<defs>
			<rect id="SVGID_11_" x="0" y="0" width="155.906" height="155.906"/>
		</defs>
		<clipPath id="SVGID_12_">
			<use xlink:href="#SVGID_11_"  overflow="visible"/>
		</clipPath>
		<path clip-path="url(#SVGID_12_)" fill="#979797" d="M77.953,130.227c-28.824,0-52.274-23.45-52.274-52.274
			s23.45-52.274,52.274-52.274s52.274,23.45,52.274,52.274S106.777,130.227,77.953,130.227z M77.953,26.29
			c-28.487,0-51.663,23.176-51.663,51.663s23.176,51.663,51.663,51.663s51.663-23.176,51.663-51.663S106.44,26.29,77.953,26.29z"/>
	</g>
</g>
<rect x="0" y="0" fill="none" width="155.906" height="155.906"/>
<g>
	<defs>
		<rect id="SVGID_13_" x="0" y="0" width="155.906" height="155.906"/>
	</defs>
	<clipPath id="SVGID_14_">
		<use xlink:href="#SVGID_13_"  overflow="visible"/>
	</clipPath>
	<g clip-path="url(#SVGID_14_)">
		<path fill="#FFFFFF" d="M36.191,119.5l2.845,2.686l-0.662,0.701l-1.044-0.986l-2.865,3.035l-0.756-0.713l2.865-3.035l-1.044-0.986
			L36.191,119.5z"/>
	</g>
	<g clip-path="url(#SVGID_14_)">
		<path fill="#FFFFFF" d="M39.594,122.677l1.547,1.25c0.237,0.192,0.42,0.396,0.546,0.612c0.126,0.216,0.204,0.431,0.234,0.646
			c0.029,0.214,0.016,0.422-0.042,0.622c-0.058,0.201-0.152,0.382-0.285,0.546c-0.106,0.132-0.228,0.241-0.362,0.327
			c-0.135,0.085-0.276,0.148-0.424,0.188c-0.147,0.039-0.295,0.056-0.448,0.048c-0.15-0.006-0.296-0.035-0.437-0.084l-0.454,2.352
			l-0.931-0.752l0.437-2.023l-0.641-0.518l-1.162,1.438l-0.809-0.653L39.594,122.677z M40.728,125.698
			c0.064-0.08,0.11-0.166,0.136-0.258c0.027-0.092,0.031-0.187,0.013-0.284c-0.018-0.098-0.059-0.196-0.125-0.294
			c-0.064-0.099-0.154-0.194-0.27-0.287l-0.657-0.532l-0.91,1.125l0.657,0.532c0.115,0.093,0.229,0.161,0.338,0.203
			c0.111,0.042,0.216,0.061,0.316,0.057c0.1-0.004,0.192-0.029,0.276-0.074C40.589,125.84,40.664,125.777,40.728,125.698z"/>
	</g>
	<g clip-path="url(#SVGID_14_)">
		<path fill="#FFFFFF" d="M42.611,130.33c0.125,0.084,0.254,0.145,0.386,0.181c0.133,0.037,0.264,0.044,0.392,0.023
			c0.129-0.021,0.254-0.074,0.376-0.157c0.123-0.083,0.236-0.202,0.34-0.356l1.784-2.638l0.846,0.572l-1.871,2.766
			c-0.161,0.237-0.349,0.423-0.564,0.557c-0.217,0.134-0.445,0.217-0.691,0.247c-0.243,0.031-0.496,0.012-0.757-0.059
			c-0.261-0.069-0.517-0.189-0.768-0.359c-0.251-0.169-0.458-0.363-0.619-0.579c-0.163-0.216-0.276-0.444-0.338-0.683
			c-0.063-0.239-0.073-0.483-0.029-0.734c0.043-0.25,0.146-0.493,0.306-0.73l1.871-2.766l0.852,0.576l-1.784,2.638
			c-0.104,0.154-0.172,0.304-0.204,0.448c-0.032,0.145-0.033,0.28-0.006,0.407c0.029,0.127,0.084,0.245,0.167,0.354
			C42.382,130.149,42.487,130.246,42.611,130.33z"/>
	</g>
	<g clip-path="url(#SVGID_14_)">
		<path fill="#FFFFFF" d="M46.131,131.93c0.021,0.1,0.055,0.205,0.103,0.316c0.047,0.111,0.106,0.221,0.18,0.328
			c0.072,0.108,0.159,0.21,0.262,0.308c0.101,0.097,0.221,0.183,0.358,0.26c0.257,0.144,0.483,0.2,0.679,0.169
			c0.197-0.031,0.339-0.123,0.425-0.277c0.09-0.161,0.098-0.316,0.025-0.467c-0.073-0.15-0.226-0.322-0.46-0.517l-0.127-0.104
			c-0.168-0.139-0.331-0.287-0.486-0.445c-0.155-0.157-0.278-0.33-0.372-0.516c-0.093-0.187-0.141-0.386-0.146-0.597
			c-0.004-0.212,0.061-0.44,0.197-0.684c0.08-0.142,0.194-0.272,0.344-0.393c0.149-0.12,0.329-0.207,0.538-0.261
			c0.209-0.054,0.445-0.062,0.708-0.024c0.263,0.038,0.547,0.142,0.854,0.314c0.361,0.203,0.652,0.444,0.869,0.723
			c0.218,0.279,0.358,0.565,0.424,0.859l-0.919,0.225c-0.047-0.205-0.145-0.399-0.295-0.584c-0.149-0.186-0.326-0.335-0.53-0.449
			c-0.235-0.132-0.445-0.19-0.627-0.175c-0.183,0.016-0.314,0.096-0.395,0.239c-0.052,0.094-0.075,0.184-0.068,0.27
			c0.008,0.086,0.039,0.171,0.093,0.255c0.054,0.083,0.128,0.169,0.221,0.257c0.093,0.088,0.198,0.183,0.317,0.285l0.065,0.053
			c0.16,0.133,0.315,0.275,0.463,0.426s0.267,0.315,0.356,0.495c0.09,0.181,0.135,0.375,0.135,0.585
			c0,0.209-0.069,0.438-0.208,0.687c-0.126,0.225-0.284,0.397-0.474,0.518c-0.19,0.121-0.398,0.198-0.621,0.234
			c-0.223,0.035-0.452,0.027-0.688-0.024c-0.236-0.052-0.464-0.14-0.683-0.262c-0.221-0.124-0.415-0.258-0.583-0.4
			c-0.167-0.144-0.309-0.292-0.423-0.447c-0.114-0.154-0.208-0.308-0.28-0.46c-0.072-0.152-0.125-0.303-0.16-0.451L46.131,131.93z"
			/>
	</g>
	<g clip-path="url(#SVGID_14_)">
		<path fill="#FFFFFF" d="M51.359,130.633l3.546,1.653l-0.407,0.873l-1.302-0.607l-1.763,3.783l-0.941-0.438l1.763-3.783
			l-1.303-0.607L51.359,130.633z"/>
	</g>
	<polygon clip-path="url(#SVGID_14_)" fill="#FFC95A" points="59.295,137.284 57.879,137.706 57.824,139.128 57.019,137.978 
		55.627,138.381 56.494,137.22 55.645,136.013 57.012,136.489 57.907,135.31 57.897,136.797 	"/>
	<g clip-path="url(#SVGID_14_)">
		<path fill="#FFFFFF" d="M63.721,139.596c0.146,0.034,0.288,0.043,0.425,0.029c0.138-0.014,0.261-0.055,0.373-0.121
			c0.112-0.065,0.21-0.16,0.294-0.281c0.084-0.122,0.147-0.274,0.189-0.456l0.708-3.105l0.994,0.227l-0.742,3.255
			c-0.064,0.279-0.171,0.521-0.324,0.723c-0.153,0.203-0.337,0.363-0.555,0.48c-0.216,0.117-0.458,0.19-0.727,0.22
			c-0.268,0.03-0.55,0.011-0.846-0.057c-0.295-0.067-0.558-0.173-0.787-0.315c-0.229-0.143-0.417-0.314-0.562-0.514
			c-0.146-0.2-0.242-0.424-0.293-0.673c-0.049-0.249-0.042-0.513,0.021-0.792l0.742-3.255l1.003,0.229l-0.708,3.104
			c-0.042,0.182-0.051,0.346-0.028,0.492c0.023,0.146,0.071,0.273,0.142,0.381c0.073,0.108,0.167,0.199,0.284,0.271
			C63.442,139.51,63.574,139.563,63.721,139.596z"/>
	</g>
	<g clip-path="url(#SVGID_14_)">
		<path fill="#FFFFFF" d="M67.578,139.812c0.057,0.085,0.126,0.171,0.211,0.258c0.084,0.086,0.18,0.167,0.287,0.241
			c0.106,0.073,0.224,0.137,0.355,0.19c0.13,0.053,0.272,0.09,0.429,0.112c0.291,0.041,0.522,0.011,0.693-0.09
			c0.171-0.099,0.271-0.236,0.296-0.412c0.025-0.182-0.024-0.33-0.146-0.443c-0.124-0.113-0.329-0.218-0.617-0.314l-0.155-0.051
			c-0.208-0.068-0.413-0.147-0.615-0.238c-0.201-0.091-0.379-0.206-0.533-0.346c-0.153-0.14-0.271-0.308-0.353-0.503
			c-0.081-0.196-0.103-0.433-0.064-0.709c0.022-0.161,0.081-0.325,0.178-0.491c0.095-0.167,0.231-0.312,0.406-0.439
			c0.176-0.126,0.393-0.219,0.651-0.279c0.258-0.061,0.561-0.066,0.908-0.018c0.411,0.058,0.77,0.177,1.073,0.358
			c0.304,0.182,0.539,0.397,0.707,0.647l-0.774,0.542c-0.118-0.173-0.28-0.319-0.486-0.437c-0.207-0.118-0.426-0.193-0.658-0.226
			c-0.267-0.038-0.483-0.016-0.646,0.065c-0.166,0.08-0.258,0.202-0.281,0.366c-0.015,0.106-0.003,0.198,0.035,0.276
			c0.039,0.078,0.098,0.146,0.18,0.204c0.08,0.059,0.18,0.111,0.299,0.16c0.119,0.047,0.251,0.097,0.399,0.149l0.079,0.026
			c0.198,0.066,0.394,0.142,0.586,0.229c0.193,0.086,0.364,0.197,0.513,0.332c0.148,0.135,0.261,0.301,0.337,0.496
			c0.077,0.195,0.095,0.433,0.055,0.714c-0.036,0.256-0.12,0.474-0.254,0.656c-0.134,0.181-0.299,0.329-0.493,0.443
			c-0.194,0.114-0.411,0.189-0.65,0.227c-0.239,0.038-0.482,0.04-0.731,0.004c-0.25-0.035-0.48-0.089-0.688-0.162
			c-0.208-0.072-0.394-0.16-0.557-0.262c-0.162-0.103-0.306-0.212-0.427-0.328c-0.123-0.116-0.228-0.237-0.313-0.362L67.578,139.812
			z"/>
	</g>
	<g clip-path="url(#SVGID_14_)">
		<path fill="#FFFFFF" d="M72.381,136.729l3.455,0.207l-0.056,0.94l-2.418-0.145l-0.065,1.09l2.228,0.133l-0.056,0.938l-2.228-0.133
			l-0.073,1.223l2.557,0.153l-0.056,0.937l-3.594-0.215L72.381,136.729z"/>
	</g>
	<g clip-path="url(#SVGID_14_)">
		<path fill="#FFFFFF" d="M76.867,136.97l1.987-0.041c0.306-0.006,0.576,0.033,0.812,0.116c0.235,0.083,0.434,0.198,0.594,0.343
			c0.161,0.145,0.284,0.312,0.369,0.503s0.13,0.391,0.134,0.601c0.004,0.17-0.02,0.331-0.067,0.483
			c-0.048,0.153-0.115,0.292-0.203,0.417c-0.087,0.125-0.19,0.233-0.311,0.325c-0.119,0.092-0.249,0.165-0.389,0.217l1.167,2.09
			l-1.196,0.024l-0.969-1.829l-0.824,0.017l0.038,1.848l-1.038,0.021L76.867,136.97z M79.679,138.55
			c-0.002-0.103-0.022-0.198-0.062-0.286c-0.039-0.087-0.097-0.163-0.173-0.226c-0.077-0.063-0.172-0.111-0.285-0.145
			c-0.112-0.034-0.243-0.049-0.391-0.046l-0.846,0.017l0.029,1.447l0.846-0.017c0.148-0.003,0.277-0.023,0.389-0.063
			c0.112-0.04,0.205-0.093,0.278-0.16c0.074-0.067,0.129-0.145,0.164-0.234C79.665,138.749,79.681,138.653,79.679,138.55z"/>
	</g>
	<g clip-path="url(#SVGID_14_)">
		<path fill="#FFFFFF" d="M82.369,140.487c0.074,0.069,0.163,0.135,0.265,0.2c0.102,0.063,0.214,0.118,0.335,0.165
			c0.121,0.046,0.251,0.08,0.39,0.101c0.139,0.021,0.287,0.024,0.443,0.008c0.292-0.029,0.51-0.114,0.653-0.251
			c0.143-0.139,0.206-0.296,0.188-0.472c-0.019-0.183-0.101-0.314-0.247-0.396c-0.146-0.081-0.371-0.134-0.673-0.159l-0.164-0.011
			c-0.218-0.017-0.435-0.046-0.653-0.086c-0.218-0.04-0.418-0.11-0.601-0.209c-0.183-0.099-0.337-0.234-0.463-0.405
			c-0.125-0.17-0.202-0.396-0.23-0.673c-0.017-0.161,0.002-0.335,0.055-0.519c0.053-0.185,0.15-0.359,0.291-0.523
			c0.141-0.165,0.329-0.307,0.565-0.427c0.236-0.121,0.529-0.198,0.878-0.233c0.413-0.042,0.789-0.011,1.127,0.092
			c0.338,0.104,0.618,0.257,0.84,0.46l-0.623,0.71c-0.156-0.14-0.348-0.242-0.576-0.309c-0.229-0.064-0.46-0.086-0.693-0.063
			c-0.269,0.027-0.473,0.101-0.614,0.218c-0.14,0.118-0.202,0.258-0.186,0.422c0.011,0.106,0.044,0.194,0.101,0.26
			c0.056,0.065,0.13,0.118,0.223,0.156c0.092,0.036,0.202,0.064,0.329,0.083c0.126,0.019,0.268,0.035,0.423,0.051l0.083,0.006
			c0.208,0.016,0.417,0.044,0.625,0.082s0.4,0.104,0.577,0.201c0.176,0.097,0.325,0.229,0.446,0.401
			c0.121,0.172,0.195,0.399,0.224,0.682c0.026,0.257-0.004,0.489-0.091,0.697s-0.211,0.391-0.373,0.547
			c-0.162,0.157-0.354,0.283-0.577,0.376c-0.224,0.093-0.46,0.152-0.709,0.178c-0.252,0.026-0.488,0.028-0.707,0.007
			c-0.22-0.02-0.421-0.061-0.603-0.123c-0.183-0.059-0.348-0.132-0.494-0.215c-0.147-0.084-0.277-0.176-0.39-0.278L82.369,140.487z"
			/>
	</g>
	<polygon clip-path="url(#SVGID_14_)" fill="#FFC95A" points="92.086,138.455 91.09,139.546 91.774,140.793 90.492,140.222 
		89.507,141.284 89.652,139.842 88.303,139.245 89.719,138.949 89.88,137.477 90.636,138.758 	"/>
	<g clip-path="url(#SVGID_14_)">
		<path fill="#FFFFFF" d="M98.769,135.815c0.12,0.365,0.18,0.714,0.179,1.046c0,0.334-0.064,0.639-0.191,0.917
			c-0.126,0.278-0.317,0.523-0.574,0.737c-0.257,0.214-0.583,0.385-0.978,0.514l-1.798,0.588l-1.597-4.882l1.797-0.588
			c0.395-0.129,0.759-0.184,1.092-0.164c0.333,0.021,0.633,0.105,0.899,0.254c0.266,0.149,0.498,0.358,0.695,0.626
			S98.65,135.448,98.769,135.815z M97.714,136.054c-0.067-0.206-0.156-0.391-0.266-0.552c-0.109-0.162-0.242-0.29-0.397-0.384
			c-0.155-0.095-0.335-0.152-0.539-0.169c-0.204-0.017-0.434,0.016-0.688,0.099l-0.739,0.242l1.023,3.126l0.739-0.242
			c0.252-0.082,0.455-0.191,0.609-0.326c0.155-0.135,0.267-0.287,0.336-0.457c0.068-0.17,0.1-0.352,0.093-0.549
			c-0.006-0.196-0.043-0.396-0.11-0.601L97.714,136.054z"/>
	</g>
	<g clip-path="url(#SVGID_14_)">
		<path fill="#FFFFFF" d="M98.812,133.07l3.187-1.348l0.367,0.867l-2.23,0.943l0.426,1.007l2.055-0.87l0.366,0.864l-2.056,0.87
			l0.478,1.129l2.359-0.998l0.366,0.864l-3.316,1.403L98.812,133.07z"/>
	</g>
	<g clip-path="url(#SVGID_14_)">
		<path fill="#FFFFFF" d="M102.979,131.279l0.925-0.473l1.901,3.72l1.812-0.926l0.437,0.854l-2.737,1.399L102.979,131.279z"/>
	</g>
	<g clip-path="url(#SVGID_14_)">
		<path fill="#FFFFFF" d="M106.465,129.472l0.897-0.522l2.582,4.44l-0.897,0.522L106.465,129.472z"/>
	</g>
	<g clip-path="url(#SVGID_14_)">
		<path fill="#FFFFFF" d="M112.143,132.003l-4.055-3.472l0.969-0.645l2.967,2.664l0.03-0.02l-1.333-3.752l0.957-0.638l1.64,5.08
			L112.143,132.003z"/>
	</g>
	<g clip-path="url(#SVGID_14_)">
		<path fill="#FFFFFF" d="M112.283,125.707l2.72-2.139l0.582,0.74l-1.903,1.497l0.676,0.859l1.754-1.379l0.58,0.737l-1.754,1.379
			l0.757,0.964l2.014-1.583l0.58,0.737l-2.83,2.225L112.283,125.707z"/>
	</g>
	<g clip-path="url(#SVGID_14_)">
		<path fill="#FFFFFF" d="M115.803,122.906l1.46-1.35c0.225-0.208,0.453-0.358,0.684-0.453c0.232-0.094,0.456-0.14,0.672-0.139
			c0.217,0.002,0.42,0.046,0.61,0.132c0.19,0.086,0.356,0.207,0.499,0.361c0.115,0.125,0.206,0.26,0.271,0.406
			c0.064,0.146,0.106,0.295,0.124,0.446c0.018,0.151,0.012,0.3-0.017,0.449c-0.028,0.149-0.078,0.289-0.147,0.422l2.26,0.789
			l-0.879,0.812l-1.938-0.726l-0.605,0.56l1.254,1.357l-0.763,0.705L115.803,122.906z M118.956,122.221
			c-0.069-0.075-0.148-0.133-0.235-0.172c-0.087-0.041-0.181-0.058-0.279-0.054c-0.099,0.003-0.203,0.03-0.309,0.081
			c-0.107,0.049-0.214,0.125-0.323,0.226l-0.621,0.574l0.982,1.062l0.621-0.574c0.109-0.101,0.191-0.202,0.249-0.306
			c0.058-0.104,0.091-0.206,0.102-0.304c0.011-0.1,0-0.194-0.034-0.284C119.077,122.379,119.026,122.297,118.956,122.221z"/>
	</g>
	<g clip-path="url(#SVGID_14_)">
		<path fill="#FFFFFF" d="M119.768,119.136l2.161,0.584l0.01-0.01l-0.727-2.128l0.792-0.853l1.063,3.329l1.533,1.424l-0.714,0.769
			l-1.533-1.423l-3.398-0.815L119.768,119.136z"/>
	</g>
	<g clip-path="url(#SVGID_14_)">
		<path fill="#FFFFFF" d="M16.138,79.549c0.479-0.039,0.921-0.009,1.326,0.089c0.405,0.098,0.757,0.265,1.058,0.499
			c0.3,0.235,0.542,0.54,0.727,0.915c0.184,0.375,0.297,0.82,0.338,1.338l0.189,2.356l-6.401,0.513l-0.188-2.356
			c-0.042-0.518-0.002-0.976,0.121-1.375c0.122-0.399,0.313-0.738,0.572-1.019c0.259-0.279,0.581-0.5,0.965-0.661
			C15.227,79.687,15.659,79.587,16.138,79.549z M16.121,80.902c-0.271,0.022-0.521,0.075-0.749,0.161
			c-0.229,0.086-0.422,0.209-0.583,0.371c-0.161,0.162-0.282,0.363-0.363,0.606c-0.081,0.243-0.108,0.531-0.081,0.864l0.078,0.969
			l4.098-0.329l-0.078-0.969c-0.026-0.33-0.099-0.608-0.217-0.835s-0.271-0.407-0.457-0.541c-0.186-0.133-0.398-0.225-0.64-0.274
			c-0.24-0.049-0.495-0.063-0.763-0.042L16.121,80.902z"/>
	</g>
	<g clip-path="url(#SVGID_14_)">
		<path fill="#FFFFFF" d="M17.613,72.62l0-0.018l-4.38-1.107l0.075-1.409l6.336,1.773L19.56,73.45l-4.648,0.725l4.546,1.197
			l-0.084,1.583l-6.488,1.089l0.075-1.413l4.472-0.605l0.001-0.018l-4.375-1.215l0.078-1.458L17.613,72.62z"/>
	</g>
	<g clip-path="url(#SVGID_14_)">
		<path fill="#FFFFFF" d="M13.543,68.119l0.448-2.526c0.058-0.326,0.165-0.611,0.319-0.855c0.153-0.244,0.34-0.441,0.559-0.59
			c0.22-0.149,0.465-0.25,0.738-0.304c0.273-0.053,0.56-0.053,0.86,0s0.569,0.156,0.806,0.309c0.236,0.152,0.431,0.343,0.583,0.572
			c0.152,0.228,0.257,0.489,0.313,0.781c0.057,0.292,0.057,0.603-0.002,0.932l-0.203,1.146l2.13,0.378l-0.227,1.278L13.543,68.119z
			 M16.21,65.159c-0.149-0.027-0.287-0.024-0.412,0.008c-0.127,0.033-0.239,0.092-0.339,0.177c-0.1,0.085-0.184,0.195-0.251,0.328
			c-0.067,0.134-0.118,0.289-0.149,0.465l-0.16,0.904l1.936,0.343l0.16-0.903c0.031-0.177,0.039-0.339,0.021-0.488
			c-0.017-0.148-0.058-0.279-0.124-0.395c-0.064-0.114-0.15-0.208-0.257-0.282c-0.106-0.073-0.235-0.123-0.385-0.15L16.21,65.159z"
			/>
	</g>
	<g clip-path="url(#SVGID_14_)">
		<path fill="#FFFFFF" d="M18.006,61.199l1.186-3.861l1.062,0.326l-1.186,3.861L18.006,61.199z"/>
	</g>
	<g clip-path="url(#SVGID_14_)">
		<path fill="#FFFFFF" d="M23.862,51.839l-0.972,2.17l0.939,0.818l-0.563,1.259l-5.003-4.541l0.697-1.558l6.732,0.679L25.1,51.99
			L23.862,51.839z M21.987,53.222l0.686-1.533l-2.816-0.349l-0.007,0.016L21.987,53.222z"/>
	</g>
	<g clip-path="url(#SVGID_14_)">
		<path fill="#FFFFFF" d="M23.172,48.579c-0.396-0.231-0.732-0.508-1.01-0.832c-0.277-0.322-0.477-0.671-0.603-1.045
			c-0.125-0.374-0.169-0.764-0.13-1.17c0.039-0.405,0.175-0.809,0.409-1.208c0.168-0.289,0.362-0.535,0.581-0.737
			c0.218-0.203,0.454-0.362,0.706-0.479c0.252-0.118,0.516-0.191,0.792-0.22c0.276-0.028,0.559-0.014,0.846,0.044l-0.271,1.288
			c-0.121-0.029-0.255-0.042-0.404-0.04c-0.149,0.003-0.298,0.031-0.447,0.082c-0.149,0.051-0.293,0.129-0.43,0.233
			c-0.137,0.105-0.256,0.242-0.355,0.412c-0.149,0.255-0.224,0.504-0.226,0.747s0.048,0.472,0.152,0.688
			c0.104,0.216,0.249,0.417,0.434,0.599c0.186,0.183,0.391,0.34,0.619,0.473l0.031,0.018c0.229,0.134,0.468,0.238,0.718,0.309
			c0.25,0.072,0.494,0.1,0.732,0.083c0.238-0.016,0.462-0.085,0.673-0.206c0.21-0.121,0.389-0.309,0.538-0.564
			c0.1-0.17,0.163-0.34,0.186-0.512c0.024-0.17,0.022-0.333-0.006-0.489c-0.029-0.155-0.078-0.297-0.147-0.428
			c-0.069-0.13-0.146-0.241-0.23-0.332l0.985-0.871c0.192,0.223,0.343,0.461,0.454,0.716c0.111,0.254,0.177,0.521,0.199,0.799
			c0.023,0.277,0,0.562-0.071,0.85s-0.19,0.578-0.358,0.867c-0.234,0.399-0.518,0.716-0.852,0.949
			c-0.333,0.234-0.695,0.387-1.084,0.46c-0.388,0.074-0.791,0.07-1.206-0.013C23.98,48.971,23.571,48.813,23.172,48.579z"/>
	</g>
	<g clip-path="url(#SVGID_14_)">
		<path fill="#FFFFFF" d="M26.732,42.608c-0.368-0.274-0.671-0.587-0.911-0.939c-0.239-0.351-0.399-0.72-0.482-1.105
			c-0.083-0.386-0.083-0.779,0.001-1.178c0.083-0.399,0.264-0.784,0.541-1.155c0.2-0.268,0.419-0.49,0.659-0.667
			c0.24-0.177,0.492-0.31,0.756-0.398c0.263-0.088,0.533-0.132,0.811-0.129c0.278,0.002,0.557,0.048,0.835,0.137l-0.413,1.25
			c-0.117-0.042-0.25-0.07-0.397-0.084c-0.148-0.013-0.299-0.002-0.453,0.031c-0.154,0.034-0.306,0.095-0.454,0.184
			c-0.147,0.089-0.281,0.212-0.399,0.37c-0.177,0.237-0.279,0.477-0.309,0.717c-0.028,0.241-0.003,0.475,0.075,0.701
			c0.08,0.227,0.201,0.441,0.365,0.644c0.163,0.202,0.351,0.382,0.562,0.539l0.028,0.021c0.213,0.159,0.44,0.288,0.681,0.387
			c0.241,0.1,0.479,0.154,0.718,0.164c0.238,0.01,0.468-0.033,0.692-0.129c0.222-0.097,0.422-0.263,0.599-0.5
			c0.118-0.158,0.198-0.32,0.241-0.488c0.042-0.167,0.059-0.329,0.047-0.487c-0.011-0.157-0.044-0.304-0.097-0.441
			c-0.056-0.138-0.119-0.256-0.193-0.356l1.077-0.755c0.166,0.243,0.289,0.497,0.371,0.763c0.081,0.265,0.117,0.537,0.109,0.815
			c-0.009,0.279-0.063,0.558-0.167,0.837c-0.102,0.279-0.253,0.553-0.453,0.821c-0.276,0.371-0.593,0.654-0.952,0.849
			c-0.357,0.195-0.734,0.308-1.128,0.337c-0.394,0.03-0.793-0.02-1.198-0.147C27.49,43.088,27.103,42.885,26.732,42.608z"/>
	</g>
	<g clip-path="url(#SVGID_14_)">
		<path fill="#FFFFFF" d="M28.781,34.67l2.938-3.175l0.865,0.8l-2.056,2.222l1.002,0.928l1.895-2.047l0.861,0.796l-1.895,2.047
			l1.125,1.041l2.175-2.35l0.86,0.796l-3.057,3.303L28.781,34.67z"/>
	</g>
	<g clip-path="url(#SVGID_14_)">
		<path fill="#FFFFFF" d="M36.63,33.164c0.126,0.017,0.264,0.02,0.415,0.011c0.151-0.01,0.305-0.035,0.461-0.076
			c0.157-0.041,0.314-0.101,0.47-0.182c0.157-0.079,0.309-0.185,0.457-0.315c0.275-0.243,0.435-0.487,0.48-0.731
			c0.045-0.245-0.006-0.45-0.152-0.616c-0.152-0.172-0.332-0.247-0.539-0.223c-0.208,0.024-0.475,0.134-0.8,0.329l-0.175,0.106
			c-0.233,0.142-0.475,0.272-0.726,0.389c-0.25,0.118-0.505,0.192-0.762,0.226c-0.258,0.032-0.513,0.007-0.765-0.076
			s-0.493-0.255-0.724-0.516c-0.134-0.152-0.242-0.342-0.322-0.568c-0.079-0.225-0.108-0.473-0.084-0.743
			c0.023-0.269,0.111-0.551,0.264-0.845c0.153-0.294,0.394-0.585,0.723-0.875c0.39-0.344,0.793-0.586,1.213-0.728
			c0.419-0.141,0.816-0.188,1.189-0.144l-0.115,1.176c-0.26-0.029-0.53,0.006-0.811,0.106c-0.28,0.1-0.53,0.246-0.75,0.44
			c-0.253,0.223-0.408,0.446-0.466,0.667c-0.057,0.222-0.018,0.41,0.119,0.565c0.088,0.1,0.186,0.165,0.291,0.191
			c0.105,0.026,0.218,0.025,0.34-0.004c0.121-0.029,0.253-0.081,0.396-0.154c0.142-0.073,0.297-0.159,0.466-0.256l0.089-0.055
			c0.224-0.133,0.456-0.257,0.695-0.37c0.238-0.112,0.482-0.185,0.731-0.216c0.25-0.031,0.498-0.002,0.746,0.084
			c0.247,0.086,0.488,0.262,0.723,0.529c0.213,0.242,0.352,0.5,0.415,0.775c0.063,0.275,0.069,0.551,0.02,0.828
			c-0.05,0.277-0.155,0.544-0.314,0.801c-0.158,0.258-0.356,0.491-0.591,0.698c-0.237,0.209-0.476,0.383-0.714,0.521
			c-0.238,0.138-0.472,0.243-0.702,0.314c-0.23,0.071-0.45,0.118-0.659,0.139c-0.209,0.022-0.409,0.022-0.598,0.002L36.63,33.164z"
			/>
	</g>
	<g clip-path="url(#SVGID_14_)">
		<path fill="#FFFFFF" d="M41.379,29.143c0.124,0.03,0.26,0.047,0.412,0.053c0.151,0.007,0.307-0.002,0.467-0.028
			c0.16-0.024,0.323-0.068,0.486-0.131c0.164-0.062,0.326-0.151,0.486-0.266c0.299-0.213,0.483-0.439,0.554-0.678
			c0.07-0.239,0.041-0.449-0.087-0.628c-0.133-0.187-0.304-0.279-0.514-0.276c-0.209,0.002-0.486,0.083-0.829,0.244l-0.185,0.088
			c-0.247,0.117-0.5,0.221-0.762,0.312c-0.261,0.092-0.522,0.139-0.782,0.146c-0.26,0.005-0.511-0.046-0.753-0.154
			c-0.242-0.108-0.465-0.305-0.667-0.589c-0.117-0.165-0.205-0.365-0.261-0.598c-0.056-0.232-0.059-0.482-0.008-0.748
			c0.051-0.266,0.167-0.536,0.35-0.813c0.183-0.276,0.452-0.542,0.81-0.797c0.423-0.301,0.851-0.5,1.282-0.598
			c0.432-0.096,0.831-0.102,1.198-0.02l-0.236,1.158c-0.256-0.055-0.528-0.048-0.817,0.022s-0.553,0.19-0.792,0.36
			c-0.275,0.196-0.452,0.4-0.532,0.615c-0.08,0.215-0.06,0.406,0.06,0.574c0.078,0.108,0.168,0.183,0.27,0.22
			c0.101,0.037,0.214,0.047,0.338,0.031c0.124-0.017,0.26-0.055,0.409-0.113c0.149-0.058,0.312-0.128,0.491-0.207l0.094-0.045
			c0.237-0.11,0.48-0.209,0.729-0.297c0.249-0.088,0.499-0.134,0.75-0.139c0.251-0.005,0.496,0.048,0.733,0.16
			c0.237,0.112,0.458,0.312,0.665,0.601c0.187,0.263,0.298,0.534,0.332,0.813c0.035,0.28,0.013,0.555-0.066,0.826
			s-0.21,0.525-0.396,0.765c-0.184,0.24-0.404,0.451-0.66,0.633c-0.258,0.184-0.512,0.332-0.764,0.444
			c-0.251,0.114-0.495,0.193-0.731,0.241s-0.459,0.071-0.669,0.071c-0.211,0-0.41-0.021-0.596-0.06L41.379,29.143z"/>
	</g>
	<g clip-path="url(#SVGID_14_)">
		<path fill="#FFFFFF" d="M44.999,21.12l4.311-2.308l0.569,1.062l-1.583,0.848l2.462,4.6l-1.145,0.613l-2.462-4.6l-1.583,0.848
			L44.999,21.12z"/>
	</g>
	<g clip-path="url(#SVGID_14_)">
		<path fill="#FFFFFF" d="M53.452,16.943c0.442-0.18,0.872-0.261,1.288-0.245c0.416,0.017,0.802,0.113,1.159,0.289
			c0.357,0.177,0.674,0.424,0.954,0.744s0.506,0.693,0.678,1.119c0.174,0.429,0.272,0.854,0.293,1.276
			c0.022,0.423-0.033,0.823-0.166,1.199c-0.132,0.375-0.343,0.714-0.63,1.014c-0.287,0.301-0.652,0.541-1.095,0.721
			c-0.445,0.181-0.875,0.263-1.289,0.246c-0.415-0.015-0.8-0.112-1.157-0.289c-0.357-0.177-0.675-0.426-0.954-0.745
			c-0.279-0.318-0.505-0.691-0.68-1.12c-0.172-0.426-0.27-0.852-0.292-1.276s0.034-0.823,0.167-1.199
			c0.133-0.375,0.342-0.712,0.628-1.014C52.642,17.365,53.007,17.124,53.452,16.943z M55.492,21.973
			c0.26-0.105,0.469-0.247,0.627-0.425c0.158-0.179,0.269-0.383,0.334-0.612c0.065-0.23,0.083-0.477,0.056-0.743
			c-0.027-0.267-0.099-0.542-0.213-0.823l-0.014-0.033c-0.113-0.279-0.252-0.525-0.419-0.736c-0.166-0.211-0.353-0.377-0.559-0.496
			c-0.207-0.12-0.429-0.189-0.666-0.207c-0.237-0.018-0.486,0.026-0.747,0.131s-0.47,0.247-0.629,0.427
			c-0.16,0.178-0.271,0.383-0.333,0.612c-0.064,0.229-0.082,0.477-0.054,0.744c0.028,0.268,0.098,0.542,0.211,0.821l0.014,0.033
			c0.114,0.281,0.255,0.528,0.421,0.738c0.165,0.21,0.351,0.375,0.556,0.495c0.204,0.12,0.427,0.188,0.666,0.207
			C54.983,22.122,55.232,22.078,55.492,21.973z"/>
	</g>
	<g clip-path="url(#SVGID_14_)">
		<path fill="#FFFFFF" d="M66.27,17.817l0.018-0.004l-0.13-4.517l1.376-0.312l0.023,6.58l-1.555,0.353l-1.966-4.274l0.089,4.7
			l-1.546,0.351l-2.819-5.946l1.38-0.313l1.803,4.138l0.018-0.004l-0.025-4.541l1.424-0.323L66.27,17.817z"/>
	</g>
	<g clip-path="url(#SVGID_14_)">
		<path fill="#FFFFFF" d="M72.295,12.345c0.476-0.042,0.91,0.006,1.303,0.143c0.393,0.138,0.734,0.343,1.023,0.616
			c0.289,0.273,0.52,0.603,0.694,0.991c0.173,0.389,0.28,0.812,0.32,1.269c0.041,0.461,0.009,0.897-0.094,1.307
			c-0.104,0.411-0.273,0.777-0.51,1.096c-0.237,0.321-0.537,0.583-0.9,0.786c-0.362,0.203-0.781,0.326-1.258,0.368
			c-0.479,0.042-0.913-0.005-1.305-0.143c-0.391-0.136-0.731-0.341-1.021-0.616c-0.289-0.273-0.521-0.604-0.694-0.99
			c-0.173-0.386-0.281-0.81-0.321-1.271c-0.04-0.458-0.009-0.892,0.095-1.305c0.103-0.412,0.273-0.777,0.51-1.097
			c0.237-0.318,0.536-0.581,0.897-0.785C71.397,12.51,71.817,12.387,72.295,12.345z M72.771,17.751
			c0.28-0.024,0.521-0.099,0.725-0.223c0.203-0.125,0.369-0.287,0.499-0.486c0.129-0.201,0.22-0.432,0.272-0.694
			s0.064-0.546,0.038-0.848L74.3,15.463c-0.026-0.301-0.088-0.576-0.185-0.827c-0.097-0.25-0.227-0.463-0.389-0.637
			c-0.163-0.175-0.354-0.307-0.576-0.393c-0.222-0.087-0.473-0.118-0.753-0.093c-0.279,0.025-0.521,0.099-0.726,0.224
			c-0.205,0.124-0.372,0.287-0.499,0.487c-0.127,0.199-0.218,0.432-0.269,0.695c-0.052,0.264-0.064,0.546-0.038,0.847l0.003,0.036
			c0.027,0.302,0.089,0.579,0.186,0.829c0.097,0.249,0.226,0.46,0.386,0.636c0.161,0.174,0.353,0.305,0.576,0.392
			C72.24,17.744,72.491,17.776,72.771,17.751z"/>
	</g>
	<g clip-path="url(#SVGID_14_)">
		<path fill="#FFFFFF" d="M77.397,12.104l2.484,0.065c0.382,0.01,0.718,0.074,1.007,0.192c0.29,0.118,0.531,0.272,0.723,0.462
			c0.192,0.19,0.335,0.407,0.431,0.65c0.095,0.243,0.139,0.495,0.132,0.758c-0.005,0.212-0.043,0.412-0.112,0.6
			c-0.069,0.188-0.162,0.357-0.277,0.507c-0.116,0.151-0.251,0.28-0.407,0.389c-0.155,0.108-0.322,0.191-0.5,0.249l1.336,2.678
			l-1.495-0.039l-1.103-2.34l-1.03-0.027l-0.061,2.31l-1.298-0.034L77.397,12.104z M80.816,14.241
			c0.003-0.128-0.017-0.249-0.06-0.36c-0.043-0.111-0.11-0.208-0.202-0.292c-0.092-0.083-0.208-0.149-0.347-0.197
			s-0.301-0.075-0.486-0.08l-1.057-0.028l-0.048,1.809l1.057,0.028c0.185,0.005,0.348-0.014,0.49-0.056
			c0.141-0.043,0.26-0.104,0.356-0.184c0.096-0.08,0.168-0.174,0.218-0.283C80.787,14.488,80.813,14.37,80.816,14.241z"/>
	</g>
	<g clip-path="url(#SVGID_14_)">
		<path fill="#FFFFFF" d="M84.271,12.392l1.287,0.172l-0.369,2.756l2.641-2.453l1.584,0.212l-2.548,2.234l1.84,4.149l-1.495-0.2
			l-1.301-3.079l-0.944,0.809l-0.259,1.936l-1.287-0.172L84.271,12.392z"/>
	</g>
	<g clip-path="url(#SVGID_14_)">
		<path fill="#FFFFFF" d="M92.046,16.66l3.902,1.042l-0.287,1.073l-3.902-1.042L92.046,16.66z"/>
	</g>
	<g clip-path="url(#SVGID_14_)">
		<path fill="#FFFFFF" d="M103.189,17.172c0.248,0.102,0.464,0.233,0.647,0.394c0.182,0.161,0.324,0.341,0.427,0.541
			c0.102,0.2,0.156,0.414,0.167,0.643c0.009,0.228-0.035,0.459-0.131,0.694c-0.05,0.121-0.117,0.234-0.2,0.339
			s-0.179,0.195-0.287,0.271c-0.11,0.076-0.228,0.139-0.357,0.186s-0.265,0.073-0.406,0.08c0.083,0.072,0.175,0.168,0.275,0.287
			c0.103,0.119,0.187,0.261,0.255,0.424c0.068,0.164,0.107,0.347,0.118,0.55c0.01,0.202-0.034,0.424-0.133,0.665
			c-0.124,0.301-0.288,0.536-0.492,0.707c-0.204,0.172-0.433,0.287-0.685,0.349c-0.253,0.061-0.523,0.071-0.812,0.032
			c-0.289-0.04-0.579-0.119-0.868-0.238l-2.602-1.068l2.439-5.939L103.189,17.172z M102.353,21.699
			c0.066-0.16,0.09-0.304,0.075-0.43c-0.017-0.126-0.06-0.238-0.13-0.339c-0.07-0.1-0.161-0.187-0.273-0.26
			c-0.111-0.073-0.232-0.136-0.359-0.188l-1.3-0.534l-0.667,1.624l1.3,0.534c0.127,0.053,0.257,0.091,0.388,0.116
			c0.132,0.024,0.259,0.025,0.379,0.001c0.122-0.024,0.232-0.077,0.334-0.158C102.201,21.984,102.286,21.862,102.353,21.699z
			 M103.04,19.067c0.093-0.227,0.095-0.433,0.003-0.618c-0.091-0.187-0.297-0.346-0.617-0.477l-1.068-0.439l-0.575,1.4l1.068,0.439
			c0.314,0.129,0.57,0.163,0.766,0.104C102.811,19.416,102.953,19.28,103.04,19.067z"/>
	</g>
	<g clip-path="url(#SVGID_14_)">
		<path fill="#FFFFFF" d="M107.043,18.867l3.81,2.047l-0.557,1.038l-2.666-1.433l-0.646,1.203l2.457,1.32l-0.555,1.033l-2.457-1.32
			l-0.725,1.349l2.82,1.516l-0.555,1.034l-3.964-2.13L107.043,18.867z"/>
	</g>
	<g clip-path="url(#SVGID_14_)">
		<path fill="#FFFFFF" d="M112.203,21.686l4.077,2.7l-0.665,1.004l-1.496-0.991l-2.88,4.35l-1.083-0.717l2.88-4.35l-1.498-0.991
			L112.203,21.686z"/>
	</g>
	<g clip-path="url(#SVGID_14_)">
		<path fill="#FFFFFF" d="M116.76,31.461l-1.85-1.495l-1.03,0.698l-1.073-0.867l5.67-3.674l1.327,1.073l-2.379,6.334l-1.129-0.913
			L116.76,31.461z M115.902,29.294l1.307,1.056l1.059-2.634l-0.015-0.012L115.902,29.294z"/>
	</g>
	<g clip-path="url(#SVGID_14_)">
		<path fill="#FFFFFF" d="M123.995,30.905l0.913,0.923l-4.566,4.516l-0.913-0.923L123.995,30.905z"/>
	</g>
	<g clip-path="url(#SVGID_14_)">
		<path fill="#FFFFFF" d="M126.073,35.421l-3.787,3.137l-0.829-1.001l4.945-4.097l1.168,1.41l-1.682,4.73l3.321-2.751l0.829,1.001
			l-4.945,4.097l-0.911-1.101L126.073,35.421z"/>
	</g>
	<g clip-path="url(#SVGID_14_)">
		<path fill="#FFFFFF" d="M128.602,41.248c0.386-0.249,0.786-0.425,1.198-0.525c0.413-0.101,0.814-0.124,1.205-0.065
			c0.39,0.058,0.757,0.195,1.103,0.414c0.345,0.218,0.642,0.521,0.893,0.91c0.181,0.28,0.312,0.564,0.394,0.851
			c0.081,0.287,0.117,0.569,0.108,0.847c-0.009,0.277-0.063,0.545-0.163,0.804c-0.099,0.26-0.239,0.505-0.421,0.736l-1.026-0.824
			c0.08-0.095,0.153-0.209,0.218-0.344s0.108-0.279,0.13-0.435c0.021-0.157,0.018-0.319-0.015-0.489
			c-0.031-0.17-0.1-0.337-0.207-0.503c-0.16-0.248-0.348-0.428-0.563-0.54c-0.216-0.111-0.443-0.169-0.683-0.175
			c-0.239-0.005-0.482,0.033-0.73,0.115c-0.247,0.083-0.48,0.196-0.701,0.338l-0.03,0.02c-0.224,0.144-0.424,0.312-0.602,0.501
			c-0.177,0.191-0.312,0.397-0.405,0.616c-0.093,0.22-0.133,0.45-0.121,0.692c0.012,0.243,0.098,0.488,0.258,0.736
			c0.107,0.166,0.231,0.297,0.373,0.396c0.142,0.1,0.288,0.17,0.44,0.216c0.151,0.044,0.3,0.065,0.448,0.062
			s0.281-0.021,0.401-0.056l0.33,1.273c-0.285,0.07-0.566,0.097-0.843,0.079c-0.277-0.017-0.545-0.078-0.803-0.183
			c-0.258-0.106-0.5-0.255-0.726-0.449c-0.226-0.193-0.43-0.431-0.61-0.711c-0.251-0.39-0.404-0.786-0.462-1.188
			c-0.058-0.405-0.031-0.795,0.079-1.176s0.296-0.736,0.557-1.069C127.887,41.79,128.213,41.499,128.602,41.248z"/>
	</g>
	<g clip-path="url(#SVGID_14_)">
		<path fill="#FFFFFF" d="M135.324,45.951l1.946,3.863l-1.052,0.53l-1.361-2.703l-1.22,0.614l1.255,2.491l-1.048,0.528l-1.255-2.491
			l-1.368,0.688l1.44,2.858l-1.048,0.528l-2.024-4.019L135.324,45.951z"/>
	</g>
	<g clip-path="url(#SVGID_14_)">
		<path fill="#FFFFFF" d="M138.137,51.75l0.924,2.394c0.12,0.31,0.176,0.607,0.171,0.896c-0.006,0.289-0.063,0.553-0.174,0.793
			c-0.109,0.242-0.268,0.456-0.475,0.642c-0.206,0.188-0.451,0.336-0.734,0.445c-0.285,0.11-0.568,0.16-0.849,0.153
			c-0.281-0.009-0.546-0.071-0.794-0.188c-0.249-0.117-0.473-0.285-0.673-0.505c-0.2-0.22-0.361-0.487-0.481-0.798l-0.419-1.086
			l-2.018,0.779l-0.468-1.212L138.137,51.75z M137.388,55.664c0.142-0.055,0.258-0.129,0.349-0.222
			c0.091-0.092,0.157-0.201,0.198-0.326c0.042-0.125,0.057-0.261,0.045-0.41c-0.011-0.15-0.049-0.309-0.113-0.475l-0.331-0.856
			l-1.833,0.708l0.331,0.856c0.064,0.166,0.143,0.309,0.235,0.428c0.092,0.118,0.195,0.209,0.309,0.273
			c0.115,0.064,0.236,0.101,0.366,0.108c0.13,0.008,0.266-0.015,0.407-0.07L137.388,55.664z"/>
	</g>
	<g clip-path="url(#SVGID_14_)">
		<path fill="#FFFFFF" d="M140.236,57.299l1.32,4.708l-1.16,0.326l-0.484-1.729l-5.023,1.409l-0.351-1.25l5.023-1.409l-0.485-1.729
			L140.236,57.299z"/>
	</g>
	<g clip-path="url(#SVGID_14_)">
		<path fill="#FFFFFF" d="M141.919,63.539l0.261,1.272l-6.291,1.288l-0.26-1.272L141.919,63.539z"/>
	</g>
	<g clip-path="url(#SVGID_14_)">
		<path fill="#FFFFFF" d="M142.947,69.694c0.055,0.475,0.02,0.911-0.107,1.306c-0.126,0.397-0.322,0.743-0.587,1.041
			c-0.264,0.297-0.587,0.537-0.971,0.721c-0.383,0.184-0.802,0.304-1.259,0.357c-0.459,0.054-0.896,0.033-1.31-0.058
			c-0.414-0.091-0.784-0.25-1.111-0.479c-0.327-0.228-0.596-0.521-0.81-0.877c-0.213-0.356-0.347-0.772-0.402-1.247
			c-0.056-0.478-0.021-0.914,0.104-1.308c0.126-0.396,0.321-0.741,0.587-1.038c0.266-0.298,0.59-0.538,0.971-0.722
			c0.381-0.184,0.802-0.303,1.262-0.357c0.457-0.053,0.892-0.034,1.307,0.058c0.416,0.091,0.785,0.25,1.111,0.479
			c0.326,0.227,0.596,0.519,0.81,0.875C142.756,68.8,142.891,69.216,142.947,69.694z M137.555,70.322
			c0.033,0.278,0.114,0.518,0.244,0.718c0.13,0.199,0.297,0.361,0.5,0.485c0.204,0.123,0.438,0.207,0.701,0.252
			c0.263,0.043,0.547,0.049,0.849,0.014l0.036-0.004c0.3-0.035,0.573-0.105,0.821-0.208c0.248-0.105,0.457-0.24,0.627-0.406
			c0.17-0.167,0.295-0.363,0.375-0.587c0.081-0.225,0.105-0.477,0.072-0.755c-0.032-0.278-0.114-0.518-0.244-0.72
			c-0.13-0.201-0.296-0.362-0.5-0.485c-0.203-0.122-0.438-0.205-0.703-0.25c-0.265-0.043-0.547-0.048-0.847-0.013l-0.036,0.004
			c-0.302,0.035-0.577,0.104-0.823,0.208c-0.246,0.105-0.455,0.239-0.625,0.404c-0.169,0.167-0.295,0.362-0.375,0.587
			C137.547,69.792,137.523,70.044,137.555,70.322z"/>
	</g>
	<g clip-path="url(#SVGID_14_)">
		<path fill="#FFFFFF" d="M141.816,76.126l-4.917-0.026l0.007-1.298l6.421,0.034l-0.01,1.832l-4.326,2.547l4.312,0.023l-0.007,1.298
			l-6.421-0.034l0.007-1.428L141.816,76.126z"/>
	</g>
</g>
<rect x="30.875" y="51.051" fill="none" width="89.264" height="55.637"/>
<rect x="30.582" y="50.772" fill="none" width="89.569" height="55.943"/>
<rect x="30.582" y="50.772" fill="none" width="89.569" height="55.943"/>
<rect x="30.582" y="50.772" fill="none" width="89.569" height="55.943"/>
<rect x="30.582" y="50.772" fill="none" width="89.569" height="55.943"/>
<rect x="0" y="0" fill="none" width="155.906" height="155.906"/>
<g>
	<defs>
		<circle id="SVGID_15_" cx="77.92" cy="77.937" r="50.333"/>
	</defs>
	<clipPath id="SVGID_16_">
		<use xlink:href="#SVGID_15_"  overflow="visible"/>
	</clipPath>
	<g clip-path="url(#SVGID_16_)">
		<polygon fill="#FEBE47" points="77.92,77.937 102.18,130 120.668,116.886 		"/>
		<polygon fill="#FEBE47" points="77.92,77.937 129.97,102.225 135.703,80.296 		"/>
		<polygon fill="#FEBE47" points="77.92,77.937 133.404,63.086 123.7,42.602 		"/>
		<polygon fill="#FEBE47" points="77.92,77.937 110.878,30.896 90.277,21.442 		"/>
		<polygon fill="#FEBE47" points="77.92,77.937 72.93,20.717 51.072,26.717 		"/>
		<polygon fill="#FEBE47" points="77.92,77.937 37.317,37.312 24.429,55.958 		"/>
		<polygon fill="#FEBE47" points="77.92,77.937 20.703,72.916 22.816,95.484 		"/>
		<polygon fill="#FEBE47" points="77.92,77.937 30.862,110.869 46.987,126.799 		"/>
		<polygon fill="#FEBE47" points="77.92,77.937 63.04,133.413 85.632,135.251 		"/>
	</g>
</g>
<radialGradient id="SVGID_17_" cx="77.9204" cy="77.9373" r="50.3333" gradientUnits="userSpaceOnUse">
	<stop  offset="0" style="stop-color:#FFFFFF"/>
	<stop  offset="1" style="stop-color:#FFFFFF;stop-opacity:0"/>
</radialGradient>
<circle fill="url(#SVGID_17_)" cx="77.92" cy="77.937" r="50.333"/>
<path fill="#231F20" d="M115.786,52.286c-5.083-2.583-13.667-1-16.667,0.833c-3,1.833-19.167,9-26.167,12.333
	c-7,3.333-20.667,10-30.5,12.5c-9.833,2.5-16.167,6-6,11.5c1.129,0.611,2.542,1.22,4.164,1.788
	c-0.702,2.558-0.789,4.587,2.669,5.712c3.469,1.129,4.703-1.525,5.049-3.712c1.915,0.347,3.926,0.607,5.977,0.754l14.279,5.66
	c-0.428,3.399,1.278,5.229,2.694,5.632c4.542,1.291,5.833,1,7.667-3.167c1.833-4.167-0.333-7.483-2.667-7.991
	c-1.674-0.365-4.03-0.544-5.722,1.04l-0.944-2.795c1.395-0.475,2.739-1.05,4-1.753c7.037-3.921,20.981-11.72,31.602-18.208
	l4.83,1.852c-0.124,2.085,0.951,3.231,1.868,3.492c3.118,0.886,4.005,0.687,5.264-2.174s-0.229-5.138-1.831-5.487
	c-1.177-0.257-2.846-0.381-4.013,0.793l-0.577-1.942c4.249-2.74,7.339-4.975,8.191-6.159
	C121.953,58.619,118.782,53.808,115.786,52.286z M69.222,97.183c-0.098,0.24-0.188,0.496-0.269,0.77
	c-0.054,0.183-0.094,0.356-0.137,0.532l-9.972-4.369c2.726-0.054,5.447-0.352,8.039-0.961L69.222,97.183z M110.36,72.596
	c-0.014,0.043-0.03,0.079-0.043,0.123c-0.014,0.046-0.016,0.085-0.029,0.13l-3.398-1.465c0.724-0.448,1.428-0.887,2.109-1.318
	L110.36,72.596z"/>
</svg>
