<?xml version="1.0" encoding="utf-8"?>
<!-- Generator: Adobe Illustrator 17.0.0, SVG Export Plug-In . SVG Version: 6.00 Build 0)  -->
<!DOCTYPE svg PUBLIC "-//W3C//DTD SVG 1.1//EN" "http://www.w3.org/Graphics/SVG/1.1/DTD/svg11.dtd">
<svg version="1.1" id="Layer_1" xmlns="http://www.w3.org/2000/svg" xmlns:xlink="http://www.w3.org/1999/xlink" x="0px" y="0px"
	 width="155.906px" height="155.906px" viewBox="0 0 155.906 155.906" enable-background="new 0 0 155.906 155.906"
	 xml:space="preserve">
<circle fill="#D53A81" cx="77.625" cy="77.565" r="68.734"/>
<path opacity="0.4" fill="#030504" enable-background="new    " d="M127.654,111.574H28.222v26.074h2.595
	c-0.03-0.507-0.06-1.014-0.06-1.551c0-9.725,6.653-17.631,14.857-17.631s14.857,7.876,14.857,17.631c0,0.507-0.03,1.044-0.06,1.551
	h2.834c-0.03-0.507-0.06-1.014-0.06-1.551c0-9.725,6.653-17.631,14.857-17.631s14.857,7.876,14.857,17.631
	c0,0.507-0.03,1.044-0.06,1.551h2.566c-0.03-0.507-0.06-1.014-0.06-1.521c0-9.725,6.653-17.631,14.857-17.631
	s14.857,7.876,14.857,17.631c0,0.507-0.03,1.014-0.06,1.521h2.536v-26.074H127.654z"/>
<path fill="#0D0C0C" d="M23.836,71.598c2.446-3.043,5.34-1.163,8.174-0.626c0.209-1.223-0.626-1.76-1.104-2.416
	c-3.132-4.475-4.833-9.517-5.549-14.886c-0.447-3.401,0.358-6.384,3.192-8.562c2.685-2.058,5.609-1.551,8.443-0.358
	c4.236,1.76,7.399,4.893,10.292,8.323c2.267,2.685,4.385,5.549,6.444,8.711c1.104-3.222,1.581-6.444,3.103-9.278
	c0.686-1.313,1.193-2.745,2.476-3.64c0.597-0.418,0.776-0.984,0.955-1.7c1.671-6.862,5.012-12.679,10.829-16.855
	c-0.03-4.057,0.925-7.786,2.387-11.396c0.984-2.416,1.999-3.162,5.101-3.968c1.73,4.684-2.118,8.264-2.476,12.888
	c7.488-2.625,14.737-2.029,21.748,1.82c1.73-5.698,2.625-11.784,7.697-15.781c0.686,0,1.372,0,2.058,0
	c1.581,1.551,0.597,2.953-0.358,4.236c-2.595,3.52-4.296,7.458-5.579,11.605c-0.209,0.656-0.239,1.342-0.358,2.148
	c2.267,1.879,4.236,4.087,6.205,6.265c1.76,1.939,3.461,3.938,6.265,4.415c0.328,0.06,0.656,0.209,0.955,0.358
	c3.043,1.641,3.222,2.476,1.044,5.788c1.76,1.163,3.58,2.267,5.31,3.52c6.325,4.564,9.696,10.71,10.054,18.556
	c0.358,7.637-1.969,14.32-6.802,20.227c-2.774,3.401-5.698,6.563-9.159,9.248c-0.507,0.388-0.955,0.865-1.671,1.492
	c3.789,0.626,6.921-0.328,9.964-1.551c1.492-0.597,2.953-1.283,4.564-1.342c2.595-0.119,3.938,1.82,3.073,4.266
	c-1.223,3.55-3.908,5.191-7.458,5.638c-5.519,0.716-10.68-0.149-15.274-3.699c-2.953,1.611-5.698,3.461-8.86,4.684
	c-0.537,2.804,0.239,5.698-0.805,8.443c-0.656,1.73-1.402,3.371-2.566,4.773c-1.372,1.641-2.924,1.969-4.177,1.074
	c-1.671-1.163-1.521-2.685-0.716-4.236c1.223-2.297,2.357-4.624,3.162-7.488c-3.938,1.372-7.697,2.655-11.665,4.027
	c0.835,2.476,0.805,4.893,1.014,7.249c0.209,2.446-0.865,4.624-2.178,5.012c-1.462,0.418-3.282-1.283-4.326-3.669
	c-1.014-2.297-0.388-4.743-0.835-7.13c-1.492-0.179-2.655,0.656-3.968,0.656c-0.656,3.699,1.492,7.637-1.492,10.978
	c-4.863-2.208-4.326-6.563-4.803-10.322c-1.73-0.179-1.7,1.074-1.82,1.999c-0.298,2.148-0.567,4.326-0.716,6.474
	c-0.09,1.372-0.477,2.446-1.76,3.043c-3.282-2.237-3.819-5.788-1.671-10.919c0.686,0.328,0.477,0.835,0.328,1.432
	c-0.507,2.208-0.925,4.415,0.835,6.742c0.358-3.252-0.268-6.235,0.955-9.159c-0.955,0.149-1.611,0.239-2.237,0.328
	c-3.759-0.746-7.637-1.074-11.217-2.745c-2.058-0.955-4.177-1.879-5.698-3.64c-1.134-1.313-2.536-1.79-4.206-1.909
	c-2.506-0.209-4.893-0.955-7.13-2.058c-1.074-0.537-2.088-1.253-2.804-2.715c3.431-0.06,6.653,0.209,9.785-1.73
	c-1.611-6.891,2.595-12.112,5.937-17.87c-8.771-1.551-16.676-4.266-21.032-12.739C23.836,72.971,23.836,72.285,23.836,71.598z
	 M50.865,59.695c-1.163-2.029-2.357-4.057-4.356-5.37c-0.149-0.716-0.925-0.626-1.313-1.074c-0.477-2.327-2.088-3.58-4.177-4.356
	c-0.477-0.835-1.402-0.925-2.178-1.313c-1.76-0.686-3.52-1.402-5.31-1.999c-2.655-0.895-4.535-0.119-6.026,2.357
	c-1.462,2.446-1.074,5.101-0.656,7.637c1.342,8.204,5.668,14.767,11.814,20.167c3.103,2.715,6.623,4.714,10.829,5.042
	c1.014-1.104,2.148-1.909,2.685-3.282c-1.432-1.313-2.864-2.595-4.296-3.908c0.239-0.209,0.447-0.447,0.686-0.656
	c1.611,1.014,2.655,2.745,4.505,3.52c1.044-0.925,1.939-1.909,2.595-3.282c-1.999-6.116-5.638-11.396-9.218-16.736
	c0.03-0.298,0.06-0.626,0.06-0.925c1.283,1.521,2.536,3.073,3.819,4.594c1.82,3.311,3.669,6.623,5.489,9.904
	C55.31,66.05,53.341,62.768,50.865,59.695z M84.247,50.119c-0.895,0.328-1.82,0.686-2.715,1.014
	c-2.595,1.372-5.549,2.118-7.577,4.415c-2.774,1.641-5.042,3.789-6.832,6.444c-4.385,5.907-5.788,12.53-4.266,19.69
	c1.641,7.756,6.891,12.798,13.335,16.527c7.369,4.266,15.483,4.773,23.896,3.729c14.2-1.79,23.18-9.666,27.953-22.822
	c1.521-5.728,1.939-11.366-1.044-16.826c-1.283-3.52-3.938-5.937-6.623-8.353c-2.297-2.058-5.131-3.043-7.786-4.385
	c-1.671-1.104-3.49-1.76-5.459-2.088c-1.223-1.074-3.013-0.298-4.266-1.283c0-0.209,0.03-0.388,0.03-0.597
	c3.908-0.418,7.846-0.03,12.381-0.209c-4.266-2.655-8.353-2.894-12.56-2.387c-2.685,0.328-5.37,0.805-8.025,1.223
	c-0.03-0.268-0.06-0.537-0.09-0.776c0.805-0.746,1.79-0.746,2.774-0.716c0.776-0.06,0.597-1.014,1.163-1.283
	c1.462,1.283,2.894,0.328,4.296-0.119c0.418-0.179,0.865-0.388,1.283-0.567c1.044,1.014,2.148,0.507,3.669,0.388
	c-3.908-4.833-7.279-9.517-13.156-11.396c-0.656-1.432-1.372-0.179-2.058-0.06c-3.103-1.939-6.474-2.536-10.083-1.909
	c-0.686-0.119-1.134,0.388-1.73,0.597c-2.029,0.179-4.773-0.06-5.34,2.088c-0.776,2.864-2.506,5.907-0.358,9.069
	c0.835,1.253,0.298,2.655-0.447,3.878c-0.656,1.044-1.342,2.357-2.864,1.909c-1.581-0.477-1.521-2.029-1.134-3.162
	c0.984-3.013,0.328-6.056,0.507-9.188c-7.13,4.057-11.515,16.229-8.711,24.045c1.074-0.477,1.939-1.641,3.341-1.223
	c-1.014,1.999-3.282,3.013-4.057,5.221c1.223,0.746,2.058,0.418,2.864-0.447c2.058-2.267,4.475-4.147,6.921-6.026
	c0.507-0.597,1.193-0.805,1.879-1.014c3.073-1.402,5.907-3.461,9.338-4.027C83.233,49.642,83.889,49.522,84.247,50.119z
	 M61.545,85.411c0.209-0.865-0.447-1.492-0.567-2.237c-0.209-1.104-0.656-1.999-1.969-1.85c-1.104,0.149-1.999,0.984-2.058,1.969
	c-0.119,1.611-0.716,3.341,0.477,4.863c0.268,0.895-0.358,1.969,0.597,2.685c0.298,1.462,0.388,2.983,1.521,4.117
	c0.418,1.671,1.223,3.132,2.685,4.177c0.477,0.925,1.223,1.551,2.058,2.088c0.835,1.342,2.267,1.879,3.52,2.685
	c0.686,0.925,1.641,1.283,2.745,1.402c2.536,1.85,5.579,2.088,8.443,2.685c2.327-3.311,2.327-3.311,3.819-3.759
	c0.298,0.328,0.507,0.597,0.418,1.163c-0.358,3.043,0,3.282,2.983,3.371c1.432,0.03,2.625-0.716,3.998-0.746
	c5.4-0.06,10.531-1.253,15.364-3.729c1.283-0.656,3.043-0.507,3.669-2.476c-5.877,2.595-12.023,1.999-18.108,2.118
	c-5.34,0.089-10.292-1.313-15.095-3.431c-0.925-0.447-1.82-0.895-2.745-1.372c-0.805-0.239-1.134-1.313-2.088-1.313
	c-0.776-0.358-1.014-1.402-1.969-1.551c-1.432-1.551-2.864-3.132-4.266-4.684c-0.686-1.134-1.402-2.267-2.088-3.371
	C62.708,87.141,61.992,86.336,61.545,85.411z M50.537,91.586c-0.179-1.641,0.865-3.64-1.313-4.863
	c-1.999,1.432-3.55,2.953-3.341,5.549c-0.537,2.267-1.432,4.564-0.09,6.862c0.119,0.955-0.298,2.058,0.656,2.804
	c0.089,2.058,1.134,3.729,2.148,5.4c0.746,1.521,2.029,2.536,3.371,3.49c0.388,1.462,2.088,1.014,2.804,1.999
	c2.685,1.104,5.34,2.178,8.174,2.864c4.206,1.014,4.206,1.014,5.4-3.043c-2.208-1.79-5.28-1.999-7.458-3.819
	c-1.074-0.477-1.521-1.79-2.774-2.029c-0.626-0.507-1.253-0.984-1.909-1.492c-1.402-2.267-2.834-4.564-4.236-6.832
	c0-1.313-0.835-2.327-1.313-3.461C50.596,93.854,50.566,92.72,50.537,91.586z M42.899,92.839c-3.789,6.862-3.52,13.365,1.014,18.228
	c3.401,3.669,8.085,4.863,12.798,5.877c0.776,0.179,1.581,0.239,2.387,0.268c0.746,0.03,1.611,0.835,2.237-0.239
	c-0.209-0.477-0.656-0.567-1.104-0.686c-8.413-2.148-14.111-6.981-15.841-15.811c-0.328-3.61-0.119-7.19,0.537-10.77
	C43.884,90.602,43.257,91.646,42.899,92.839z M71.777,111.544c1.73,1.014,3.699,0.567,5.37,1.193
	c0.835-1.134,1.223-2.088,1.074-3.311c-0.507-0.03-0.955-0.06-1.402-0.089c-0.418-0.447-0.984-0.477-1.551-0.626
	c-10.412-2.655-17.184-8.89-19.421-19.66c-0.746-3.64-0.895-7.279-0.537-11.187c-2.566,1.7-3.58,3.789-3.461,6.533
	c0.089,1.82-0.119,3.669,0,5.489C52.505,101.312,59.307,109.128,71.777,111.544z M48.866,82.129
	c-8.472-2.416-14.708-9.009-23.717-10.024c0.089,2.715,1.402,4.385,2.953,5.877c4.654,4.475,10.531,6.146,16.676,7.16
	c1.313,0.209,1.85-0.537,2.208-1.611c-1.521-0.418-3.013-0.805-4.773-1.283C44.51,81.055,46.36,83.293,48.866,82.129z
	 M58.979,61.545c2.834-3.431,0.03-7.279,0.626-11.008c-2.924,3.699-3.908,8.055-4.803,12.44c-0.09,0.388,0.149,0.865,0.328,1.253
	c0.895,1.969,1.79,3.938,2.834,6.205c1.551-2.267,2.924-4.296,4.296-6.325C61.067,63.275,59.457,63.603,58.979,61.545z
	 M97.105,108.83c-4.654,0.925-9.367,1.283-14.081,1.283c-0.418,1.014-0.567,1.82,0.149,2.715
	C88.215,112.946,92.809,111.455,97.105,108.83z M77.356,16.497c-3.819,2.983-6.175,11.754-4.863,17.959
	C72.911,27.774,75.387,22.225,77.356,16.497z M79.444,111.783c-3.073,5.221-2.446,12.142,1.76,15.662
	C78.669,122.016,78.132,116.974,79.444,111.783z M91.944,121.926c3.311-3.192,4.117-5.28,4.057-10.143
	C94.868,115.244,93.108,118.406,91.944,121.926z M106.413,15.423c-3.64,1.909-4.684,5.34-5.37,8.98
	C102.654,21.33,104.892,18.586,106.413,15.423z M76.521,115.93c0.686-1.82-0.835-1.969-1.79-2.267
	c-0.805-0.268-1.79-0.418-2.595,0.298c-0.239,0.805-0.388,1.581,0.418,2.208C73.896,116.258,75.238,116.556,76.521,115.93z
	 M69.928,127.475c-0.537-2.476-1.462-4.266-1.462-6.325c0.03-1.969,0.239-3.908,0.686-6.563
	C67.034,118.913,67.362,124.223,69.928,127.475z M130.667,102.087c-2.118-2.804-2.953-2.774-6.921-0.418
	C125.983,102.416,128.012,100.387,130.667,102.087z"/>
<path fill="#3E3E3E" d="M60.202,119.062c0.656-0.09,1.283-0.179,2.237-0.328c-1.253,2.924-0.597,5.907-0.955,9.159
	c-1.76-2.297-1.342-4.535-0.835-6.742c0.149-0.597,0.358-1.074-0.328-1.432C60.232,119.51,60.202,119.301,60.202,119.062z"/>
<path fill="#F8EC2A" d="M73.955,55.578c2.029-2.297,4.982-3.073,7.577-4.415c1.223,1.283,2.506-0.06,3.699,0.06
	c0.597,0.597,0.358,1.313,0.447,1.969c-0.268,1.939-1.581,3.669-1.193,6.205c0.686-1.253,1.134-2.148,1.581-3.013
	c2.625-2.506,5.788-3.043,9.248-2.655c0.597,0.06,1.104-0.149,1.253-0.835l-0.06-0.03c2.834-1.7,0.925-3.431-0.089-5.161
	c1.014-0.179,1.909-0.328,2.566,0.149c0.835,1.014-0.239,2.476,1.104,3.162c0.209,0.239,0.388,0.477,0.597,0.716
	c-1.014,1.104-0.179,1.223,0.716,1.372c1.044,0.149,2.357-0.477,2.894,1.044c-0.776,0.388-0.835,1.313-1.402,1.82
	c-0.149-0.119-0.298-0.239-0.477-0.298c-0.03-0.03-0.209,0.09-0.209,0.149c-0.03,0.865-0.089,1.76-0.06,2.625
	c0.03,1.521-0.805,2.178-2.178,2.327l0.03,0.03c-0.895-2.953-2.894-4.654-5.698-4.833c-3.013,0-3.908,0.477-4.743,3.222
	c-1.134,3.699-1.014,7.428,0.716,10.919c2.088,4.236,5.609,5.251,9.785,2.953c3.043-1.313,3.848-4.773,1.909-8.204l0.06,0.09
	c0.298-0.805-0.268-1.79,0.477-2.506c0.477,0.09,0.925,0.179,1.372,0.239c1.372,2.983,3.669,5.072,6.325,6.832
	c0.209-0.03,0.447,0,0.626-0.06c0.298-0.119,0.567-0.388,0.865-0.477c3.341-0.925,4.087-1.939,3.61-5.221
	c-0.179-1.193-0.626-2.357-0.925-3.55c0.239-1.641-1.074-2.655-1.581-3.968c3.103-2.953-1.521-3.968-1.611-5.996
	c0.418-0.537,0.895-0.507,1.313-0.597c2.655,1.342,5.489,2.357,7.786,4.385c2.685,2.416,5.37,4.833,6.623,8.353
	c-0.03,0.776,0,1.551,0.209,2.327c0.955,3.938,1.82,7.876,0.507,11.933c-0.268,0.805-0.418,1.79,0.328,2.566
	c-4.803,13.156-13.783,21.032-27.953,22.822c-8.383,1.044-16.497,0.537-23.896-3.729c-6.444-3.729-11.694-8.771-13.335-16.527
	c-1.492-7.19-0.119-13.783,4.266-19.69C69.033,61.366,72.106,58.472,73.955,55.578z M102.177,81.682
	c-3.49-1.044-7.041-0.209-10.561-0.388c-1.969,0.119-3.461-0.955-4.982-1.969c-1.551-1.044-3.132-2.058-2.595-4.415
	c-2.804,1.283-4.296,3.371-3.49,4.684c0.477-0.626,0.925-1.223,1.432-1.909c1.313,1.074,1.641,2.595,2.178,3.938
	c1.82,4.505,5.131,7.428,9.457,9.367c0.805,0.358,1.79,0.418,2.416,1.163c0.328,0.865,1.223,1.193,1.909,1.253
	c3.282,0.239,6.593,0.567,9.845-0.268c0.686-0.179,1.7,0,1.939-1.074c3.073-1.551,6.384-2.834,8.025-6.414
	c-0.686,0.06-1.193,0.119-1.7,0.179c-1.492-5.728-1.372-8.353,5.191-13.007c0.447,0.268-0.119,1.193,0.776,1.193
	c-0.09-2.715-0.09-2.715-2.267-3.61c-0.268,2.416-0.895,3.461-3.61,5.191C111.813,78.4,107.308,80.787,102.177,81.682z"/>
<path fill="#FEFEF6" d="M46.509,56.473c3.58,5.31,7.22,10.62,9.218,16.736c-0.656,1.342-1.551,2.357-2.595,3.282
	c-1.85-0.776-2.894-2.506-4.505-3.52c-1.402-1.611-2.774-3.282-5.459-4.505c1.462,2.566,2.983,3.998,4.773,5.161
	c1.432,1.283,2.834,2.595,4.296,3.908c-0.537,1.342-1.671,2.148-2.685,3.282c-4.206-0.328-7.727-2.327-10.829-5.042
	c-6.146-5.37-10.471-11.933-11.814-20.167c-0.418-2.566-0.805-5.221,0.656-7.637c1.462-2.446,3.371-3.222,6.026-2.357
	c1.79,0.597,3.55,1.342,5.31,1.999c0.09,0.537,0.06,1.074,0.597,1.492C42.154,51.193,44.152,54.027,46.509,56.473z"/>
<path fill="#F79326" d="M65.751,55.787c-1.372-0.418-2.237,0.716-3.341,1.223c-2.804-7.846,1.581-19.988,8.711-24.045
	c-0.179,3.132,0.477,6.146-0.507,9.188c-0.358,1.134-0.447,2.685,1.134,3.162c1.521,0.447,2.208-0.835,2.864-1.909
	c0.746-1.193,1.283-2.625,0.447-3.878c-2.148-3.132-0.418-6.205,0.358-9.069c0.567-2.148,3.311-1.909,5.34-2.088
	c3.819,1.342,7.667,2.715,10.62,5.638c2.536,2.506,5.31,4.893,5.967,8.711c-0.984,0-1.969-0.03-2.774,0.716
	c-6.653,1.521-13.097,3.64-19.153,6.802c-1.342,0.686-2.327,1.611-2.118,3.282c-0.686,0.239-1.402,0.418-1.879,1.014
	C69.271,53.699,67.422,54.385,65.751,55.787z"/>
<path fill="#F4EB31" d="M71.777,111.544c-12.47-2.416-19.272-10.233-19.898-21.688c-0.089-1.82,0.09-3.669,0-5.489
	c-0.119-2.745,0.895-4.833,3.461-6.533c-0.358,3.908-0.209,7.548,0.537,11.187c2.237,10.77,8.98,17.005,19.421,19.66
	c0.567,0.149,1.134,0.179,1.551,0.626c0,0.626,0.776,1.163,0.209,1.969C75.357,111.813,73.538,111.186,71.777,111.544z"/>
<path fill="#2A2528" d="M76.043,100.506c4.803,2.118,9.755,3.52,15.095,3.431c6.086-0.119,12.231,0.477,18.108-2.118
	c-0.626,1.969-2.387,1.82-3.669,2.476c-4.803,2.476-9.964,3.669-15.364,3.729c-1.402,0.03-2.566,0.776-3.998,0.746
	c-2.983-0.089-3.311-0.328-2.983-3.371c0.06-0.567-0.119-0.835-0.447-1.163c-1.462,0.447-1.462,0.447-3.819,3.759
	c-2.864-0.597-5.877-0.865-8.443-2.685c0.716-1.104,2.029-1.283,3.073-1.909C74.79,102.714,76.014,102.117,76.043,100.506z"/>
<path fill="#F9FAF6" d="M48.866,82.129c-2.506,1.163-4.385-1.074-6.653,0.119c1.76,0.477,3.252,0.865,4.773,1.283
	c-0.358,1.074-0.895,1.82-2.208,1.611c-6.146-1.014-11.993-2.685-16.676-7.16c-1.551-1.492-2.864-3.162-2.953-5.877
	C34.188,73.15,40.393,79.743,48.866,82.129z"/>
<path fill="#F2EB3C" d="M44.361,100.476c1.73,8.83,7.428,13.693,15.841,15.811c0.447,0.119,0.895,0.209,1.104,0.686
	c-0.626,1.074-1.492,0.268-2.237,0.239c-0.805-0.03-1.611-0.089-2.387-0.268c-4.684-1.014-9.367-2.208-12.798-5.877
	c-4.505-4.863-4.773-11.396-1.014-18.228c1.372,0.746,0.626,2.029,0.805,3.073C43.973,97.433,43.138,99.104,44.361,100.476z"/>
<path fill="#F9F9F3" d="M58.979,61.545c0.477,2.058,2.118,1.73,3.282,2.595c-1.372,2.029-2.745,4.027-4.296,6.325
	c-1.044-2.267-1.939-4.236-2.834-6.205c-0.179-0.388-0.418-0.865-0.328-1.253c0.865-4.385,1.879-8.771,4.803-12.44
	C59.009,54.266,61.813,58.114,58.979,61.545z"/>
<path fill="#EE9937" d="M102.833,41.318c-1.432,0.477-2.834,1.432-4.296,0.119c-3.371-6.891-8.92-11.187-16.02-13.663
	c3.61-0.626,6.951-0.03,10.083,1.909c0.239,0.239,0.507,0.447,0.746,0.686C96.956,33.621,100.894,36.575,102.833,41.318z"/>
<path fill="#2C2428" d="M60.859,108.8c2.208,1.85,5.251,2.029,7.458,3.819c-1.193,4.087-1.163,4.057-5.4,3.043
	c-2.834-0.686-5.489-1.76-8.174-2.864C56.563,111.097,59.367,110.948,60.859,108.8z"/>
<path fill="#928C88" d="M48.597,107.308c-1.014-1.671-2.088-3.341-2.148-5.4c0.119-0.537,0.119-1.104,0.746-1.372
	c1.581-0.716,3.192-1.432,4.773-2.118c1.402,2.267,2.834,4.564,4.236,6.832C53.669,105.966,51.133,106.652,48.597,107.308z"/>
<path fill="#968F8D" d="M62.231,99.134c-1.432-1.044-2.237-2.476-2.685-4.177c1.283-1.939,3.968-1.641,5.37-3.371
	c1.432,1.551,2.864,3.132,4.266,4.684C67.183,97.911,64.916,99.015,62.231,99.134z"/>
<path fill="#EBE953" d="M112.559,49.582c-0.447,0.089-0.925,0.06-1.313,0.597c0.119,2.029,4.714,3.043,1.611,5.996
	c0.537,1.313,1.85,2.327,1.581,3.968c-0.567-0.686-1.044-1.462-1.7-2.058c-2.387-2.178-4.624-4.773-8.413-3.968
	c-0.537-1.521-1.85-0.895-2.894-1.044c-0.895-0.119-1.73-0.239-0.716-1.372c0.925,0.477,1.79,0.746,2.894,0.358
	c2.446-0.865,4.684-0.03,6.802,1.163c0.865,0.477,1.671,1.104,2.864,1.909c-1.671-3.848-4.714-5.37-7.637-6.981
	c0.298-0.656,0.925-0.567,1.492-0.656C109.068,47.822,110.918,48.448,112.559,49.582z"/>
<path fill="#DE8F3E" d="M94.689,44.212c2.685-0.418,5.34-0.895,8.025-1.223c4.177-0.507,8.264-0.268,12.56,2.387
	c-4.535,0.179-8.472-0.209-12.381,0.209c-2.566-0.298-5.072,0.03-7.577,0.418c0.686-1.044,0.149-1.283-0.805-1.283
	C94.599,44.6,94.659,44.421,94.689,44.212z"/>
<path fill="#D39A57" d="M94.48,44.749c0.955,0,1.521,0.239,0.805,1.283c-0.895,0.358-2.058-0.209-2.804,0.746
	c-3.49,0.179-6.683,1.313-9.845,2.745c-3.431,0.567-6.265,2.625-9.338,4.027c-0.209-1.671,0.776-2.595,2.118-3.282
	c1.432,0.358,2.625-0.477,3.908-0.865C84.367,47.732,89.17,45.435,94.48,44.749z"/>
<path fill="#67605F" d="M48.597,107.308c2.536-0.686,5.072-1.372,7.607-2.058c0.626,0.507,1.253,0.984,1.909,1.492
	c-1.313,2.446-4.087,2.685-6.116,4.057C50.626,109.874,49.343,108.859,48.597,107.308z"/>
<path fill="#EAE95A" d="M97.105,108.83c-4.296,2.625-8.89,4.117-13.902,3.998c-0.716-0.895-0.567-1.7-0.149-2.715
	C87.738,110.112,92.422,109.754,97.105,108.83z"/>
<path fill="#E2DD57" d="M107.099,47.494c-0.537,0.089-1.193,0-1.492,0.656c-1.76-0.119-3.55-0.477-5.131,0.477
	c-0.656,0.776-0.328,1.581-0.358,2.327c-1.342-0.686-0.268-2.148-1.104-3.162c-0.656-0.477-1.551-0.298-2.566-0.149
	c1.014,1.73,2.894,3.461,0.09,5.161c0.447-3.848-0.239-4.624-4.057-4.594c-0.686,0-1.342,0-2.029,0l0.03,0.06
	c0.358-1.074,1.372-0.537,2.058-0.895c3.401-0.626,6.862-0.955,10.322-1.193C104.116,47.195,105.876,46.42,107.099,47.494z"/>
<path fill="#E69A45" d="M94.629,29.743c5.847,1.879,9.218,6.593,13.156,11.396c-1.521,0.119-2.625,0.626-3.669-0.388
	C101.879,36.277,98.269,32.995,94.629,29.743z"/>
<path fill="#36150E" d="M82.487,27.774c7.1,2.476,12.679,6.802,16.02,13.663c-0.567,0.268-0.388,1.193-1.163,1.283
	c-0.656-3.819-3.461-6.205-5.967-8.711c-2.953-2.924-6.772-4.296-10.62-5.638C81.354,28.162,81.801,27.655,82.487,27.774z"/>
<path fill="#494748" d="M77.356,16.497c-1.999,5.728-4.445,11.277-4.863,17.959C71.211,28.252,73.538,19.481,77.356,16.497z"/>
<path fill="#524D4F" d="M45.793,99.134c-1.342-2.297-0.477-4.564,0.09-6.862c1.641,0.298,3.043-0.895,4.654-0.686
	c0.03,1.134,0.06,2.267,0.09,3.371c-1.134,0.656-2.088,1.76-3.431,1.969C45.763,97.165,45.883,98.149,45.793,99.134z"/>
<path fill="#E49546" d="M65.751,55.787c1.671-1.402,3.52-2.088,5.698-1.253c-2.416,1.85-4.863,3.729-6.921,6.026
	c-0.776,0.865-1.641,1.193-2.864,0.447C62.44,58.8,64.737,57.786,65.751,55.787z"/>
<path fill="#5F5B58" d="M71.181,97.821c0.984,0,1.283,1.074,2.088,1.313c0.03,0.716-0.179,1.581-0.835,1.671
	c-2.118,0.268-2.983,2.267-4.654,3.103c-1.253-0.805-2.685-1.342-3.52-2.685c1.104-0.477,2.058-1.104,3.401-1.134
	C69.122,100.029,70.554,99.373,71.181,97.821z"/>
<path fill="#766F6F" d="M64.946,91.586c-1.432,1.73-4.087,1.432-5.37,3.371c-1.134-1.134-1.223-2.685-1.521-4.117
	c2.029-0.089,3.132-1.879,4.803-2.625C63.544,89.349,64.26,90.482,64.946,91.586z"/>
<path fill="#484042" d="M51.969,110.828c2.029-1.372,4.803-1.611,6.116-4.057c1.253,0.239,1.7,1.551,2.774,2.029
	c-1.492,2.148-4.296,2.297-6.086,4.027C54.057,111.843,52.356,112.26,51.969,110.828z"/>
<path fill="#463F42" d="M67.81,103.907c1.671-0.835,2.536-2.834,4.654-3.103c0.656-0.089,0.865-0.955,0.835-1.671
	c0.925,0.447,1.82,0.895,2.745,1.372c0,1.611-1.223,2.208-2.416,2.894c-1.044,0.597-2.357,0.776-3.073,1.909
	C69.48,105.16,68.496,104.802,67.81,103.907z"/>
<path fill="#362F2E" d="M57.428,88.156c-1.193-1.521-0.597-3.252-0.477-4.863c0.089-0.984,0.955-1.85,2.058-1.969
	c1.283-0.149,1.73,0.746,1.969,1.85c0.149,0.746,0.776,1.402,0.567,2.237C60.172,86.306,58.263,86.425,57.428,88.156z"/>
<path fill="#797371" d="M45.793,99.134c0.09-0.984-0.06-1.969,1.402-2.178c1.342-0.209,2.267-1.313,3.431-1.969
	c0.477,1.134,1.313,2.148,1.313,3.461c-1.581,0.716-3.192,1.432-4.773,2.118c-0.626,0.268-0.626,0.865-0.746,1.372
	C45.495,101.163,45.912,100.089,45.793,99.134z"/>
<path fill="#36150E" d="M94.48,44.749c-5.31,0.686-10.113,2.983-15.155,4.624c-1.253,0.418-2.446,1.253-3.908,0.865
	c6.056-3.192,12.5-5.28,19.153-6.802c0.03,0.268,0.06,0.537,0.089,0.776C94.659,44.421,94.599,44.6,94.48,44.749z"/>
<path fill="#4C210E" d="M94.629,29.743c3.64,3.252,7.22,6.533,9.487,11.008c-0.418,0.179-0.865,0.388-1.283,0.567
	c-1.939-4.714-5.877-7.697-9.517-10.949c-0.239-0.239-0.507-0.447-0.746-0.686C93.257,29.534,93.973,28.281,94.629,29.743z"/>
<path fill="#38312F" d="M50.537,91.586c-1.611-0.209-3.043,0.984-4.654,0.686c-0.209-2.595,1.342-4.117,3.341-5.549
	C51.402,87.947,50.358,89.945,50.537,91.586z"/>
<path fill="#484646" d="M79.444,111.783c-1.313,5.191-0.805,10.203,1.76,15.662C76.998,123.925,76.401,117.004,79.444,111.783z"/>
<path fill="#7E7779" d="M71.181,97.821c-0.656,1.551-2.058,2.178-3.461,2.237c-1.342,0.06-2.297,0.656-3.401,1.134
	c-0.835-0.537-1.611-1.163-2.058-2.088c2.655-0.119,4.952-1.223,6.981-2.834C70.166,96.419,70.405,97.463,71.181,97.821z"/>
<path fill="#514C4B" d="M57.428,88.156c0.835-1.73,2.745-1.85,4.117-2.745c0.447,0.925,1.134,1.73,1.283,2.804
	c-1.671,0.746-2.774,2.536-4.803,2.625C57.07,90.124,57.696,89.051,57.428,88.156z"/>
<path fill="#ECEA64" d="M128.042,79.146c-0.746-0.776-0.597-1.76-0.328-2.566c1.313-4.057,0.447-7.995-0.507-11.933
	c-0.179-0.805-0.239-1.551-0.209-2.327C129.981,67.75,129.533,73.418,128.042,79.146z"/>
<path fill="#494A4A" d="M91.944,121.926c1.163-3.52,2.953-6.683,4.057-10.143C96.061,116.616,95.256,118.734,91.944,121.926z"/>
<path fill="#454545" d="M106.413,15.423c-1.521,3.162-3.759,5.877-5.37,8.98C101.729,20.764,102.774,17.333,106.413,15.423z"/>
<path fill="#4E4A4B" d="M76.521,115.93c-1.283,0.597-2.625,0.328-3.938,0.268c-0.805-0.656-0.656-1.402-0.418-2.208
	c0.776-0.716,1.79-0.567,2.595-0.298C75.685,113.991,77.207,114.11,76.521,115.93z"/>
<path fill="#EDEA62" d="M85.679,53.162c-0.089-0.656,0.149-1.372-0.447-1.969c-1.193-0.119-2.506,1.223-3.699-0.06
	c0.895-0.328,1.82-0.686,2.715-1.014c2.178-0.268,3.908-2.088,6.235-1.85l-0.03-0.06C88.842,49.821,87.022,51.253,85.679,53.162z"/>
<path fill="#272725" d="M46.509,56.473c-2.387-2.446-4.356-5.251-7.07-7.369c-0.537-0.418-0.537-0.955-0.597-1.492
	c0.746,0.388,1.671,0.477,2.178,1.313c1.104,1.73,2.625,3.043,4.177,4.356c0.358,0.447,1.163,0.358,1.313,1.074
	c0.03,0.418,0.06,0.805,0.09,1.223C46.569,55.847,46.539,56.145,46.509,56.473z"/>
<path fill="#D5D4D3" d="M50.865,59.695c2.476,3.043,4.445,6.354,5.042,10.322c-1.82-3.311-3.669-6.623-5.489-9.904
	C50.566,59.993,50.716,59.844,50.865,59.695z"/>
<path fill="#474847" d="M69.928,127.475c-2.566-3.252-2.894-8.562-0.776-12.888c-0.447,2.655-0.656,4.594-0.686,6.563
	C68.436,123.209,69.391,124.999,69.928,127.475z"/>
<path fill="#24160D" d="M90.512,48.269c-2.327-0.239-4.057,1.611-6.235,1.85c-0.358-0.626-1.014-0.507-1.581-0.626
	c3.132-1.402,6.354-2.566,9.845-2.745c0.03,0.209,0.03,0.388,0.03,0.597C91.885,47.732,90.84,47.195,90.512,48.269z"/>
<path fill="#2B150C" d="M92.541,47.374c0-0.209,0-0.388-0.03-0.597c0.746-0.955,1.879-0.358,2.804-0.746
	c2.506-0.388,5.012-0.746,7.577-0.418c0,0.209-0.03,0.388-0.03,0.597C99.402,46.42,95.972,46.748,92.541,47.374z"/>
<path fill="#D6D74E" d="M44.361,100.476c-1.223-1.372-0.388-3.073-0.626-4.594c-0.179-1.044,0.537-2.327-0.805-3.073
	c0.328-1.193,0.984-2.237,1.999-3.132C44.212,93.317,44.033,96.896,44.361,100.476z"/>
<path fill="#F0EC69" d="M73.955,55.578c-1.85,2.894-4.922,5.788-6.832,6.444C68.943,59.367,71.181,57.189,73.955,55.578z"/>
<path fill="#464646" d="M130.667,102.087c-2.655-1.7-4.684,0.358-6.921-0.418C127.743,99.283,128.549,99.253,130.667,102.087z"/>
<path fill="#4C4F50" d="M47.911,73.597c-1.79-1.163-3.311-2.625-4.773-5.161c2.685,1.223,4.057,2.894,5.459,4.505
	C48.389,73.18,48.15,73.388,47.911,73.597z"/>
<path fill="#E4E36C" d="M71.777,111.544c1.76-0.358,3.58,0.268,5.251-0.268c0.567-0.776-0.179-1.313-0.209-1.969
	c0.447,0.03,0.895,0.06,1.402,0.089c0.149,1.223-0.268,2.208-1.074,3.311C75.477,112.141,73.508,112.588,71.777,111.544z"/>
<path fill="#D0D1CF" d="M46.599,55.548c-0.03-0.418-0.06-0.805-0.09-1.223c2.029,1.342,3.192,3.371,4.356,5.37
	c-0.149,0.149-0.298,0.298-0.477,0.418C49.134,58.591,47.852,57.07,46.599,55.548z"/>
<path fill="#CCCBC9" d="M45.167,53.251c-1.551-1.313-3.073-2.625-4.177-4.356C43.078,49.671,44.719,50.924,45.167,53.251z"/>
<path fill="#14110C" d="M96.031,92.183c-0.626-0.776-1.611-0.805-2.416-1.163c-4.326-1.969-7.637-4.893-9.457-9.367
	c-0.537-1.313-0.835-2.834-2.178-3.938c-0.507,0.656-0.955,1.283-1.432,1.909c-0.805-1.342,0.686-3.431,3.49-4.684
	c-0.537,2.357,1.044,3.371,2.595,4.415c1.521,1.014,3.013,2.088,4.982,1.969c3.49,1.253,7.011,0.776,10.561,0.388
	c5.131-0.895,9.606-3.282,13.902-6.056c2.715-1.76,3.341-2.774,3.61-5.191c2.178,0.895,2.178,0.895,2.267,3.61
	c-0.895,0-0.328-0.925-0.776-1.193c-6.563,4.654-6.683,7.279-5.191,13.007c0.507-0.06,1.014-0.089,1.7-0.179
	c-1.641,3.58-4.952,4.863-8.025,6.414C105.16,93.197,100.596,93.287,96.031,92.183z M91.974,88.752
	c0.746-0.06,1.253,0.507,1.85,0.805c7.518,3.61,14.469,2.327,21.241-2.297c-0.626-0.835-0.507-1.641-0.626-2.416
	c0.209-0.656-0.447-0.984-0.597-1.521c0-1.521,0-3.073,0-4.743c-9.278,5.251-18.795,6.951-29.176,1.76
	c1.73,2.953,2.864,5.579,5.817,6.593C91.019,87.499,91.019,88.514,91.974,88.752z"/>
<path fill="#12120F" d="M100.089,73.001c-4.177,2.297-7.697,1.283-9.785-2.953c-1.73-3.52-1.85-7.22-0.716-10.919
	c0.835-2.745,1.7-3.222,4.743-3.222c2.208,1.253,3.878,3.103,5.698,4.833l-0.03-0.03c0.686,1.372,1.402,2.774,2.088,4.147
	l-0.06-0.09C102.386,67.75,102.356,70.644,100.089,73.001z M96.718,72.881c3.252-0.955,4.535-2.446,4.266-5.43
	c-0.418-4.326-2.536-7.697-6.444-9.815c-1.521-0.835-2.804-0.537-3.431,0.925c-1.044,2.357-1.76,4.863-0.447,7.786
	c0.835-1.879,1.104-3.908,3.55-3.669c1.73,0.179,2.983,1.462,3.61,3.968C98.328,68.705,98.09,70.674,96.718,72.881z M96.658,68.973
	c0.209-2.983-0.597-4.624-2.745-5.579c-1.462,0.805-2.416,1.76-1.879,3.699C94.092,65.453,95.315,66.557,96.658,68.973z"/>
<path fill="#141411" d="M104.325,54.087c3.789-0.805,6.026,1.79,8.413,3.968c0.656,0.597,1.134,1.372,1.7,2.058
	c0.328,1.193,0.746,2.357,0.925,3.55c0.477,3.282-0.268,4.296-3.61,5.221c-0.298,0.09-0.567,0.358-0.865,0.477
	c-0.179,0.089-0.418,0.06-0.626,0.06c-2.655-1.76-4.982-3.848-6.325-6.832c-0.895-2.148-1.253-4.385-0.984-6.712
	C103.519,55.399,103.579,54.474,104.325,54.087z M111.544,67.959c2.536-1.76,2.625-1.879,2.506-3.58
	c-0.209-3.162-1.879-5.549-4.266-7.458c-1.283-1.044-2.745-2.446-4.535-1.551c-1.969,0.984-0.984,2.983-0.984,4.624
	c0,0.746,0.418,1.283,1.014,1.879c0.298-1.671,1.074-3.222,2.804-3.252c1.879-0.03,2.953,1.402,3.729,3.043
	C112.648,63.514,112.738,65.363,111.544,67.959z M110.888,66.288c0.686-1.82,0.358-3.55-0.686-5.191
	c-0.597-0.955-1.492-1.521-2.595-1.163c-1.104,0.358-1.551,1.253-1.163,2.446C109.396,61.724,109.844,62.141,110.888,66.288z"/>
<path fill="#1A150C" d="M85.679,53.162c1.313-1.909,3.162-3.341,4.773-4.952c0.686,0,1.342,0.03,2.029,0
	c3.819-0.03,4.505,0.746,4.057,4.594l0.06,0.03c-0.805,0.179-1.551,0.089-2.357-0.119c-4.117-0.955-5.817-0.179-8.144,3.61
	c-0.447,0.865-0.925,1.73-1.581,3.013C84.098,56.831,85.441,55.101,85.679,53.162z M88.961,51.402
	c2.148-1.074,4.535,0.06,6.921-0.865C92.75,48.568,92.243,48.627,88.961,51.402z"/>
<path fill="#17130D" d="M100.148,50.984c0.03-0.776-0.298-1.581,0.358-2.327c1.581-0.955,3.371-0.597,5.131-0.477
	c2.924,1.611,5.967,3.103,7.637,6.981c-1.193-0.805-1.999-1.432-2.864-1.909c-2.118-1.193-4.356-2.029-6.802-1.163
	c-1.104,0.388-1.969,0.149-2.894-0.358C100.536,51.461,100.327,51.223,100.148,50.984z"/>
<path fill="#F1EB51" d="M102.923,55.906c-0.268,2.327,0.09,4.564,0.984,6.712c-0.447-0.09-0.895-0.179-1.372-0.239
	c-0.776,0.716-0.179,1.7-0.477,2.506c-0.686-1.372-1.402-2.774-2.088-4.147c1.402-0.149,2.237-0.805,2.178-2.327
	c-0.03-0.865,0.03-1.76,0.06-2.625c0-0.06,0.179-0.149,0.209-0.149C102.624,55.668,102.774,55.787,102.923,55.906z"/>
<path fill="#F1EC5A" d="M86.097,56.354c2.327-3.759,4.027-4.564,8.144-3.61c0.805,0.179,1.551,0.268,2.357,0.119
	c-0.149,0.686-0.656,0.925-1.253,0.835C91.914,53.311,88.722,53.878,86.097,56.354z"/>
<path fill="#EBE56D" d="M96.031,92.183c4.564,1.104,9.129,1.014,13.663-0.09c-0.239,1.074-1.253,0.925-1.939,1.074
	c-3.252,0.805-6.563,0.477-9.845,0.268C97.254,93.376,96.36,93.048,96.031,92.183z"/>
<path fill="#EFEB60" d="M100.089,73.001c2.267-2.357,2.297-5.221,1.909-8.204C103.937,68.227,103.132,71.658,100.089,73.001z"/>
<path fill="#F2ED73" d="M102.177,81.682c-3.55,0.358-7.1,0.865-10.561-0.388C95.136,81.473,98.686,80.638,102.177,81.682z"/>
<path fill="#F1EB51" d="M100.029,60.739c-1.79-1.73-3.49-3.61-5.698-4.833C97.105,56.056,99.104,57.756,100.029,60.739z"/>
<path fill="#F8FAF4" d="M90.512,86.903c-2.953-1.014-4.117-3.64-5.817-6.593c10.382,5.191,19.898,3.49,29.176-1.76
	c0,1.671,0,3.192,0,4.743c-3.222,1.82-6.981,2.088-10.382,3.401c-0.895,0.239-1.79,0.477-2.685,0.686
	c-0.209-0.507-0.597-0.567-1.074-0.477C96.688,87.589,93.585,87.29,90.512,86.903z"/>
<path fill="#FAFBF5" d="M100.805,87.41c0.895-0.239,1.79-0.477,2.685-0.686c1.611,1.521,3.043-0.209,4.594-0.268
	c2.208-0.09,4.027-1.939,6.354-1.641c0.119,0.776-0.03,1.581,0.626,2.416c-6.772,4.624-13.723,5.907-21.241,2.297
	c-0.597-0.298-1.104-0.835-1.85-0.805c0.626-1.283,1.76-0.477,2.655-0.597C96.688,87.827,98.865,88.603,100.805,87.41z"/>
<path fill="#464445" d="M114.438,84.814c-2.357-0.328-4.177,1.521-6.354,1.641c-1.521,0.06-2.983,1.79-4.594,0.268
	c3.401-1.313,7.13-1.611,10.382-3.401C114.02,83.83,114.647,84.158,114.438,84.814z"/>
<path fill="#131513" d="M100.805,87.41c-1.969,1.193-4.147,0.418-6.205,0.746c-0.895,0.119-2.029-0.686-2.655,0.597
	c-0.955-0.239-0.955-1.253-1.462-1.82c3.073,0.358,6.175,0.656,9.248,0C100.238,86.843,100.626,86.903,100.805,87.41z"/>
<path fill="#F9F7F2" d="M96.718,72.881c1.342-2.208,1.611-4.177,1.074-6.235c-0.626-2.506-1.879-3.789-3.61-3.968
	c-2.446-0.239-2.715,1.79-3.55,3.669c-1.313-2.924-0.597-5.43,0.447-7.786c0.626-1.462,1.909-1.73,3.431-0.925
	c3.938,2.118,6.026,5.489,6.444,9.815C101.282,70.405,99.999,71.897,96.718,72.881z"/>
<path fill="#66A7C5" d="M96.658,68.973c-1.342-2.416-2.566-3.52-4.624-1.879c-0.537-1.939,0.418-2.894,1.879-3.699
	C96.091,64.379,96.867,66.02,96.658,68.973z"/>
<path fill="#F7F6F4" d="M111.544,67.959c1.193-2.595,1.104-4.445,0.239-6.265c-0.746-1.641-1.85-3.103-3.729-3.043
	c-1.76,0.03-2.506,1.581-2.804,3.252c-0.597-0.597-1.014-1.134-1.014-1.879c0-1.641-0.984-3.64,0.984-4.624
	c1.79-0.895,3.252,0.507,4.535,1.551c2.357,1.909,4.057,4.296,4.266,7.458C114.14,66.079,114.08,66.199,111.544,67.959z"/>
<path fill="#6CAFBF" d="M110.888,66.288c-1.044-4.147-1.492-4.564-4.445-3.908c-0.388-1.193,0.06-2.058,1.163-2.446
	c1.104-0.358,1.999,0.209,2.595,1.163C111.246,62.738,111.574,64.468,110.888,66.288z"/>
<path fill="#474642" d="M88.961,51.402c3.282-2.804,3.789-2.864,6.921-0.865C93.496,51.461,91.079,50.358,88.961,51.402z"/>
<path fill="#010101" d="M77.953,155.935c-20.823,0-40.393-8.114-55.131-22.822C8.114,118.376,0,98.776,0,77.953
	s8.114-40.393,22.822-55.131S57.13,0,77.953,0s40.393,8.114,55.131,22.822c14.737,14.737,22.822,34.308,22.822,55.131
	s-8.115,40.393-22.822,55.131C118.376,147.821,98.776,155.935,77.953,155.935z M77.953,17.9C44.839,17.9,17.9,44.839,17.9,77.953
	s26.939,60.053,60.053,60.053s60.053-26.939,60.053-60.053C138.036,44.839,111.067,17.9,77.953,17.9z"/>
<g>
	<path fill="#FFFFFF" d="M6.265,68.257l0.209-1.223l6.175,1.014l-0.209,1.223L6.265,68.257z"/>
	<path fill="#FFFFFF" d="M8.472,64.349l4.684,1.104l-0.268,1.193l-6.086-1.432l0.358-1.671l4.654-1.402l-4.087-0.984l0.268-1.193
		l6.086,1.432l-0.298,1.313L8.472,64.349z"/>
	<path fill="#FFFFFF" d="M13.186,54.146c0.447,0.149,0.835,0.358,1.163,0.597c0.328,0.239,0.567,0.507,0.746,0.835
		c0.179,0.328,0.268,0.686,0.298,1.074c0.03,0.388-0.03,0.835-0.209,1.313l-0.716,2.118l-5.937-1.999l0.716-2.118
		c0.149-0.477,0.358-0.865,0.626-1.163c0.268-0.298,0.567-0.537,0.895-0.656c0.328-0.149,0.716-0.209,1.104-0.209
		C12.321,53.937,12.739,53.997,13.186,54.146z M12.649,55.34c-0.239-0.09-0.507-0.119-0.746-0.149
		c-0.239-0.03-0.447,0.03-0.656,0.09s-0.388,0.209-0.567,0.388s-0.298,0.418-0.388,0.716l-0.298,0.865l3.789,1.283l0.298-0.865
		c0.089-0.298,0.149-0.567,0.119-0.805c-0.03-0.239-0.089-0.447-0.209-0.656c-0.119-0.179-0.268-0.358-0.477-0.477
		c-0.209-0.119-0.418-0.239-0.656-0.328L12.649,55.34z"/>
	<path fill="#FFFFFF" d="M16.557,51.521c0.06-0.149,0.119-0.328,0.119-0.477c0-0.149,0-0.328-0.06-0.477
		c-0.06-0.149-0.149-0.298-0.268-0.418c-0.119-0.119-0.298-0.239-0.507-0.328l-3.55-1.581l0.477-1.104l3.729,1.641
		c0.328,0.149,0.597,0.328,0.805,0.567c0.209,0.239,0.358,0.477,0.447,0.776c0.089,0.268,0.119,0.597,0.089,0.895
		c-0.03,0.328-0.119,0.656-0.268,0.984c-0.149,0.328-0.328,0.597-0.537,0.835c-0.209,0.239-0.477,0.418-0.746,0.537
		c-0.268,0.119-0.567,0.179-0.865,0.179s-0.626-0.06-0.955-0.209L10.74,51.7l0.507-1.104l3.55,1.581
		c0.209,0.09,0.388,0.149,0.567,0.149s0.328-0.03,0.477-0.089c0.149-0.06,0.268-0.149,0.388-0.268
		C16.408,51.849,16.497,51.7,16.557,51.521z"/>
	<path fill="#FFFFFF" d="M17.78,47.344c0.119-0.03,0.239-0.06,0.388-0.119c0.119-0.06,0.268-0.119,0.388-0.209
		c0.119-0.089,0.239-0.179,0.358-0.298c0.119-0.119,0.209-0.268,0.298-0.418c0.179-0.298,0.239-0.567,0.179-0.805
		c-0.03-0.239-0.149-0.418-0.358-0.507c-0.209-0.119-0.388-0.119-0.567-0.03c-0.179,0.09-0.388,0.268-0.626,0.537l-0.119,0.149
		c-0.179,0.209-0.328,0.388-0.537,0.567c-0.179,0.179-0.388,0.328-0.626,0.447c-0.239,0.119-0.477,0.179-0.716,0.179
		c-0.268,0-0.537-0.089-0.835-0.239c-0.179-0.089-0.328-0.239-0.477-0.418c-0.149-0.179-0.268-0.388-0.328-0.656
		c-0.06-0.268-0.089-0.537-0.06-0.835c0.03-0.328,0.149-0.656,0.358-1.014c0.239-0.447,0.537-0.776,0.865-1.044
		c0.328-0.268,0.686-0.418,1.044-0.507l0.298,1.104c-0.239,0.06-0.477,0.179-0.716,0.358c-0.209,0.179-0.388,0.388-0.537,0.626
		c-0.149,0.268-0.209,0.537-0.209,0.746c0.03,0.209,0.119,0.388,0.298,0.477c0.119,0.06,0.239,0.09,0.328,0.09
		c0.119,0,0.209-0.06,0.298-0.119c0.089-0.06,0.209-0.149,0.298-0.268c0.119-0.119,0.209-0.239,0.328-0.388l0.06-0.09
		c0.149-0.179,0.328-0.388,0.507-0.567c0.179-0.179,0.388-0.328,0.597-0.418c0.209-0.119,0.447-0.149,0.716-0.149
		c0.268,0,0.537,0.089,0.835,0.239c0.268,0.149,0.477,0.328,0.626,0.567c0.149,0.239,0.239,0.477,0.298,0.746
		c0.06,0.268,0.03,0.537,0,0.835c-0.06,0.268-0.149,0.567-0.298,0.805c-0.149,0.268-0.298,0.507-0.477,0.686
		c-0.179,0.179-0.358,0.358-0.537,0.507c-0.179,0.149-0.358,0.239-0.567,0.328c-0.179,0.089-0.358,0.149-0.537,0.179L17.78,47.344z"
		/>
	<path fill="#FFFFFF" d="M16.348,40.692l2.566-3.878l0.984,0.656l-0.925,1.432l4.266,2.804l-0.686,1.044l-4.266-2.804l-0.925,1.432
		L16.348,40.692z"/>
	<path fill="#FFFFFF" d="M19.719,35.68l1.462-1.879c0.209-0.298,0.447-0.507,0.716-0.656c0.268-0.149,0.507-0.239,0.776-0.298
		c0.268-0.03,0.507-0.03,0.746,0.06c0.239,0.06,0.477,0.179,0.656,0.328c0.149,0.119,0.298,0.268,0.418,0.447
		c0.119,0.149,0.179,0.328,0.239,0.507c0.06,0.179,0.089,0.358,0.089,0.537c0,0.179-0.03,0.358-0.089,0.537l2.864,0.537
		l-0.865,1.134l-2.446-0.507l-0.597,0.776l1.79,1.372l-0.746,0.984L19.719,35.68z M23.299,34.308
		c-0.089-0.09-0.209-0.119-0.328-0.149c-0.119-0.03-0.239-0.03-0.358,0c-0.119,0.03-0.239,0.06-0.358,0.149
		s-0.239,0.179-0.328,0.328l-0.626,0.805l1.402,1.074l0.626-0.805c0.119-0.149,0.179-0.268,0.239-0.418
		c0.06-0.149,0.06-0.268,0.06-0.388s-0.03-0.239-0.089-0.328C23.478,34.457,23.419,34.367,23.299,34.308z"/>
	<path fill="#FFFFFF" d="M23.538,30.907l0.805-0.925l4.714,4.147l-0.805,0.925L23.538,30.907z"/>
	<path fill="#FFFFFF" d="M31.533,29.862l-1.611,1.611l0.567,1.074l-0.925,0.925l-2.983-5.847l1.134-1.134l5.877,3.013l-0.984,0.984
		L31.533,29.862z M29.385,30.459l1.134-1.134l-2.446-1.313l0,0L29.385,30.459z"/>
	<path fill="#FFFFFF" d="M30.131,24.194l0.925-0.805l3.311,3.878l1.85-1.581l0.776,0.895l-2.774,2.387L30.131,24.194z"/>
	<path fill="#FFFFFF" d="M35.232,20.077l0.984-0.716l3.699,5.072l-0.984,0.716L35.232,20.077z"/>
	<path fill="#FFFFFF" d="M39.498,18.854l2.536,4.057l-1.044,0.656l-3.311-5.31l1.462-0.925l4.296,2.267l-2.237-3.58l1.044-0.656
		l3.311,5.31l-1.163,0.716L39.498,18.854z"/>
	<path fill="#FFFFFF" d="M46.062,19.033c0.119-0.03,0.209-0.03,0.328-0.06c0.09-0.03,0.179-0.06,0.298-0.089
		c0.119-0.03,0.179-0.06,0.268-0.119c0.179-0.089,0.298-0.179,0.358-0.268c0.09-0.089,0.119-0.179,0.119-0.268s0-0.209-0.06-0.328
		c-0.06-0.119-0.119-0.268-0.209-0.418l-1.909-3.699l1.104-0.567l2.237,4.296c0.119,0.209,0.179,0.418,0.179,0.597
		c0.03,0.209,0,0.388-0.06,0.567c-0.06,0.179-0.179,0.358-0.358,0.507c-0.149,0.149-0.388,0.298-0.656,0.447
		c-0.119,0.06-0.239,0.119-0.358,0.179c-0.119,0.06-0.239,0.089-0.358,0.149c-0.119,0.03-0.239,0.09-0.358,0.09
		c-0.119,0.03-0.209,0.03-0.328,0.06L46.062,19.033z"/>
	<path fill="#FFFFFF" d="M52.177,16.348c0.179-0.06,0.298-0.149,0.418-0.268c0.119-0.119,0.209-0.239,0.268-0.388
		c0.06-0.149,0.09-0.298,0.09-0.477c0-0.179-0.06-0.388-0.149-0.597l-1.492-3.58l1.104-0.477l1.581,3.759
		c0.149,0.328,0.209,0.626,0.209,0.955c0,0.298-0.06,0.597-0.209,0.865c-0.149,0.268-0.298,0.507-0.537,0.716
		c-0.239,0.209-0.537,0.388-0.865,0.537c-0.328,0.149-0.656,0.209-0.984,0.239c-0.328,0.03-0.626-0.03-0.895-0.119
		s-0.537-0.239-0.746-0.477c-0.209-0.209-0.418-0.477-0.537-0.805l-1.581-3.759l1.134-0.477l1.521,3.58
		c0.09,0.209,0.209,0.388,0.328,0.507c0.119,0.119,0.268,0.209,0.418,0.268c0.149,0.06,0.298,0.089,0.477,0.06
		C51.849,16.438,51.998,16.408,52.177,16.348z"/>
	<path fill="#FFFFFF" d="M54.206,9.934l2.267-0.716c0.358-0.119,0.656-0.149,0.955-0.149c0.298,0.03,0.567,0.089,0.805,0.209
		c0.239,0.119,0.418,0.268,0.597,0.477c0.149,0.209,0.268,0.418,0.358,0.656c0.06,0.209,0.089,0.388,0.089,0.597
		s-0.03,0.388-0.089,0.567c-0.06,0.179-0.149,0.328-0.239,0.477c-0.09,0.149-0.239,0.268-0.358,0.388l2.058,2.058l-1.342,0.418
		l-1.73-1.82l-0.925,0.298l0.686,2.148l-1.163,0.358L54.206,9.934z M57.935,10.859c-0.03-0.119-0.09-0.239-0.179-0.328
		c-0.06-0.089-0.179-0.149-0.268-0.209c-0.119-0.06-0.239-0.06-0.388-0.06s-0.298,0.03-0.447,0.089l-0.955,0.298l0.537,1.671
		l0.955-0.298c0.179-0.06,0.298-0.119,0.418-0.209c0.119-0.089,0.209-0.179,0.268-0.268c0.06-0.089,0.09-0.209,0.119-0.328
		C57.995,11.098,57.995,10.978,57.935,10.859z"/>
	<path fill="#FFFFFF" d="M60.083,8.204l1.193-0.298l1.492,6.086l-1.193,0.298L60.083,8.204z"/>
	<path fill="#FFFFFF" d="M63.007,7.488l4.057-0.746l0.209,1.134l-2.834,0.507l0.239,1.313l2.625-0.477l0.209,1.134l-2.625,0.477
		l0.268,1.462l2.983-0.537l0.209,1.134l-4.206,0.776L63.007,7.488z"/>
	<path fill="#FFFFFF" d="M69.629,10.949c0.09,0.089,0.179,0.179,0.328,0.239c0.119,0.089,0.268,0.149,0.388,0.209
		c0.149,0.06,0.298,0.089,0.477,0.119c0.179,0.03,0.328,0.03,0.537,0c0.358-0.03,0.597-0.119,0.776-0.298
		c0.179-0.179,0.239-0.358,0.239-0.567c-0.03-0.209-0.119-0.388-0.298-0.477c-0.179-0.089-0.447-0.179-0.805-0.209l-0.209-0.03
		c-0.268-0.03-0.507-0.06-0.776-0.119c-0.269-0.06-0.507-0.149-0.716-0.268c-0.209-0.119-0.388-0.298-0.537-0.507
		s-0.239-0.477-0.268-0.835c-0.03-0.209,0-0.418,0.06-0.626c0.06-0.239,0.179-0.447,0.358-0.626s0.388-0.358,0.686-0.507
		c0.268-0.149,0.626-0.239,1.044-0.268c0.477-0.06,0.925,0,1.342,0.119c0.418,0.119,0.746,0.328,0.984,0.567l-0.746,0.865
		c-0.179-0.179-0.418-0.298-0.686-0.388c-0.268-0.089-0.537-0.119-0.835-0.089c-0.328,0.03-0.567,0.119-0.716,0.268
		c-0.179,0.149-0.239,0.298-0.209,0.507c0,0.119,0.06,0.239,0.119,0.328c0.06,0.089,0.149,0.149,0.268,0.179
		c0.119,0.06,0.239,0.089,0.388,0.119c0.149,0.03,0.328,0.06,0.507,0.06h0.09c0.239,0.03,0.507,0.06,0.746,0.119
		c0.239,0.06,0.477,0.119,0.686,0.239c0.209,0.119,0.388,0.298,0.537,0.507c0.149,0.209,0.239,0.477,0.268,0.835
		c0.03,0.298,0,0.597-0.119,0.835c-0.09,0.239-0.239,0.477-0.447,0.656c-0.179,0.179-0.418,0.328-0.686,0.447
		c-0.268,0.119-0.537,0.179-0.835,0.209c-0.298,0.03-0.567,0.03-0.835,0c-0.268-0.03-0.507-0.089-0.716-0.149
		c-0.209-0.089-0.418-0.179-0.597-0.268c-0.179-0.089-0.328-0.209-0.477-0.328L69.629,10.949z"/>
	<path fill="#FFFFFF" d="M81.95,9.218c0,0.477-0.089,0.895-0.209,1.283c-0.119,0.388-0.328,0.716-0.567,0.984
		c-0.239,0.268-0.567,0.477-0.925,0.626c-0.358,0.149-0.805,0.209-1.313,0.209l-2.267-0.089l0.149-6.265l2.237,0.06
		c0.507,0,0.925,0.089,1.283,0.268s0.656,0.388,0.895,0.656c0.239,0.268,0.418,0.626,0.537,1.014
		C81.891,8.323,81.95,8.741,81.95,9.218z M80.668,9.069c0-0.268-0.03-0.507-0.09-0.746c-0.06-0.239-0.149-0.418-0.298-0.597
		s-0.328-0.298-0.537-0.418C79.534,7.19,79.265,7.16,78.937,7.13L78.012,7.1l-0.09,3.998l0.925,0.03c0.328,0,0.597-0.03,0.805-0.119
		c0.239-0.089,0.418-0.209,0.567-0.388c0.149-0.179,0.239-0.358,0.328-0.597c0.06-0.239,0.119-0.477,0.119-0.746L80.668,9.069z"/>
	<path fill="#FFFFFF" d="M83.531,6.235l1.223,0.119l-0.567,6.235l-1.223-0.119L83.531,6.235z"/>
	<path fill="#FFFFFF" d="M86.276,11.038c0.06,0.119,0.149,0.209,0.239,0.328c0.09,0.119,0.209,0.209,0.328,0.298
		c0.119,0.089,0.268,0.179,0.418,0.239s0.328,0.119,0.507,0.149c0.358,0.06,0.626,0.03,0.835-0.089
		c0.209-0.119,0.328-0.298,0.358-0.507c0.03-0.209-0.03-0.388-0.149-0.537c-0.149-0.149-0.388-0.268-0.716-0.388l-0.179-0.06
		c-0.239-0.089-0.477-0.179-0.716-0.298c-0.239-0.119-0.447-0.268-0.626-0.418c-0.179-0.179-0.328-0.388-0.418-0.626
		c-0.089-0.239-0.119-0.537-0.06-0.865c0.03-0.209,0.119-0.388,0.209-0.597c0.119-0.209,0.268-0.388,0.507-0.537
		c0.209-0.149,0.477-0.268,0.776-0.328s0.656-0.06,1.074,0c0.477,0.089,0.925,0.239,1.253,0.447
		c0.358,0.239,0.626,0.477,0.835,0.805l-0.925,0.656c-0.149-0.209-0.328-0.388-0.567-0.537s-0.507-0.239-0.776-0.298
		c-0.328-0.06-0.567-0.03-0.776,0.06S87.41,8.174,87.38,8.383c-0.03,0.119,0,0.239,0.03,0.328c0.03,0.089,0.119,0.179,0.209,0.239
		c0.09,0.06,0.209,0.149,0.358,0.209s0.298,0.119,0.477,0.179l0.089,0.03c0.239,0.089,0.477,0.179,0.686,0.298
		c0.239,0.119,0.418,0.239,0.597,0.418c0.179,0.179,0.298,0.358,0.388,0.597c0.089,0.239,0.089,0.537,0.06,0.865
		c-0.06,0.298-0.149,0.567-0.328,0.805c-0.149,0.209-0.358,0.388-0.597,0.537s-0.507,0.239-0.776,0.268
		c-0.298,0.03-0.567,0.03-0.865,0c-0.298-0.06-0.567-0.119-0.805-0.209c-0.239-0.089-0.477-0.209-0.656-0.328
		c-0.179-0.119-0.358-0.268-0.507-0.418s-0.268-0.298-0.358-0.447L86.276,11.038z"/>
	<path fill="#FFFFFF" d="M94.599,13.305l-2.208-0.537l-0.626,1.044l-1.283-0.328l3.49-5.579l1.581,0.388l0.447,6.563l-1.342-0.328
		L94.599,13.305z M93.018,11.754l1.551,0.388L94.45,9.367h-0.03L93.018,11.754z"/>
	<path fill="#FFFFFF" d="M101.371,10.083c0.239,0.089,0.447,0.209,0.626,0.358c0.179,0.149,0.328,0.298,0.418,0.507
		s0.179,0.388,0.179,0.626c0,0.239,0,0.447-0.09,0.686c-0.03,0.119-0.089,0.239-0.179,0.328c-0.089,0.119-0.149,0.209-0.268,0.268
		c-0.089,0.089-0.209,0.149-0.328,0.209c-0.119,0.06-0.239,0.089-0.388,0.089c0.089,0.06,0.179,0.149,0.268,0.268
		c0.089,0.119,0.179,0.239,0.268,0.388c0.06,0.149,0.119,0.328,0.149,0.537c0.03,0.209,0,0.418-0.09,0.656
		c-0.119,0.298-0.239,0.537-0.447,0.716c-0.179,0.179-0.388,0.298-0.626,0.388c-0.239,0.06-0.507,0.089-0.776,0.089
		c-0.268-0.03-0.567-0.089-0.835-0.179l-2.536-0.895l2.058-5.907L101.371,10.083z M100.775,14.529c0.06-0.149,0.06-0.298,0.06-0.418
		c-0.03-0.119-0.06-0.239-0.149-0.328c-0.089-0.089-0.149-0.179-0.268-0.239c-0.119-0.06-0.239-0.119-0.358-0.149l-1.253-0.447
		l-0.567,1.611l1.253,0.447c0.119,0.03,0.239,0.06,0.388,0.089c0.119,0.03,0.239,0,0.358-0.03c0.119-0.03,0.209-0.089,0.298-0.179
		C100.655,14.827,100.715,14.708,100.775,14.529z M101.312,11.933c0.09-0.239,0.06-0.418-0.03-0.597
		c-0.089-0.179-0.298-0.328-0.597-0.418l-1.044-0.358l-0.477,1.402l1.044,0.358c0.298,0.119,0.537,0.119,0.746,0.06
		C101.133,12.291,101.252,12.142,101.312,11.933z"/>
	<path fill="#FFFFFF" d="M104.832,11.396l1.134,0.507l-2.058,4.654l2.208,0.984l-0.477,1.074l-3.341-1.492L104.832,11.396z"/>
	<path fill="#FFFFFF" d="M109.367,13.484l3.61,1.939l-0.537,1.014l-2.536-1.372l-0.626,1.163l2.327,1.253l-0.537,1.014l-2.327-1.253
		l-0.716,1.313l2.685,1.432l-0.537,1.014l-3.759-2.029L109.367,13.484z"/>
	<path fill="#FFFFFF" d="M114.736,21.539l-0.209-2.924l-2.416,3.61l-1.014-0.686l3.49-5.221l1.044,0.686l0.149,3.043l2.894-0.984
		l0.984,0.656l-3.49,5.221l-1.014-0.686l2.416-3.61l-2.774,0.925L114.736,21.539z"/>
	<path fill="#FFFFFF" d="M121.21,20.943l3.192,2.595l-0.716,0.895l-2.237-1.82l-0.835,1.044l2.058,1.671l-0.716,0.895l-2.058-1.671
		l-0.955,1.163l2.357,1.939l-0.716,0.895l-3.341-2.774L121.21,20.943z"/>
	<path fill="#FFFFFF" d="M125.596,26.641l-3.371,3.431l-0.895-0.865l4.385-4.475l1.253,1.223l-1.193,4.714l2.953-3.013l0.895,0.865
		l-4.385,4.475l-0.955-0.955L125.596,26.641z"/>
	<path fill="#FFFFFF" d="M130.548,29.564l3.013,3.55l-0.895,0.776l-1.104-1.313l-3.878,3.311l-0.805-0.925l3.878-3.311l-1.104-1.313
		L130.548,29.564z"/>
	<path fill="#FFFFFF" d="M136.962,37.738c0.149,0.209,0.239,0.418,0.298,0.656c0.06,0.239,0.089,0.447,0.06,0.656
		c-0.03,0.209-0.089,0.418-0.209,0.597s-0.268,0.358-0.477,0.507c-0.119,0.06-0.209,0.119-0.358,0.179
		c-0.119,0.03-0.239,0.06-0.388,0.06c-0.119,0-0.268,0-0.388-0.03c-0.119-0.03-0.239-0.089-0.358-0.149
		c0.03,0.09,0.06,0.239,0.06,0.388c0.03,0.149,0,0.298-0.03,0.477s-0.089,0.328-0.209,0.507c-0.089,0.179-0.268,0.328-0.477,0.477
		c-0.268,0.179-0.507,0.298-0.776,0.328s-0.507,0-0.746-0.06c-0.239-0.09-0.447-0.209-0.656-0.388s-0.388-0.388-0.567-0.626
		l-1.521-2.208l5.161-3.55L136.962,37.738z M133.829,40.99c0.149-0.089,0.239-0.209,0.298-0.298c0.06-0.119,0.089-0.239,0.089-0.328
		c0-0.089-0.03-0.239-0.089-0.358s-0.119-0.239-0.179-0.328l-0.746-1.104l-1.402,0.984l0.746,1.104
		c0.06,0.119,0.149,0.209,0.239,0.298c0.089,0.09,0.209,0.149,0.298,0.209c0.119,0.03,0.239,0.06,0.358,0.03
		C133.561,41.169,133.71,41.08,133.829,40.99z M135.798,39.2c0.209-0.149,0.298-0.298,0.328-0.507
		c0.03-0.209-0.06-0.418-0.239-0.716l-0.626-0.895l-1.223,0.835l0.626,0.895c0.179,0.268,0.358,0.418,0.567,0.477
		C135.44,39.349,135.619,39.319,135.798,39.2z"/>
	<path fill="#FFFFFF" d="M138.961,40.841l2.058,3.58l-0.984,0.567l-1.432-2.506l-1.163,0.656l1.313,2.297l-0.984,0.567l-1.313-2.297
		l-1.313,0.746l1.521,2.655l-0.984,0.567l-2.118-3.699L138.961,40.841z"/>
	<path fill="#FFFFFF" d="M141.049,47.702l-4.356,1.999l-0.507-1.134l5.698-2.625l0.716,1.581l-2.804,3.968l3.819-1.76l0.507,1.134
		l-5.698,2.625l-0.567-1.223L141.049,47.702z"/>
	<path fill="#FFFFFF" d="M144.808,52.684l1.372,3.878l-1.074,0.388l-0.955-2.715l-1.253,0.447l0.895,2.506l-1.074,0.388
		l-0.895-2.506l-1.402,0.507l1.014,2.864l-1.074,0.388l-1.432-4.027L144.808,52.684z"/>
	<path fill="#FFFFFF" d="M146.717,58.204l1.074,3.968l-1.104,0.298l-0.746-2.774l-1.283,0.358l0.686,2.566l-1.104,0.298
		l-0.686-2.566l-2.536,0.686l-0.328-1.193L146.717,58.204z"/>
	<path fill="#FFFFFF" d="M148.089,63.514l0.268,1.193l-6.116,1.313l-0.268-1.193L148.089,63.514z"/>
	<path fill="#FFFFFF" d="M148.626,65.96l0.716,4.594l-1.163,0.179l-0.268-1.7l-5.042,0.776l-0.179-1.223l5.042-0.776l-0.268-1.7
		L148.626,65.96z"/>
</g>
<g>
	<path fill="#FFFFFF" d="M52.088,143.913l-2.118-0.865l-0.746,0.955l-1.223-0.507l4.206-5.072l1.521,0.626l-0.418,6.593
		l-1.313-0.507L52.088,143.913z M50.686,142.123l1.492,0.597l0.239-2.745h-0.03L50.686,142.123z"/>
	<path fill="#FFFFFF" d="M57.1,140.273l1.193,0.358l-1.462,4.893l2.357,0.716l-0.328,1.134l-3.55-1.074L57.1,140.273z"/>
	<path fill="#FFFFFF" d="M62.171,141.735l2.416,0.507c0.298,0.06,0.597,0.179,0.805,0.328c0.239,0.149,0.418,0.358,0.537,0.567
		c0.149,0.209,0.239,0.447,0.268,0.716c0.03,0.268,0.03,0.537-0.03,0.835s-0.179,0.537-0.328,0.776
		c-0.149,0.239-0.358,0.418-0.567,0.567c-0.239,0.149-0.477,0.239-0.776,0.298c-0.298,0.06-0.597,0.03-0.895-0.03l-1.104-0.239
		l-0.447,2.058l-1.223-0.268L62.171,141.735z M64.946,144.42c0.03-0.149,0.03-0.268,0-0.418c-0.03-0.119-0.09-0.239-0.149-0.328
		c-0.06-0.09-0.179-0.179-0.298-0.268c-0.119-0.089-0.268-0.119-0.447-0.149l-0.865-0.179l-0.388,1.879l0.865,0.179
		c0.179,0.03,0.328,0.06,0.477,0.03c0.149,0,0.268-0.06,0.388-0.119c0.119-0.06,0.209-0.149,0.268-0.239
		c0.06-0.089,0.119-0.239,0.149-0.358V144.42z"/>
	<path fill="#FFFFFF" d="M71.867,146.956l-2.715-0.298l-0.268,2.625l-1.253-0.119l0.656-6.235l1.253,0.119l-0.268,2.476l2.715,0.298
		l0.268-2.476l1.253,0.119l-0.656,6.235l-1.253-0.119L71.867,146.956z"/>
	<path fill="#FFFFFF" d="M78.997,148.716l-2.297-0.03l-0.358,1.163l-1.342-0.03l2.118-6.235l1.641,0.03l1.939,6.295l-1.402-0.03
		L78.997,148.716z M77.058,147.552l1.611,0.03l-0.746-2.655h-0.03L77.058,147.552z"/>
	<path fill="#FFFFFF" d="M86.216,144.211c-0.179,0.03-0.298,0.06-0.418,0.149c-0.119,0.06-0.209,0.149-0.298,0.268
		c-0.06,0.119-0.119,0.239-0.149,0.358c-0.03,0.149-0.03,0.268,0,0.447l-1.283,0.03c-0.03-0.328,0-0.656,0.06-0.925
		s0.209-0.507,0.388-0.716s0.418-0.358,0.656-0.507c0.239-0.149,0.567-0.209,0.895-0.239s0.656-0.03,0.955,0.03
		c0.298,0.06,0.537,0.179,0.776,0.358c0.239,0.179,0.418,0.358,0.537,0.597c0.149,0.239,0.239,0.537,0.268,0.835
		c0.03,0.328,0,0.656-0.089,0.984c-0.089,0.298-0.239,0.597-0.418,0.865c-0.179,0.268-0.418,0.537-0.686,0.776
		c-0.268,0.239-0.537,0.447-0.805,0.656l-0.119,0.06l2.566-0.298l0.149,1.134l-4.475,0.537l-0.149-1.134
		c0.209-0.149,0.447-0.328,0.656-0.507c0.209-0.179,0.447-0.358,0.656-0.537s0.418-0.388,0.597-0.567
		c0.179-0.209,0.328-0.388,0.477-0.597c0.119-0.209,0.239-0.418,0.298-0.597c0.06-0.209,0.089-0.418,0.06-0.626
		c0-0.119-0.06-0.239-0.09-0.358c-0.06-0.119-0.119-0.209-0.209-0.298c-0.09-0.089-0.209-0.149-0.328-0.179
		C86.545,144.181,86.395,144.181,86.216,144.211z"/>
	<path fill="#FFFFFF" d="M95.614,144.569c0.06,0.239,0.089,0.507,0.119,0.776c0.03,0.268,0.03,0.507,0,0.776
		c-0.03,0.239-0.089,0.477-0.149,0.716c-0.089,0.239-0.179,0.447-0.328,0.626c-0.149,0.179-0.328,0.358-0.537,0.477
		c-0.209,0.119-0.477,0.239-0.776,0.298c-0.298,0.06-0.597,0.089-0.835,0.06c-0.268-0.03-0.507-0.119-0.716-0.209
		c-0.209-0.119-0.388-0.239-0.567-0.418c-0.179-0.179-0.328-0.358-0.447-0.597c-0.119-0.209-0.239-0.447-0.328-0.686
		c-0.089-0.239-0.149-0.507-0.209-0.746c-0.06-0.239-0.089-0.507-0.119-0.776c-0.03-0.268-0.03-0.507,0-0.776
		c0.03-0.268,0.089-0.477,0.149-0.716c0.089-0.239,0.179-0.447,0.328-0.626c0.149-0.179,0.328-0.358,0.537-0.477
		c0.209-0.149,0.477-0.239,0.776-0.298c0.298-0.06,0.597-0.089,0.835-0.06c0.239,0.03,0.477,0.119,0.716,0.209
		c0.239,0.09,0.418,0.268,0.567,0.418c0.179,0.179,0.328,0.388,0.447,0.597s0.239,0.447,0.328,0.686
		C95.494,144.092,95.584,144.33,95.614,144.569z M92.064,145.434c0.06,0.268,0.119,0.507,0.209,0.716
		c0.089,0.239,0.209,0.418,0.328,0.567c0.119,0.149,0.268,0.268,0.447,0.358c0.179,0.09,0.358,0.09,0.567,0.03
		c0.209-0.06,0.388-0.149,0.507-0.268c0.119-0.119,0.209-0.298,0.268-0.507c0.06-0.209,0.06-0.418,0.06-0.656
		s-0.06-0.507-0.119-0.746l-0.03-0.179c-0.06-0.268-0.119-0.507-0.209-0.716c-0.089-0.239-0.209-0.418-0.328-0.597
		c-0.119-0.149-0.268-0.268-0.447-0.358c-0.179-0.09-0.358-0.089-0.567-0.03c-0.209,0.06-0.388,0.149-0.507,0.268
		c-0.119,0.149-0.209,0.298-0.268,0.507c-0.06,0.209-0.06,0.418-0.06,0.656s0.06,0.507,0.089,0.746L92.064,145.434z"/>
	<path fill="#FFFFFF" d="M98.537,140.452l1.82,5.996l-1.223,0.358l-1.193-3.968l-1.074,0.328l-0.328-1.104l0.268-0.09
		c0.179-0.06,0.328-0.119,0.418-0.179c0.089-0.06,0.179-0.149,0.209-0.239c0.03-0.089,0.06-0.179,0.06-0.298s-0.03-0.239-0.09-0.388
		l-0.03-0.119L98.537,140.452z"/>
	<path fill="#FFFFFF" d="M101.312,142.928c-0.089-0.268-0.179-0.537-0.239-0.805c-0.06-0.268-0.089-0.537-0.089-0.805
		c0-0.268,0.03-0.507,0.089-0.746c0.06-0.239,0.149-0.477,0.298-0.686c0.149-0.209,0.298-0.418,0.507-0.567
		c0.209-0.179,0.477-0.328,0.776-0.447c0.239-0.089,0.477-0.149,0.716-0.179c0.239-0.03,0.447,0,0.656,0.03
		c0.209,0.03,0.418,0.119,0.597,0.209c0.179,0.089,0.328,0.209,0.477,0.358l-0.925,0.835c-0.179-0.149-0.358-0.239-0.537-0.268
		c-0.209-0.03-0.388,0-0.597,0.06c-0.209,0.089-0.358,0.179-0.477,0.328c-0.119,0.149-0.209,0.298-0.268,0.477
		s-0.06,0.358-0.06,0.567c0,0.209,0.06,0.418,0.149,0.626c0.03-0.089,0.089-0.179,0.149-0.298c0.06-0.119,0.149-0.179,0.239-0.268
		c0.09-0.09,0.209-0.179,0.328-0.239c0.119-0.06,0.239-0.149,0.388-0.209c0.268-0.119,0.567-0.179,0.835-0.179
		c0.268,0,0.537,0.06,0.776,0.149c0.239,0.089,0.447,0.239,0.656,0.447c0.179,0.179,0.328,0.418,0.447,0.716
		c0.119,0.298,0.179,0.597,0.149,0.865c0,0.298-0.06,0.567-0.179,0.835s-0.298,0.477-0.507,0.686
		c-0.239,0.209-0.507,0.388-0.835,0.507c-0.358,0.149-0.716,0.209-1.044,0.179c-0.328-0.03-0.656-0.089-0.955-0.268
		c-0.298-0.149-0.567-0.388-0.835-0.686c-0.239-0.298-0.447-0.686-0.626-1.104L101.312,142.928z M102.982,143.376
		c0.06,0.149,0.119,0.268,0.209,0.358c0.09,0.089,0.209,0.179,0.328,0.239s0.268,0.089,0.418,0.089s0.298-0.03,0.447-0.089
		c0.149-0.06,0.298-0.149,0.388-0.239c0.119-0.089,0.179-0.209,0.239-0.328c0.06-0.119,0.09-0.239,0.09-0.388
		c0-0.149-0.03-0.268-0.09-0.418c-0.06-0.149-0.119-0.268-0.209-0.358c-0.089-0.089-0.209-0.179-0.328-0.239
		c-0.119-0.06-0.268-0.089-0.388-0.089c-0.149,0-0.298,0.03-0.447,0.089c-0.149,0.06-0.268,0.149-0.388,0.239
		s-0.179,0.209-0.239,0.328c-0.06,0.119-0.089,0.239-0.089,0.388S102.923,143.227,102.982,143.376z"/>
</g>
<g opacity="0.5">
	<path opacity="0.85" fill="none" stroke="#030504" stroke-width="2" stroke-miterlimit="10" enable-background="new    " d="
		M78.997,84.039L78.997,84.039c-1.074,1.074-2.804,1.074-3.848,0l-7.697-7.697c-1.074-1.074-1.074-2.804,0-3.848l0,0
		c1.074-1.074,2.804-1.074,3.848,0l7.697,7.697C80.041,81.234,80.041,82.994,78.997,84.039z"/>
	<path opacity="0.85" fill="none" stroke="#030504" stroke-width="2" stroke-miterlimit="10" enable-background="new    " d="
		M79.027,72.374L79.027,72.374c1.074,1.074,1.074,2.804,0,3.848l-7.697,7.697c-1.074,1.074-2.804,1.074-3.848,0l0,0
		c-1.074-1.074-1.074-2.804,0-3.848l7.697-7.697C76.222,71.33,77.953,71.33,79.027,72.374z"/>
	<g opacity="0.85">
		<g>
			
				<ellipse transform="matrix(-0.7071 -0.7071 0.7071 -0.7071 65.9912 184.1852)" fill="#010101" cx="71.142" cy="78.425" rx="0.447" ry="0.537"/>
			
				<ellipse transform="matrix(-0.7071 -0.7071 0.7071 -0.7071 68.6553 183.0807)" fill="#010101" cx="72.245" cy="77.321" rx="0.447" ry="0.537"/>
			
				<ellipse transform="matrix(-0.7071 -0.7071 0.7071 -0.7071 71.3277 181.9846)" fill="#010101" cx="73.354" cy="76.22" rx="0.447" ry="0.537"/>
		</g>
		<g>
			
				<ellipse transform="matrix(-0.7071 -0.7071 0.7071 -0.7071 66.9809 186.5566)" fill="#010101" cx="72.128" cy="79.406" rx="0.447" ry="0.537"/>
			
				<ellipse transform="matrix(-0.7071 -0.7071 0.7071 -0.7071 69.6451 185.4521)" fill="#010101" cx="73.231" cy="78.302" rx="0.447" ry="0.537"/>
			
				<ellipse transform="matrix(-0.7071 -0.7071 0.7071 -0.7071 72.3175 184.3559)" fill="#010101" cx="74.34" cy="77.201" rx="0.447" ry="0.537"/>
		</g>
		<g>
			
				<ellipse transform="matrix(-0.7071 -0.7071 0.7071 -0.7071 67.9199 188.949)" fill="#010101" cx="73.093" cy="80.408" rx="0.447" ry="0.537"/>
			
				<ellipse transform="matrix(-0.7071 -0.7071 0.7071 -0.7071 70.5839 187.8446)" fill="#010101" cx="74.196" cy="79.304" rx="0.447" ry="0.537"/>
			
				<ellipse transform="matrix(-0.7071 -0.7071 0.7071 -0.7071 73.3073 186.7273)" fill="#010101" cx="75.326" cy="78.181" rx="0.447" ry="0.537"/>
		</g>
	</g>
</g>
<polygon fill="#FFFFFF" points="15.215,103.549 18.466,101.819 17.84,105.458 20.495,108.024 16.855,108.561 15.215,111.843 
	13.574,108.561 9.934,108.024 12.589,105.458 11.963,101.819 "/>
<polygon fill="#FFFFFF" points="140.81,103.549 144.062,101.819 143.435,105.458 146.091,108.024 142.451,108.561 140.81,111.843 
	139.169,108.561 135.53,108.024 138.185,105.458 137.558,101.819 "/>
</svg>
