<?xml version="1.0" encoding="UTF-8" standalone="no"?><!DOCTYPE svg PUBLIC "-//W3C//DTD SVG 1.1//EN" "http://www.w3.org/Graphics/SVG/1.1/DTD/svg11.dtd"><svg width="100%" height="100%" viewBox="0 0 1942 1942" version="1.1" xmlns="http://www.w3.org/2000/svg" xmlns:xlink="http://www.w3.org/1999/xlink" xml:space="preserve" style="fill-rule:evenodd;clip-rule:evenodd;stroke-miterlimit:10;"><g id="Layer-1"><path d="M1941.62,970.811c0,536.162 -434.646,970.808 -970.809,970.808c-536.166,0 -970.812,-434.646 -970.812,-970.808c0,-536.163 434.646,-970.809 970.812,-970.809c536.163,0 970.809,434.646 970.809,970.809" style="fill-rule:nonzero;"/><path d="M1654.98,970.811c0,377.854 -306.313,684.166 -684.167,684.166c-377.854,0 -684.167,-306.312 -684.167,-684.166c0,-377.854 306.313,-684.167 684.167,-684.167c377.854,0 684.167,306.313 684.167,684.167" style="fill:#3abcff;fill-rule:nonzero;"/><path d="M973.07,272.064l2.258,0.011l2.256,0.018l2.254,0.025l2.253,0.032l2.251,0.039l2.249,0.047l2.248,0.053l2.246,0.06l2.244,0.068l2.242,0.074l2.241,0.082l2.238,0.089l2.238,0.095l2.235,0.103l2.233,0.11l2.232,0.116l2.23,0.124l2.227,0.131l2.227,0.137l2.224,0.145l2.222,0.151l2.221,0.159l2.218,0.165l2.217,0.172l2.215,0.179l2.213,0.186l2.21,0.193l2.209,0.2l2.207,0.206l2.205,0.214l2.203,0.22l2.201,0.227l2.199,0.234l2.197,0.24l2.195,0.248l2.193,0.254l2.191,0.261l2.189,0.268l2.186,0.274l2.185,0.281l2.183,0.288l2.18,0.295l2.178,0.301l2.177,0.308l2.174,0.315l2.171,0.321l2.17,0.328l2.168,0.335l2.165,0.341l2.163,0.348l2.161,0.355l2.159,0.361l2.157,0.368l2.154,0.374l2.152,0.381l2.15,0.388l2.147,0.394l2.145,0.4l2.143,0.407l2.141,0.414l2.138,0.42l2.136,0.427l2.134,0.433l2.131,0.439l2.129,0.446l2.126,0.453l2.125,0.459l2.121,0.465l2.12,0.472l2.116,0.478l2.115,0.485l2.112,0.491l2.11,0.497l2.107,0.504l2.105,0.51l2.102,0.517l2.099,0.523l2.098,0.529l2.094,0.535l2.093,0.542l2.089,0.548l2.087,0.554l2.085,0.561l2.082,0.567l2.079,0.573l2.077,0.579l2.074,0.586l2.071,0.592l2.069,0.598l2.067,0.604l2.063,0.61l2.061,0.617l2.059,0.623l2.055,0.629l2.053,0.635l2.05,0.641l2.048,0.647l2.045,0.654l2.042,0.659l2.039,0.666l2.037,0.671l2.033,0.678l2.031,0.684l2.029,0.69l2.025,0.696l2.023,0.701l2.02,0.708l2.016,0.714l2.014,0.72l2.012,0.726l2.008,0.732l2.006,0.738l2.002,0.744l2,0.749l1.997,0.756l1.994,0.762l1.991,0.767l1.988,0.773l1.985,0.78l1.982,0.785l1.979,0.791l1.976,0.797l1.974,0.802l1.97,0.809l1.967,0.814l1.964,0.82l1.961,0.826l1.958,0.832l1.955,0.837l1.952,0.844l1.949,0.849l1.946,0.854l1.942,0.861l1.94,0.866l1.936,0.872l1.933,0.878l1.931,0.883l1.926,0.889l1.924,0.895l1.921,0.9l1.917,0.906l1.914,0.912l1.911,0.917l1.908,0.923l1.905,0.928l1.901,0.934l1.898,0.94l1.895,0.945l1.892,0.951l1.888,0.956l1.885,0.962l1.881,0.967l1.879,0.973l1.875,0.979l1.871,0.984l1.869,0.989l1.865,0.995l1.861,1l1.858,1.006l1.855,1.011l1.851,1.017l1.849,1.022l1.844,1.027l1.841,1.033l1.838,1.038l1.834,1.044l1.831,1.049l1.827,1.055l1.824,1.059l1.82,1.065l1.817,1.071l1.813,1.076l1.81,1.08l1.806,1.087l1.803,1.091l1.799,1.097l1.795,1.102l1.792,1.108l1.788,1.112l1.785,1.118l1.781,1.123l1.777,1.128l1.774,1.134l1.771,1.138l1.766,1.144l1.763,1.149l1.759,1.154l1.756,1.16l1.751,1.164l1.748,1.169l1.745,1.175l1.74,1.18l1.737,1.185l1.733,1.19l1.729,1.195l1.726,1.2l1.722,1.205l1.718,1.21l1.714,1.215l1.71,1.22l1.706,1.225l1.703,1.23l1.699,1.235l1.695,1.24l1.691,1.245l1.687,1.25l1.683,1.255l1.68,1.26l1.675,1.265l1.672,1.27l1.667,1.274l1.664,1.28l1.66,1.284l1.655,1.289l1.652,1.294l1.648,1.299l1.644,1.304l1.639,1.308l1.636,1.314l1.632,1.318l1.627,1.323l1.624,1.328l1.619,1.332l1.616,1.337l1.611,1.342l1.607,1.347l1.604,1.351l1.599,1.357l1.595,1.36l1.591,1.366l1.586,1.37l1.583,1.375l1.578,1.38l1.574,1.384l1.57,1.389l1.566,1.394l1.561,1.397l1.557,1.403l1.553,1.408l1.549,1.412l1.545,1.416l1.54,1.421l1.536,1.426l1.532,1.43l1.527,1.435l1.523,1.439l1.519,1.443l1.515,1.449l1.51,1.452l1.505,1.457l1.502,1.462l1.497,1.466l1.492,1.471l1.489,1.475l1.483,1.479l1.48,1.484l1.475,1.488l1.47,1.493l1.467,1.497l1.461,1.501l1.457,1.506l1.453,1.51l1.448,1.515l1.444,1.518l1.439,1.524l1.435,1.527l1.43,1.532l1.426,1.536l1.421,1.54l1.416,1.544l1.412,1.549l1.407,1.553l1.403,1.557l1.398,1.562l1.394,1.566l1.389,1.57l1.384,1.574l1.379,1.578l1.375,1.583l1.371,1.586l1.365,1.591l1.361,1.595l1.356,1.599l1.352,1.603l1.346,1.607l1.342,1.612l1.337,1.615l1.333,1.62l1.328,1.624l1.323,1.627l1.318,1.632l1.313,1.635l1.309,1.64l1.303,1.644l1.299,1.648l1.294,1.651l1.29,1.656l1.284,1.66l1.279,1.663l1.275,1.668l1.27,1.671l1.264,1.676l1.26,1.679l1.255,1.684l1.25,1.687l1.245,1.691l1.241,1.695l1.234,1.699l1.23,1.702l1.226,1.707l1.22,1.71l1.215,1.714l1.21,1.718l1.205,1.722l1.2,1.726l1.195,1.729l1.19,1.733l1.185,1.737l1.179,1.74l1.175,1.744l1.17,1.749l1.164,1.752l1.159,1.755l1.154,1.759l1.149,1.763l1.144,1.766l1.139,1.77l1.133,1.774l1.128,1.777l1.124,1.782l1.117,1.784l1.113,1.789l1.107,1.792l1.102,1.795l1.097,1.799l1.092,1.803l1.086,1.806l1.081,1.81l1.076,1.813l1.07,1.816l1.066,1.821l1.059,1.824l1.054,1.827l1.049,1.831l1.044,1.834l1.038,1.838l1.033,1.841l1.028,1.844l1.022,1.848l1.017,1.852l1.011,1.854l1.006,1.859l1,1.861l0.995,1.865l0.989,1.868l0.984,1.872l0.979,1.875l0.972,1.878l0.968,1.882l0.962,1.885l0.956,1.888l0.951,1.892l0.945,1.895l0.939,1.897l0.935,1.902l0.928,1.904l0.923,1.908l0.917,1.911l0.912,1.914l0.906,1.918l0.9,1.92l0.895,1.924l0.889,1.927l0.883,1.931l0.878,1.932l0.872,1.937l0.866,1.939l0.86,1.943l0.855,1.946l0.849,1.948l0.843,1.952l0.838,1.955l0.832,1.959l0.826,1.961l0.82,1.964l0.814,1.967l0.808,1.97l0.803,1.973l0.797,1.976l0.791,1.98l0.785,1.982l0.779,1.984l0.774,1.989l0.767,1.991l0.762,1.993l0.755,1.997l0.75,2l0.744,2.003l0.738,2.006l0.731,2.008l0.726,2.011l0.72,2.014l0.714,2.017l0.708,2.02l0.702,2.023l0.696,2.025l0.69,2.028l0.684,2.032l0.677,2.033l0.672,2.037l0.666,2.039l0.659,2.042l0.653,2.045l0.648,2.047l0.641,2.051l0.635,2.053l0.629,2.055l0.623,2.058l0.616,2.062l0.611,2.063l0.604,2.066l0.598,2.069l0.592,2.072l0.585,2.074l0.58,2.077l0.573,2.079l0.567,2.082l0.56,2.085l0.555,2.087l0.548,2.089l0.541,2.092l0.536,2.095l0.529,2.097l0.523,2.1l0.516,2.102l0.51,2.105l0.504,2.107l0.498,2.109l0.491,2.113l0.484,2.114l0.479,2.117l0.471,2.119l0.466,2.122l0.459,2.124l0.452,2.127l0.446,2.128l0.44,2.132l0.433,2.134l0.427,2.136l0.42,2.138l0.413,2.14l0.408,2.143l0.4,2.146l0.394,2.147l0.388,2.15l0.381,2.152l0.374,2.154l0.368,2.157l0.361,2.159l0.354,2.16l0.348,2.163l0.342,2.166l0.334,2.167l0.329,2.171l0.321,2.171l0.314,2.173l0.309,2.177l0.301,2.179l0.294,2.18l0.288,2.182l0.282,2.185l0.274,2.187l0.268,2.189l0.261,2.19l0.254,2.194l0.247,2.195l0.241,2.196l0.234,2.199l0.227,2.202l0.22,2.202l0.213,2.205l0.207,2.207l0.2,2.209l0.193,2.211l0.186,2.213l0.179,2.215l0.172,2.217l0.165,2.218l0.158,2.221l0.152,2.222l0.144,2.224l0.138,2.226l0.131,2.228l0.123,2.23l0.117,2.232l0.11,2.233l0.102,2.235l0.096,2.237l0.089,2.239l0.081,2.241l0.075,2.242l0.067,2.244l0.061,2.245l0.053,2.248l0.046,2.25l0.04,2.251l0.032,2.252l0.025,2.255l0.018,2.255l0.01,2.259l0.004,2.259l-0.004,2.259l-0.01,2.258l-0.018,2.256l-0.025,2.254l-0.032,2.253l-0.04,2.251l-0.046,2.25l-0.053,2.247l-0.061,2.246l-0.067,2.243l-0.075,2.243l-0.081,2.241l-0.089,2.238l-0.096,2.237l-0.102,2.236l-0.11,2.233l-0.117,2.232l-0.123,2.23l-0.131,2.228l-0.138,2.226l-0.144,2.224l-0.152,2.222l-0.158,2.22l-0.165,2.219l-0.172,2.217l-0.179,2.215l-0.186,2.213l-0.193,2.211l-0.2,2.208l-0.207,2.207l-0.213,2.205l-0.22,2.203l-0.227,2.201l-0.234,2.199l-0.241,2.197l-0.247,2.195l-0.254,2.193l-0.261,2.191l-0.268,2.189l-0.274,2.186l-0.282,2.186l-0.288,2.182l-0.294,2.18l-0.301,2.179l-0.309,2.176l-0.314,2.173l-0.321,2.172l-0.329,2.17l-0.334,2.168l-0.342,2.165l-0.348,2.163l-0.354,2.161l-0.361,2.159l-0.368,2.157l-0.374,2.154l-0.381,2.152l-0.388,2.15l-0.394,2.147l-0.4,2.145l-0.408,2.143l-0.413,2.141l-0.42,2.138l-0.427,2.136l-0.433,2.134l-0.44,2.131l-0.446,2.129l-0.452,2.127l-0.459,2.123l-0.466,2.122l-0.471,2.12l-0.479,2.116l-0.484,2.115l-0.491,2.112l-0.498,2.11l-0.504,2.107l-0.51,2.105l-0.516,2.101l-0.523,2.1l-0.529,2.098l-0.536,2.094l-0.541,2.092l-0.548,2.09l-0.555,2.087l-0.56,2.085l-0.567,2.081l-0.573,2.079l-0.58,2.078l-0.585,2.074l-0.592,2.071l-0.598,2.07l-0.604,2.065l-0.611,2.064l-0.616,2.062l-0.623,2.058l-0.629,2.055l-0.635,2.053l-0.641,2.051l-0.648,2.047l-0.653,2.045l-0.659,2.042l-0.666,2.039l-0.672,2.037l-0.677,2.033l-0.684,2.031l-0.69,2.029l-0.696,2.025l-0.702,2.023l-0.708,2.019l-0.714,2.017l-0.72,2.015l-0.726,2.011l-0.731,2.008l-0.738,2.005l-0.744,2.003l-0.75,2l-0.755,1.997l-0.762,1.993l-0.767,1.992l-0.774,1.988l-0.779,1.985l-0.785,1.982l-0.791,1.979l-0.797,1.976l-0.803,1.974l-0.808,1.97l-0.814,1.967l-0.82,1.964l-0.826,1.961l-0.832,1.958l-0.838,1.955l-0.843,1.952l-0.849,1.948l-0.855,1.947l-0.86,1.942l-0.866,1.94l-0.872,1.936l-0.878,1.933l-0.883,1.931l-0.889,1.926l-0.895,1.924l-0.9,1.921l-0.906,1.917l-0.912,1.914l-0.917,1.912l-0.923,1.908l-0.928,1.904l-0.935,1.901l-0.939,1.898l-0.945,1.895l-0.951,1.891l-0.956,1.889l-0.962,1.885l-0.968,1.881l-0.972,1.878l-0.979,1.876l-0.984,1.871l-0.989,1.869l-0.995,1.865l-1,1.861l-1.006,1.859l-1.011,1.854l-1.017,1.851l-1.022,1.849l-1.028,1.844l-1.033,1.841l-1.038,1.837l-1.044,1.835l-1.049,1.831l-1.054,1.827l-1.059,1.824l-1.066,1.821l-1.07,1.816l-1.076,1.813l-1.081,1.81l-1.086,1.806l-1.092,1.803l-1.097,1.799l-1.102,1.795l-1.107,1.792l-1.113,1.788l-1.117,1.785l-1.124,1.781l-1.128,1.778l-1.133,1.773l-1.139,1.771l-1.144,1.766l-1.149,1.763l-1.154,1.759l-1.159,1.755l-1.164,1.752l-1.17,1.748l-1.175,1.745l-1.179,1.74l-1.185,1.737l-1.19,1.733l-1.195,1.729l-1.2,1.726l-1.205,1.721l-1.21,1.719l-1.215,1.714l-1.22,1.71l-1.226,1.707l-1.23,1.702l-1.234,1.699l-1.241,1.695l-1.245,1.691l-1.25,1.687l-1.255,1.684l-1.26,1.679l-1.264,1.675l-1.27,1.672l-1.275,1.667l-1.279,1.664l-1.284,1.66l-1.29,1.656l-1.294,1.651l-1.299,1.648l-1.303,1.644l-1.309,1.639l-1.313,1.636l-1.318,1.632l-1.323,1.627l-1.328,1.624l-1.332,1.62l-1.338,1.615l-1.342,1.611l-1.346,1.607l-1.352,1.604l-1.356,1.599l-1.361,1.595l-1.366,1.591l-1.37,1.586l-1.375,1.583l-1.379,1.578l-1.384,1.574l-1.389,1.57l-1.394,1.566l-1.398,1.561l-1.403,1.557l-1.407,1.553l-1.412,1.549l-1.416,1.545l-1.421,1.54l-1.426,1.536l-1.43,1.532l-1.435,1.527l-1.439,1.523l-1.444,1.519l-1.448,1.515l-1.453,1.51l-1.457,1.505l-1.461,1.502l-1.467,1.497l-1.47,1.492l-1.475,1.489l-1.48,1.483l-1.483,1.48l-1.489,1.475l-1.492,1.47l-1.497,1.467l-1.502,1.461l-1.505,1.457l-1.51,1.453l-1.515,1.448l-1.519,1.444l-1.523,1.439l-1.527,1.435l-1.532,1.43l-1.536,1.426l-1.54,1.421l-1.545,1.416l-1.549,1.412l-1.553,1.407l-1.557,1.403l-1.561,1.398l-1.566,1.394l-1.57,1.389l-1.574,1.384l-1.578,1.379l-1.583,1.375l-1.586,1.37l-1.591,1.366l-1.595,1.361l-1.599,1.356l-1.604,1.352l-1.607,1.346l-1.611,1.342l-1.615,1.338l-1.62,1.332l-1.624,1.328l-1.627,1.323l-1.632,1.318l-1.636,1.313l-1.639,1.309l-1.644,1.303l-1.648,1.299l-1.651,1.294l-1.656,1.29l-1.66,1.284l-1.664,1.279l-1.667,1.275l-1.672,1.27l-1.675,1.264l-1.679,1.26l-1.684,1.255l-1.687,1.25l-1.691,1.245l-1.695,1.241l-1.699,1.234l-1.702,1.23l-1.707,1.226l-1.71,1.22l-1.714,1.215l-1.719,1.21l-1.721,1.205l-1.726,1.2l-1.729,1.195l-1.733,1.19l-1.737,1.185l-1.74,1.179l-1.745,1.175l-1.748,1.17l-1.752,1.164l-1.755,1.159l-1.759,1.154l-1.763,1.149l-1.766,1.144l-1.771,1.139l-1.773,1.133l-1.778,1.128l-1.781,1.124l-1.785,1.117l-1.788,1.113l-1.792,1.107l-1.795,1.102l-1.799,1.097l-1.803,1.092l-1.806,1.086l-1.81,1.081l-1.813,1.076l-1.816,1.07l-1.821,1.066l-1.824,1.059l-1.827,1.054l-1.831,1.049l-1.835,1.044l-1.837,1.038l-1.841,1.033l-1.844,1.028l-1.849,1.022l-1.851,1.017l-1.854,1.011l-1.859,1.006l-1.861,1l-1.865,0.995l-1.869,0.989l-1.871,0.984l-1.876,0.979l-1.878,0.972l-1.881,0.968l-1.885,0.962l-1.889,0.956l-1.891,0.951l-1.895,0.945l-1.898,0.939l-1.901,0.935l-1.904,0.928l-1.908,0.923l-1.912,0.917l-1.914,0.912l-1.917,0.906l-1.921,0.9l-1.924,0.895l-1.926,0.889l-1.931,0.883l-1.933,0.878l-1.936,0.872l-1.94,0.866l-1.942,0.86l-1.947,0.855l-1.948,0.849l-1.952,0.843l-1.955,0.838l-1.958,0.832l-1.961,0.826l-1.964,0.82l-1.967,0.814l-1.97,0.808l-1.974,0.803l-1.976,0.797l-1.979,0.791l-1.982,0.785l-1.985,0.779l-1.988,0.774l-1.992,0.767l-1.993,0.762l-1.997,0.755l-2,0.75l-2.003,0.744l-2.005,0.738l-2.008,0.731l-2.011,0.726l-2.015,0.72l-2.017,0.714l-2.019,0.708l-2.023,0.702l-2.025,0.696l-2.029,0.69l-2.031,0.684l-2.033,0.677l-2.037,0.672l-2.039,0.666l-2.042,0.659l-2.045,0.653l-2.047,0.648l-2.051,0.641l-2.053,0.635l-2.055,0.629l-2.058,0.623l-2.062,0.616l-2.064,0.611l-2.065,0.604l-2.07,0.598l-2.071,0.592l-2.074,0.585l-2.078,0.58l-2.079,0.573l-2.081,0.567l-2.085,0.56l-2.087,0.555l-2.09,0.548l-2.092,0.541l-2.094,0.536l-2.098,0.529l-2.1,0.523l-2.101,0.516l-2.105,0.51l-2.107,0.504l-2.11,0.498l-2.112,0.491l-2.115,0.484l-2.116,0.479l-2.12,0.471l-2.122,0.466l-2.123,0.459l-2.127,0.452l-2.129,0.446l-2.131,0.44l-2.134,0.433l-2.136,0.427l-2.138,0.42l-2.141,0.413l-2.143,0.408l-2.145,0.4l-2.147,0.394l-2.15,0.388l-2.152,0.381l-2.154,0.374l-2.157,0.368l-2.159,0.361l-2.161,0.354l-2.163,0.348l-2.165,0.342l-2.168,0.334l-2.17,0.329l-2.172,0.321l-2.173,0.314l-2.176,0.309l-2.179,0.301l-2.18,0.294l-2.182,0.288l-2.186,0.282l-2.186,0.274l-2.189,0.268l-2.191,0.261l-2.193,0.254l-2.195,0.247l-2.197,0.241l-2.199,0.234l-2.201,0.227l-2.203,0.22l-2.205,0.213l-2.207,0.207l-2.208,0.2l-2.211,0.193l-2.213,0.186l-2.215,0.179l-2.217,0.172l-2.219,0.165l-2.22,0.158l-2.222,0.152l-2.224,0.144l-2.226,0.138l-2.228,0.131l-2.23,0.123l-2.232,0.117l-2.233,0.11l-2.236,0.102l-2.237,0.096l-2.238,0.089l-2.241,0.081l-2.243,0.075l-2.243,0.067l-2.246,0.061l-2.247,0.053l-2.25,0.046l-2.251,0.04l-2.253,0.032l-2.254,0.025l-2.256,0.018l-2.258,0.01l-2.259,0.004l-2.259,-0.004l-2.259,-0.01l-2.255,-0.018l-2.255,-0.025l-2.252,-0.032l-2.251,-0.04l-2.25,-0.046l-2.248,-0.053l-2.245,-0.061l-2.244,-0.067l-2.242,-0.075l-2.241,-0.081l-2.239,-0.089l-2.237,-0.096l-2.235,-0.102l-2.233,-0.11l-2.232,-0.117l-2.23,-0.123l-2.228,-0.131l-2.226,-0.138l-2.224,-0.144l-2.222,-0.152l-2.221,-0.158l-2.218,-0.165l-2.217,-0.172l-2.215,-0.179l-2.213,-0.186l-2.211,-0.193l-2.209,-0.2l-2.207,-0.207l-2.205,-0.213l-2.202,-0.22l-2.202,-0.227l-2.199,-0.234l-2.196,-0.241l-2.195,-0.247l-2.194,-0.254l-2.19,-0.261l-2.189,-0.268l-2.187,-0.274l-2.185,-0.282l-2.182,-0.288l-2.18,-0.294l-2.179,-0.301l-2.177,-0.309l-2.173,-0.314l-2.171,-0.321l-2.171,-0.329l-2.167,-0.334l-2.166,-0.342l-2.163,-0.348l-2.16,-0.354l-2.159,-0.361l-2.157,-0.368l-2.154,-0.374l-2.152,-0.381l-2.15,-0.388l-2.147,-0.394l-2.146,-0.4l-2.143,-0.408l-2.14,-0.413l-2.138,-0.42l-2.136,-0.427l-2.134,-0.433l-2.132,-0.44l-2.128,-0.446l-2.127,-0.452l-2.124,-0.459l-2.122,-0.466l-2.119,-0.471l-2.117,-0.479l-2.114,-0.484l-2.113,-0.491l-2.109,-0.498l-2.107,-0.504l-2.105,-0.51l-2.102,-0.516l-2.1,-0.523l-2.097,-0.529l-2.095,-0.536l-2.092,-0.541l-2.089,-0.548l-2.087,-0.555l-2.085,-0.56l-2.082,-0.567l-2.079,-0.573l-2.077,-0.58l-2.074,-0.585l-2.072,-0.592l-2.069,-0.598l-2.066,-0.604l-2.063,-0.611l-2.062,-0.616l-2.058,-0.623l-2.055,-0.629l-2.053,-0.635l-2.051,-0.641l-2.047,-0.648l-2.045,-0.653l-2.042,-0.659l-2.039,-0.666l-2.037,-0.672l-2.033,-0.677l-2.032,-0.684l-2.028,-0.69l-2.025,-0.696l-2.023,-0.702l-2.02,-0.708l-2.017,-0.714l-2.014,-0.72l-2.011,-0.726l-2.008,-0.731l-2.006,-0.738l-2.003,-0.744l-2,-0.75l-1.997,-0.755l-1.993,-0.762l-1.991,-0.767l-1.989,-0.774l-1.984,-0.779l-1.982,-0.785l-1.98,-0.791l-1.976,-0.797l-1.973,-0.803l-1.97,-0.808l-1.967,-0.814l-1.964,-0.82l-1.961,-0.826l-1.959,-0.832l-1.955,-0.838l-1.952,-0.843l-1.948,-0.849l-1.946,-0.855l-1.943,-0.86l-1.939,-0.866l-1.937,-0.872l-1.932,-0.878l-1.931,-0.883l-1.927,-0.889l-1.924,-0.895l-1.92,-0.9l-1.918,-0.906l-1.914,-0.912l-1.911,-0.917l-1.908,-0.923l-1.904,-0.928l-1.902,-0.935l-1.897,-0.939l-1.895,-0.945l-1.892,-0.951l-1.888,-0.956l-1.885,-0.962l-1.882,-0.968l-1.878,-0.972l-1.875,-0.979l-1.872,-0.984l-1.868,-0.989l-1.865,-0.995l-1.861,-1l-1.859,-1.006l-1.854,-1.011l-1.852,-1.017l-1.848,-1.022l-1.844,-1.028l-1.841,-1.033l-1.838,-1.038l-1.834,-1.044l-1.831,-1.049l-1.827,-1.054l-1.824,-1.059l-1.821,-1.066l-1.816,-1.07l-1.813,-1.076l-1.81,-1.081l-1.806,-1.086l-1.803,-1.092l-1.799,-1.097l-1.795,-1.102l-1.792,-1.107l-1.789,-1.113l-1.784,-1.117l-1.782,-1.124l-1.777,-1.128l-1.774,-1.133l-1.77,-1.139l-1.766,-1.144l-1.763,-1.149l-1.759,-1.154l-1.755,-1.159l-1.752,-1.164l-1.749,-1.17l-1.744,-1.175l-1.74,-1.179l-1.737,-1.185l-1.733,-1.19l-1.729,-1.195l-1.726,-1.2l-1.722,-1.205l-1.718,-1.21l-1.714,-1.215l-1.71,-1.22l-1.707,-1.226l-1.702,-1.23l-1.699,-1.234l-1.695,-1.241l-1.691,-1.245l-1.687,-1.25l-1.684,-1.255l-1.679,-1.26l-1.676,-1.264l-1.671,-1.27l-1.668,-1.275l-1.663,-1.279l-1.66,-1.284l-1.656,-1.29l-1.651,-1.294l-1.648,-1.299l-1.644,-1.303l-1.64,-1.309l-1.635,-1.313l-1.632,-1.318l-1.627,-1.323l-1.624,-1.328l-1.62,-1.333l-1.615,-1.337l-1.612,-1.342l-1.607,-1.346l-1.603,-1.352l-1.599,-1.356l-1.595,-1.361l-1.591,-1.365l-1.586,-1.371l-1.583,-1.375l-1.578,-1.379l-1.574,-1.384l-1.57,-1.389l-1.566,-1.394l-1.562,-1.398l-1.557,-1.403l-1.553,-1.407l-1.549,-1.412l-1.544,-1.416l-1.54,-1.421l-1.536,-1.426l-1.532,-1.43l-1.527,-1.435l-1.524,-1.439l-1.518,-1.444l-1.515,-1.448l-1.51,-1.453l-1.506,-1.457l-1.501,-1.461l-1.497,-1.467l-1.493,-1.47l-1.488,-1.475l-1.484,-1.48l-1.479,-1.483l-1.475,-1.489l-1.471,-1.492l-1.466,-1.497l-1.462,-1.502l-1.457,-1.505l-1.452,-1.51l-1.449,-1.515l-1.443,-1.519l-1.439,-1.523l-1.435,-1.527l-1.43,-1.532l-1.426,-1.536l-1.421,-1.54l-1.416,-1.545l-1.412,-1.549l-1.408,-1.553l-1.403,-1.557l-1.397,-1.561l-1.394,-1.566l-1.389,-1.57l-1.384,-1.574l-1.38,-1.578l-1.375,-1.583l-1.37,-1.586l-1.366,-1.591l-1.36,-1.595l-1.357,-1.599l-1.351,-1.604l-1.347,-1.607l-1.342,-1.611l-1.337,-1.616l-1.332,-1.619l-1.328,-1.624l-1.323,-1.627l-1.318,-1.632l-1.314,-1.636l-1.308,-1.639l-1.304,-1.644l-1.299,-1.648l-1.294,-1.652l-1.289,-1.655l-1.284,-1.66l-1.28,-1.664l-1.274,-1.667l-1.27,-1.672l-1.265,-1.675l-1.26,-1.68l-1.255,-1.683l-1.25,-1.687l-1.245,-1.691l-1.24,-1.695l-1.235,-1.699l-1.23,-1.703l-1.225,-1.706l-1.22,-1.71l-1.215,-1.714l-1.21,-1.718l-1.205,-1.722l-1.2,-1.726l-1.195,-1.729l-1.19,-1.733l-1.185,-1.737l-1.18,-1.74l-1.175,-1.745l-1.169,-1.748l-1.164,-1.751l-1.16,-1.756l-1.154,-1.759l-1.149,-1.763l-1.144,-1.766l-1.138,-1.771l-1.134,-1.774l-1.128,-1.777l-1.123,-1.781l-1.118,-1.785l-1.112,-1.788l-1.108,-1.792l-1.102,-1.795l-1.097,-1.799l-1.091,-1.803l-1.087,-1.806l-1.08,-1.81l-1.076,-1.813l-1.071,-1.817l-1.065,-1.82l-1.059,-1.824l-1.055,-1.827l-1.049,-1.831l-1.044,-1.834l-1.038,-1.838l-1.033,-1.841l-1.027,-1.844l-1.022,-1.849l-1.017,-1.851l-1.011,-1.855l-1.006,-1.858l-1,-1.861l-0.995,-1.865l-0.989,-1.869l-0.984,-1.871l-0.979,-1.875l-0.973,-1.879l-0.967,-1.881l-0.962,-1.885l-0.956,-1.888l-0.951,-1.892l-0.945,-1.895l-0.94,-1.898l-0.934,-1.901l-0.928,-1.905l-0.923,-1.908l-0.917,-1.911l-0.912,-1.914l-0.906,-1.917l-0.9,-1.921l-0.895,-1.924l-0.889,-1.926l-0.883,-1.931l-0.878,-1.933l-0.872,-1.936l-0.866,-1.94l-0.861,-1.942l-0.854,-1.946l-0.849,-1.949l-0.844,-1.952l-0.837,-1.955l-0.832,-1.958l-0.826,-1.961l-0.82,-1.964l-0.814,-1.967l-0.809,-1.97l-0.802,-1.974l-0.797,-1.976l-0.791,-1.979l-0.785,-1.982l-0.78,-1.985l-0.773,-1.988l-0.767,-1.991l-0.762,-1.994l-0.756,-1.997l-0.749,-2l-0.744,-2.002l-0.738,-2.006l-0.732,-2.008l-0.726,-2.012l-0.72,-2.014l-0.714,-2.016l-0.708,-2.02l-0.701,-2.023l-0.696,-2.025l-0.69,-2.029l-0.684,-2.031l-0.678,-2.033l-0.671,-2.037l-0.666,-2.039l-0.659,-2.042l-0.654,-2.045l-0.647,-2.048l-0.641,-2.05l-0.635,-2.053l-0.629,-2.055l-0.623,-2.059l-0.617,-2.061l-0.61,-2.063l-0.604,-2.067l-0.598,-2.069l-0.592,-2.071l-0.586,-2.074l-0.579,-2.077l-0.573,-2.079l-0.567,-2.082l-0.561,-2.085l-0.554,-2.087l-0.548,-2.089l-0.542,-2.093l-0.535,-2.094l-0.529,-2.098l-0.523,-2.099l-0.517,-2.102l-0.51,-2.105l-0.504,-2.107l-0.497,-2.11l-0.491,-2.112l-0.485,-2.115l-0.478,-2.116l-0.472,-2.12l-0.465,-2.121l-0.459,-2.125l-0.453,-2.126l-0.446,-2.129l-0.439,-2.131l-0.433,-2.134l-0.427,-2.136l-0.42,-2.138l-0.414,-2.141l-0.407,-2.143l-0.4,-2.145l-0.394,-2.147l-0.388,-2.15l-0.381,-2.152l-0.374,-2.154l-0.368,-2.157l-0.361,-2.159l-0.355,-2.161l-0.348,-2.163l-0.341,-2.165l-0.335,-2.168l-0.328,-2.17l-0.321,-2.171l-0.315,-2.174l-0.308,-2.177l-0.301,-2.178l-0.295,-2.18l-0.288,-2.183l-0.281,-2.185l-0.274,-2.186l-0.268,-2.189l-0.261,-2.191l-0.254,-2.193l-0.248,-2.195l-0.24,-2.197l-0.234,-2.199l-0.227,-2.201l-0.22,-2.203l-0.214,-2.205l-0.206,-2.207l-0.2,-2.209l-0.193,-2.21l-0.186,-2.213l-0.179,-2.215l-0.172,-2.217l-0.165,-2.218l-0.159,-2.221l-0.151,-2.222l-0.145,-2.224l-0.137,-2.227l-0.131,-2.227l-0.124,-2.23l-0.116,-2.232l-0.11,-2.233l-0.103,-2.235l-0.095,-2.238l-0.089,-2.238l-0.082,-2.241l-0.074,-2.242l-0.068,-2.244l-0.06,-2.246l-0.053,-2.248l-0.047,-2.249l-0.039,-2.251l-0.032,-2.253l-0.025,-2.254l-0.018,-2.256l-0.011,-2.258l-0.003,-2.259l0.003,-2.26l0.011,-2.257l0.018,-2.256l0.025,-2.255l0.032,-2.252l0.039,-2.251l0.047,-2.25l0.053,-2.247l0.06,-2.246l0.068,-2.244l0.074,-2.242l0.082,-2.241l0.089,-2.239l0.095,-2.237l0.103,-2.235l0.11,-2.234l0.116,-2.231l0.124,-2.23l0.131,-2.228l0.137,-2.226l0.145,-2.224l0.151,-2.222l0.159,-2.221l0.165,-2.219l0.172,-2.216l0.179,-2.215l0.186,-2.213l0.193,-2.211l0.2,-2.209l0.206,-2.207l0.214,-2.205l0.22,-2.203l0.227,-2.201l0.234,-2.199l0.24,-2.197l0.248,-2.195l0.254,-2.192l0.261,-2.191l0.268,-2.189l0.274,-2.187l0.281,-2.184l0.288,-2.183l0.295,-2.18l0.301,-2.179l0.308,-2.176l0.315,-2.174l0.321,-2.172l0.328,-2.17l0.335,-2.167l0.341,-2.165l0.348,-2.164l0.355,-2.161l0.361,-2.158l0.368,-2.157l0.374,-2.154l0.381,-2.152l0.388,-2.15l0.394,-2.147l0.4,-2.146l0.407,-2.143l0.414,-2.14l0.42,-2.138l0.427,-2.136l0.433,-2.134l0.439,-2.131l0.446,-2.129l0.453,-2.127l0.459,-2.124l0.465,-2.122l0.472,-2.119l0.478,-2.117l0.485,-2.114l0.491,-2.112l0.497,-2.11l0.504,-2.107l0.51,-2.105l0.517,-2.102l0.523,-2.1l0.529,-2.097l0.535,-2.095l0.542,-2.092l0.548,-2.089l0.554,-2.088l0.561,-2.084l0.567,-2.082l0.573,-2.079l0.579,-2.077l0.586,-2.074l0.592,-2.072l0.598,-2.069l0.604,-2.066l0.61,-2.064l0.617,-2.06l0.623,-2.059l0.629,-2.055l0.635,-2.053l0.641,-2.051l0.647,-2.047l0.654,-2.045l0.659,-2.042l0.666,-2.039l0.671,-2.037l0.678,-2.034l0.684,-2.031l0.69,-2.028l0.696,-2.025l0.702,-2.023l0.707,-2.02l0.714,-2.017l0.72,-2.014l0.726,-2.011l0.732,-2.008l0.738,-2.006l0.744,-2.003l0.749,-1.999l0.756,-1.997l0.762,-1.994l0.767,-1.991l0.773,-1.988l0.78,-1.985l0.785,-1.982l0.791,-1.98l0.797,-1.976l0.802,-1.973l0.809,-1.97l0.814,-1.967l0.82,-1.964l0.826,-1.961l0.832,-1.958l0.837,-1.955l0.844,-1.952l0.849,-1.949l0.854,-1.946l0.861,-1.943l0.866,-1.939l0.872,-1.936l0.878,-1.934l0.883,-1.93l0.889,-1.927l0.895,-1.924l0.9,-1.92l0.906,-1.918l0.912,-1.914l0.917,-1.911l0.923,-1.908l0.928,-1.904l0.934,-1.902l0.94,-1.897l0.945,-1.895l0.951,-1.892l0.956,-1.888l0.962,-1.885l0.967,-1.882l0.973,-1.878l0.979,-1.875l0.984,-1.872l0.989,-1.868l0.995,-1.865l1,-1.861l1.006,-1.859l1.011,-1.855l1.017,-1.851l1.022,-1.848l1.027,-1.844l1.033,-1.841l1.039,-1.838l1.043,-1.834l1.049,-1.831l1.055,-1.827l1.059,-1.824l1.065,-1.82l1.071,-1.817l1.076,-1.814l1.081,-1.809l1.086,-1.806l1.091,-1.803l1.097,-1.799l1.102,-1.795l1.108,-1.792l1.112,-1.789l1.118,-1.784l1.123,-1.781l1.128,-1.778l1.134,-1.774l1.138,-1.77l1.144,-1.766l1.149,-1.763l1.154,-1.759l1.16,-1.756l1.164,-1.751l1.17,-1.748l1.174,-1.745l1.18,-1.74l1.185,-1.737l1.19,-1.733l1.195,-1.73l1.2,-1.725l1.205,-1.722l1.21,-1.718l1.215,-1.714l1.22,-1.71l1.225,-1.707l1.23,-1.702l1.235,-1.699l1.24,-1.695l1.245,-1.691l1.25,-1.687l1.255,-1.684l1.26,-1.679l1.265,-1.676l1.27,-1.671l1.274,-1.668l1.28,-1.663l1.284,-1.66l1.289,-1.656l1.294,-1.651l1.299,-1.648l1.304,-1.644l1.308,-1.64l1.314,-1.635l1.318,-1.632l1.323,-1.628l1.328,-1.623l1.332,-1.62l1.337,-1.615l1.342,-1.612l1.347,-1.607l1.351,-1.603l1.357,-1.599l1.361,-1.595l1.365,-1.591l1.37,-1.586l1.375,-1.583l1.38,-1.578l1.384,-1.574l1.389,-1.57l1.393,-1.566l1.399,-1.561l1.402,-1.558l1.408,-1.553l1.412,-1.549l1.416,-1.544l1.421,-1.54l1.426,-1.536l1.43,-1.532l1.434,-1.527l1.44,-1.524l1.443,-1.518l1.449,-1.515l1.452,-1.51l1.457,-1.506l1.462,-1.501l1.466,-1.497l1.471,-1.493l1.475,-1.488l1.479,-1.484l1.484,-1.479l1.488,-1.475l1.493,-1.471l1.497,-1.466l1.501,-1.462l1.506,-1.457l1.51,-1.452l1.515,-1.449l1.518,-1.443l1.524,-1.44l1.527,-1.434l1.532,-1.43l1.536,-1.426l1.54,-1.421l1.544,-1.416l1.549,-1.412l1.553,-1.408l1.558,-1.402l1.561,-1.399l1.566,-1.393l1.57,-1.389l1.574,-1.384l1.578,-1.38l1.583,-1.375l1.586,-1.37l1.591,-1.365l1.595,-1.361l1.599,-1.357l1.603,-1.351l1.607,-1.347l1.612,-1.342l1.615,-1.337l1.62,-1.332l1.623,-1.328l1.628,-1.323l1.632,-1.318l1.635,-1.314l1.64,-1.308l1.644,-1.304l1.648,-1.299l1.651,-1.294l1.656,-1.289l1.66,-1.284l1.663,-1.28l1.668,-1.274l1.671,-1.27l1.676,-1.265l1.679,-1.26l1.684,-1.255l1.687,-1.25l1.691,-1.245l1.695,-1.24l1.699,-1.235l1.702,-1.23l1.707,-1.225l1.71,-1.22l1.714,-1.215l1.718,-1.21l1.722,-1.205l1.725,-1.2l1.73,-1.195l1.733,-1.19l1.737,-1.185l1.74,-1.18l1.745,-1.174l1.748,-1.17l1.751,-1.164l1.756,-1.16l1.759,-1.154l1.763,-1.149l1.766,-1.144l1.77,-1.138l1.774,-1.134l1.778,-1.128l1.781,-1.123l1.784,-1.118l1.789,-1.112l1.792,-1.108l1.795,-1.102l1.799,-1.097l1.803,-1.091l1.806,-1.086l1.809,-1.081l1.814,-1.076l1.817,-1.071l1.82,-1.065l1.824,-1.059l1.827,-1.055l1.831,-1.049l1.834,-1.043l1.838,-1.039l1.841,-1.033l1.844,-1.027l1.848,-1.022l1.851,-1.017l1.855,-1.011l1.859,-1.006l1.861,-1l1.865,-0.995l1.868,-0.989l1.872,-0.984l1.875,-0.979l1.878,-0.973l1.882,-0.967l1.885,-0.962l1.888,-0.956l1.892,-0.951l1.895,-0.945l1.897,-0.94l1.902,-0.934l1.904,-0.928l1.908,-0.923l1.911,-0.917l1.914,-0.912l1.918,-0.906l1.92,-0.9l1.924,-0.895l1.927,-0.889l1.93,-0.883l1.934,-0.878l1.936,-0.872l1.939,-0.866l1.943,-0.861l1.946,-0.854l1.949,-0.849l1.952,-0.844l1.955,-0.837l1.958,-0.832l1.961,-0.826l1.964,-0.82l1.967,-0.814l1.97,-0.809l1.973,-0.802l1.976,-0.797l1.98,-0.791l1.982,-0.785l1.985,-0.78l1.988,-0.773l1.991,-0.767l1.994,-0.762l1.997,-0.756l1.999,-0.749l2.003,-0.744l2.006,-0.738l2.008,-0.732l2.011,-0.726l2.014,-0.72l2.017,-0.714l2.02,-0.707l2.023,-0.702l2.025,-0.696l2.028,-0.69l2.031,-0.684l2.034,-0.678l2.037,-0.671l2.039,-0.666l2.042,-0.659l2.045,-0.654l2.047,-0.647l2.051,-0.641l2.053,-0.635l2.055,-0.629l2.059,-0.623l2.06,-0.617l2.064,-0.61l2.066,-0.604l2.069,-0.598l2.072,-0.592l2.074,-0.586l2.077,-0.579l2.079,-0.573l2.082,-0.567l2.084,-0.561l2.088,-0.554l2.089,-0.548l2.092,-0.542l2.095,-0.535l2.097,-0.529l2.1,-0.523l2.102,-0.517l2.105,-0.51l2.107,-0.504l2.11,-0.497l2.112,-0.491l2.114,-0.485l2.117,-0.478l2.119,-0.472l2.122,-0.465l2.124,-0.459l2.127,-0.453l2.129,-0.446l2.131,-0.439l2.134,-0.433l2.136,-0.427l2.138,-0.42l2.14,-0.414l2.143,-0.407l2.146,-0.4l2.147,-0.394l2.15,-0.388l2.152,-0.381l2.154,-0.374l2.157,-0.368l2.158,-0.361l2.161,-0.355l2.164,-0.348l2.165,-0.341l2.167,-0.335l2.17,-0.328l2.172,-0.321l2.174,-0.315l2.176,-0.308l2.179,-0.301l2.18,-0.295l2.183,-0.288l2.184,-0.281l2.187,-0.274l2.189,-0.268l2.191,-0.261l2.192,-0.254l2.195,-0.248l2.197,-0.24l2.199,-0.234l2.201,-0.227l2.203,-0.22l2.205,-0.214l2.207,-0.206l2.209,-0.2l2.211,-0.193l2.213,-0.186l2.215,-0.179l2.216,-0.172l2.219,-0.165l2.221,-0.159l2.222,-0.151l2.224,-0.145l2.226,-0.137l2.228,-0.131l2.23,-0.124l2.231,-0.116l2.234,-0.11l2.235,-0.103l2.237,-0.095l2.239,-0.089l2.241,-0.082l2.242,-0.074l2.244,-0.068l2.246,-0.06l2.247,-0.053l2.25,-0.047l2.251,-0.039l2.252,-0.032l2.255,-0.025l2.256,-0.018l2.257,-0.011l2.26,-0.003l2.259,0.003Zm-4.426,29.167l-2.165,0.01l-2.164,0.017l-2.162,0.024l-2.161,0.031l-2.158,0.038l-2.157,0.044l-2.155,0.051l-2.154,0.058l-2.152,0.065l-2.15,0.072l-2.148,0.078l-2.147,0.085l-2.145,0.091l-2.143,0.099l-2.141,0.105l-2.139,0.112l-2.138,0.118l-2.136,0.126l-2.134,0.132l-2.132,0.138l-2.131,0.145l-2.128,0.152l-2.127,0.158l-2.125,0.165l-2.122,0.172l-2.121,0.178l-2.12,0.185l-2.117,0.192l-2.115,0.198l-2.113,0.204l-2.112,0.211l-2.109,0.218l-2.108,0.224l-2.105,0.231l-2.104,0.237l-2.101,0.243l-2.1,0.25l-2.097,0.257l-2.096,0.263l-2.093,0.269l-2.092,0.276l-2.089,0.283l-2.088,0.288l-2.085,0.296l-2.083,0.301l-2.081,0.308l-2.079,0.314l-2.077,0.321l-2.075,0.327l-2.073,0.333l-2.07,0.34l-2.068,0.346l-2.067,0.353l-2.064,0.358l-2.061,0.365l-2.06,0.372l-2.058,0.377l-2.055,0.384l-2.053,0.39l-2.051,0.396l-2.048,0.403l-2.047,0.408l-2.044,0.415l-2.042,0.421l-2.039,0.428l-2.037,0.433l-2.035,0.44l-2.033,0.446l-2.03,0.452l-2.028,0.458l-2.026,0.464l-2.023,0.471l-2.021,0.476l-2.019,0.483l-2.016,0.488l-2.014,0.495l-2.011,0.501l-2.009,0.507l-2.007,0.513l-2.004,0.519l-2.002,0.525l-1.999,0.531l-1.997,0.537l-1.995,0.543l-1.991,0.549l-1.99,0.555l-1.987,0.561l-1.984,0.567l-1.982,0.573l-1.979,0.579l-1.977,0.584l-1.974,0.591l-1.972,0.597l-1.969,0.602l-1.967,0.608l-1.964,0.615l-1.961,0.62l-1.959,0.626l-1.956,0.631l-1.954,0.638l-1.951,0.643l-1.948,0.65l-1.945,0.655l-1.943,0.66l-1.941,0.667l-1.937,0.672l-1.935,0.679l-1.932,0.683l-1.93,0.69l-1.926,0.695l-1.924,0.702l-1.921,0.706l-1.919,0.713l-1.916,0.718l-1.912,0.724l-1.91,0.729l-1.908,0.736l-1.904,0.741l-1.902,0.746l-1.899,0.752l-1.896,0.758l-1.893,0.763l-1.89,0.769l-1.888,0.775l-1.884,0.78l-1.882,0.786l-1.878,0.791l-1.876,0.797l-1.873,0.802l-1.87,0.808l-1.867,0.813l-1.864,0.819l-1.861,0.824l-1.858,0.83l-1.856,0.836l-1.852,0.84l-1.849,0.847l-1.846,0.851l-1.843,0.858l-1.84,0.862l-1.837,0.868l-1.834,0.874l-1.831,0.878l-1.828,0.884l-1.825,0.89l-1.821,0.895l-1.819,0.9l-1.815,0.906l-1.812,0.911l-1.81,0.916l-1.806,0.922l-1.802,0.926l-1.8,0.933l-1.797,0.937l-1.793,0.943l-1.79,0.948l-1.787,0.953l-1.784,0.958l-1.78,0.964l-1.777,0.969l-1.774,0.974l-1.771,0.979l-1.767,0.985l-1.764,0.99l-1.761,0.995l-1.758,1l-1.754,1.005l-1.751,1.01l-1.748,1.016l-1.744,1.02l-1.741,1.026l-1.737,1.031l-1.734,1.036l-1.731,1.041l-1.727,1.045l-1.724,1.052l-1.721,1.056l-1.717,1.061l-1.714,1.066l-1.71,1.071l-1.707,1.076l-1.703,1.082l-1.7,1.086l-1.696,1.091l-1.693,1.096l-1.69,1.101l-1.685,1.106l-1.682,1.111l-1.679,1.116l-1.676,1.121l-1.671,1.125l-1.668,1.131l-1.665,1.135l-1.661,1.141l-1.657,1.145l-1.654,1.15l-1.65,1.155l-1.646,1.16l-1.643,1.164l-1.639,1.17l-1.635,1.174l-1.632,1.179l-1.628,1.183l-1.625,1.189l-1.62,1.193l-1.617,1.198l-1.614,1.203l-1.609,1.207l-1.606,1.212l-1.602,1.217l-1.598,1.222l-1.595,1.226l-1.591,1.231l-1.586,1.236l-1.584,1.24l-1.579,1.245l-1.575,1.249l-1.572,1.255l-1.568,1.258l-1.564,1.264l-1.56,1.268l-1.556,1.272l-1.552,1.277l-1.548,1.282l-1.545,1.286l-1.54,1.291l-1.537,1.296l-1.533,1.299l-1.528,1.305l-1.525,1.309l-1.521,1.313l-1.517,1.318l-1.512,1.322l-1.509,1.327l-1.505,1.331l-1.501,1.336l-1.496,1.34l-1.493,1.344l-1.488,1.349l-1.485,1.354l-1.48,1.357l-1.477,1.363l-1.472,1.366l-1.468,1.371l-1.464,1.375l-1.46,1.379l-1.456,1.384l-1.452,1.388l-1.447,1.393l-1.443,1.397l-1.439,1.401l-1.435,1.405l-1.431,1.409l-1.427,1.414l-1.422,1.418l-1.418,1.422l-1.414,1.427l-1.409,1.431l-1.405,1.435l-1.401,1.439l-1.397,1.443l-1.393,1.447l-1.388,1.452l-1.384,1.456l-1.379,1.46l-1.375,1.464l-1.371,1.468l-1.366,1.472l-1.363,1.477l-1.357,1.48l-1.354,1.485l-1.349,1.488l-1.344,1.493l-1.34,1.496l-1.336,1.501l-1.331,1.505l-1.327,1.509l-1.322,1.512l-1.318,1.517l-1.313,1.521l-1.309,1.525l-1.305,1.528l-1.299,1.533l-1.296,1.537l-1.291,1.54l-1.286,1.545l-1.282,1.548l-1.277,1.552l-1.272,1.556l-1.268,1.56l-1.264,1.564l-1.258,1.568l-1.255,1.572l-1.249,1.575l-1.245,1.579l-1.24,1.584l-1.236,1.586l-1.231,1.591l-1.226,1.595l-1.222,1.598l-1.217,1.602l-1.212,1.606l-1.207,1.609l-1.203,1.614l-1.198,1.617l-1.193,1.62l-1.189,1.625l-1.183,1.628l-1.179,1.632l-1.174,1.635l-1.17,1.639l-1.164,1.643l-1.16,1.646l-1.155,1.65l-1.15,1.654l-1.145,1.657l-1.141,1.661l-1.135,1.665l-1.131,1.668l-1.125,1.671l-1.121,1.676l-1.116,1.679l-1.111,1.682l-1.106,1.685l-1.101,1.69l-1.096,1.693l-1.091,1.696l-1.086,1.7l-1.082,1.703l-1.076,1.707l-1.071,1.71l-1.066,1.714l-1.061,1.717l-1.056,1.721l-1.052,1.724l-1.045,1.727l-1.041,1.731l-1.036,1.734l-1.031,1.737l-1.026,1.741l-1.02,1.744l-1.016,1.748l-1.01,1.751l-1.005,1.754l-1,1.758l-0.995,1.761l-0.99,1.764l-0.985,1.767l-0.979,1.771l-0.974,1.774l-0.969,1.777l-0.964,1.78l-0.958,1.784l-0.953,1.787l-0.948,1.79l-0.943,1.793l-0.937,1.797l-0.933,1.8l-0.926,1.802l-0.922,1.806l-0.916,1.81l-0.911,1.812l-0.906,1.815l-0.9,1.819l-0.895,1.821l-0.89,1.825l-0.884,1.828l-0.878,1.831l-0.874,1.834l-0.868,1.837l-0.862,1.84l-0.858,1.843l-0.851,1.846l-0.847,1.849l-0.84,1.852l-0.836,1.856l-0.83,1.858l-0.824,1.861l-0.819,1.864l-0.813,1.867l-0.808,1.87l-0.802,1.873l-0.797,1.876l-0.791,1.878l-0.786,1.882l-0.78,1.884l-0.775,1.888l-0.769,1.89l-0.763,1.893l-0.758,1.896l-0.752,1.899l-0.746,1.902l-0.741,1.904l-0.736,1.908l-0.729,1.91l-0.724,1.912l-0.718,1.916l-0.713,1.919l-0.706,1.921l-0.702,1.924l-0.695,1.926l-0.69,1.93l-0.683,1.932l-0.679,1.935l-0.672,1.937l-0.667,1.941l-0.66,1.943l-0.655,1.945l-0.65,1.948l-0.643,1.951l-0.638,1.954l-0.631,1.956l-0.626,1.959l-0.62,1.961l-0.615,1.964l-0.608,1.967l-0.602,1.969l-0.597,1.972l-0.591,1.974l-0.584,1.977l-0.579,1.979l-0.573,1.982l-0.567,1.984l-0.561,1.987l-0.555,1.99l-0.549,1.991l-0.543,1.995l-0.537,1.997l-0.531,1.999l-0.525,2.002l-0.519,2.004l-0.513,2.007l-0.507,2.009l-0.501,2.011l-0.495,2.014l-0.488,2.016l-0.483,2.019l-0.476,2.021l-0.471,2.023l-0.464,2.026l-0.458,2.028l-0.452,2.03l-0.446,2.033l-0.44,2.035l-0.433,2.037l-0.428,2.039l-0.421,2.042l-0.415,2.044l-0.408,2.047l-0.403,2.048l-0.396,2.051l-0.39,2.053l-0.384,2.055l-0.377,2.058l-0.372,2.06l-0.365,2.061l-0.358,2.064l-0.353,2.067l-0.346,2.068l-0.34,2.07l-0.333,2.073l-0.327,2.075l-0.321,2.077l-0.314,2.079l-0.308,2.081l-0.301,2.083l-0.296,2.085l-0.288,2.088l-0.283,2.089l-0.276,2.092l-0.269,2.093l-0.263,2.096l-0.257,2.097l-0.25,2.1l-0.243,2.101l-0.237,2.104l-0.231,2.105l-0.224,2.108l-0.218,2.109l-0.211,2.112l-0.204,2.113l-0.198,2.115l-0.192,2.117l-0.185,2.12l-0.178,2.121l-0.172,2.122l-0.165,2.125l-0.158,2.127l-0.152,2.128l-0.145,2.131l-0.138,2.132l-0.132,2.134l-0.126,2.136l-0.118,2.138l-0.112,2.139l-0.105,2.141l-0.099,2.143l-0.091,2.145l-0.085,2.147l-0.078,2.148l-0.072,2.15l-0.065,2.152l-0.058,2.154l-0.051,2.155l-0.044,2.157l-0.038,2.158l-0.031,2.161l-0.024,2.162l-0.017,2.164l-0.01,2.165l-0.003,2.167l0.003,2.167l0.01,2.165l0.017,2.164l0.024,2.162l0.031,2.16l0.038,2.159l0.044,2.157l0.051,2.155l0.058,2.154l0.065,2.152l0.072,2.15l0.078,2.148l0.085,2.146l0.091,2.145l0.099,2.143l0.105,2.142l0.112,2.139l0.118,2.138l0.126,2.136l0.132,2.134l0.138,2.132l0.145,2.13l0.152,2.129l0.158,2.126l0.165,2.125l0.172,2.123l0.178,2.121l0.185,2.119l0.192,2.117l0.198,2.116l0.204,2.113l0.211,2.111l0.218,2.11l0.224,2.107l0.231,2.106l0.237,2.103l0.243,2.102l0.25,2.099l0.257,2.098l0.263,2.096l0.269,2.093l0.276,2.092l0.283,2.089l0.288,2.087l0.296,2.085l0.301,2.084l0.308,2.081l0.314,2.079l0.321,2.077l0.327,2.074l0.333,2.073l0.34,2.071l0.346,2.068l0.353,2.066l0.358,2.064l0.365,2.062l0.372,2.06l0.377,2.057l0.384,2.056l0.39,2.053l0.396,2.051l0.403,2.048l0.408,2.046l0.415,2.045l0.421,2.041l0.428,2.04l0.433,2.037l0.44,2.035l0.446,2.033l0.452,2.03l0.458,2.028l0.464,2.026l0.471,2.023l0.476,2.021l0.483,2.019l0.488,2.016l0.495,2.014l0.501,2.011l0.507,2.009l0.513,2.007l0.519,2.004l0.525,2.002l0.531,1.999l0.537,1.997l0.543,1.994l0.549,1.992l0.555,1.99l0.561,1.986l0.567,1.985l0.573,1.982l0.579,1.979l0.584,1.977l0.591,1.974l0.597,1.972l0.602,1.969l0.608,1.967l0.615,1.964l0.62,1.961l0.626,1.959l0.631,1.956l0.638,1.954l0.643,1.95l0.65,1.949l0.655,1.945l0.66,1.943l0.667,1.94l0.672,1.938l0.679,1.935l0.683,1.932l0.69,1.929l0.695,1.927l0.702,1.924l0.706,1.921l0.713,1.918l0.718,1.916l0.724,1.913l0.729,1.91l0.736,1.907l0.741,1.905l0.746,1.902l0.752,1.898l0.758,1.896l0.763,1.894l0.769,1.89l0.775,1.887l0.78,1.885l0.786,1.881l0.791,1.879l0.797,1.876l0.802,1.873l0.808,1.87l0.813,1.867l0.819,1.864l0.824,1.861l0.83,1.858l0.836,1.855l0.84,1.852l0.847,1.849l0.851,1.847l0.858,1.843l0.862,1.84l0.868,1.837l0.874,1.834l0.878,1.831l0.884,1.827l0.89,1.825l0.895,1.822l0.9,1.819l0.906,1.815l0.911,1.812l0.916,1.809l0.921,1.806l0.927,1.803l0.933,1.8l0.937,1.796l0.943,1.794l0.948,1.79l0.953,1.787l0.958,1.783l0.964,1.781l0.969,1.777l0.974,1.774l0.979,1.771l0.985,1.767l0.99,1.764l0.995,1.761l1,1.757l1.005,1.755l1.01,1.751l1.016,1.747l1.02,1.745l1.026,1.74l1.031,1.738l1.036,1.734l1.041,1.731l1.045,1.727l1.052,1.724l1.056,1.721l1.061,1.717l1.066,1.713l1.071,1.711l1.076,1.706l1.082,1.704l1.086,1.7l1.091,1.696l1.096,1.693l1.101,1.689l1.106,1.686l1.111,1.682l1.116,1.679l1.121,1.675l1.125,1.672l1.131,1.668l1.135,1.664l1.141,1.661l1.145,1.658l1.15,1.653l1.155,1.65l1.16,1.647l1.164,1.642l1.169,1.64l1.175,1.635l1.179,1.632l1.183,1.628l1.189,1.624l1.193,1.621l1.198,1.617l1.203,1.614l1.207,1.609l1.212,1.606l1.217,1.602l1.222,1.598l1.226,1.595l1.231,1.59l1.236,1.587l1.24,1.583l1.245,1.58l1.249,1.575l1.255,1.572l1.258,1.567l1.264,1.564l1.268,1.56l1.272,1.556l1.278,1.553l1.281,1.548l1.286,1.544l1.291,1.541l1.296,1.537l1.299,1.532l1.305,1.529l1.309,1.525l1.313,1.52l1.318,1.517l1.322,1.513l1.327,1.509l1.331,1.505l1.336,1.5l1.34,1.497l1.345,1.493l1.348,1.488l1.354,1.485l1.357,1.48l1.363,1.477l1.366,1.472l1.371,1.468l1.375,1.464l1.379,1.46l1.384,1.456l1.388,1.451l1.393,1.448l1.397,1.443l1.4,1.439l1.406,1.435l1.409,1.431l1.414,1.426l1.418,1.423l1.422,1.417l1.427,1.414l1.431,1.41l1.435,1.405l1.439,1.401l1.443,1.397l1.447,1.392l1.452,1.389l1.456,1.383l1.46,1.38l1.464,1.375l1.468,1.371l1.472,1.366l1.477,1.362l1.48,1.358l1.485,1.353l1.488,1.349l1.493,1.345l1.496,1.34l1.501,1.335l1.505,1.332l1.509,1.326l1.513,1.323l1.516,1.318l1.521,1.313l1.525,1.309l1.528,1.304l1.533,1.3l1.537,1.295l1.54,1.291l1.545,1.287l1.548,1.281l1.552,1.277l1.556,1.273l1.561,1.268l1.563,1.263l1.568,1.259l1.572,1.254l1.575,1.25l1.579,1.245l1.584,1.24l1.586,1.236l1.591,1.23l1.595,1.227l1.598,1.221l1.602,1.217l1.606,1.213l1.609,1.207l1.613,1.203l1.618,1.198l1.62,1.193l1.624,1.188l1.629,1.184l1.632,1.179l1.635,1.174l1.639,1.17l1.643,1.164l1.646,1.16l1.65,1.155l1.654,1.15l1.657,1.145l1.661,1.14l1.665,1.136l1.668,1.13l1.672,1.126l1.675,1.121l1.678,1.115l1.683,1.111l1.686,1.107l1.689,1.101l1.693,1.096l1.696,1.091l1.7,1.086l1.703,1.081l1.707,1.076l1.71,1.072l1.714,1.066l1.717,1.061l1.721,1.056l1.724,1.051l1.727,1.046l1.731,1.041l1.734,1.036l1.738,1.031l1.741,1.026l1.743,1.02l1.748,1.015l1.751,1.011l1.754,1.005l1.757,1l1.761,0.995l1.765,0.99l1.767,0.984l1.771,0.98l1.774,0.974l1.777,0.969l1.78,0.963l1.784,0.959l1.787,0.953l1.79,0.948l1.794,0.943l1.795,0.937l1.801,0.932l1.803,0.927l1.805,0.922l1.809,0.916l1.813,0.911l1.815,0.905l1.819,0.901l1.821,0.895l1.825,0.889l1.828,0.885l1.831,0.878l1.834,0.874l1.837,0.868l1.84,0.862l1.843,0.857l1.846,0.852l1.849,0.846l1.853,0.841l1.855,0.835l1.858,0.83l1.861,0.825l1.863,0.818l1.868,0.814l1.87,0.808l1.873,0.802l1.875,0.797l1.879,0.791l1.882,0.786l1.885,0.78l1.887,0.775l1.89,0.768l1.893,0.764l1.896,0.757l1.899,0.753l1.902,0.746l1.904,0.741l1.907,0.735l1.911,0.73l1.913,0.724l1.915,0.718l1.918,0.712l1.922,0.707l1.924,0.701l1.926,0.696l1.93,0.689l1.932,0.684l1.935,0.678l1.937,0.673l1.941,0.666l1.943,0.661l1.945,0.655l1.949,0.649l1.95,0.644l1.954,0.637l1.956,0.632l1.959,0.626l1.961,0.62l1.964,0.614l1.966,0.609l1.97,0.602l1.972,0.597l1.974,0.59l1.976,0.585l1.98,0.579l1.982,0.573l1.984,0.567l1.988,0.561l1.988,0.555l1.992,0.549l1.995,0.543l1.996,0.537l2,0.531l2.002,0.525l2.004,0.519l2.007,0.513l2.009,0.507l2.011,0.5l2.014,0.495l2.016,0.489l2.019,0.482l2.021,0.477l2.023,0.47l2.025,0.465l2.029,0.458l2.03,0.452l2.032,0.446l2.036,0.439l2.037,0.434l2.04,0.427l2.041,0.421l2.044,0.415l2.046,0.409l2.049,0.402l2.051,0.397l2.053,0.39l2.055,0.384l2.058,0.377l2.06,0.371l2.061,0.365l2.065,0.359l2.066,0.352l2.068,0.346l2.071,0.34l2.072,0.334l2.075,0.327l2.077,0.32l2.078,0.315l2.082,0.307l2.084,0.302l2.085,0.295l2.086,0.289l2.09,0.282l2.092,0.276l2.093,0.27l2.096,0.263l2.097,0.256l2.1,0.25l2.101,0.244l2.103,0.237l2.106,0.231l2.108,0.224l2.109,0.217l2.112,0.211l2.113,0.205l2.116,0.198l2.117,0.192l2.119,0.184l2.121,0.179l2.122,0.171l2.125,0.165l2.127,0.159l2.128,0.151l2.131,0.146l2.132,0.138l2.134,0.132l2.136,0.125l2.138,0.119l2.139,0.112l2.141,0.105l2.143,0.098l2.145,0.092l2.147,0.085l2.148,0.078l2.15,0.072l2.152,0.064l2.154,0.058l2.155,0.052l2.157,0.044l2.158,0.038l2.161,0.03l2.162,0.024l2.164,0.017l2.164,0.011l2.168,0.003l2.167,-0.003l2.165,-0.011l2.164,-0.017l2.162,-0.024l2.16,-0.03l2.159,-0.038l2.157,-0.044l2.155,-0.052l2.154,-0.058l2.152,-0.064l2.15,-0.072l2.148,-0.078l2.146,-0.085l2.145,-0.092l2.143,-0.098l2.142,-0.105l2.139,-0.112l2.138,-0.119l2.135,-0.125l2.135,-0.132l2.132,-0.138l2.13,-0.146l2.129,-0.151l2.127,-0.159l2.124,-0.165l2.123,-0.171l2.121,-0.179l2.119,-0.184l2.117,-0.192l2.116,-0.198l2.113,-0.205l2.111,-0.211l2.11,-0.217l2.107,-0.224l2.106,-0.231l2.103,-0.237l2.102,-0.244l2.099,-0.25l2.098,-0.256l2.096,-0.263l2.093,-0.27l2.092,-0.276l2.089,-0.282l2.087,-0.289l2.085,-0.295l2.084,-0.302l2.081,-0.307l2.079,-0.315l2.077,-0.32l2.074,-0.327l2.073,-0.334l2.071,-0.34l2.068,-0.346l2.066,-0.352l2.064,-0.359l2.062,-0.365l2.06,-0.371l2.057,-0.377l2.056,-0.384l2.053,-0.39l2.051,-0.397l2.049,-0.402l2.046,-0.409l2.043,-0.415l2.042,-0.421l2.04,-0.427l2.037,-0.434l2.035,-0.439l2.033,-0.446l2.03,-0.452l2.028,-0.458l2.026,-0.465l2.023,-0.47l2.021,-0.477l2.019,-0.482l2.016,-0.489l2.014,-0.495l2.011,-0.5l2.009,-0.507l2.007,-0.513l2.004,-0.519l2.002,-0.525l1.999,-0.531l1.996,-0.537l1.995,-0.543l1.993,-0.549l1.988,-0.555l1.987,-0.561l1.985,-0.567l1.981,-0.573l1.98,-0.579l1.977,-0.585l1.974,-0.59l1.972,-0.597l1.969,-0.602l1.967,-0.609l1.963,-0.614l1.962,-0.62l1.959,-0.626l1.956,-0.632l1.954,-0.637l1.95,-0.644l1.949,-0.649l1.945,-0.655l1.943,-0.661l1.94,-0.666l1.938,-0.673l1.935,-0.678l1.932,-0.684l1.929,-0.689l1.927,-0.696l1.924,-0.701l1.922,-0.707l1.918,-0.712l1.915,-0.718l1.913,-0.724l1.911,-0.73l1.907,-0.735l1.904,-0.741l1.902,-0.746l1.899,-0.753l1.895,-0.757l1.894,-0.764l1.89,-0.768l1.887,-0.775l1.885,-0.78l1.882,-0.786l1.878,-0.791l1.876,-0.797l1.873,-0.802l1.87,-0.808l1.867,-0.814l1.864,-0.818l1.861,-0.825l1.858,-0.83l1.855,-0.835l1.853,-0.841l1.848,-0.846l1.847,-0.852l1.843,-0.857l1.84,-0.862l1.837,-0.868l1.834,-0.874l1.831,-0.878l1.827,-0.885l1.825,-0.889l1.822,-0.895l1.819,-0.901l1.815,-0.905l1.812,-0.911l1.809,-0.916l1.806,-0.922l1.803,-0.927l1.8,-0.932l1.796,-0.937l1.793,-0.943l1.791,-0.948l1.787,-0.953l1.783,-0.959l1.78,-0.963l1.778,-0.969l1.774,-0.974l1.77,-0.98l1.768,-0.984l1.764,-0.99l1.761,-0.995l1.757,-1l1.755,-1.005l1.751,-1.011l1.747,-1.015l1.744,-1.02l1.741,-1.026l1.738,-1.031l1.734,-1.036l1.731,-1.041l1.727,-1.046l1.724,-1.051l1.721,-1.056l1.717,-1.061l1.713,-1.066l1.711,-1.072l1.706,-1.076l1.704,-1.081l1.7,-1.086l1.696,-1.091l1.693,-1.096l1.689,-1.101l1.686,-1.107l1.682,-1.111l1.679,-1.115l1.675,-1.121l1.672,-1.126l1.668,-1.13l1.664,-1.136l1.661,-1.14l1.658,-1.145l1.653,-1.15l1.651,-1.155l1.646,-1.16l1.642,-1.164l1.64,-1.17l1.635,-1.174l1.632,-1.179l1.628,-1.184l1.624,-1.188l1.621,-1.193l1.617,-1.198l1.613,-1.203l1.61,-1.207l1.606,-1.213l1.602,-1.217l1.598,-1.221l1.595,-1.227l1.59,-1.23l1.587,-1.236l1.583,-1.24l1.58,-1.245l1.575,-1.25l1.572,-1.254l1.567,-1.259l1.564,-1.263l1.56,-1.268l1.556,-1.273l1.553,-1.277l1.548,-1.282l1.544,-1.286l1.541,-1.291l1.537,-1.295l1.532,-1.3l1.529,-1.304l1.525,-1.309l1.52,-1.313l1.517,-1.318l1.513,-1.323l1.509,-1.326l1.505,-1.332l1.5,-1.335l1.497,-1.34l1.493,-1.345l1.488,-1.349l1.485,-1.353l1.48,-1.358l1.476,-1.362l1.473,-1.366l1.468,-1.371l1.464,-1.375l1.46,-1.38l1.456,-1.384l1.451,-1.388l1.448,-1.392l1.443,-1.397l1.439,-1.401l1.435,-1.405l1.431,-1.41l1.426,-1.414l1.423,-1.417l1.417,-1.423l1.414,-1.426l1.41,-1.431l1.405,-1.435l1.401,-1.439l1.397,-1.443l1.392,-1.448l1.388,-1.451l1.384,-1.456l1.38,-1.46l1.375,-1.464l1.371,-1.468l1.366,-1.473l1.362,-1.476l1.358,-1.48l1.353,-1.485l1.349,-1.488l1.345,-1.493l1.34,-1.497l1.335,-1.5l1.332,-1.505l1.326,-1.509l1.323,-1.513l1.318,-1.517l1.313,-1.52l1.309,-1.525l1.304,-1.529l1.3,-1.532l1.295,-1.537l1.291,-1.541l1.286,-1.544l1.282,-1.548l1.277,-1.553l1.273,-1.556l1.268,-1.56l1.263,-1.564l1.259,-1.567l1.254,-1.572l1.25,-1.575l1.245,-1.58l1.24,-1.583l1.236,-1.587l1.23,-1.59l1.227,-1.595l1.221,-1.598l1.217,-1.602l1.213,-1.606l1.207,-1.61l1.203,-1.613l1.198,-1.617l1.193,-1.621l1.188,-1.624l1.184,-1.628l1.179,-1.632l1.174,-1.635l1.17,-1.64l1.164,-1.642l1.16,-1.646l1.155,-1.651l1.15,-1.653l1.145,-1.658l1.14,-1.661l1.136,-1.664l1.13,-1.668l1.126,-1.672l1.121,-1.675l1.115,-1.679l1.111,-1.682l1.107,-1.686l1.101,-1.689l1.096,-1.693l1.091,-1.696l1.086,-1.7l1.081,-1.704l1.076,-1.706l1.072,-1.711l1.066,-1.713l1.061,-1.717l1.056,-1.721l1.051,-1.724l1.046,-1.727l1.041,-1.731l1.036,-1.734l1.031,-1.738l1.026,-1.741l1.02,-1.744l1.015,-1.747l1.011,-1.751l1.005,-1.755l1,-1.757l0.995,-1.761l0.99,-1.764l0.984,-1.768l0.98,-1.77l0.974,-1.774l0.969,-1.778l0.963,-1.78l0.959,-1.783l0.953,-1.787l0.948,-1.791l0.943,-1.793l0.937,-1.796l0.932,-1.8l0.927,-1.803l0.922,-1.806l0.916,-1.809l0.911,-1.812l0.905,-1.815l0.901,-1.819l0.895,-1.822l0.889,-1.825l0.885,-1.827l0.878,-1.831l0.874,-1.834l0.868,-1.837l0.862,-1.84l0.857,-1.843l0.852,-1.847l0.846,-1.848l0.841,-1.853l0.835,-1.855l0.83,-1.858l0.825,-1.861l0.818,-1.864l0.814,-1.867l0.808,-1.87l0.802,-1.873l0.797,-1.876l0.791,-1.878l0.786,-1.882l0.78,-1.885l0.775,-1.887l0.768,-1.89l0.764,-1.894l0.757,-1.895l0.753,-1.899l0.746,-1.902l0.741,-1.904l0.735,-1.907l0.73,-1.911l0.724,-1.913l0.718,-1.915l0.712,-1.918l0.707,-1.922l0.701,-1.924l0.696,-1.927l0.689,-1.929l0.684,-1.932l0.678,-1.935l0.673,-1.938l0.666,-1.94l0.661,-1.943l0.655,-1.945l0.649,-1.949l0.644,-1.95l0.637,-1.954l0.632,-1.956l0.626,-1.959l0.62,-1.962l0.614,-1.963l0.609,-1.967l0.602,-1.969l0.597,-1.972l0.59,-1.974l0.585,-1.977l0.579,-1.98l0.573,-1.981l0.567,-1.985l0.561,-1.987l0.555,-1.988l0.549,-1.993l0.543,-1.995l0.537,-1.996l0.531,-1.999l0.525,-2.002l0.519,-2.004l0.513,-2.007l0.507,-2.009l0.5,-2.011l0.495,-2.014l0.489,-2.016l0.482,-2.019l0.477,-2.021l0.47,-2.023l0.465,-2.026l0.458,-2.028l0.452,-2.03l0.446,-2.033l0.439,-2.035l0.434,-2.037l0.427,-2.04l0.421,-2.042l0.415,-2.043l0.409,-2.046l0.402,-2.049l0.397,-2.051l0.39,-2.053l0.384,-2.056l0.377,-2.057l0.371,-2.06l0.365,-2.062l0.359,-2.064l0.352,-2.066l0.346,-2.068l0.34,-2.071l0.334,-2.073l0.327,-2.074l0.32,-2.077l0.315,-2.079l0.307,-2.081l0.302,-2.084l0.295,-2.085l0.289,-2.087l0.282,-2.089l0.276,-2.092l0.27,-2.093l0.263,-2.096l0.256,-2.098l0.25,-2.099l0.244,-2.102l0.237,-2.103l0.231,-2.106l0.224,-2.107l0.217,-2.11l0.211,-2.111l0.205,-2.113l0.198,-2.116l0.192,-2.117l0.184,-2.119l0.179,-2.121l0.171,-2.123l0.165,-2.124l0.159,-2.127l0.151,-2.129l0.146,-2.13l0.138,-2.132l0.132,-2.135l0.125,-2.135l0.119,-2.138l0.112,-2.139l0.105,-2.142l0.098,-2.143l0.092,-2.145l0.085,-2.146l0.078,-2.148l0.072,-2.15l0.064,-2.152l0.058,-2.154l0.052,-2.155l0.044,-2.157l0.038,-2.159l0.03,-2.16l0.024,-2.162l0.017,-2.164l0.011,-2.165l0.003,-2.167l-0.003,-2.168l-0.011,-2.164l-0.017,-2.164l-0.024,-2.162l-0.03,-2.161l-0.038,-2.158l-0.044,-2.157l-0.052,-2.155l-0.058,-2.154l-0.064,-2.152l-0.072,-2.15l-0.078,-2.148l-0.085,-2.147l-0.092,-2.145l-0.098,-2.143l-0.105,-2.141l-0.112,-2.139l-0.119,-2.138l-0.125,-2.136l-0.132,-2.134l-0.138,-2.132l-0.146,-2.131l-0.151,-2.128l-0.159,-2.127l-0.165,-2.125l-0.171,-2.122l-0.179,-2.121l-0.184,-2.119l-0.192,-2.117l-0.198,-2.116l-0.205,-2.113l-0.211,-2.112l-0.217,-2.109l-0.224,-2.108l-0.231,-2.106l-0.237,-2.103l-0.244,-2.101l-0.25,-2.1l-0.256,-2.097l-0.263,-2.096l-0.27,-2.093l-0.276,-2.092l-0.282,-2.09l-0.289,-2.086l-0.295,-2.085l-0.302,-2.084l-0.307,-2.082l-0.315,-2.078l-0.32,-2.077l-0.327,-2.075l-0.334,-2.072l-0.34,-2.071l-0.346,-2.068l-0.352,-2.066l-0.359,-2.065l-0.365,-2.061l-0.371,-2.06l-0.377,-2.058l-0.384,-2.055l-0.39,-2.053l-0.397,-2.051l-0.402,-2.049l-0.409,-2.046l-0.415,-2.044l-0.421,-2.041l-0.427,-2.04l-0.434,-2.037l-0.439,-2.036l-0.446,-2.032l-0.452,-2.03l-0.458,-2.029l-0.465,-2.025l-0.47,-2.023l-0.477,-2.021l-0.482,-2.019l-0.489,-2.016l-0.495,-2.014l-0.5,-2.011l-0.507,-2.009l-0.513,-2.007l-0.519,-2.004l-0.525,-2.002l-0.531,-2l-0.537,-1.996l-0.543,-1.995l-0.549,-1.992l-0.555,-1.988l-0.561,-1.988l-0.567,-1.984l-0.573,-1.982l-0.579,-1.98l-0.585,-1.976l-0.59,-1.974l-0.597,-1.972l-0.602,-1.97l-0.609,-1.966l-0.614,-1.964l-0.62,-1.961l-0.626,-1.959l-0.632,-1.956l-0.637,-1.954l-0.644,-1.95l-0.649,-1.949l-0.655,-1.945l-0.661,-1.943l-0.666,-1.941l-0.673,-1.937l-0.678,-1.935l-0.684,-1.932l-0.689,-1.93l-0.696,-1.926l-0.701,-1.924l-0.707,-1.922l-0.712,-1.918l-0.718,-1.915l-0.724,-1.913l-0.73,-1.911l-0.735,-1.907l-0.741,-1.904l-0.746,-1.902l-0.753,-1.899l-0.757,-1.896l-0.764,-1.893l-0.768,-1.89l-0.775,-1.887l-0.78,-1.885l-0.786,-1.882l-0.791,-1.879l-0.797,-1.875l-0.802,-1.873l-0.808,-1.87l-0.814,-1.868l-0.818,-1.863l-0.825,-1.861l-0.83,-1.858l-0.835,-1.855l-0.841,-1.853l-0.846,-1.849l-0.852,-1.846l-0.857,-1.843l-0.862,-1.84l-0.868,-1.837l-0.874,-1.834l-0.878,-1.831l-0.885,-1.828l-0.889,-1.825l-0.895,-1.821l-0.901,-1.819l-0.905,-1.815l-0.911,-1.813l-0.916,-1.809l-0.922,-1.805l-0.927,-1.803l-0.932,-1.801l-0.937,-1.795l-0.943,-1.794l-0.948,-1.79l-0.953,-1.787l-0.959,-1.784l-0.963,-1.78l-0.969,-1.777l-0.974,-1.774l-0.98,-1.771l-0.984,-1.767l-0.99,-1.765l-0.995,-1.761l-1,-1.757l-1.005,-1.754l-1.011,-1.751l-1.015,-1.748l-1.02,-1.743l-1.026,-1.741l-1.031,-1.738l-1.036,-1.734l-1.041,-1.731l-1.046,-1.727l-1.051,-1.724l-1.056,-1.721l-1.061,-1.717l-1.066,-1.714l-1.072,-1.71l-1.076,-1.707l-1.081,-1.703l-1.086,-1.7l-1.091,-1.696l-1.096,-1.693l-1.101,-1.689l-1.107,-1.686l-1.111,-1.683l-1.115,-1.678l-1.121,-1.675l-1.126,-1.672l-1.13,-1.668l-1.136,-1.665l-1.14,-1.661l-1.145,-1.657l-1.15,-1.654l-1.155,-1.65l-1.16,-1.646l-1.164,-1.643l-1.17,-1.639l-1.174,-1.635l-1.179,-1.632l-1.184,-1.629l-1.188,-1.624l-1.193,-1.62l-1.198,-1.618l-1.203,-1.613l-1.207,-1.609l-1.213,-1.606l-1.217,-1.602l-1.221,-1.598l-1.227,-1.595l-1.23,-1.591l-1.236,-1.586l-1.24,-1.584l-1.245,-1.579l-1.25,-1.575l-1.254,-1.572l-1.259,-1.568l-1.263,-1.563l-1.268,-1.561l-1.273,-1.556l-1.277,-1.552l-1.281,-1.548l-1.287,-1.545l-1.291,-1.54l-1.295,-1.537l-1.3,-1.533l-1.304,-1.528l-1.309,-1.525l-1.313,-1.521l-1.318,-1.516l-1.323,-1.513l-1.326,-1.509l-1.332,-1.505l-1.335,-1.501l-1.34,-1.496l-1.345,-1.493l-1.349,-1.488l-1.353,-1.485l-1.358,-1.48l-1.362,-1.477l-1.366,-1.472l-1.371,-1.468l-1.375,-1.464l-1.38,-1.46l-1.383,-1.456l-1.389,-1.452l-1.392,-1.447l-1.397,-1.443l-1.401,-1.439l-1.405,-1.435l-1.41,-1.431l-1.414,-1.427l-1.417,-1.422l-1.423,-1.418l-1.426,-1.414l-1.431,-1.409l-1.435,-1.406l-1.439,-1.4l-1.443,-1.397l-1.448,-1.393l-1.451,-1.388l-1.456,-1.384l-1.46,-1.379l-1.464,-1.375l-1.468,-1.371l-1.472,-1.366l-1.477,-1.363l-1.48,-1.357l-1.485,-1.354l-1.488,-1.348l-1.493,-1.345l-1.497,-1.34l-1.5,-1.336l-1.505,-1.331l-1.509,-1.327l-1.513,-1.322l-1.517,-1.318l-1.52,-1.313l-1.525,-1.309l-1.529,-1.305l-1.532,-1.299l-1.537,-1.296l-1.541,-1.291l-1.544,-1.286l-1.548,-1.281l-1.553,-1.278l-1.556,-1.272l-1.56,-1.268l-1.564,-1.264l-1.567,-1.258l-1.572,-1.255l-1.575,-1.249l-1.58,-1.245l-1.583,-1.24l-1.587,-1.236l-1.59,-1.231l-1.595,-1.226l-1.598,-1.222l-1.602,-1.217l-1.606,-1.212l-1.609,-1.207l-1.614,-1.203l-1.617,-1.198l-1.621,-1.193l-1.624,-1.189l-1.628,-1.183l-1.632,-1.179l-1.635,-1.175l-1.64,-1.169l-1.642,-1.164l-1.647,-1.16l-1.65,-1.155l-1.653,-1.15l-1.658,-1.145l-1.661,-1.141l-1.664,-1.135l-1.668,-1.131l-1.672,-1.125l-1.675,-1.121l-1.679,-1.116l-1.682,-1.111l-1.686,-1.106l-1.689,-1.101l-1.693,-1.096l-1.696,-1.091l-1.7,-1.086l-1.704,-1.082l-1.706,-1.076l-1.711,-1.071l-1.713,-1.066l-1.717,-1.061l-1.721,-1.056l-1.724,-1.052l-1.727,-1.045l-1.731,-1.041l-1.734,-1.036l-1.738,-1.031l-1.74,-1.026l-1.745,-1.02l-1.747,-1.016l-1.751,-1.01l-1.755,-1.005l-1.757,-1l-1.761,-0.995l-1.764,-0.99l-1.767,-0.985l-1.771,-0.979l-1.774,-0.974l-1.777,-0.969l-1.781,-0.964l-1.783,-0.958l-1.787,-0.953l-1.79,-0.948l-1.794,-0.943l-1.796,-0.937l-1.8,-0.933l-1.803,-0.927l-1.806,-0.921l-1.809,-0.916l-1.812,-0.911l-1.815,-0.906l-1.819,-0.9l-1.822,-0.895l-1.825,-0.89l-1.827,-0.884l-1.831,-0.878l-1.834,-0.874l-1.837,-0.868l-1.84,-0.862l-1.843,-0.858l-1.847,-0.851l-1.849,-0.847l-1.852,-0.84l-1.855,-0.836l-1.858,-0.83l-1.861,-0.824l-1.864,-0.819l-1.867,-0.813l-1.87,-0.808l-1.873,-0.802l-1.876,-0.797l-1.879,-0.791l-1.881,-0.786l-1.885,-0.78l-1.887,-0.775l-1.89,-0.769l-1.894,-0.763l-1.896,-0.758l-1.898,-0.752l-1.902,-0.746l-1.905,-0.741l-1.907,-0.736l-1.91,-0.729l-1.913,-0.724l-1.916,-0.718l-1.918,-0.713l-1.921,-0.706l-1.924,-0.702l-1.927,-0.695l-1.929,-0.69l-1.932,-0.683l-1.935,-0.679l-1.938,-0.672l-1.94,-0.667l-1.943,-0.66l-1.945,-0.655l-1.949,-0.65l-1.95,-0.643l-1.954,-0.638l-1.956,-0.631l-1.959,-0.626l-1.961,-0.62l-1.964,-0.615l-1.967,-0.608l-1.969,-0.602l-1.972,-0.597l-1.974,-0.591l-1.977,-0.584l-1.979,-0.579l-1.982,-0.573l-1.985,-0.567l-1.986,-0.561l-1.99,-0.555l-1.992,-0.549l-1.994,-0.543l-1.997,-0.537l-1.999,-0.531l-2.002,-0.525l-2.004,-0.519l-2.007,-0.513l-2.009,-0.507l-2.011,-0.501l-2.014,-0.495l-2.016,-0.488l-2.019,-0.483l-2.021,-0.476l-2.023,-0.471l-2.026,-0.464l-2.028,-0.458l-2.03,-0.452l-2.033,-0.446l-2.035,-0.44l-2.037,-0.433l-2.04,-0.428l-2.041,-0.421l-2.045,-0.415l-2.046,-0.408l-2.048,-0.403l-2.051,-0.396l-2.053,-0.39l-2.056,-0.384l-2.057,-0.377l-2.06,-0.372l-2.062,-0.365l-2.064,-0.358l-2.066,-0.353l-2.068,-0.346l-2.071,-0.34l-2.073,-0.333l-2.074,-0.327l-2.077,-0.321l-2.079,-0.314l-2.081,-0.308l-2.084,-0.301l-2.085,-0.296l-2.087,-0.288l-2.089,-0.283l-2.092,-0.276l-2.093,-0.269l-2.096,-0.263l-2.098,-0.257l-2.099,-0.25l-2.102,-0.243l-2.103,-0.237l-2.106,-0.231l-2.107,-0.224l-2.11,-0.218l-2.111,-0.211l-2.113,-0.204l-2.116,-0.198l-2.117,-0.192l-2.119,-0.185l-2.121,-0.178l-2.123,-0.172l-2.125,-0.165l-2.126,-0.158l-2.129,-0.152l-2.13,-0.145l-2.132,-0.138l-2.134,-0.132l-2.136,-0.126l-2.138,-0.118l-2.139,-0.112l-2.142,-0.105l-2.143,-0.099l-2.145,-0.091l-2.146,-0.085l-2.148,-0.078l-2.15,-0.072l-2.152,-0.065l-2.154,-0.058l-2.155,-0.051l-2.157,-0.044l-2.159,-0.038l-2.16,-0.031l-2.162,-0.024l-2.164,-0.017l-2.165,-0.01l-2.167,-0.003l-2.167,0.003Z" style="fill:#fff;"/><clipPath id="_clip1"><path d="M278.483,968.337c0,370.275 305.242,670.446 681.784,670.446c376.537,0 681.783,-300.17 681.783,-670.446c0,-370.275 -305.246,-670.441 -681.783,-670.441c-376.542,0 -681.784,300.167 -681.784,670.442Z"/></clipPath><g clip-path="url(#_clip1)"><path d="M2254.16,1434.36l-1336.12,230.738l-340.517,-274.954l741.2,-900.267l935.442,944.483Z" style="fill:#2c90b7;fill-rule:nonzero;"/></g><rect x="578.288" y="533.892" width="746.971" height="859.571" style="fill:#fefefe;fill-rule:nonzero;"/><path d="M578.784,556.361l0,-57.3c0,-8.071 13.529,-14.671 30.062,-14.671l686.35,0c16.534,0 30.059,6.6 30.059,14.671l0,57.3" style="fill:#beddeb;fill-rule:nonzero;"/><path d="M674.155,537.202c-11.009,-0.817 -18.109,-7.042 -17.792,-17.287c0.317,-10.121 7.396,-16.975 18.375,-16.005c7.983,0.709 13.675,6.034 14.608,14.221c1.271,11.113 -5.421,16.696 -15.191,19.071" style="fill:#f3f232;fill-rule:nonzero;"/><path d="M598.739,518.412c2.191,-9.863 8.275,-15.63 19.337,-14.325c8.579,1.008 13.271,7.033 13.771,14.916c0.696,10.963 -6.129,18.013 -16.479,17.984c-10.283,-0.03 -16.65,-6.863 -16.629,-18.575" style="fill:#fe6666;fill-rule:nonzero;"/><path d="M727.245,503.642c12.275,-0.792 19.067,4.033 20.096,14.9c1.008,10.608 -4.029,17.575 -14.979,18.592c-10.634,0.987 -17.567,-4.046 -18.592,-14.975c-0.992,-10.638 4.121,-17.159 13.475,-18.517" style="fill:#00d02f;fill-rule:nonzero;"/><g transform="matrix(0.84676,-0.531975,0.531974,0.846761,1.1882,1.06206)"><text x="243.965px" y="558.942px" style="font-family:'GDSTransport-Bold', 'GDS Transport';font-weight:700;font-size:166.434px;fill:#fff;">D</text></g><g transform="matrix(0.924571,-0.381009,0.381009,0.924571,1.14051,1.71698)"><text x="450.059px" y="487.785px" style="font-family:'GDSTransport-Bold', 'GDS Transport';font-weight:700;font-size:166.434px;fill:#fff;">W</text></g><g transform="matrix(0.973606,-0.228233,0.228234,0.973606,0.615941,1.71181)"><text x="671.999px" y="387.55px" style="font-family:'GDSTransport-Bold', 'GDS Transport';font-weight:700;font-size:166.434px;fill:#fff;">P</text></g><g transform="matrix(0.998485,-0.0550265,0.0550267,0.998485,0.0458143,0.553514)"><text x="856.542px" y="245.055px" style="font-family:'GDSTransport-Bold', 'GDS Transport';font-weight:700;font-size:166.434px;fill:#fff;">D</text></g><g transform="matrix(0.998748,0.0500283,-0.0500298,0.998748,0.0440131,-0.585151)"><text x="995.294px" y="144.472px" style="font-family:'GDSTransport-Bold', 'GDS Transport';font-weight:700;font-size:166.434px;fill:#fff;">I</text></g><g transform="matrix(0.98761,0.156927,-0.156926,0.98761,0.457275,-1.89843)"><text x="1052.94px" y="31.097px" style="font-family:'GDSTransport-Bold', 'GDS Transport';font-weight:700;font-size:166.434px;fill:#fff;">G</text></g><g transform="matrix(0.964803,0.262975,-0.262977,0.964802,1.42117,-3.36928)"><text x="1169.4px" y="-92.498px" style="font-family:'GDSTransport-Bold', 'GDS Transport';font-weight:700;font-size:166.434px;fill:#fff;">I</text></g><g transform="matrix(0.936553,0.350525,-0.350524,0.936554,2.58703,-4.34338)"><text x="1203.85px" y="-203.714px" style="font-family:'GDSTransport-Bold', 'GDS Transport';font-weight:700;font-size:166.434px;fill:#fff;">T</text></g><g transform="matrix(0.887833,0.460165,-0.460166,0.887833,4.60687,-5.28156)"><text x="1254.24px" y="-355.83px" style="font-family:'GDSTransport-Bold', 'GDS Transport';font-weight:700;font-size:166.434px;fill:#fff;">A</text></g><g transform="matrix(0.824461,0.565919,-0.56592,0.82446,7.18248,-5.67253)"><text x="1308.62px" y="-518.401px" style="font-family:'GDSTransport-Bold', 'GDS Transport';font-weight:700;font-size:166.434px;fill:#fff;">L</text></g><g transform="matrix(0.522637,0.852556,-0.852556,0.522636,14.6719,-0.580012)"><text x="1268.51px" y="578.217px" style="font-family:'GDSTransport-Bold', 'GDS Transport';font-weight:700;font-size:141.667px;fill:#fff;">F</text></g><g transform="matrix(0.621286,0.783584,-0.783585,0.621285,13.029,-2.91593)"><text x="1296.52px" y="738.01px" style="font-family:'GDSTransport-Bold', 'GDS Transport';font-weight:700;font-size:141.667px;fill:#fff;">R</text></g><g transform="matrix(0.722252,0.69163,-0.691629,0.722253,10.4552,-4.73414)"><text x="1302.9px" y="921.883px" style="font-family:'GDSTransport-Bold', 'GDS Transport';font-weight:700;font-size:141.667px;fill:#fff;">O</text></g><g transform="matrix(0.817143,0.576434,-0.576435,0.817143,7.313,-5.55082)"><text x="1285.9px" y="1122.17px" style="font-family:'GDSTransport-Bold', 'GDS Transport';font-weight:700;font-size:141.667px;fill:#fff;">N</text></g><g transform="matrix(0.88669,0.462365,-0.462364,0.88669,4.6708,-5.31486)"><text x="1259.86px" y="1297.28px" style="font-family:'GDSTransport-Bold', 'GDS Transport';font-weight:700;font-size:141.667px;fill:#fff;">T</text></g><g transform="matrix(0.918723,0.394902,-0.394903,0.918723,3.39563,-4.86936)"><text x="1248.58px" y="1392.19px" style="font-family:'GDSTransport-Bold', 'GDS Transport';font-weight:700;font-size:141.667px;fill:#fff;">-</text></g><g transform="matrix(0.949981,0.312308,-0.312306,0.949982,2.00956,-3.89388)"><text x="1175.09px" y="1500.55px" style="font-family:'GDSTransport-Bold', 'GDS Transport';font-weight:700;font-size:141.667px;fill:#fff;">E</text></g><g transform="matrix(0.98416,0.177282,-0.177283,0.98416,0.59086,-2.15727)"><text x="1066.78px" y="1661.71px" style="font-family:'GDSTransport-Bold', 'GDS Transport';font-weight:700;font-size:141.666px;fill:#fff;">N</text></g><g transform="matrix(0.999564,0.0295332,-0.0295323,0.999564,0.0145569,-0.328343)"><text x="944.476px" y="1817.31px" style="font-family:'GDSTransport-Bold', 'GDS Transport';font-weight:700;font-size:141.667px;fill:#fff;">D</text></g><g transform="matrix(0.988468,-0.151431,0.151429,0.988468,0.307795,1.32637)"><text x="761.255px" y="1980.01px" style="font-family:'GDSTransport-Bold', 'GDS Transport';font-weight:700;font-size:141.667px;fill:#fff;">D</text></g><g transform="matrix(0.959454,-0.281864,0.281865,0.959454,0.857519,1.87668)"><text x="614.902px" y="2077.66px" style="font-family:'GDSTransport-Bold', 'GDS Transport';font-weight:700;font-size:141.667px;fill:#fff;">E</text></g><g transform="matrix(0.916847,-0.399238,0.399238,0.916847,1.27543,1.80164)"><text x="459.065px" y="2150.13px" style="font-family:'GDSTransport-Bold', 'GDS Transport';font-weight:700;font-size:141.667px;fill:#fff;">V</text></g><g transform="matrix(0.860434,-0.509562,0.509561,0.860434,1.34554,1.30156)"><text x="300.242px" y="2202.99px" style="font-family:'GDSTransport-Bold', 'GDS Transport';font-weight:700;font-size:141.667px;fill:#fff;">E</text></g><g transform="matrix(0.798307,-0.602251,0.602249,0.798308,0.981609,0.673461)"><text x="158.98px" y="2233.71px" style="font-family:'GDSTransport-Bold', 'GDS Transport';font-weight:700;font-size:141.667px;fill:#fff;">L</text></g><g transform="matrix(0.71746,-0.6966,0.6966,0.717459,-0.193408,-0.0851728)"><text x="-24.001px" y="2248.89px" style="font-family:'GDSTransport-Bold', 'GDS Transport';font-weight:700;font-size:141.667px;fill:#fff;">O</text></g><g transform="matrix(0.618789,-0.785557,0.785558,0.618788,-1.93274,-0.422874)"><text x="-191.866px" y="2242.32px" style="font-family:'GDSTransport-Bold', 'GDS Transport';font-weight:700;font-size:141.667px;fill:#fff;">P</text></g><g transform="matrix(0.520871,-0.853635,0.853634,0.520873,-4.04151,-0.147217)"><text x="-348.32px" y="2216.68px" style="font-family:'GDSTransport-Bold', 'GDS Transport';font-weight:700;font-size:141.667px;fill:#fff;">E</text></g><g transform="matrix(0.412074,-0.91115,0.911149,0.412076,-6.46627,0.966056)"><text x="-507.949px" y="2170.89px" style="font-family:'GDSTransport-Bold', 'GDS Transport';font-weight:700;font-size:141.667px;fill:#fff;">R</text></g><rect x="611.213" y="659.338" width="674.296" height="244.196" style="fill:#cfcfcf;fill-rule:nonzero;"/><rect x="971.446" y="969.458" width="314.896" height="342.329" style="fill:#cfcfcf;fill-rule:nonzero;"/><path d="M1275.92,969.46l10.417,0l0,10.417" style="fill:none;stroke:#7e7f7f;stroke-width:4.17px;"/><path d="M1286.34,992.737l0,302.204" style="fill:none;stroke:#7e7f7f;stroke-width:4.17px;stroke-dasharray:21.43,12.86;"/><path d="M1286.34,1301.37l0,10.417l-10.417,0" style="fill:none;stroke:#7e7f7f;stroke-width:4.17px;"/><path d="M1262.76,1311.79l-274.313,0" style="fill:none;stroke:#7e7f7f;stroke-width:4.17px;stroke-dasharray:21.95,13.17;"/><path d="M981.86,1311.79l-10.417,0l0,-10.404" style="fill:none;stroke:#7e7f7f;stroke-width:4.17px;"/><path d="M971.443,1288.54l0,-302.204" style="fill:none;stroke:#7e7f7f;stroke-width:4.17px;stroke-dasharray:21.43,12.86;"/><path d="M971.443,979.878l0,-10.417l10.413,0" style="fill:none;stroke:#7e7f7f;stroke-width:4.17px;"/><path d="M995.014,969.46l274.313,0" style="fill:none;stroke:#7e7f7f;stroke-width:4.17px;stroke-dasharray:21.95,13.17;"/><path d="M923.803,1133.64l-306.9,0c-0.016,-1.925 -0.029,-3.846 -0.046,-5.771l307.938,0c-0.333,1.925 -0.662,3.846 -0.992,5.771" style="fill:#9197a7;fill-rule:nonzero;"/><path d="M923.803,1158.51l-306.9,0c-0.016,-1.925 -0.029,-3.846 -0.046,-5.771l307.938,0c-0.333,1.925 -0.662,3.846 -0.992,5.771" style="fill:#9197a7;fill-rule:nonzero;"/><path d="M923.803,1180.65l-306.9,0c-0.016,-1.925 -0.029,-3.846 -0.046,-5.771l307.938,0c-0.333,1.925 -0.662,3.846 -0.992,5.771" style="fill:#9197a7;fill-rule:nonzero;"/><path d="M921.513,1109.94l-306.371,0c0.025,-1.829 0.05,-3.654 0.075,-5.483l311.3,0c-1.67,1.829 -3.337,3.654 -5.004,5.483" style="fill:#9197a7;fill-rule:nonzero;"/><path d="M616.99,1080.58l306.625,0c0.03,1.85 0.063,3.7 0.092,5.554l-305.787,0c-0.309,-1.854 -0.621,-3.704 -0.93,-5.554" style="fill:#9197a7;fill-rule:nonzero;"/><path d="M924.36,1055.7l-306.867,0l-0.075,-5.721l306.762,0c0.059,1.904 0.121,3.812 0.18,5.721" style="fill:#9197a7;fill-rule:nonzero;"/><path d="M617.675,1025.47l306.891,0c0.021,1.921 0.042,3.841 0.063,5.766l-307.404,0c0.15,-1.925 0.3,-3.845 0.45,-5.766" style="fill:#9197a7;fill-rule:nonzero;"/><path d="M615.812,1204.53l183.346,0c0.025,1.708 0.05,3.416 0.075,5.125l-183.346,0c-0.025,-1.709 -0.05,-3.417 -0.075,-5.125" style="fill:#9197a7;fill-rule:nonzero;"/><rect x="620.033" y="966.137" width="306.483" height="36.7" style="fill:#a9afbf;fill-rule:nonzero;"/><rect x="611.217" y="584.525" width="675.125" height="37.154" style="fill:#404244;fill-rule:nonzero;"/><path d="M856.906,733.654c7.175,2.958 15.321,-0.425 18.246,-7.521c2.937,-7.079 -0.425,-15.304 -7.6,-18.246c-7.038,-2.892 -15.217,0.558 -18.142,7.663c-2.929,7.07 0.458,15.216 7.496,18.104" style="fill:#3f3f3f;fill-rule:nonzero;"/><path d="M825.316,752.167c7.179,2.962 15.316,-0.421 18.242,-7.521c2.941,-7.075 -0.425,-15.3 -7.605,-18.246c-7.033,-2.888 -15.208,0.562 -18.137,7.667c-2.929,7.066 0.458,15.212 7.5,18.1" style="fill:#3f3f3f;fill-rule:nonzero;"/><path d="M816.066,787.291c7.179,2.959 15.325,-0.425 18.25,-7.516c2.938,-7.075 -0.425,-15.305 -7.6,-18.25c-7.037,-2.888 -15.216,0.562 -18.146,7.666c-2.929,7.067 0.459,15.221 7.496,18.1" style="fill:#3f3f3f;fill-rule:nonzero;"/><path d="M892.162,744.784c7.179,2.958 15.325,-0.425 18.246,-7.521c2.937,-7.075 -0.425,-15.3 -7.6,-18.246c-7.038,-2.891 -15.217,0.559 -18.142,7.667c-2.929,7.067 0.459,15.217 7.496,18.1" style="fill:#3f3f3f;fill-rule:nonzero;"/><path d="M1019.91,733.654c-7.179,2.958 -15.325,-0.425 -18.25,-7.521c-2.937,-7.079 0.43,-15.304 7.6,-18.246c7.042,-2.892 15.217,0.558 18.146,7.663c2.925,7.07 -0.458,15.216 -7.496,18.104" style="fill:#3f3f3f;fill-rule:nonzero;"/><path d="M1059,734.068c2.925,7.067 -0.463,15.212 -7.5,18.1" style="fill:#3f3f3f;fill-rule:nonzero;"/><path d="M1051.5,752.167c-7.179,2.962 -15.321,-0.421 -18.241,-7.521c-2.942,-7.075 0.425,-15.3 7.595,-18.246c7.038,-2.888 15.217,0.562 18.146,7.667" style="fill:#3f3f3f;fill-rule:nonzero;"/><path d="M1060.75,787.291c-7.179,2.959 -15.325,-0.425 -18.246,-7.516c-2.941,-7.075 0.425,-15.305 7.6,-18.25c7.034,-2.888 15.217,0.562 18.142,7.666" style="fill:#3f3f3f;fill-rule:nonzero;"/><path d="M984.652,744.784c-7.183,2.958 -15.321,-0.425 -18.25,-7.521c-2.937,-7.075 0.429,-15.3 7.604,-18.246c7.038,-2.891 15.217,0.559 18.142,7.667c2.925,7.067 -0.458,15.217 -7.496,18.1" style="fill:#3f3f3f;fill-rule:nonzero;"/><path d="M945.766,708.772l0.042,-0.038l17.637,9.258l0,-25.991l-17.616,5.579l-0.05,-0.054c-0.496,-0.65 -1.063,-1.225 -1.713,-1.725l-0.05,-0.054l7.092,-22.309l-12.729,0.004l-12.729,-0.004l7.087,22.309l-0.05,0.054c-0.642,0.5 -1.217,1.075 -1.708,1.725l-0.054,0.054l-17.613,-5.579l0,25.991l17.638,-9.258l0.041,0.038c0.521,0.687 1.138,1.291 1.825,1.808l-10.133,30.554c-0.013,0.038 -0.021,0.075 -0.033,0.117l-0.013,0.029l0.004,0.004c-0.471,1.525 -0.725,3.146 -0.725,4.821c0,8.267 6.1,15.092 14.042,16.267c0.117,0.016 0.233,0.037 0.354,0.05c0.679,0.091 1.363,0.145 2.067,0.145c0.7,0 1.387,-0.054 2.066,-0.145c0.117,-0.013 0.234,-0.034 0.35,-0.05c7.942,-1.175 14.046,-8 14.046,-16.267c0,-1.675 -0.258,-3.296 -0.725,-4.821l0,-0.004l-0.008,-0.029c-0.008,-0.042 -0.025,-0.079 -0.038,-0.117l-10.129,-30.554c0.688,-0.517 1.3,-1.121 1.825,-1.808" style="fill:#3f3f3f;fill-rule:nonzero;"/><path d="M1059.65,797.849l-18.971,-6.758c1.887,9.637 2.187,14.116 0.075,20.308c-3.129,-3.054 -6.092,-8.683 -8.408,-17.279l-9.188,30.608c5.592,-3.85 9.904,-6.333 14.837,-6.45c-8.75,18.842 -19.679,23.696 -26.762,22.388c-8.642,-1.588 -12.621,-9.3 -11.279,-15.838c1.991,-9.266 11.5,-11.683 15.941,-0.904c8.496,-17.325 -5.916,-22.725 -15.191,-17.6c14.246,-14.208 15.875,-26.841 4.375,-42.125c-16.021,12.246 -16.209,24.375 -9,41.442c-9.354,-10.708 -23.909,-4.958 -18.65,12.341c6.746,-10.445 15.675,-3.879 14.275,6.046c-1.188,8.646 -12.6,15.629 -26.817,14.396c-20.367,-1.854 -21.575,-15.908 -22.087,-27.542c5.004,-0.929 14.025,3.717 21.712,14.509l2.829,-32.467c-8.362,8.721 -15.962,10.375 -24.404,10.646c2.808,-8.771 15.725,-23.138 15.725,-23.138l-18.762,0l-0.013,0l-0.012,0l-21.734,0c0,0 12.913,14.367 15.725,23.138c-8.441,-0.271 -16.041,-1.925 -24.408,-10.646l2.829,32.467c7.696,-10.792 16.708,-15.438 21.717,-14.509c-0.504,11.634 -1.717,25.692 -22.092,27.542c-14.212,1.233 -25.625,-5.75 -26.808,-14.396c-1.404,-9.925 7.525,-16.491 14.275,-6.046c5.262,-17.299 -9.304,-23.049 -18.654,-12.341c7.208,-17.063 7.02,-29.192 -9,-41.442c-11.5,15.284 -9.871,27.917 4.375,42.125c-9.279,-5.125 -23.688,0.275 -15.192,17.6c4.442,-10.779 13.958,-8.362 15.942,0.904c1.337,6.538 -2.638,14.255 -11.284,15.838c-7.079,1.308 -18.008,-3.546 -26.758,-22.388c4.933,0.117 9.242,2.6 14.842,6.45l-9.196,-30.608c-2.317,8.596 -5.275,14.225 -8.409,17.279c-2.112,-6.192 -1.808,-10.671 0.076,-20.308l-18.963,6.758c10.071,13.75 19.825,33.054 27.842,66.754c28.229,-4.033 59.904,-6.3 93.383,-6.3" style="fill:#3f3f3f;fill-rule:nonzero;"/><path d="M938.38,858.303c33.483,0 65.179,2.267 93.42,6.309c8.013,-33.709 17.771,-53.013 27.846,-66.763" style="fill:#3f3f3f;fill-rule:nonzero;"/><path d="M766.543,807.145c2.87,1.867 4.595,3.733 4.737,7.321c0,4.021 -3.446,7.9 -7.467,7.9c-2.441,0 -4.45,-1.292 -6.175,-2.442l-59.016,-39.204c-3.159,-2.008 -5.317,-3.588 -5.317,-7.75c-0.142,-4.021 2.158,-5.746 5.317,-7.758l59.162,-39.346c1.721,-1.146 3.734,-2.15 5.888,-2.15c4.162,0 7.466,3.729 7.608,7.75c0,3.737 -2.296,5.746 -5.025,7.612l-51.121,33.892l51.409,34.175Z" style="fill:#3f3f3f;fill-rule:nonzero;"/><path d="M1150.56,774.43l-51.121,-33.892c-2.729,-1.866 -5.025,-3.875 -5.025,-7.608c0.142,-4.021 3.446,-7.754 7.608,-7.754c2.155,0 4.167,1.004 5.888,2.154l59.162,39.346c3.163,2.008 5.459,3.733 5.317,7.754c0,4.162 -2.154,5.742 -5.317,7.754l-59.016,39.204c-1.725,1.146 -3.734,2.438 -6.175,2.438c-4.021,0 -7.467,-3.875 -7.467,-7.896c0.142,-3.592 1.867,-5.454 4.738,-7.325l51.408,-34.175Z" style="fill:#3f3f3f;fill-rule:nonzero;"/><rect x="617.238" y="1239.12" width="168.2" height="48.525" style="fill:#009b45;fill-rule:nonzero;"/><path d="M1146.33,1187.32l-12.942,0l0,168.025l12.958,0l-0.07,-0.071l0,12.825l-12.846,0l0,12.975l-12.925,0l0,-219.508l13.125,0l0,12.816l12.633,0l0,13.005l0.067,-0.067Z" style="fill:#fff;fill-rule:nonzero;"/><path d="M1223.81,1341.98l-12.716,0l-0.001,-38.262l38.484,0l0,-13.233l-0.079,0.075l12.904,0l0,13.116l12.891,0l0,12.675c-14.92,0.029 -29.837,0.059 -44.758,0.088c-2.175,0.004 -4.346,0 -6.787,0l0,25.616l0.062,-0.075Z" style="fill:#fff;fill-rule:nonzero;"/><rect x="1223.7" y="1420.08" width="25.796" height="12.588" style="fill:#fff;fill-rule:nonzero;"/><path d="M1172.12,1329.49l0,-12.746l12.55,0l0,25.338l-25.192,0l0,-12.592l12.642,0Z" style="fill:#fff;fill-rule:nonzero;"/><path d="M1249.49,1393.75l12.742,0l0,25.863l-12.658,0c0,-8.684 0,-17.313 -0.004,-25.942l-0.08,0.079Z" style="fill:#fff;fill-rule:nonzero;"/><path d="M1223.75,1342.06l12.85,0l0,2.85c0,6.846 -0.008,13.687 0.013,20.529c0.004,0.808 0.183,1.612 0.279,2.421l0.058,-0.063l-13.145,0c0,-8.6 0,-17.2 0.004,-25.808c0.004,-0.004 -0.059,0.071 -0.059,0.071" style="fill:#fff;fill-rule:nonzero;"/><rect x="1210.94" y="1394.2" width="12.596" height="25.358" style="fill:#fff;fill-rule:nonzero;"/><rect x="1185.14" y="1342.57" width="12.592" height="25.408" style="fill:#fff;fill-rule:nonzero;"/><path d="M1236.89,1367.86l12.596,0c0,8.934 0,17.417 0,25.9l0.083,-0.083c-4.183,0 -8.362,0 -12.825,0c0,-1.475 -0.012,-2.875 0,-4.275c0.063,-7.2 0.134,-14.4 0.2,-21.604c0.004,0 -0.054,0.062 -0.054,0.062" style="fill:#fff;fill-rule:nonzero;"/><rect x="1197.99" y="1368.41" width="12.504" height="25.325" style="fill:#fff;fill-rule:nonzero;"/><path d="M1146.35,1355.34l0,-12.762l12.666,0l0,12.691c-4.312,0 -8.525,0 -12.737,0l0.071,0.071Z" style="fill:#fff;fill-rule:nonzero;"/><path d="M1146.26,1187.38l12.788,0l0,12.592l-12.721,0c0,-4.267 0,-8.462 0,-12.658l-0.067,0.066Z" style="fill:#fff;fill-rule:nonzero;"/><path d="M1223.69,1264.77l12.759,0l0,12.712l-12.684,0l0,-12.787l-0.075,0.075Z" style="fill:#fff;fill-rule:nonzero;"/><path d="M1197.88,1239l12.775,0l0,12.646l-12.704,0l0,-12.717l-0.071,0.071Z" style="fill:#fff;fill-rule:nonzero;"/><path d="M1172.08,1213.2l12.775,0l0,12.616l-12.704,0l0,-12.687l-0.071,0.071Z" style="fill:#fff;fill-rule:nonzero;"/><path d="M1172.14,1213.13l-12.608,0l0,-12.688l12.537,0c0,4.242 0,8.5 0,12.759l0.071,-0.071Z" style="fill:#fff;fill-rule:nonzero;"/><path d="M1249.58,1290.49l-12.704,0l0,-12.571l12.625,0c0,4.263 0,8.454 0,12.646l0.079,-0.075Z" style="fill:#fff;fill-rule:nonzero;"/><path d="M1223.77,1264.7l-12.705,0l0,-12.596l12.625,0c0,4.279 0,8.475 0.005,12.671l0.075,-0.075Z" style="fill:#fff;fill-rule:nonzero;"/><path d="M1197.95,1238.92l-12.675,0l0,-12.646l12.604,0c0,4.316 0,8.516 0,12.716l0.071,-0.07Z" style="fill:#fff;fill-rule:nonzero;"/><path d="M1223.51,1394.2l-13.075,-0.004l0,-25.792l-12.516,-1.441l-0.179,-27.305l-12.509,0l-0.554,-25l-12.571,0l0.017,12.5l-12.692,0l-0.416,12.5l-12.709,0l-0.025,14.146l-12.887,1.913l-0.134,-166.059l12.942,0l-1.537,11.459l11.604,-0.671l0,12.717l14.229,0.041l0.937,12.617l14,0.462l0,12.675l12.546,0.042l-0.3,12.646l12.754,0.458l0,12.654l12.967,0.017l1.054,10.392l-1.475,2.321l12.454,0.433l0,12.633l13.371,1.313l0.775,14.458l-38.554,0l0.071,36.983l12.654,-0.133l0.058,25.65l13.088,0l-0.146,25.333l12.742,-0.158l0.083,25.738l-26.071,-0.117" style="fill-rule:nonzero;"/></g></svg>