<?xml version="1.0" encoding="UTF-8" standalone="no"?><!DOCTYPE svg PUBLIC "-//W3C//DTD SVG 1.1//EN" "http://www.w3.org/Graphics/SVG/1.1/DTD/svg11.dtd"><svg width="100%" height="100%" viewBox="0 0 1917 1917" version="1.1" xmlns="http://www.w3.org/2000/svg" xmlns:xlink="http://www.w3.org/1999/xlink" xml:space="preserve" style="fill-rule:evenodd;clip-rule:evenodd;stroke-linejoin:round;stroke-miterlimit:1.41421;"><rect id="Artboard1" x="0" y="0" width="1916.67" height="1916.67" style="fill:none;"/><path d="M1916.67,958.326c0,529.277 -429.064,958.341 -958.327,958.341c-529.276,0 -958.34,-429.064 -958.34,-958.341c0,-529.276 429.064,-958.326 958.34,-958.326c529.263,0 958.327,429.05 958.327,958.326" style="fill-rule:nonzero;"/><path d="M1633.71,958.326c0,373 -302.369,675.369 -675.369,675.369c-372.999,0 -675.382,-302.369 -675.382,-675.369c0,-372.999 302.383,-675.368 675.382,-675.368c373,0 675.369,302.369 675.369,675.368" style="fill:#ff77da;fill-rule:nonzero;"/><path d="M958.333,311.127c-356.87,0 -647.195,290.325 -647.195,647.195c0,356.87 290.325,647.209 647.195,647.209c356.871,0 647.196,-290.339 647.196,-647.209c0,-356.87 -290.325,-647.195 -647.196,-647.195m0,1350.75c-387.945,0 -703.541,-315.611 -703.541,-703.556c0,-387.931 315.596,-703.542 703.541,-703.542c387.946,0 703.542,315.611 703.542,703.542c0,387.945 -315.596,703.556 -703.542,703.556" style="fill:#fff;fill-rule:nonzero;"/><g><clipPath id="_clip1"><path d="M300.775,953.228c0,356.603 291.156,645.702 650.336,645.702c359.166,0 650.323,-289.099 650.323,-645.702c0,-356.602 -291.157,-645.702 -650.323,-645.702c-359.18,0 -650.336,289.1 -650.336,645.702Z"/></clipPath><g clip-path="url(#_clip1)"><path d="M308.826,1259.86l0,-10.79c1.761,-9.283 1.282,-18.735 2.128,-28.089c3.225,-35.878 17.692,-67.038 39.851,-94.789c33.328,-41.738 77.673,-66.587 128.033,-81.801c4.367,-1.324 8.917,-2.634 13.551,-0.76c0.789,0.197 1.507,0.563 2.141,1.07c10.72,17.609 16.651,37.344 24.849,56.079c8.818,20.172 17.059,40.612 25.497,60.953c2.113,5.127 2.211,11.142 6.578,15.298c7.17,18.876 15.341,37.344 23.736,57.572c9.72,-20.44 16.411,-40.499 25.511,-59.516c5.832,-14.396 11.523,-28.835 17.538,-43.147c10.776,-25.666 21.581,-51.318 32.047,-77.124c1.451,-3.578 3.677,-6.692 5.719,-9.932c0.606,-0.563 1.296,-0.957 2.085,-1.197c5.17,-2.057 10.17,-0.422 15.03,1.057c45.162,13.804 85.788,35.399 117.736,70.912c30.019,33.357 48.669,71.799 49.613,117.665c0.141,7.142 0.606,14.312 0.634,21.482c-0.437,2.015 1.183,4.747 -2.028,5.776c-175.787,0.112 -351.574,0.028 -527.347,0.042c-1.056,0.056 -2.014,-0.197 -2.902,-0.761" style="fill:#536e7b;fill-rule:nonzero;"/><path d="M310.28,1260.09c3.592,-0.071 7.184,-0.226 10.776,-0.226c169.462,0 338.924,0 508.386,-0.014c3.592,0 7.184,-0.098 10.777,-0.155c0.887,0.508 0.929,1.071 0.126,1.705l-529.98,0c-0.451,-0.268 -0.62,-0.549 -0.493,-0.845c0.126,-0.31 0.267,-0.465 0.408,-0.465" style="fill:#c0cace;fill-rule:nonzero;"/><path d="M840.34,1261.4c-0.043,-0.563 -0.085,-1.141 -0.127,-1.704c0.127,-2.015 0.268,-4.015 0.394,-6.029c0.423,-0.028 0.845,-0.014 1.268,0.028c-1.014,2.465 1.958,5.733 -1.535,7.705" style="fill:#eef1f2;fill-rule:nonzero;"/><path d="M310.28,1260.09c0.057,0.437 0.085,0.873 0.085,1.31c-1.324,0.296 -1.832,-0.211 -1.536,-1.536c0.493,0 0.972,0.071 1.451,0.226" style="fill:#edeff0;fill-rule:nonzero;"/><path d="M426.007,832.127c5.142,4.099 10.269,8.184 15.566,12.41c1.93,-2.803 1.099,-5.409 1.099,-7.818c0.084,-22.566 0.127,-45.147 -0.014,-67.714c-0.014,-3.958 0.563,-6.508 4.972,-7.959c56.304,-82.562 131.442,-110.735 188.789,-62.868c4.057,-1.353 6.578,-0.451 9.452,2.451c19.299,19.51 38.696,38.935 58.248,58.191c3.057,3.015 3.93,6.156 3.902,10.213c-0.112,24.863 -0.056,49.74 -0.056,75.321c7.071,-2.718 10.861,-8.973 16.735,-12.255c3.352,1.719 3.282,4.93 3.409,8.001c0.239,6.395 0.183,12.805 0.098,19.214c-0.098,6.424 -0.042,12.777 3.029,18.665c-6.762,0.24 -8.043,4.719 -9.044,10.41c-6.916,39.513 -26.764,71.152 -59.051,94.873c-3.634,2.663 -4.592,5.466 -4.592,9.622c0.014,17.439 -0.253,34.878 -0.422,52.317l-0.494,0.381c-0.535,0.788 -1.253,1 -2.127,0.633c-2.704,-2.451 -1.817,-5.719 -1.845,-8.691c-0.099,-12.058 0.085,-24.13 -0.084,-36.188c-0.085,-6.537 -0.747,-6.734 -6.48,-3.902c-47.81,23.581 -95.662,23.552 -143.472,0.014c-5.734,-2.818 -6.41,-2.606 -6.494,3.93c-0.169,12.058 0.014,24.13 -0.099,36.188c-0.014,2.958 0.887,6.255 -1.888,8.664c-0.887,0.309 -1.62,0.084 -2.183,-0.663l-0.254,-0.239c-0.183,-17.369 -0.535,-34.752 -0.45,-52.135c0.028,-4.55 -1.31,-7.395 -5.043,-10.142c-32.132,-23.708 -51.797,-55.318 -58.784,-94.648c-1,-5.691 -2.183,-10.156 -8.931,-10.438c5.142,-11.241 2.127,-23.187 3.043,-34.794c0.296,-3.902 -1.028,-8.41 3.465,-11.044" style="fill:#f9d29c;fill-rule:nonzero;"/><path d="M602.844,1177.24c-8.762,21.299 -17.538,42.612 -26.3,63.911c-0.747,0.141 -1.493,0.281 -2.24,0.408c-8.621,-21.13 -17.242,-42.274 -25.863,-63.404c-3.677,-13.945 1.24,-27.314 2.817,-40.893c0.353,-3.015 0.564,-6.114 1.409,-9.072c2.803,-9.804 1.845,-18.101 -6.86,-25.257c-6.311,-5.184 -6.043,-10.114 -0.282,-15.735c9.114,-8.903 16.777,-19.369 28.004,-26.004c4.649,-0.775 7.804,2.085 10.72,4.888c7.015,6.776 13.974,13.622 20.679,20.708c5.691,6.043 6.368,10.776 0.226,15.847c-8.931,7.381 -9.452,15.777 -7.156,26.06c2.352,10.467 3.352,21.229 5.212,31.822c0.986,5.649 0,11.156 -0.366,16.721" style="fill:#d42d28;fill-rule:nonzero;"/><path d="M602.844,1177.24c-3.48,-20.891 -6.931,-41.795 -10.453,-62.686c-0.943,-5.536 3.804,-7.452 6.621,-10.382c9.382,-9.748 9.494,-9.635 -0.028,-19.171c-6.339,-6.325 -12.622,-12.721 -19.045,-18.961c-1.705,-1.676 -2.93,-4.494 -6.184,-3.648c-0.367,-0.902 -0.24,-1.733 0.38,-2.494c1.803,-1.986 4.24,-2.845 6.748,-3.324c21.792,-4.24 43.485,-8.917 65.333,-12.918c3.297,-0.605 6.607,-1.38 9.185,1.747c0.746,0.056 1.493,0.127 2.24,0.183c-18.271,43.88 -36.527,87.774 -54.797,131.654" style="fill:#fefefe;fill-rule:nonzero;"/><path d="M573.817,1061.63l-0.057,0.761c-9.311,9.494 -18.524,19.101 -27.99,28.427c-2.761,2.732 -3.606,4.902 -0.084,7.212c12.269,8.043 13.495,18.792 10.269,32.371c-3.705,15.636 -5.099,31.808 -7.508,47.754c-13.622,-32.343 -27.272,-64.672 -40.866,-97.029c-4.958,-11.819 -9.747,-23.694 -14.621,-35.555c0.788,-0.056 1.563,-0.126 2.352,-0.197c2.353,-2.789 5.353,-2.423 8.48,-1.845c20.651,3.817 41.232,7.987 61.77,12.34c3.55,0.746 7.184,1.451 8.255,5.761" style="fill:#fefefe;fill-rule:nonzero;"/><path d="M731.23,877.983c-5.493,0.254 -6.677,-2.733 -6.578,-7.691c0.253,-12.72 0.07,-25.454 0.056,-38.189c5.607,-4.888 11.213,-9.79 16.82,-14.678c13.002,8.748 18.397,21.031 15.537,35.442c-2.479,12.579 -12.551,22.355 -25.835,25.116" style="fill:#f6bc8a;fill-rule:nonzero;"/><path d="M426.007,832.127c-0.014,12.72 -0.211,25.441 0.043,38.161c0.098,4.916 -1.015,7.959 -6.551,7.677c-14.058,-2.747 -22.454,-11.636 -25.68,-25.102c-3.366,-14.129 2.423,-26.554 15.369,-35.4c5.606,4.888 11.213,9.776 16.819,14.664" style="fill:#f6bc8a;fill-rule:nonzero;"/><path d="M573.817,1061.63c-22.919,-4.775 -45.838,-9.565 -68.757,-14.34c-3.24,-0.676 -6.494,-1.282 -9.748,-1.916c-1.31,-2.014 -1.634,-4.24 -1.634,-6.592c0.028,-16.58 0.014,-33.146 0.014,-50.74c54.572,31.216 108.256,31.371 161.926,0.732c2.225,1.043 1.451,3.085 1.465,4.705c0.056,14.608 0.014,29.216 0.042,43.81c0,2.845 0,5.662 -1.719,8.113c-27.201,5.41 -54.388,10.819 -81.589,16.228" style="fill:#f6bc8a;fill-rule:nonzero;"/><g><g opacity="0.699997"><clipPath id="_clip2"><rect x="492.454" y="829.29" width="33.347" height="33.067"/></clipPath><g clip-path="url(#_clip2)"><path d="M525.798,846.119c-0.183,9.03 -8.057,16.496 -17.143,16.228c-8.762,-0.253 -16.157,-7.747 -16.2,-16.411c-0.056,-8.945 7.762,-16.706 16.763,-16.65c9.002,0.056 16.763,7.931 16.58,16.833" style="fill:#020100;fill-rule:nonzero;"/></g></g></g><g><g opacity="0.699997"><clipPath id="_clip3"><rect x="625.034" y="829.289" width="33.302" height="33.061"/></clipPath><g clip-path="url(#_clip3)"><path d="M658.336,845.707c0.099,9.015 -7.592,16.678 -16.706,16.636c-9.086,-0.028 -16.721,-7.734 -16.594,-16.777c0.126,-8.649 7.621,-16.115 16.34,-16.27c9.072,-0.169 16.862,7.381 16.96,16.411" style="fill:#020100;fill-rule:nonzero;"/></g></g></g><g><g opacity="0.199997"><clipPath id="_clip4"><rect x="532.874" y="913.718" width="90.846" height="33.825"/></clipPath><g clip-path="url(#_clip4)"><path d="M579.051,947.543c-17.312,-1.24 -32.188,-7.156 -42.795,-21.383c-2.521,-3.381 -5.747,-7.875 -0.789,-11.411c4.156,-2.958 7.241,1.113 9.706,3.902c14.551,16.369 31.441,21.891 51.994,11.875c6.268,-3.056 10.536,-8.423 15.453,-13.058c2.479,-2.352 5.296,-5.296 8.776,-2.69c4.141,3.113 1.93,7.156 -0.268,10.325c-10.185,14.65 -25.018,20.651 -42.077,22.44" style="fill-rule:nonzero;"/></g></g></g><path d="M1233.85,1363.16l0,-10.791c1.761,-9.283 1.282,-18.735 2.127,-28.088c3.226,-35.879 17.693,-67.039 39.851,-94.789c33.329,-41.739 77.673,-66.588 128.033,-81.801c4.367,-1.324 8.917,-2.634 13.551,-0.761c0.789,0.197 1.508,0.564 2.142,1.071c10.719,17.608 16.65,37.343 24.848,56.079c8.819,20.172 17.059,40.611 25.497,60.952c2.113,5.128 2.212,11.143 6.579,15.298c7.17,18.876 15.34,37.344 23.735,57.572c9.72,-20.439 16.411,-40.499 25.511,-59.516c5.832,-14.396 11.523,-28.835 17.538,-43.147c10.776,-25.666 21.581,-51.317 32.047,-77.124c1.451,-3.578 3.677,-6.691 5.719,-9.931c0.606,-0.564 1.296,-0.958 2.085,-1.198c5.17,-2.056 10.171,-0.422 15.031,1.057c45.161,13.805 85.787,35.4 117.736,70.912c30.018,33.357 48.669,71.799 49.613,117.665c0.14,7.142 0.605,14.312 0.633,21.483c-0.436,2.014 1.184,4.747 -2.028,5.775c-175.787,0.113 -351.574,0.028 -527.346,0.042c-1.057,0.057 -2.015,-0.197 -2.902,-0.76" style="fill:#536e7b;fill-rule:nonzero;"/><path d="M1334.2,920.766c0.535,-24.06 -0.394,-48.12 2.719,-72.152c8.931,-68.771 54.839,-124.511 117.933,-142.317c9.889,-2.789 19.989,-4.282 30.173,-5.466c1.606,-0.183 3.733,0.747 4.564,-1.676l7.706,0c12.128,1.705 24.341,0.282 36.498,0.789c5.311,0.211 10.664,-0.69 15.946,0.563c4.804,9.298 9.678,18.553 14.383,27.906c1.563,3.085 3.226,5.325 7.071,6.184c53.135,11.805 81.548,46.458 91.056,98.677c5.282,28.99 3.719,58.262 4.296,87.449c-1.422,9.368 -10.057,12.002 -16.016,17.13c-3.789,1.958 -5.071,6.48 -8.72,8.536c-2.845,1.592 -5.606,4.367 -9.142,2.353c-3.043,-1.733 -3.014,-5.142 -3.057,-8.255c-0.197,-16.411 0.071,-32.836 -0.112,-49.247c-0.338,-28.906 3.197,-19.707 -16.51,-39.893c-13.439,-13.777 -27.314,-27.117 -40.71,-40.922c-4.508,-4.648 -8.832,-5.677 -15.059,-3.592c-59.093,19.736 -118.144,39.598 -177.336,59.037c-6.466,2.127 -8.847,5.593 -8.762,12.27c0.254,20.003 0.197,40.02 0.028,60.037c-0.042,3.958 1.028,9.043 -3.803,10.762c-4.691,1.662 -8.03,-2.24 -11.284,-5.085c-2.098,-1.832 -3.042,-4.818 -5.831,-5.987c-5.959,-5.128 -14.566,-7.776 -16.031,-17.101" style="fill:#424242;fill-rule:nonzero;"/><path d="M1235.3,1363.39c3.593,-0.07 7.185,-0.225 10.777,-0.225c169.462,0 338.924,0 508.386,-0.014c3.592,0 7.184,-0.099 10.776,-0.155c0.887,0.507 0.93,1.07 0.127,1.704l-529.981,0c-0.451,-0.267 -0.62,-0.549 -0.493,-0.845c0.127,-0.31 0.268,-0.465 0.408,-0.465" style="fill:#c0cace;fill-rule:nonzero;"/><path d="M1549.75,700.507c-15.946,0.057 -31.907,0.141 -47.853,0.141c-1.62,0 -3.662,0.775 -4.606,-1.493l52.388,0c0.085,0.451 0.113,0.902 0.071,1.352" style="fill:#ccc;fill-rule:nonzero;"/><path d="M1235.3,1363.39c0.057,0.437 0.085,0.874 0.085,1.31c-1.324,0.296 -1.831,-0.211 -1.535,-1.535c0.493,0 0.972,0.07 1.45,0.225" style="fill:#edeff0;fill-rule:nonzero;"/><path d="M1351.03,935.43c5.142,4.099 10.269,8.184 15.566,12.41c1.93,-2.803 1.099,-5.409 1.099,-7.818c0.084,-22.581 0.126,-45.147 -0.014,-67.714c-0.014,-3.959 0.563,-6.508 4.972,-7.959c62.981,-20.82 125.906,-41.795 188.789,-62.869c4.057,-1.352 6.578,-0.45 9.452,2.451c19.299,19.51 38.696,38.936 58.248,58.192c3.057,3.015 3.93,6.156 3.902,10.213c-0.113,24.863 -0.056,49.74 -0.056,75.321c7.071,-2.719 10.861,-8.973 16.735,-12.255c3.352,1.718 3.282,4.93 3.395,8.001c0.253,6.395 0.197,12.805 0.112,19.214c-0.098,6.424 -0.042,12.777 3.029,18.665c-6.762,0.239 -8.044,4.719 -9.044,10.41c-6.916,39.513 -26.764,71.151 -59.051,94.873c-3.634,2.663 -4.592,5.466 -4.592,9.621c0.014,17.44 -0.254,34.879 -0.423,52.318l-0.493,0.38c-0.535,0.789 -1.253,1 -2.127,0.634c-2.704,-2.451 -1.817,-5.719 -1.845,-8.691c-0.099,-12.058 0.084,-24.131 -0.085,-36.189c-0.084,-6.536 -0.746,-6.733 -6.479,-3.902c-47.81,23.581 -95.663,23.553 -143.473,0.014c-5.733,-2.817 -6.409,-2.606 -6.493,3.931c-0.17,12.058 0.014,24.13 -0.099,36.188c-0.014,2.958 0.887,6.255 -1.888,8.663c-0.887,0.31 -1.62,0.085 -2.183,-0.662l-0.254,-0.239c-0.183,-17.369 -0.535,-34.752 -0.45,-52.135c0.028,-4.55 -1.31,-7.395 -5.043,-10.142c-32.132,-23.708 -51.797,-55.318 -58.784,-94.648c-1,-5.691 -2.183,-10.157 -8.931,-10.438c5.142,-11.241 2.127,-23.187 3.043,-34.794c0.296,-3.902 -1.028,-8.41 3.465,-11.044" style="fill:#f9d29c;fill-rule:nonzero;"/><path d="M1527.87,1280.54c-8.762,21.299 -17.538,42.612 -26.3,63.911c-0.746,0.141 -1.493,0.282 -2.24,0.409c-8.621,-21.13 -17.242,-42.274 -25.863,-63.404c-3.676,-13.946 1.24,-27.314 2.818,-40.894c0.352,-3.014 0.563,-6.113 1.408,-9.072c2.804,-9.804 1.846,-18.101 -6.86,-25.257c-6.311,-5.184 -6.043,-10.114 -0.282,-15.735c9.115,-8.902 16.778,-19.369 28.005,-26.003c4.648,-0.775 7.804,2.084 10.72,4.888c7.015,6.775 13.974,13.621 20.679,20.707c5.691,6.043 6.367,10.776 0.225,15.847c-8.931,7.382 -9.452,15.777 -7.156,26.061c2.353,10.466 3.353,21.228 5.212,31.821c0.986,5.649 0,11.157 -0.366,16.721" style="fill:#d42d28;fill-rule:nonzero;"/><path d="M1527.87,1280.54c-3.479,-20.904 -6.931,-41.795 -10.452,-62.685c-0.944,-5.536 3.803,-7.452 6.62,-10.382c9.382,-9.748 9.495,-9.635 -0.028,-19.172c-6.339,-6.325 -12.621,-12.72 -19.045,-18.961c-1.704,-1.676 -2.93,-4.493 -6.184,-3.648c-0.366,-0.902 -0.239,-1.733 0.38,-2.493c1.803,-1.987 4.24,-2.846 6.748,-3.325c21.792,-4.24 43.485,-8.917 65.334,-12.917c3.296,-0.606 6.606,-1.381 9.184,1.746c0.747,0.057 1.493,0.127 2.24,0.184c-18.271,43.879 -36.527,87.773 -54.797,131.653" style="fill:#fefefe;fill-rule:nonzero;"/><path d="M1498.84,1164.93l-0.057,0.76c-9.311,9.495 -18.524,19.102 -27.99,28.427c-2.761,2.733 -3.606,4.902 -0.084,7.212c12.269,8.044 13.495,18.792 10.269,32.371c-3.705,15.637 -5.1,31.808 -7.508,47.754c-13.622,-32.343 -27.272,-64.672 -40.866,-97.029c-4.958,-11.818 -9.748,-23.693 -14.622,-35.554c0.789,-0.057 1.564,-0.127 2.353,-0.197c2.352,-2.79 5.353,-2.423 8.48,-1.846c20.651,3.818 41.232,7.987 61.77,12.34c3.55,0.747 7.184,1.451 8.255,5.762" style="fill:#fefefe;fill-rule:nonzero;"/><path d="M1351.03,935.43c-0.014,12.72 -0.211,25.44 0.042,38.161c0.099,4.916 -1.014,7.958 -6.55,7.677c-14.058,-2.747 -22.454,-11.636 -25.68,-25.103c-3.366,-14.128 2.423,-26.553 15.369,-35.399c5.606,4.888 11.213,9.776 16.819,14.664" style="fill:#f6bc8a;fill-rule:nonzero;"/><path d="M1498.84,1164.93c-22.919,-4.776 -45.838,-9.565 -68.757,-14.341c-3.24,-0.676 -6.494,-1.281 -9.748,-1.915c-1.31,-2.015 -1.634,-4.24 -1.634,-6.593c0.028,-16.58 0.014,-33.146 0.014,-50.74c54.572,31.216 108.256,31.371 161.926,0.747c2.225,1.028 1.451,3.071 1.465,4.691c0.056,14.607 0.014,29.215 0.042,43.809c0,2.845 0,5.663 -1.719,8.114c-27.201,5.409 -54.388,10.818 -81.589,16.228" style="fill:#f6bc8a;fill-rule:nonzero;"/><g><g opacity="0.699997"><clipPath id="_clip5"><rect x="1417.48" y="932.591" width="33.343" height="33.067"/></clipPath><g clip-path="url(#_clip5)"><path d="M1450.82,949.421c-0.184,9.029 -8.058,16.495 -17.144,16.228c-8.762,-0.254 -16.157,-7.748 -16.199,-16.411c-0.057,-8.945 7.761,-16.707 16.763,-16.651c9.001,0.057 16.763,7.931 16.58,16.834" style="fill:#020100;fill-rule:nonzero;"/></g></g></g><g><g opacity="0.699997"><clipPath id="_clip6"><rect x="1550.06" y="932.59" width="33.301" height="33.061"/></clipPath><g clip-path="url(#_clip6)"><path d="M1583.36,949.008c0.099,9.015 -7.592,16.679 -16.706,16.636c-9.086,-0.028 -16.721,-7.733 -16.594,-16.777c0.126,-8.649 7.62,-16.115 16.34,-16.27c9.072,-0.169 16.862,7.381 16.96,16.411" style="fill:#020100;fill-rule:nonzero;"/></g></g></g><g><g opacity="0.199997"><clipPath id="_clip7"><rect x="1457.89" y="1017.02" width="90.845" height="33.826"/></clipPath><g clip-path="url(#_clip7)"><path d="M1504.07,1050.85c-17.313,-1.24 -32.188,-7.156 -42.796,-21.384c-2.521,-3.381 -5.747,-7.874 -0.788,-11.41c4.155,-2.958 7.24,1.113 9.705,3.902c14.552,16.369 31.442,21.891 51.994,11.875c6.269,-3.057 10.537,-8.424 15.453,-13.058c2.479,-2.353 5.297,-5.297 8.776,-2.691c4.141,3.113 1.93,7.156 -0.268,10.326c-10.184,14.65 -25.017,20.651 -42.076,22.44" style="fill-rule:nonzero;"/></g></g></g><path d="M610.411,1260.57c12.607,-21.115 29.159,-38.639 53.247,-45.049c64.785,-17.256 129.949,-33.103 194.959,-49.5c23.398,7.058 34.132,29.427 51.881,43.471c72.152,57.065 140.514,54.797 206.327,-9.114c13.34,-12.931 24.82,-28.3 43.626,-34.343c64.742,16.341 129.526,32.456 194.184,49.148c18.622,4.804 32.202,17.89 45.232,31.301c1.535,4.127 3.085,8.255 4.62,12.396c-0.901,81.674 -0.901,81.674 -84.252,81.674c-224.653,464.858 -473.747,-0.014 -710.613,-0.014c0.268,-26.652 0.521,-53.318 0.789,-79.97" style="fill:#464560;fill-rule:nonzero;"/><path d="M847.615,889.888c-30.3,-71.8 -10.635,-137.021 54.98,-182.323c32.301,-38.569 108.298,-60.601 151.037,-43.767c75.969,16.016 115.933,62.699 123.258,145.148c1.465,16.411 0.423,33.033 0.535,49.557c-15.002,15.749 -19.186,-1.521 -23.496,-9.213c-11.241,-19.989 -22.821,-39.654 -37.978,-56.839c-28.314,-32.118 -44.218,-33.033 -77.504,-6.353c-22.483,18.017 -48.134,30.145 -77.124,29.215c-49.952,-1.591 -87.957,13.016 -102.593,65.63c-1.423,5.099 -4.86,9.142 -11.115,8.945" style="fill:#fefefe;fill-rule:nonzero;"/><path d="M903.859,1071.09c-21.369,-39.555 -33.526,-82.364 -43.556,-125.807c-1.648,-7.184 -7.55,-18.383 2.254,-22.215c12.129,-4.761 11.847,8.382 13.833,15.369c7.241,25.398 22.482,41.626 49.317,45.204c30.174,4.014 55.6,-3.311 71.828,-31.428c3.493,-3.662 7.579,-3.845 11.988,-2.085c9.226,6.847 4.141,19.313 10.762,26.413c-0.733,4.958 5.958,1.239 1.789,1.338c-0.916,0.028 -0.986,-0.916 -0.972,-2.817c0,-5.607 -2.296,-12.664 7.804,-11.1c25.454,19.974 53.247,27.13 84.308,14.96c18.059,-7.058 26.751,-22.201 32.568,-39.485c2.663,-7.861 -0.352,-22.539 14.439,-17.369c12.537,4.367 4.564,15.946 2.705,24.144c-10.424,45.726 -26.413,89.479 -48.092,131.119c-23.496,50.627 -67.32,62.657 -116.989,57.459c-41.33,-4.311 -80.237,-16.622 -93.986,-63.7" style="fill:#f2cda1;fill-rule:nonzero;"/><path d="M847.615,889.888c25.046,-70.574 36.316,-78.603 112.299,-81.942c32.272,-1.423 62.361,-11.1 82.97,-36.625c17.397,-21.553 33.188,-18.735 53.233,-6.057c29.413,18.608 45.725,47.19 62.39,76.039c4.085,7.086 1.873,23.567 18.918,17.2c-0.648,7.1 -1.718,14.171 -1.887,21.271c-0.747,31.779 -18.961,31.511 -40.823,21.496c-32.104,-14.721 -64.404,-14.538 -96.93,-3.113c-17.341,6.099 -34.639,7.55 -51.515,1.056c-33.794,-13.016 -66.545,-11.551 -99.973,1.747c-14.312,5.705 -32.695,16.355 -38.682,-11.072" style="fill:#f2cda1;fill-rule:nonzero;"/><path d="M1160.44,1166.03c-1.747,2.536 -3.296,5.24 -5.282,7.579c-98.776,115.82 -202.833,113.143 -296.552,-7.593c17.876,-6.846 35.654,-13.819 45.218,-32.301c7.03,-9.41 -4.662,-25.849 7.692,-30.638c12.325,-4.761 18.594,10.663 27.032,17.397c51.078,40.893 91.478,41.682 142.923,1.69c27.849,-21.665 28.243,-21.524 33.723,11.579c9.593,18.468 27.258,25.596 45.246,32.287" style="fill:#e6c099;fill-rule:nonzero;"/><path d="M1115.2,1133.75c-7.537,-4.522 -3.902,-13.551 -9.044,-21.524c-28.399,23.694 -56.008,47.444 -96.845,47.345c-42.274,-0.084 -68.222,-25.342 -95.17,-52.487c-9.593,6.508 0.198,20.806 -10.311,26.638c0.014,-20.876 0.028,-41.753 0.028,-62.629c55.938,74.236 132.597,76.504 210.989,6.226c0.113,18.82 0.24,37.626 0.353,56.431" style="fill:#cea983;fill-rule:nonzero;"/><path d="M1053.62,663.798c-55.121,-1.902 -105.044,14.143 -151.037,43.767c6.325,-35.287 19.778,-65.376 56.981,-78.195c35.371,-12.185 66.503,-0.803 94.056,34.428" style="fill:#dbe2e8;fill-rule:nonzero;"/><path d="M953.241,907.436c13.946,3.578 33.498,-0.395 31.681,24.088c-1.719,23.229 -21.384,39.442 -47.993,38.625c-24.835,-0.775 -41.753,-12.523 -45.725,-37.865c-3.874,-24.693 17.073,-20.496 30.722,-24.412c2.226,1.691 3.917,3.804 5.198,6.255c2.381,4.324 3.494,11.424 9.326,10.748c9.931,-1.169 5.296,-11.974 9.283,-17.453c2.507,-1.846 5.015,-1.733 7.508,0.014" style="fill:#eeca9f;fill-rule:nonzero;"/><path d="M1091.26,908.847c14.707,-1.634 30.977,-2.071 37.076,13.495c5.058,12.875 -1.253,26.976 -12.297,36.104c-17.679,14.636 -37.921,15.495 -58.206,6.1c-15.58,-7.241 -23.313,-21.356 -22.623,-37.71c0.803,-18.75 17.524,-16.242 30.131,-18.271c8.551,8.537 16.946,30.892 25.919,0.282" style="fill:#edc99f;fill-rule:nonzero;"/><path d="M1028.91,963.962c-12.199,10.734 17.439,30.371 -2.381,32.4c-15.565,1.577 -14.748,-22.919 -17.298,-37.555c-0.352,-2.043 -0.282,-4.156 -0.409,-6.241c-7.86,-7.283 1.24,-17.876 -4.972,-25.496c8.255,-10.34 11.931,-1.987 14.425,4.296c4.211,10.607 7.156,21.707 10.635,32.596" style="fill:#bb875f;fill-rule:nonzero;"/><path d="M1091.26,908.847c4.226,8.029 10.805,16.031 0.705,24.398c-4.057,3.367 -8.551,5.747 -14.129,3.86c-14.58,-4.959 -11.326,-17.707 -12.495,-28.54c8.677,-3.479 17.411,-12.072 25.919,0.282" style="fill:#363330;fill-rule:nonzero;"/><path d="M953.241,907.436l-1.451,1.605l-2.155,-0.211c-7.706,5.902 -15.904,9.551 -25.736,5.578l-1.973,-6.536c10.312,-8.635 20.764,-8.424 31.315,-0.436" style="fill:#4f4841;fill-rule:nonzero;"/><path d="M1003.85,927.075c9.086,7.043 5.113,16.636 4.986,25.497c-3.775,-0.113 -7.536,-0.24 -11.297,-0.352c2.099,-8.382 4.212,-16.763 6.311,-25.145" style="fill:#d2ae88;fill-rule:nonzero;"/><path d="M978.953,1051.43c18.468,0 31.85,-0.126 45.232,0.057c6.114,0.084 12.228,0.76 19.017,1.211c-18.016,25.976 -39.315,26.624 -64.249,-1.268" style="fill:#a5715e;fill-rule:nonzero;"/><path d="M1133.31,877.386c-36.738,-5.381 -65.516,-5.212 -91.577,9.649c-0.732,0.409 -5.817,-3.761 -5.606,-5.367c0.465,-3.62 2.226,-7.761 4.803,-10.311c18.186,-18.017 61.686,-18.003 92.38,6.029" style="fill:#d09d74;fill-rule:nonzero;"/><path d="M929.352,852.005c6.169,0.028 12.523,-0.902 18.495,0.211c13.143,2.451 28.512,5.621 33.456,18.355c3.761,9.663 -5.592,10.396 -13.382,5.522c-5.212,-3.254 -10.537,-6.621 -16.27,-8.677c-13.087,-4.705 -26.117,-3.424 -39.26,1.056c-6.381,2.183 -16.425,5.592 -18.312,-3.677c-2.268,-11.114 8.747,-11.804 16.749,-12.678c6.113,-0.676 12.34,-0.14 18.524,-0.112" style="fill:#cf9b72;fill-rule:nonzero;"/><path d="M923.893,914.407c7.677,-6.001 16.411,-7.142 25.736,-5.564c5.325,13.03 5.86,26.229 -11.142,28.018c-14.002,1.465 -19.82,-8.339 -14.594,-22.454" style="fill:#363330;fill-rule:nonzero;"/><path d="M222.508,1295.55c-24.877,-20.144 -31.653,-48.571 -35.118,-78.195c-8.142,-69.391 -9.508,-138.824 6.649,-207.256c19.115,-80.914 71.743,-123.92 154.629,-128.259c48.204,-2.536 94.084,4.451 132.428,37.146c32.089,27.371 47.753,64.01 55.036,104.284c12.227,67.545 12.129,135.442 2.409,203.34c-4.001,27.934 -13.481,53.135 -36.372,71.475c-11.945,17.482 -30.3,19.665 -49.162,20.637c-4.972,-0.493 -9.677,-2 -14.326,-3.775c-16.622,-6.677 -21.75,-23.792 -32.512,-35.808c-1.775,-1.761 -3.789,-3.212 -5.86,-4.621c-2.986,-2.352 -6.649,-4.057 -7.902,-8.113c0.338,-2.128 1.634,-3.607 3.31,-4.818c46.077,-26.863 65.235,-71.095 77.237,-119.891c3.606,-14.65 4.86,-29.427 1.324,-44.345c-5.367,-22.708 -18.848,-38.485 -40.992,-45.669c-24.215,-7.846 -47.444,-17.044 -65.348,-36.047c-3.691,-3.902 -6.156,-2.339 -9.142,0.774c-17.045,17.735 -38.893,26.751 -61.742,34.09c-17.608,5.649 -31.596,15.791 -38.921,33.526c-7.72,16.214 -8.508,33.315 -5.283,50.501c5.79,30.878 16.101,60.093 34.569,85.956c2.944,4.142 6.409,8.044 7.156,13.354c-2.352,14.326 0.141,17.144 15.96,17.989c8.396,3.409 17.242,6.395 16.735,18.045c-1.254,2.704 -3.381,4.212 -6.339,4.578c-7.114,-1.958 -14.439,-2.479 -21.637,-5.001c-7.283,-2.564 -12.312,6.762 -7.536,15.665c4.888,9.142 3.099,17.481 0.76,26.342c-21.679,13.917 -56.642,5.972 -70.01,-15.904" style="fill:#2e3233;fill-rule:nonzero;"/><path d="M222.508,1295.55c18.679,13.551 38.062,24.539 62.432,16.791c2.564,-0.817 4.831,-2.522 7.24,-3.817c8.466,-12.101 13.073,-27.371 28.075,-34.09c3.451,-0.056 6.776,0.451 9.903,2c16.946,11.044 35.653,11.354 54.811,8.917c15.284,13.946 34.258,20.552 53.444,26.694c4.564,1.113 9.129,2.226 13.707,3.339c15.903,2.521 32.159,2.789 47.753,7.325c2.226,2.225 2.578,4.986 2.353,7.945c-0.62,3.394 -1.451,6.775 -1.775,10.241c-0.451,4.155 -2.423,8.001 -2.282,12.269c-0.141,3.648 -0.254,7.297 -0.789,10.931c-1.761,13.833 -4.001,27.497 -2.522,41.668c1.818,17.369 -3.409,23.764 -20.439,27.188c-23.314,4.676 -46.035,11.607 -69.011,17.58c-11.17,-0.014 -22.341,0.45 -33.526,0.366c-28.61,1.916 -56.656,-0.916 -84.111,-9.424c-12.016,-3.733 -24.37,-6.114 -36.752,-8.339c-8.226,-1.479 -15.396,-4.494 -16.002,-14.538c-0.057,-2.338 -0.071,-4.676 -0.042,-7.015c-0.015,-3 0,-6.015 -0.141,-9.015c-0.183,-3.818 -2.043,-7.283 -2.409,-11.058c-0.803,-25.201 -5.762,-49.782 -10.692,-74.392c-1.254,-6.226 -3.747,-12.692 0.493,-18.862c0.141,-0.901 0.24,-1.803 0.282,-2.704" style="fill:#e8c49c;fill-rule:nonzero;"/><path d="M222.222,1298.26c6.114,31.639 14.974,62.883 13.932,95.578c-3.17,7.889 -6.297,15.777 2.775,22.13c-0.183,5.846 0.056,10.41 7.973,11.847c42.203,7.649 83.068,23.919 127.145,19.13c2.832,5.536 3.48,11.551 3.254,17.58c-0.197,5.141 1.775,8.212 6.818,8.564c5.621,0.381 12.411,6.48 16.637,-0.31c4.268,-6.846 11.537,-14.382 3.817,-23.623c0.437,-2.423 1.395,-4.254 4.113,-4.888c21.595,-5.057 43.148,-10.269 64.742,-15.242c15.017,-3.451 20.722,-11.17 17.51,-26.06c-3.043,-14.03 0.211,-27.272 3.226,-40.668c12.847,-5.677 12.664,-20.58 20.919,-29.54c9.959,-1.436 17.27,2.916 23.116,10.509c3.437,9.001 1.028,17.524 -2.17,25.976c-7.184,5.17 -9.663,11.044 -2.676,18.341c2.902,11.734 -0.127,22.961 -2.93,34.188c-1.648,4.353 -5.973,3.564 -9.255,4.93c-5.536,2.296 -9.692,6.579 -8.128,12.706c1.014,3.944 3.099,9.438 9.044,8.889c5.662,-0.507 11.128,-1.902 11.593,-9.438c0.183,-3.085 0.352,-6.818 5.099,-6.832c15.636,9.41 22.553,34.991 14.58,53.811c-5.029,0 -10.058,0 -15.087,0c-7.311,-0.437 -13.974,-5.832 -21.679,-2.761c-2.846,2.747 -4.508,6.635 -8.213,8.522c-62.023,6.17 -124.145,10.974 -186.52,8.156c-12.678,-0.563 -25.652,2.902 -38.133,-1.845c0.845,-1.972 2.55,-2.944 4.409,-3.719c5.212,-1.437 7.691,-4.634 3.127,-8.705c-3.507,-3.114 -8.48,-6.861 -13.283,-1.381c-3.353,3.832 -5.128,8.762 -7.903,13.03c-25.144,-2.747 -50.289,-5.437 -75.434,-8.269c-6.846,-0.76 -13.65,-1.958 -20.482,-2.958c-7.818,-17.622 -3.578,-41.091 10.96,-53.078c7.804,-6.452 10.213,-13.03 8.564,-22.891c-1.732,-10.424 -2.31,-21.158 -0.535,-31.779c1.085,-2.663 2.747,-5.043 5.635,-5.705c5.973,-1.381 10.269,-3.198 8.903,-11.058c-1.113,-6.41 -0.085,-12.904 -9.368,-14.172c-4.381,-0.591 -8.452,-3.634 -11.537,-7.311c-4.085,-9.987 -6.184,-20.594 -9.663,-30.779c15.03,-3.62 30.075,-7.254 45.105,-10.875" style="fill:#f3e8d5;fill-rule:nonzero;"/><path d="M550.24,1309.14c33.061,9.551 63.855,22.553 76.321,58.431c7.621,21.933 11.791,44.838 13.326,68.095c0.465,6.959 -0.831,14.326 1,20.834c3.198,11.34 0.085,15.918 -11.635,17.073c-15.186,1.493 -30.216,4.423 -45.317,6.734c-6.113,-7.297 -6.705,-16.313 -6.79,-25.061c-0.211,-21.172 -4.958,-41.471 -10.339,-61.713c-3.55,-13.326 -9.678,-25.201 -19.623,-34.808c-5.564,-5.367 -9.001,-11.734 -11.016,-19.059c-1.845,-8.114 0.606,-15.777 3.043,-23.243c1.578,-4.832 4.057,-9.875 11.03,-7.283" style="fill:#ddb58b;fill-rule:nonzero;"/><path d="M538.907,1340.16c0.155,3.465 1.691,6.311 4.283,8.466c29.243,24.215 32.807,59.164 37.329,93.014c1.691,12.664 3.071,25.708 3.409,38.668c-10.185,1.845 -20.383,3.69 -30.568,5.521c-1.042,-11.086 -1.944,-22.186 -3.155,-33.244c-1,-9.086 -6.565,-15.143 -14.031,-19.749c-6.141,0.901 -10.691,0.098 -8.437,-7.931c0.957,-13.157 1.915,-26.3 2.873,-39.443c-4.212,-5.789 -3.423,-10.621 2.789,-14.396c-0.267,-9.452 4.381,-18.411 2.804,-27.99c-0.972,-2.719 0.366,-3.282 2.704,-2.916" style="fill:#e8c49c;fill-rule:nonzero;"/><path d="M538.907,1340.16c-0.901,0.972 -1.803,1.944 -2.704,2.916c-7.706,-3.057 -14.284,-9.424 -23.497,-8.142c-4.606,0.112 -10.241,4.507 -12.988,-3.113c-0.056,-2.804 -0.112,-5.607 -0.169,-8.41c-5,-9.635 -0.958,-17.383 5.184,-24.68c15.171,3.465 30.343,6.945 45.5,10.41c-12.777,7.057 -8.41,20.369 -11.326,31.019" style="fill:#ece0cf;fill-rule:nonzero;"/><path d="M504.732,1298.73c-1.733,8.227 -3.451,16.453 -5.184,24.694c-16.834,3.31 -31.906,-3.691 -47.43,-8.029c18.792,0.366 34.78,-7.424 50.05,-17.299c0.887,0.056 1.747,0.268 2.564,0.634" style="fill:#dcb48a;fill-rule:nonzero;"/><path d="M513.582,1480.26c9.889,-5.48 17.665,-1.634 24.694,5.578c-5.578,4.508 -12.269,2.789 -18.552,3.381c-9.706,2.254 -7.438,-3.677 -6.142,-8.959" style="fill:#42821d;fill-rule:nonzero;"/><path d="M513.582,1480.26c0.24,4.226 0.55,8.396 6.142,8.959c-3.367,2.747 -7.409,2.31 -11.354,2.381c1.747,-3.776 3.48,-7.565 5.212,-11.34" style="fill:#e78681;fill-rule:nonzero;"/><path d="M325.906,1270.32c0.55,-11.184 -11.889,-10.452 -15.96,-17.397c-8.719,-2.831 -15.171,-7.916 -17.312,-17.326c-22.764,-30.61 -38.147,-64.475 -43.964,-102.283c-2.705,-17.538 -3.114,-35.118 6.395,-51.275c11.142,-17.933 27.412,-28.173 47.5,-34.104c21.116,-6.24 41.062,-15.326 55.811,-32.78c3.494,-4.113 6.325,-4.042 10.171,0.099c15.664,16.862 35.427,26.906 57.29,33.174c4.479,1.282 8.973,2.592 13.227,4.423c16.707,7.199 26.553,17.651 25.849,38.316c-1.718,50.74 -8.734,99.494 -38.71,142.401c-8.41,12.016 -18.059,22.567 -30.216,30.78l-1.831,2.592c-4.972,10.705 -15.594,14.283 -24.792,19.693c-15.031,2.859 -28.117,-2.719 -40.95,-9.396c-3.48,-1.352 -4.945,-3.437 -2.508,-6.917" style="fill:#e8c49c;fill-rule:nonzero;"/><path d="M395.983,1264.35c30.751,-31.92 52.078,-68.925 59.474,-113.002c4.071,-24.272 5.747,-48.825 5.015,-73.49c-0.226,-7.466 -4.579,-11.748 -10.199,-15.58c-11.002,-7.494 -23.821,-10.396 -36.146,-14.509c-19.862,-6.635 -36.682,-17.749 -50.867,-33.85c-14.185,17.96 -33.188,29.004 -54.882,35.061c-21.158,5.903 -39.019,16.425 -53.317,33.047c7.86,-20.791 24.989,-30.469 44.725,-36.54c24.989,-7.691 47.739,-18.651 63.742,-41.274c16.396,22.82 39.513,33.794 64.967,41.584c32.357,9.903 52.12,33.103 51.078,65.418c-1.817,56.29 -21.891,105.354 -65.601,142.923c-5.241,4.507 -10.847,8.832 -17.989,10.212" style="fill:#dcb48a;fill-rule:nonzero;"/><path d="M320.307,1275.78c-12.199,8.494 -14.791,25.229 -28.117,32.737c-1.859,-10.438 -4.155,-20.834 -5.339,-31.356c-0.366,-3.311 -3.183,-9.72 2.93,-10.227c5.903,-0.507 13.326,-8.678 18.116,1.38c3.057,6.438 10.551,-1.141 13.227,4.973c0.564,1.099 0.254,1.916 -0.817,2.493" style="fill:#303233;fill-rule:nonzero;"/><path d="M438.415,1312.05c-21.144,-1.381 -40.499,-6.593 -53.67,-25.046c4.916,-8.607 12.607,-11.664 22.13,-11.058c12.748,10.086 16.904,27.666 31.54,36.104" style="fill:#dcb48a;fill-rule:nonzero;"/><path d="M406.875,1275.94c-7.382,3.691 -14.749,7.382 -22.13,11.058c-20.102,6.635 -38.921,4.663 -56.079,-8.395c-1,-0.578 -1.338,-1.169 -1.014,-1.761c0.324,-0.592 0.662,-0.888 0.986,-0.888c13.481,5.452 27.145,9.875 42.006,8.128c10.213,-4.592 19.764,-10.959 31.371,-11.875c1.62,1.24 3.24,2.48 4.86,3.733" style="fill:#cea480;fill-rule:nonzero;"/><path d="M292.627,1235.6c5.775,5.776 11.551,11.551 17.326,17.313c-3.338,-1.226 -0.845,8.564 -6.296,3.338c-1.634,-1.578 -3.395,-4.634 -4.874,-4.508c-21.539,1.86 -9.41,-8.79 -6.156,-16.143" style="fill:#303233;fill-rule:nonzero;"/><path d="M402.015,1272.2c-8.832,8.241 -20.13,9.974 -31.371,11.875c6.452,-7.62 15.566,-11.579 23.511,-17.129c2.62,1.747 5.24,3.508 7.86,5.254" style="fill:#d8b087;fill-rule:nonzero;"/><path d="M328.641,1275.96c0.014,0.888 0.014,1.761 0.014,2.649c-2.775,-0.944 -5.564,-1.888 -8.354,-2.818c0.254,-0.845 0.522,-1.676 0.817,-2.507c1.592,-0.986 3.198,-1.972 4.79,-2.958c0.915,1.873 1.817,3.761 2.733,5.634" style="fill:#cd9f7d;fill-rule:nonzero;"/><path d="M404.577,1449.15c9.072,2.831 15.862,6.818 5.142,15.65c-3.127,2.578 -2.944,4.973 -3.423,8.114c-0.789,5.156 -4.395,9.311 -9.565,8.015c-6.747,-1.69 -13.199,-4.367 -20.242,-5.296c-2.578,-0.352 -5.818,-4.114 -4.48,-6.17c4.804,-7.382 -2.042,-15.411 2.043,-22.525c10.1,1.86 20.763,-4.254 30.525,2.212" style="fill:#42821d;fill-rule:nonzero;"/><path d="M499.724,1331.82c4.198,1.606 9.523,-1.535 12.988,3.128c-0.507,3.535 -2.296,7.508 -1.282,10.522c3.099,9.1 1.507,13.284 -9.015,12.523c-2.635,-0.183 -5.494,2.789 -8.241,4.311c0.183,-3.691 0.352,-7.368 0.535,-11.058c2.846,-3.367 6.804,-6.508 2.296,-11.368c-0.056,-3.015 -0.591,-6.184 2.719,-8.058" style="fill:#42821d;fill-rule:nonzero;"/><path d="M497.008,1339.88c2.888,0.564 5.494,1.606 5.24,5.142c-0.352,4.521 -3.324,6.212 -7.536,6.226c0.761,-3.789 1.535,-7.579 2.296,-11.368" style="fill:#f2ac14;fill-rule:nonzero;"/><path d="M527.732,1424.9c0.451,5.169 4.776,6.198 8.452,7.944c2.254,14.975 -2,21.285 -16.368,20.722c-8.297,-0.324 -10.861,-9.72 -12.171,-15.805c-2.071,-9.692 10.959,-17.327 20.087,-12.861" style="fill:#42821d;fill-rule:nonzero;"/><path d="M328.015,1450.76c1.846,0.437 3.86,6.536 5.353,10.382c1.916,4.916 -5.353,8.677 -8.48,8.579c-4.649,-0.155 -10.368,-2.466 -10.509,-9.875c-0.126,-6.931 3.776,-8.692 13.636,-9.086" style="fill:#42821d;fill-rule:nonzero;"/><path d="M533.401,1371.06c-2.958,4.409 -2.62,9.452 -2.789,14.397c-5.973,-0.029 -8.142,-4.607 -7.776,-8.945c0.493,-5.903 5.973,-5.593 10.565,-5.452" style="fill:#42821d;fill-rule:nonzero;"/><path d="M452.068,1486.07c-4.043,0.254 -5.86,-0.859 -4.719,-5.55c1.394,-5.677 4.141,-8.607 10.184,-7.579c4.099,6.846 0.775,10.594 -5.465,13.129" style="fill:#42821d;fill-rule:nonzero;"/><path d="M452.068,1486.07c2.267,-4.198 6.648,-7.508 5.465,-13.129c3.226,2.944 7.691,5.212 4.17,10.96c-2.648,4.324 -5.409,5.93 -9.635,2.169" style="fill:#e36e66;fill-rule:nonzero;"/><path d="M390.732,1466.49c-4.17,-0.127 -7.847,-1.409 -7.649,-6.043c0.183,-4.409 2.634,-7.86 7.775,-7.874c4.184,-0.015 7.311,1.873 7.537,6.268c0.267,5.085 -3.057,7.255 -7.663,7.649" style="fill:#f2a819;fill-rule:nonzero;"/><path d="M527.318,1438.09c-0.662,2.986 -2.282,5.226 -5.536,5.029c-3.226,-0.198 -4.817,-2.522 -4.761,-5.649c0.056,-3.479 2.395,-4.719 5.522,-4.677c3.381,0.056 5.043,1.817 4.775,5.297" style="fill:#f2aa16;fill-rule:nonzero;"/><path d="M326.09,1459.26c-0.944,1.296 -1.508,2.93 -2.409,3.156c-2.367,0.591 -3.17,-1.324 -2.902,-3.17c0.141,-0.944 1.535,-2.324 2.409,-2.366c0.859,-0.043 1.789,1.394 2.902,2.38" style="fill:#f0a21f;fill-rule:nonzero;"/><g><g opacity="0.5"><clipPath id="_clip8"><rect x="389.858" y="1084.98" width="25.487" height="25.752"/></clipPath><g clip-path="url(#_clip8)"><path d="M402.583,1084.98c7.846,1.028 12.847,5.169 12.762,13.269c-0.084,7.522 -4.705,12.213 -12.171,12.467c-8.029,0.282 -13.086,-4.409 -13.312,-12.41c-0.225,-8.086 4.889,-12.242 12.721,-13.326" style="fill-rule:nonzero;"/></g></g></g><g><g opacity="0.5"><clipPath id="_clip9"><rect x="301.386" y="1085.27" width="25.488" height="25.736"/></clipPath><g clip-path="url(#_clip9)"><path d="M314.165,1111c-7.86,-1 -12.889,-5.113 -12.776,-13.227c0.112,-7.48 4.705,-12.241 12.171,-12.495c8.001,-0.268 13.072,4.409 13.311,12.424c0.226,8.1 -4.845,12.256 -12.706,13.298" style="fill-rule:nonzero;"/></g></g></g><g><g opacity="0.199997"><clipPath id="_clip10"><rect x="313.04" y="1170.53" width="92.456" height="34.423"/></clipPath><g clip-path="url(#_clip10)"><path d="M360.035,1204.95c-17.622,-1.267 -32.751,-7.282 -43.541,-21.763c-2.578,-3.452 -5.86,-8.016 -0.817,-11.608c4.24,-3.014 7.367,1.141 9.874,3.959c14.805,16.664 32.005,22.285 52.91,12.1c6.395,-3.113 10.734,-8.579 15.735,-13.298c2.521,-2.394 5.395,-5.395 8.93,-2.733c4.212,3.17 1.973,7.283 -0.281,10.509c-10.354,14.904 -25.455,21.017 -42.81,22.834" style="fill-rule:nonzero;"/></g></g></g><g><g opacity="0.0500031"><clipPath id="_clip11"><rect x="350.8" y="1150.3" width="17.684" height="10.855"/></clipPath><g clip-path="url(#_clip11)"><path d="M368.485,1155.19c-1.818,4.437 -5.339,6.268 -9.805,5.93c-3.831,-0.31 -8.212,-2.226 -7.86,-6.184c0.62,-7.015 6.917,-3.888 10.889,-4.226c2.944,-0.254 6.776,-0.38 6.776,4.48" style="fill-rule:nonzero;"/></g></g></g><g><g opacity="0.199997"><clipPath id="_clip12"><rect x="1530.97" y="-518.879" width="1355.29" height="981.485"/></clipPath><g clip-path="url(#_clip12)"><path d="M2886.26,10.807l-536.037,451.8l-819.25,-634.235l605.725,-347.25l178.35,126.033l388.636,0.747l19.073,287.367l163.503,115.538Z" style="fill-rule:nonzero;"/></g></g></g><path d="M829.1,1430.91c48.979,15.538 91.591,40.936 126.568,79.209c18.51,20.257 30.371,44.218 42.739,68.081c0.831,10.649 -7.241,14.903 -14.453,19.298c-53.923,32.85 -111.143,55.431 -175.421,55.995c-4.409,0.042 -9.156,-1.479 -13.227,1.662l-93.042,0c-13.805,-3.437 -28.075,-3.508 -42.091,-4.62c-53.458,-4.226 -99.465,-27.779 -144.542,-53.98c-6.847,-3.973 -13.96,-8.509 -13.002,-18.355c33.188,-75.195 90.957,-122.23 168.321,-146.811c0.76,0.38 1.521,0.761 2.282,1.113c5.451,5.775 3.803,12.481 3.183,19.439c-2.859,32.217 9.776,57.333 37.161,74.082c25.327,15.481 51.585,14.918 76.279,-1.564c26.666,-17.777 38.794,-43.048 34.061,-75.307c-0.859,-5.846 -0.831,-11.339 0.789,-16.918c1.155,-1.465 2.62,-1.901 4.395,-1.324" style="fill:#2b66fe;fill-rule:nonzero;"/><path d="M829.1,1430.91c-0.986,0.071 -1.93,0.324 -2.817,0.747c-2.93,9.649 -9.748,17.622 -11.284,27.99c-0.648,4.437 -4.423,7.846 -10.001,6.945c-7.903,-13.411 -18.933,-14.608 -33.484,-11.495c-14.453,3.099 -30.174,3.437 -44.486,-0.352c-14.143,-3.747 -22.933,0.352 -30.258,11.508c-6.395,1.761 -10.184,-2.282 -10.973,-7.226c-1.747,-10.903 -8.424,-19.115 -13.368,-28.3l-1.479,0.662c-1.522,-1.521 -2.804,-3.451 -4.607,-4.522c-54.219,-32.526 -82.054,-79.955 -81.434,-143.556c-5.551,-4.931 -7.466,-11.326 -7.537,-18.51c-0.225,-20.059 -1.493,-40.147 1.268,-60.122c-1.042,-15.425 -2.071,-30.892 -1.099,-46.401c0.437,-6.931 0.578,-14.383 8.382,-17.425c6.832,-2.649 11.833,1.944 17.03,5.677c62.77,44.964 132.781,44.034 192.733,-2.353c12.509,-9.677 21.257,-22.383 29.47,-35.569c11.17,-17.96 19.608,-20.326 36.118,-8.198c17.552,12.889 34.498,26.624 51.571,40.175c10.945,8.692 10.523,20.834 10.945,32.949c0.352,10.367 -1.225,20.608 -1.409,30.962c2.747,20.214 1.522,40.471 1.254,60.713c-0.084,7.044 -2.113,13.27 -7.522,18.102c1.113,66.953 -30.878,114.397 -87.013,147.599" style="fill:#f9d29c;fill-rule:nonzero;"/><path d="M916.107,1199.96c6.508,-35.132 -7.099,-59.713 -38.034,-76.884c-12.804,-7.114 -23.566,-17.89 -35.456,-27.145c-41.555,89.76 -160.488,128.202 -257.7,48.275l0,55.74c-7.184,8.185 -14.087,17.116 -26.92,9.819c0.057,-41.838 -2.577,-83.731 1.592,-125.526c8.297,-83.252 108.735,-157.291 194.832,-144.782c32.921,4.789 65.968,10.17 99.015,0.915c7.114,-2 9.368,1.564 10.678,7.227c2.253,9.691 2.662,19.848 -0.198,29.004c-3.465,11.086 1.099,16.411 9.129,22.553c48.26,36.977 74.109,84.787 70.602,146.937c-1.198,21.172 -0.465,42.443 -0.62,63.686c-12.819,7.283 -19.736,-1.648 -26.92,-9.819" style="fill:#252447;fill-rule:nonzero;"/><path d="M916.107,1199.96c10.016,0.409 18.637,4.635 26.92,9.819c26.285,33.836 14.354,66.432 -26.906,73.518c0,-27.779 -0.014,-55.558 -0.014,-83.337" style="fill:#f6bc8a;fill-rule:nonzero;"/><path d="M557.997,1209.77c8.297,-5.127 16.876,-9.48 26.92,-9.832c0,27.793 0,55.572 -0.014,83.364c-41.26,-7.113 -53.177,-39.653 -26.906,-73.532" style="fill:#f6bc8a;fill-rule:nonzero;"/><path d="M675.628,1423.72c25.243,1.803 19.834,22.961 24.046,38.047c8.747,1.916 9.818,10.227 13.199,16.369c10.311,18.721 25.666,29.624 47.204,29.272c20.735,-0.324 35.47,-11.199 45.373,-29.258c3.381,-6.142 4.479,-14.453 13.227,-16.368c0.86,-4.043 2.874,-8.255 2.353,-12.129c-2.001,-15.101 5.691,-22.102 19.2,-24.933c15.002,34.596 6.325,72.884 -22.342,98.634c-27.792,24.976 -68.052,29.582 -101.085,11.579c-32.639,-17.805 -51.261,-55.487 -45.091,-91.394c1.141,-6.634 2.606,-13.213 3.916,-19.819" style="fill:#fefefe;fill-rule:nonzero;"/><path d="M818.676,1461.79c-4.381,32.596 -29.174,54.937 -60.446,54.473c-30.61,-0.465 -54.318,-22.539 -58.558,-54.487c0.24,-4.255 0.69,-8.509 0.676,-12.749c-0.056,-10.184 3.93,-14.72 14.65,-11.917c29.427,7.691 58.699,6.55 88.436,0.38c22.947,-4.761 10.988,15.566 15.242,24.3" style="fill:#f6bc8a;fill-rule:nonzero;"/><path d="M751.362,1386.63c-20.482,-1.48 -38.077,-8.467 -50.614,-25.3c-2.986,-4.001 -6.803,-9.311 -0.943,-13.495c4.916,-3.508 8.564,1.324 11.48,4.606c17.214,19.384 37.189,25.906 61.502,14.059c7.424,-3.62 12.467,-9.959 18.271,-15.453c2.944,-2.775 6.282,-6.269 10.381,-3.17c4.903,3.677 2.297,8.466 -0.309,12.213c-12.044,17.327 -29.596,24.427 -49.768,26.54" style="fill:#f4b18a;fill-rule:nonzero;"/><path d="M826.294,1213.98c12.537,1.648 20.524,8.255 20.383,21.186c-0.141,12.016 -7.522,19.51 -19.453,19.918c-12.819,0.437 -20.877,-7.057 -21.243,-19.833c-0.366,-12.918 7.804,-19.539 20.313,-21.271" style="fill:#272648;fill-rule:nonzero;"/><path d="M674.74,1255.54c-12.551,-1.591 -20.594,-8.156 -20.397,-21.129c0.169,-11.946 7.508,-19.553 19.439,-19.947c12.777,-0.437 20.877,7.043 21.243,19.834c0.366,12.931 -7.734,19.594 -20.285,21.242" style="fill:#272648;fill-rule:nonzero;"/><path d="M761.529,1316.33c-2.239,5.465 -6.564,7.705 -12.044,7.282c-4.719,-0.38 -10.086,-2.732 -9.663,-7.592c0.76,-8.621 8.494,-4.776 13.396,-5.198c3.606,-0.31 8.311,-0.465 8.311,5.508" style="fill:#f6bd8a;fill-rule:nonzero;"/><path d="M1432.11,1405.49l1.591,-307.651c0,0 9.509,-182.366 -190.31,-190.297c0,0 -179.196,-19.031 -210.905,139.557l-9.522,366.322l409.146,-7.931Z" style="fill-rule:nonzero;"/><path d="M1432.37,1384.78c1.577,0.197 3.155,0.394 4.733,0.577c2.38,-1.098 4.831,-1.338 7.381,-0.76c14.171,5.057 27.469,12.748 42.02,16.34c23.877,5.874 35.71,21.806 41.232,44.176c5.846,23.707 15.27,46.767 13.241,71.926c-2.507,7.17 -7.24,13.424 -7.86,20.623c3.409,-1.508 -0.225,-8.354 5.268,-9.565c12.847,5.733 7.213,19.087 11.763,28.272c0.972,3.536 1.521,7.128 1.732,10.79c0.761,6.269 -1.789,11.946 -3.268,17.806c-1.93,10.677 -8.846,16.608 -18.791,19.594c-7.227,6.48 -14.453,12.974 -21.68,19.454c-8.522,6.663 -15.072,16.664 -27.722,16.382c-3.353,-0.972 -5.818,-3.07 -7.649,-5.972c-1.324,-6.875 -3.17,-13.439 -10.1,-17.031c-3.423,-10.396 1.747,-19.975 3,-32.822c-6.268,25.131 -15.086,46.852 -12.635,70.673c-0.423,3.93 -4.1,4.986 -6.396,7.254l-0.211,0.099c-4.564,2.451 -8.438,6.212 -13.777,7.128c-6.606,7.17 -15.129,10.283 -24.525,11.537l0.085,-0.029c-11.016,9.847 -25.849,9.269 -38.668,14.2c-41.626,10.987 -83.294,21.566 -126.976,18.073c-4.663,-7.015 -4.395,-14.988 -4.212,-22.834c1.915,-77.914 0.112,-155.855 1.084,-233.768c0.155,-11.79 -3.662,-25.792 10.974,-33.174c7.212,7.818 2.155,17.172 3.212,25.765c0,82.618 0.014,165.236 0.07,247.854c0.084,-80.069 0.084,-160.137 0.084,-240.177c0.212,-11.41 -0.239,-22.947 4.001,-33.921c34.033,-19.143 59.91,-47.204 83.942,-77.279c12.171,-2.578 22.327,3.353 32.864,7.706c7.889,3.775 14.608,9.747 23.215,12.17c13.002,3.607 25.609,7.973 34.569,18.933" style="fill:#e7193b;fill-rule:nonzero;"/><path d="M918.057,1542.74c-0.338,-9.917 -0.493,-19.82 4.437,-28.934c3.212,1.423 1.775,5.128 3.635,7.438c-1.733,-5.226 1.056,-10.988 -2.635,-15.692c5.579,-22.835 -1.282,-48.909 17.764,-68.25c4.775,0.803 8.987,0.324 11.001,-4.987c2.155,-5.634 -1.042,-12.495 4.113,-17.326c18.299,-7.184 35.006,-18.764 55.586,-19.764c4.677,-0.225 5.1,-5.029 6.367,-8.536c1.296,-1.663 2.649,-3.254 4.071,-4.818c8.41,-6.578 18.778,-8.959 28.272,-13.213c9.509,-4.057 18.58,-9.016 27.906,-13.481c1.902,-0.916 3.874,-1.62 5.888,-2.268c7.241,-1.888 13.791,-5.621 20.876,-7.973c4.508,-1.028 8.903,-0.873 13.157,1.113c9.452,7.325 12.974,17.96 15.989,28.849c0.915,6.381 -9.706,20.285 9.635,14.608c21.158,9.269 40.992,21.496 63.361,27.99c1.691,1.521 2.536,3.437 2.536,5.719c-1.578,4.212 -5.254,6.283 -8.621,8.579c-5.395,8.889 7.494,13.03 5.55,21.074c0.085,2.592 -0.211,5.057 -0.803,7.564c-1.155,68.137 -0.253,136.218 -0.422,204.284c-0.014,5.536 0.112,11.1 2.338,16.327c1.958,3.859 3.86,7.719 4.902,11.945c0,25.074 -0.746,25.666 -28.159,22.172c-5.17,-1.535 -10.354,-3.056 -15.523,-4.592c1.408,-3.226 5.113,-1.817 7.451,-3.677c-5.24,1.789 -11.1,-1.169 -15.72,2.818c-14.214,-1.846 -28.413,-3.705 -42.626,-5.564c-11.242,-2.705 -24.074,0.591 -33.47,-8.988c-19.792,-2.69 -36.034,-13.269 -52.402,-23.567c-1.86,-4.155 -3.114,-9.438 -9.495,-5.043c-6.578,2.93 -9.663,-2.916 -14.03,-5.578c-5.466,-30.497 -17.721,-59.558 -19.271,-90.774c-0.112,-3.057 2.818,-0.662 -0.014,-2.071c-0.197,-0.098 -0.084,0.085 -0.084,0.099c0.028,5.099 -0.042,10.213 0.169,15.34c1.155,36.301 -1.578,40.57 -29.314,45.838c-12.96,-7.888 -21.877,-21.045 -36.823,-26.722c-8.578,-3.254 -11.001,-12.256 -10.959,-21.299l1.789,0.155c2.085,-3.649 1.225,-8.016 2.902,-11.777c3.859,-8.917 -3.973,-18.129 0.676,-27.018" style="fill:#e7193b;fill-rule:nonzero;"/><path d="M1131.61,1377.06c-4.508,-10.03 -9.002,-20.059 -13.509,-30.075c3.169,-13.002 13.41,-15.96 24.722,-17.425c3.69,0.239 7.057,1.352 9.959,3.691c26.032,46.978 61.742,63.023 104.889,46.95c15.185,-5.663 27.638,-14.847 36.653,-28.638c4.663,-7.142 7.79,-15.749 16.425,-19.637c10.227,-1.69 18.13,3.719 26.258,8.537c2.873,2.324 4.803,5.184 4.958,9.015c-17.904,35.104 -47.26,57.939 -81.28,75.772c-3.028,1.846 -6.113,2.085 -9.269,0.324c-6.958,4.494 -3.606,11.481 -3.62,17.242c-0.253,86.013 -0.253,172.04 -0.127,258.053c0,5.212 -1.535,9.184 -5.113,12.636c-7.959,4.972 -16.143,5.183 -24.539,1.211c-11.297,-13.636 -10.847,-30.934 -10.804,-46.401c0.267,-82.027 -4.156,-164.138 2.606,-246.108c0.056,-0.676 -2.381,-1.45 -3.916,-2.042c-24.849,-2.634 -45.895,-12.974 -63.024,-31.216c-6.198,-1.648 -12.467,-3.24 -11.269,-11.889" style="fill:#fbfafa;fill-rule:nonzero;"/><path d="M1205.91,1420.17c11.311,4.705 7.156,14.777 7.212,22.722c0.564,85.365 0.873,170.744 0.831,256.109c0,5.972 1.916,10.691 4.057,15.72c-11.001,5.057 -22.017,8.663 -33.202,0.451c18.51,2.24 29.638,-2.634 23.412,-24.271c-2.127,-4.283 -4.113,-8.72 -4.099,-13.523c0.253,-74.364 -2.254,-148.727 1.268,-223.062c0.662,-2.93 0.493,-5.818 -0.536,-8.649c-1.859,-7.297 -1.972,-14.397 2.24,-21.06c-0.254,-1.507 -0.648,-2.986 -1.183,-4.437" style="fill:#fcf7f8;fill-rule:nonzero;"/><path d="M994.404,1567.26c0.338,26.44 13.156,50.106 17.072,75.828c1.043,6.818 1.043,12.284 -2.493,17.89c-4.367,2.127 -7.283,-0.028 -9.79,-3.339c-7.198,-5.071 -17.031,-8.015 -16.045,-19.735c7.368,-19.101 2.691,-39.09 4.212,-58.642c1.254,-4.649 -3.141,-12.608 7.044,-12.002" style="fill:#d21835;fill-rule:nonzero;"/><path d="M989.639,1581.55c0.832,12.269 0.493,24.764 2.846,36.737c1.944,9.819 1.282,16.707 -8.551,20.806c-4.691,3.592 -9.057,3.353 -13.072,-1.098c-3.465,-2.86 -6.931,-5.734 -10.382,-8.593c21.299,-9.255 25.905,-27.032 24.44,-47.909c1.592,-2.085 3.17,-2.169 4.719,0.057" style="fill:#e41b3c;fill-rule:nonzero;"/><path d="M956.372,1414.99c-1.76,6.353 8.565,12.706 -0.014,19.045c-5.916,1.451 -10.79,-0.86 -15.326,-4.325c-1.437,-11.748 6.086,-14.143 15.34,-14.72" style="fill:#ed173e;fill-rule:nonzero;"/><path d="M941.036,1429.7c5.579,-0.211 11.453,-1.493 15.327,4.325c-0.395,4.55 -0.691,9.734 -5.889,11.058c-5.761,1.465 -7.113,-3.987 -9.212,-7.776c-0.085,-2.535 -0.155,-5.071 -0.226,-7.607" style="fill:#e51d3f;fill-rule:nonzero;"/><path d="M918.057,1542.74c-0.366,9.762 11.311,19.397 0.282,29.258c-1.944,-1.141 -3.423,-2.705 -4.438,-4.719c-0.366,-8.48 -0.915,-16.988 4.156,-24.539" style="fill:#e8192f;fill-rule:nonzero;"/><path d="M923.496,1505.56c6.48,5.226 3.648,11.959 1.479,18.862c-0.831,-3.536 -1.648,-7.072 -2.479,-10.607c0.338,-2.747 0.662,-5.508 1,-8.255" style="fill:#ea102f;fill-rule:nonzero;"/><path d="M913.894,1567.28c1.479,1.578 2.958,3.156 4.438,4.719c-1.282,3.184 -2.564,6.354 -3.846,9.523c-0.197,-4.747 -0.394,-9.494 -0.592,-14.242" style="fill:#ef0a38;fill-rule:nonzero;"/><path d="M1256.05,1448.3l0,255.869c-1.282,0 -2.564,0.015 -3.831,0.015l0,-256.039c1.352,-1.944 2.634,-1.901 3.831,0.155" style="fill:#e70c31;fill-rule:nonzero;"/><path d="M1464.66,1652.11c-4.564,1.676 -9.143,3.366 -13.721,5.043c-14.748,-16.693 1.775,-32.47 2.127,-48.74c0.268,-12.72 6.847,-25.3 11.411,-40.541c12.438,18.51 1.155,35.315 0.986,51.712c1.591,1.338 2.69,3.014 3.38,4.972c1.578,8.241 -3.296,15.65 -3.085,23.722c-0.493,1.24 -0.859,2.522 -1.098,3.832" style="fill:#d41836;fill-rule:nonzero;"/><path d="M1256.05,1448.3c-1.282,0 -2.564,-0.042 -3.845,-0.155c-0.254,-7.522 -0.522,-15.044 -0.789,-22.566c3.099,-0.113 6.184,-0.226 9.269,-0.339c-1.536,7.692 -3.085,15.369 -4.635,23.06" style="fill:#ea052e;fill-rule:nonzero;"/><path d="M1536.32,1519.83c0.282,2.831 0.564,5.677 0.86,8.508c-0.536,3.691 -1.057,7.381 -2.043,14.27c-4.071,-10.283 -4.761,-16.904 1.183,-22.778" style="fill:#e71134;fill-rule:nonzero;"/><path d="M1208.23,1448.33c0,80.858 0,161.715 0,242.572c-1.521,-1.578 -3.028,-3.17 -4.536,-4.747c-5.057,-43.105 -1.803,-86.365 -1.972,-129.541c-0.127,-34.498 -2.972,-69.123 2.001,-103.536c0,-1.592 0.014,-3.184 0.014,-4.762c1.507,-1.563 3,-1.634 4.493,0.014" style="fill:#e80a33;fill-rule:nonzero;"/><path d="M1203.72,1453.08c-0.014,77.688 -0.014,155.39 -0.028,233.077c-5.903,-4.634 -4.663,-11.255 -4.663,-17.411c-0.056,-66.094 -0.056,-132.175 0,-198.269c0,-6.156 -1.226,-12.777 4.691,-17.397" style="fill:#e71a34;fill-rule:nonzero;"/><path d="M1131.61,1377.06c3.761,3.972 7.508,7.931 11.269,11.903c-1.366,7.832 -4.86,15.016 -13.579,9.297c-10.889,-7.128 -2.606,-14.509 2.31,-21.2" style="fill:#e11c3a;fill-rule:nonzero;"/><path d="M989.639,1581.55c-1.577,-0.015 -3.141,-0.043 -4.719,-0.057c0,-11.311 0,-22.609 0,-35.442c12.735,5.395 8.326,14.284 9.481,21.215c-5.593,3.423 -4.55,9.057 -4.762,14.284" style="fill:#da1936;fill-rule:nonzero;"/><path d="M1208.23,1448.33c-1.493,-0.014 -2.986,-0.028 -4.493,-0.014c-2.775,-2.704 -5.466,-5.507 -8.354,-8.085c-2.888,-2.564 -11.072,-1.324 -7.156,-8.368c1.212,-2.183 7.044,-1.803 10.748,-2.606c12.65,-1.423 3.423,11.227 9.171,14.242c0.028,1.606 0.056,3.226 0.084,4.831" style="fill:#e01836;fill-rule:nonzero;"/><path d="M1000.22,1410.33c6.987,-6.607 15.453,-6.029 16.396,-3.832c2.818,6.635 -5.24,3.085 -7.832,5.409c-0.901,0.817 -3.803,-0.605 -8.564,-1.577" style="fill:#ea163e;fill-rule:nonzero;"/><path d="M1208.15,1443.5c-3.056,-4.747 -6.113,-9.494 -9.17,-14.241c2.705,-1.55 5.409,-3.099 8.1,-4.649c3.676,6.114 2.085,12.523 1.07,18.89" style="fill:#eb0733;fill-rule:nonzero;"/><path d="M1356.46,1243.98c-6.452,5.395 -12.89,10.776 -19.341,16.171c-3.804,10.227 -13.509,14.848 -21.201,20.891c-17.101,13.452 -19.495,27.314 -4.888,43.795c2.113,2.395 2.987,5.466 1.55,8.706c-19.566,37.357 -46.852,62.248 -92.577,58.065c-34.428,-3.142 -59.446,-23.229 -69.997,-56.755c2.099,-6.41 6.79,-10.213 12.749,-12.749c10.931,-21.144 9.607,-30.835 -5.691,-41.316c-1.648,0.986 -3.339,1.845 -5.057,2.691c-1.902,0.62 -3.705,0.366 -5.382,-0.733c-16.312,-10.762 -32.131,-22.074 -42.907,-38.949c0.718,-6.804 10.734,-7.579 9.776,-15.383c-8.762,-13.622 -6.691,-28.877 -6.536,-43.654c0.295,-27.455 -1.634,-54.966 1.183,-82.365c6.874,-18.791 21.285,-29.173 40.203,-25.722c11.382,2.085 16.439,-9.677 26.215,-6.423c4.325,1.62 6.959,5.071 9.523,8.607c10.607,12.537 16.439,-2.888 24.68,-4.283c46.105,-2.056 92.182,-5.24 138.161,1.014c9.184,33.358 2.958,67.306 3.31,100.987c0.071,7.579 -0.817,15.651 -2.084,24.835c-0.043,1.747 4.564,-2.564 1.563,-1.564c-1.747,-6.198 -0.634,-12.41 -0.07,-18.664c3.493,-26.807 0.577,-53.713 1.662,-80.519c0.38,-9.326 -2.071,-19.045 3.296,-27.807c2.761,-2.282 5.325,-2.071 7.692,0.605c2.718,51.656 -1.804,103.41 2.422,155.024c0.578,6.958 -2.042,12.17 -8.254,15.495" style="fill:#916a4b;fill-rule:nonzero;"/><path d="M1312.59,1333.55c-21.905,-24.792 -20.595,-39.442 5.156,-58.558c6.536,-4.846 12.931,-9.889 19.383,-14.847c-0.86,9.114 7.029,22.341 -13.552,21.045c-5.789,-0.366 -13.072,12.101 -18.425,19.567c-3.085,4.31 0.55,9.029 4.071,12.466c2.169,2.099 5.846,5.522 7.748,2.029c6.184,-11.467 21.707,-10.1 23.285,-5.945c3.282,8.635 5.55,20.806 -2.719,30.188c-0.873,1 -0.535,3.056 -0.76,4.62c-8.058,-3.522 -16.13,-7.043 -24.187,-10.565" style="fill:#040303;fill-rule:nonzero;"/><path d="M1151.13,1282.7c0.099,-1.887 0.211,-3.775 0.31,-5.663c13.227,-4.888 17.031,4.424 18.228,13.805c1.423,11.284 2.888,23.201 -3.987,33.766c-5.226,3.423 -10.452,6.832 -15.678,10.241c-2.634,-0.324 -5.268,-0.648 -7.903,-0.986c3.001,-3.437 6.001,-6.888 9.002,-10.326c2.211,-13.607 5.268,-27.215 0.028,-40.837" style="fill:#906d52;fill-rule:nonzero;"/><path d="M1122.86,1234.24c-6.382,3.184 -12.763,6.367 -19.13,9.565c-6.663,-6.663 -7.945,-15.453 -7.987,-23.975c-0.296,-48.036 -0.155,-96.085 0.099,-144.121c0.014,-2.845 2.211,-5.691 3.394,-8.536c1.043,0.746 2.085,1.493 3.142,2.226c11.1,11.748 4,27.299 8.48,40.442c0.113,33.864 0.408,67.729 -0.183,101.565c-0.183,10.579 2.014,18.467 12.185,22.834" style="fill:#976e4e;fill-rule:nonzero;"/><path d="M1175.42,1072.6c-5.593,0.521 -11.58,0.676 -12.045,8.339c-0.253,4.113 -1.901,9.945 -5.803,6.353c-19.538,-18.003 -30.441,1.69 -44.218,8.959c-7.114,-8.973 -5.297,-17.031 2.507,-24.468c8.241,-4.001 17.735,1.014 25.906,-3.592c9.578,-0.367 19.171,-0.733 28.764,-1.099c11.044,-4.733 22.088,-4.677 33.132,-0.028c6.367,0.056 12.734,0.098 19.116,0.155c3.211,-2.043 6.494,-2.48 9.874,-0.353c42.556,0.31 85.126,0.62 127.681,0.916c1.564,1.155 2.043,2.24 1.423,3.24c-0.577,0.972 -1.155,1.451 -1.732,1.451c-1.353,0.028 -2.705,0.042 -4.057,0.07c-45.176,5.057 -90.535,0.803 -135.767,2.494c-4.705,0.169 -9.41,-0.465 -13.65,2.211c-11.988,9.255 -21.595,2.522 -31.131,-4.648" style="fill:#906a4c;fill-rule:nonzero;"/><path d="M1360.03,1072.48c0.113,-1.564 0.211,-3.128 0.324,-4.691c7.875,5.888 4.987,14.467 5.043,22.003c0.268,34.878 -0.113,69.743 0.254,104.607c0.126,11.579 -1.24,22.919 4.817,34.639c3.663,7.1 2.001,20.496 -14.002,14.946c8.748,-27.708 3.55,-56.191 4.268,-84.308c0.747,-29.033 -0.394,-58.122 -0.704,-87.196" style="fill:#040303;fill-rule:nonzero;"/><path d="M1151.13,1282.7c13.044,13.622 11.931,27.23 -0.028,40.837c-6.41,-10.198 -6.325,-26.821 -24.638,-23.158c-1.282,-17.397 29.385,8.325 20.172,-17.636c1.494,-0.522 2.987,-0.536 4.494,-0.043" style="fill:#040303;fill-rule:nonzero;"/><path d="M1203.67,1067.06c-11.044,0.014 -22.088,0.028 -33.132,0.042c1.663,-1.549 3.48,-2.972 4.973,-4.663c11.861,-13.354 21.327,-12.508 28.159,4.621" style="fill:#0e0d0c;fill-rule:nonzero;"/><path d="M1232.66,1066.87c-3.296,0.112 -6.592,0.239 -9.874,0.352c3.719,-5.142 1.028,-18.679 13.016,-12.889c8.128,3.916 -3.156,7.902 -3.142,12.537" style="fill:#141312;fill-rule:nonzero;"/><path d="M1394.03,1181.9c-3.887,0.099 -7.437,0.86 -9.452,4.705c-4.183,-2.887 -12.424,-5.916 -5.902,-11.466c4.86,-4.142 11.185,1.944 15.354,6.761" style="fill:#0e0f0e;fill-rule:nonzero;"/><path d="M1099.24,1067.17c0.395,-15.355 6.903,-17.862 18.848,-8.988c-4.268,4.156 -8.706,8.114 -13.664,11.481c-1.902,0.845 -3.846,0.972 -5.846,0.408c-0.07,-1.042 0.155,-2 0.662,-2.901" style="fill:#121410;fill-rule:nonzero;"/><path d="M1103.95,1066.76c0.775,-9.34 7.762,-8.466 14.143,-8.565c-0.07,2.846 -0.141,5.705 -0.211,8.551c-0.437,0.887 -0.873,1.761 -1.324,2.648c-2.634,1.747 -5.494,2 -8.509,1.338c-1.929,-0.746 -3.296,-2.071 -4.099,-3.972" style="fill:#040a13;fill-rule:nonzero;"/><path d="M1208.55,1015.42c-1.606,-1.606 -3.212,-3.212 -4.832,-4.817c3.184,-4.762 6.368,-9.509 9.551,-14.256c-0.563,6.606 2.127,14.016 -4.719,19.073" style="fill:#111;fill-rule:nonzero;"/><path d="M1141.77,1068.2c-6.832,7.241 -15.706,3.198 -23.651,4.283c-1.071,-0.944 -1.381,-1.818 -0.944,-2.663c0.423,-0.803 0.817,-1.211 1.212,-1.211l-0.508,-1.86c7.974,0.479 15.932,0.972 23.891,1.451" style="fill:#89664b;fill-rule:nonzero;"/><path d="M1061.55,1338.42c2.085,2.564 3.874,4.775 5.663,6.973c-1.324,0.521 -3.042,1.831 -3.916,1.394c-2.747,-1.324 -5.184,-3.296 -7.733,-5.015c1.676,-0.943 3.352,-1.887 5.986,-3.352" style="fill:#040202;fill-rule:nonzero;"/><path d="M1203.74,1077.26c6.959,-7.79 16.228,-4.592 24.511,-4.649c42.569,-0.282 85.139,-0.098 127.723,-0.07c0,29.089 0.169,58.163 -0.099,87.252c-0.07,7.537 2.592,15.946 -4.648,22.088c-5.17,-25.539 -0.761,-51.374 -2.381,-77.026c-0.577,-9.212 2.494,-18.777 -2.38,-27.623c-43.908,0.197 -87.83,0.295 -131.753,0.774c-3.662,0.043 -7.31,2.592 -10.973,3.987c-0.606,-0.789 -1.211,-1.578 -1.803,-2.367c0.592,-0.789 1.197,-1.577 1.803,-2.366" style="fill:#936c4e;fill-rule:nonzero;"/><path d="M1118.39,1068.61c-0.155,1.282 -0.24,2.578 -0.268,3.874c-4.55,7.325 -5.268,15.425 -4.761,23.778c0,33.527 0.465,67.081 -0.225,100.607c-0.296,13.706 0.718,26.398 9.733,37.372c-8.522,-0.634 -16.312,0.915 -15.65,-13.552c1.761,-38.245 1.085,-76.617 1.381,-114.932c-3.184,-12.467 -4.621,-24.934 0.014,-37.386c3.254,0.084 6.522,0.155 9.776,0.239" style="fill:#936845;fill-rule:nonzero;"/><path d="M1346.47,1077.23c10.17,22.497 2.592,46.218 4.578,69.292c1.014,11.706 0.183,23.567 0.183,35.358l0,37.202c-1.592,0 -3.169,0 -4.761,0.014l0,-141.866Z" style="fill:#956849;fill-rule:nonzero;"/><path d="M1165.68,1324.61c0,-10.072 -0.112,-20.144 0.014,-30.216c0.127,-9.875 -3.437,-16.552 -14.241,-17.355c2.719,-5.085 5.085,-9.452 12.171,-4.494c15.072,10.523 16.382,37.33 2.056,52.065" style="fill:#926846;fill-rule:nonzero;"/><path d="M1203.74,1082c-7.959,9.96 -15.904,18.003 -23.765,-0.07c7.917,-3.761 15.848,-3.339 23.765,0.014l0,0.056Z" style="fill:#8e6748;fill-rule:nonzero;"/><path d="M1108.61,1068.37c0,12.467 -0.015,24.92 -0.015,37.386c-9.029,-10.297 -1.718,-25.187 -10.015,-35.695c1.789,-1.099 3.578,-2.198 5.367,-3.296c1.549,0.535 3.113,1.07 4.663,1.605" style="fill:#89664b;fill-rule:nonzero;"/><path d="M1275.17,996.474c2.62,-3.437 5.226,-6.888 8.114,-10.691c2.324,8.226 1.817,14.312 -8.114,15.199c0,-1.507 0.014,-3 0,-4.508" style="fill:#010101;fill-rule:nonzero;"/><g><g opacity="0.5"><clipPath id="_clip13"><rect x="1276.91" y="1113.56" width="37.401" height="37.79"/></clipPath><g clip-path="url(#_clip13)"><path d="M1295.58,1113.56c11.509,1.507 18.862,7.579 18.721,19.468c-0.112,11.044 -6.902,17.932 -17.861,18.298c-11.777,0.409 -19.186,-6.48 -19.524,-18.214c-0.339,-11.875 7.17,-17.96 18.664,-19.552" style="fill-rule:nonzero;"/></g></g></g><g><g opacity="0.5"><clipPath id="_clip14"><rect x="1147.08" y="1113.98" width="37.404" height="37.766"/></clipPath><g clip-path="url(#_clip14)"><path d="M1165.83,1151.75c-11.537,-1.451 -18.919,-7.494 -18.75,-19.412c0.155,-10.987 6.917,-17.974 17.862,-18.34c11.748,-0.395 19.186,6.479 19.524,18.242c0.338,11.875 -7.1,17.988 -18.636,19.51" style="fill-rule:nonzero;"/></g></g></g><g><g opacity="0.5"><clipPath id="_clip15"><rect x="1162.81" y="1195.2" width="135.675" height="50.516"/></clipPath><g clip-path="url(#_clip15)"><path d="M1231.77,1245.72c-25.863,-1.859 -48.064,-10.692 -63.911,-31.934c-3.761,-5.057 -8.579,-11.763 -1.183,-17.045c6.212,-4.423 10.804,1.676 14.495,5.818c21.721,24.468 46.95,32.709 77.645,17.749c9.382,-4.564 15.749,-12.579 23.074,-19.51c3.705,-3.508 7.931,-7.917 13.115,-4.015c6.184,4.663 2.887,10.692 -0.409,15.425c-15.185,21.877 -37.358,30.836 -62.826,33.512" style="fill-rule:nonzero;"/></g></g></g><g><g opacity="0.5"><clipPath id="_clip16"><rect x="671.428" y="436.137" width="261.553" height="254.989"/></clipPath><g clip-path="url(#_clip16)"><path d="M802.161,518.71c-9.762,-0.127 -17.721,8.142 -17.623,17.679c0.085,9.79 7.931,17.65 17.707,17.636c9.776,-0.028 17.566,-7.931 17.623,-17.721c0.07,-9.325 -7.72,-17.749 -17.707,-17.594m60.798,0c-9.523,-0.127 -17.651,7.832 -17.623,17.707c0.042,9.734 8.001,17.608 17.763,17.608c9.537,0 17.623,-7.903 17.595,-17.749c-0.015,-9.692 -8.114,-17.763 -17.735,-17.566m-121.695,0c-9.381,-0.127 -17.65,7.79 -17.538,17.749c0.113,9.79 7.973,17.608 17.778,17.566c9.734,-0.042 17.58,-8.015 17.566,-17.791c-0.028,-9.607 -8.03,-17.721 -17.806,-17.524m-16.721,93.944c-1.112,-0.677 -2.098,-1.282 -3.099,-1.874c-11.466,-6.776 -21.721,-14.988 -30.272,-25.243c-7.874,-9.438 -13.833,-19.947 -17.016,-31.85c-5.396,-20.116 -2.691,-39.259 7.353,-57.403c6.268,-11.34 14.777,-20.778 24.835,-28.878c13.706,-11.015 29.159,-18.692 45.894,-23.876c10.903,-3.381 22.059,-5.536 33.441,-6.607c9.354,-0.873 18.721,-1.028 28.075,-0.408c22.355,1.479 43.668,6.916 63.573,17.354c13.72,7.198 25.891,16.397 35.864,28.328c7.889,9.438 13.833,19.947 17.059,31.85c4.888,18.102 3.184,35.639 -4.817,52.571c-5.593,11.833 -13.636,21.807 -23.398,30.428c-12.453,10.987 -26.694,18.932 -42.232,24.651c-11.311,4.156 -22.989,6.945 -34.963,8.494c-9.424,1.212 -18.862,1.705 -28.356,1.282c-1.803,-0.07 -3.254,0.395 -4.747,1.367c-15.059,9.846 -30.146,19.636 -45.233,29.441c-13.748,8.945 -27.497,17.876 -41.245,26.792c-1.071,0.691 -2.169,1.367 -3.339,1.832c-1.746,0.704 -2.986,-0.338 -2.676,-2.212c0.197,-1.155 0.592,-2.268 0.958,-3.381c5.226,-15.523 10.452,-31.047 15.692,-46.584c2.62,-7.762 5.255,-15.51 7.861,-23.271c0.31,-0.888 0.521,-1.803 0.788,-2.803" style="fill-rule:nonzero;"/></g></g></g><g><g opacity="0.5"><clipPath id="_clip17"><rect x="1176.03" y="558.224" width="174.857" height="170.466"/></clipPath><g clip-path="url(#_clip17)"><path d="M1251.64,625.186c0.042,6.551 5.254,11.833 11.776,11.847c6.536,0.014 11.791,-5.254 11.847,-11.79c0.07,-6.382 -5.254,-11.903 -11.776,-11.819c-6.677,-0.099 -11.889,5.536 -11.847,11.762m-40.668,-0.014c-0.014,6.579 5.395,11.861 11.776,11.861c6.522,0 11.847,-5.268 11.861,-11.776c0.028,-6.593 -5.409,-11.917 -11.776,-11.833c-6.424,-0.127 -11.833,5.268 -11.861,11.748m81.322,-0.028c-0.014,6.536 5.226,11.861 11.734,11.889c6.564,0.028 11.819,-5.198 11.889,-11.734c0.07,-6.663 -5.452,-11.959 -11.72,-11.875c-6.536,-0.141 -11.889,5.297 -11.903,11.72m23.595,52.952c1.761,5.198 3.521,10.382 5.268,15.565c3.494,10.382 6.987,20.764 10.481,31.146c0.253,0.746 0.521,1.493 0.648,2.254c0.211,1.253 -0.634,1.944 -1.789,1.479c-0.789,-0.31 -1.522,-0.761 -2.226,-1.226c-9.199,-5.958 -18.397,-11.931 -27.582,-17.904c-10.086,-6.55 -20.172,-13.1 -30.244,-19.679c-0.986,-0.648 -1.958,-0.972 -3.169,-0.915c-6.339,0.281 -12.664,-0.057 -18.961,-0.86c-8.001,-1.042 -15.805,-2.902 -23.369,-5.691c-10.382,-3.817 -19.905,-9.128 -28.23,-16.467c-6.536,-5.761 -11.903,-12.424 -15.65,-20.341c-5.339,-11.326 -6.48,-23.046 -3.212,-35.146c2.155,-7.959 6.128,-14.988 11.396,-21.299c6.677,-7.973 14.805,-14.129 23.976,-18.932c13.311,-6.987 27.567,-10.622 42.499,-11.608c6.254,-0.408 12.523,-0.31 18.777,0.282c7.607,0.718 15.073,2.141 22.356,4.409c11.185,3.465 21.524,8.607 30.68,15.974c6.72,5.395 12.411,11.72 16.609,19.299c6.705,12.128 8.522,24.919 4.916,38.372c-2.141,7.959 -6.114,14.988 -11.382,21.299c-5.719,6.846 -12.58,12.34 -20.243,16.876c-0.662,0.394 -1.324,0.788 -2.07,1.253c0.183,0.662 0.324,1.268 0.521,1.86" style="fill-rule:nonzero;"/></g></g></g></g></g><g transform="matrix(0.846661,-0.532133,0.532134,0.84666,17.3538,-22.7531)"><text x="214.212px" y="563.346px" style="font-family:'GDSTransport-Bold', 'GDS Transport';font-weight:700;font-size:164.295px;fill:#fff;">D</text></g><g transform="matrix(0.924573,-0.381004,0.381002,0.924574,13.8695,-13.9371)"><text x="426.549px" y="491.096px" style="font-family:'GDSTransport-Bold', 'GDS Transport';font-weight:700;font-size:164.295px;fill:#fff;">W</text></g><g transform="matrix(0.973604,-0.228244,0.228238,0.973605,8.8655,-6.89997)"><text x="653.362px" y="389.048px" style="font-family:'GDSTransport-Bold', 'GDS Transport';font-weight:700;font-size:164.296px;fill:#fff;">P</text></g><g transform="matrix(0.998474,-0.0552326,0.0552335,0.998473,2.20214,-1.33032)"><text x="843.065px" y="243.837px" style="font-family:'GDSTransport-Bold', 'GDS Transport';font-weight:700;font-size:164.295px;fill:#fff;">D</text></g><g transform="matrix(0.998768,0.0496191,-0.0496173,0.998768,-1.97814,1.00837)"><text x="984.072px" y="141.326px" style="font-family:'GDSTransport-Bold', 'GDS Transport';font-weight:700;font-size:164.296px;fill:#fff;">I</text></g><g transform="matrix(0.987641,0.156735,-0.156732,0.987641,-6.20301,2.77976)"><text x="1045.09px" y="25.257px" style="font-family:'GDSTransport-Bold', 'GDS Transport';font-weight:700;font-size:164.296px;fill:#fff;">G</text></g><g transform="matrix(0.964904,0.262602,-0.262603,0.964904,-10.2042,3.89232)"><text x="1163.41px" y="-100.884px" style="font-family:'GDSTransport-Bold', 'GDS Transport';font-weight:700;font-size:164.295px;fill:#fff;">I</text></g><g transform="matrix(0.936625,0.350334,-0.350331,0.936626,-13.4514,4.67856)"><text x="1200.12px" y="-214.855px" style="font-family:'GDSTransport-Bold', 'GDS Transport';font-weight:700;font-size:164.296px;fill:#fff;">T</text></g><g transform="matrix(0.887833,0.460167,-0.460164,0.887834,-17.3861,5.41876)"><text x="1252.7px" y="-370.8px" style="font-family:'GDSTransport-Bold', 'GDS Transport';font-weight:700;font-size:164.295px;fill:#fff;">A</text></g><g transform="matrix(0.824669,0.565616,-0.565615,0.824669,-21.0656,6.00325)"><text x="1308.35px" y="-536.756px" style="font-family:'GDSTransport-Bold', 'GDS Transport';font-weight:700;font-size:164.295px;fill:#fff;">L</text></g><g transform="matrix(0.632607,0.774473,-0.774478,0.632601,-30.0632,7.86846)"><text x="1297.01px" y="707.738px" style="font-family:'GDSTransport-Bold', 'GDS Transport';font-weight:700;font-size:139.846px;fill:#fff;">U</text></g><g transform="matrix(0.727906,0.685677,-0.685679,0.727904,-25.8123,6.98131)"><text x="1312.36px" y="887.757px" style="font-family:'GDSTransport-Bold', 'GDS Transport';font-weight:700;font-size:139.845px;fill:#fff;">S</text></g><g transform="matrix(0.80549,0.59261,-0.592609,0.80549,-22.1329,6.24483)"><text x="1301.7px" y="1054.5px" style="font-family:'GDSTransport-Bold', 'GDS Transport';font-weight:700;font-size:139.847px;fill:#fff;">E</text></g><g transform="matrix(0.872996,0.487728,-0.487733,0.872993,-18.366,5.58933)"><text x="1264.06px" y="1222.8px" style="font-family:'GDSTransport-Bold', 'GDS Transport';font-weight:700;font-size:139.846px;fill:#fff;">R</text></g><g transform="matrix(0.942734,0.333547,-0.333544,0.942734,-12.8572,4.57932)"><text x="1181.74px" y="1441.25px" style="font-family:'GDSTransport-Bold', 'GDS Transport';font-weight:700;font-size:139.846px;fill:#fff;">R</text></g><g transform="matrix(0.977339,0.211679,-0.211673,0.97734,-8.31374,3.44258)"><text x="1098.35px" y="1593.76px" style="font-family:'GDSTransport-Bold', 'GDS Transport';font-weight:700;font-size:139.846px;fill:#fff;">E</text></g><g transform="matrix(0.996057,0.0887205,-0.0887228,0.996056,-3.53153,1.72982)"><text x="993.893px" y="1731.83px" style="font-family:'GDSTransport-Bold', 'GDS Transport';font-weight:700;font-size:139.846px;fill:#fff;">S</text></g><g transform="matrix(0.999447,-0.0332395,0.0332407,0.999447,1.32688,-0.770877)"><text x="879.763px" y="1854.14px" style="font-family:'GDSTransport-Bold', 'GDS Transport';font-weight:700;font-size:139.846px;fill:#fff;">E</text></g><g transform="matrix(0.98714,-0.159857,0.159858,0.98714,6.30363,-4.41681)"><text x="738.491px" y="1966.04px" style="font-family:'GDSTransport-Bold', 'GDS Transport';font-weight:700;font-size:139.846px;fill:#fff;">A</text></g><g transform="matrix(0.957328,-0.289003,0.289002,0.957329,11.0236,-9.40264)"><text x="582.358px" y="2063.59px" style="font-family:'GDSTransport-Bold', 'GDS Transport';font-weight:700;font-size:139.847px;fill:#fff;">R</text></g><g transform="matrix(0.909827,-0.414988,0.414985,0.909828,14.8915,-15.644)"><text x="407.519px" y="2141.05px" style="font-family:'GDSTransport-Bold', 'GDS Transport';font-weight:700;font-size:139.846px;fill:#fff;">C</text></g><g transform="matrix(0.841792,-0.539803,0.539803,0.841792,17.5306,-23.2037)"><text x="213.996px" y="2197.73px" style="font-family:'GDSTransport-Bold', 'GDS Transport';font-weight:700;font-size:139.845px;fill:#fff;">H</text></g><g transform="matrix(0.762737,-0.646709,0.646702,0.762742,18.4481,-30.7006)"><text x="41.507px" y="2226.4px" style="font-family:'GDSTransport-Bold', 'GDS Transport';font-weight:700;font-size:139.846px;fill:#fff;">E</text></g><g transform="matrix(0.677847,-0.735203,0.735198,0.677852,17.7596,-37.6321)"><text x="-129.951px" y="2231.74px" style="font-family:'GDSTransport-Bold', 'GDS Transport';font-weight:700;font-size:139.845px;fill:#fff;">R</text></g></svg>