<?xml version="1.0" encoding="utf-8"?>
<!-- Generator: Adobe Illustrator 21.0.0, SVG Export Plug-In . SVG Version: 6.00 Build 0)  -->
<svg version="1.1" xmlns="http://www.w3.org/2000/svg" xmlns:xlink="http://www.w3.org/1999/xlink" x="0px" y="0px"
	 viewBox="0 0 133 133" style="enable-background:new 0 0 133 133;" xml:space="preserve">
<style type="text/css">
	.st0{fill:#235D91;}
	.st1{fill:#FFFFFF;}
</style>
<g id="Layer_1">
	<rect x="-0.1" class="st0" width="133" height="133"/>
</g>
<g id="brushed">
</g>
<g id="white">
	<g>
		<path class="st1" d="M7,50.7l-1.1-6.5h1l0.6,4L7.8,49l0.2-0.9l1-4h1l1.2,4l0.2,0.9l0.1-0.9l0.6-4h0.8l-1.1,6.5h-1l-1.3-4.2
			l-0.2-0.9h0l-0.2,0.9l-1.1,4.2H7z"/>
		<path class="st1" d="M13.9,50.7v-9.5H15v4.3c0.3-0.5,0.7-0.9,1.1-1.2c0.4-0.3,0.9-0.4,1.3-0.4c0.4,0,0.7,0.1,1,0.3
			s0.5,0.4,0.6,0.7c0.1,0.2,0.2,0.4,0.2,0.7s0.1,0.7,0.1,1.4v3.7h-1.1v-3.8c0-0.6,0-1-0.1-1.2s-0.2-0.4-0.3-0.5s-0.3-0.2-0.5-0.2
			c-0.4,0-0.8,0.2-1.2,0.5c-0.4,0.4-0.8,0.8-1.1,1.4v3.8H13.9z"/>
		<path class="st1" d="M23,50.7V45h-1.8v-0.9h2.9v5.6h1.8v0.9H23z M22.8,41.8c0-0.2,0.1-0.4,0.3-0.5c0.2-0.1,0.3-0.2,0.5-0.2
			c0.2,0,0.3,0.1,0.5,0.2c0.2,0.1,0.3,0.3,0.3,0.5c0,0.2-0.1,0.4-0.3,0.5s-0.3,0.2-0.5,0.2c-0.1,0-0.3-0.1-0.5-0.2
			S22.8,42,22.8,41.8z"/>
		<path class="st1" d="M30.1,50.7v-8.5h-2v-0.9h3v8.5h2v0.9H30.1z"/>
		<path class="st1" d="M41,50.2c-0.9,0.4-1.7,0.6-2.5,0.6c-0.6,0-1.1-0.1-1.6-0.4c-0.5-0.3-0.8-0.7-1.1-1.3s-0.4-1.1-0.4-1.7
			c0-0.6,0.1-1.2,0.4-1.7c0.3-0.6,0.6-1,1.1-1.3c0.5-0.3,1-0.5,1.6-0.5c0.8,0,1.4,0.3,1.9,0.8c0.5,0.6,0.7,1.4,0.7,2.6v0.2h-4.5
			c0,0.5,0.1,0.9,0.3,1.2s0.4,0.7,0.7,0.8s0.7,0.3,1.1,0.3c0.7,0,1.5-0.2,2.3-0.7V50.2z M36.6,46.8h3.3v-0.2c0-0.5-0.1-1-0.4-1.3
			s-0.6-0.5-1-0.5c-0.4,0-0.8,0.2-1.1,0.5S36.8,46.1,36.6,46.8z"/>
		<path class="st1" d="M55.3,52.8c-1.1-0.1-2-0.4-2.7-0.9s-1.3-1.3-1.8-2.2s-0.7-1.9-0.7-2.8s0.2-1.9,0.7-2.8s1-1.7,1.8-2.2
			s1.7-0.9,2.7-0.9v0.9c-0.8,0.1-1.5,0.3-2.1,0.8c-0.6,0.5-1.1,1.1-1.4,1.8c-0.3,0.7-0.5,1.5-0.5,2.4s0.2,1.6,0.5,2.4
			c0.3,0.7,0.8,1.3,1.4,1.8s1.3,0.7,2.1,0.8V52.8z"/>
		<path class="st1" d="M57.2,50.3v-1.2c0.4,0.3,0.9,0.5,1.4,0.6s0.9,0.2,1.2,0.2c0.6,0,0.9-0.1,1.2-0.3s0.4-0.4,0.4-0.7
			c0-0.2-0.1-0.3-0.2-0.5s-0.4-0.3-0.8-0.5L60,47.9l-0.8-0.3c-0.8-0.3-1.3-0.6-1.5-0.9c-0.2-0.3-0.3-0.6-0.3-1c0-0.5,0.2-1,0.6-1.3
			c0.4-0.3,1.1-0.5,2-0.5c0.7,0,1.4,0.1,2,0.3v1c-0.7-0.3-1.4-0.4-2-0.4c-0.5,0-0.8,0.1-1.1,0.2c-0.3,0.2-0.4,0.4-0.4,0.6
			c0,0.2,0.1,0.4,0.3,0.6c0.2,0.1,0.6,0.3,1.1,0.5l0.7,0.3c0.7,0.2,1.2,0.5,1.4,0.8c0.3,0.3,0.4,0.7,0.4,1.1c0,0.6-0.2,1-0.7,1.4
			s-1.1,0.5-2.1,0.5C59,50.8,58.1,50.7,57.2,50.3z"/>
		<path class="st1" d="M66.1,50.7v-8.5h-2v-0.9h3v8.5h2v0.9H66.1z"/>
		<path class="st1" d="M77,50.2c-0.9,0.4-1.7,0.6-2.5,0.6c-0.6,0-1.1-0.1-1.6-0.4c-0.5-0.3-0.8-0.7-1.1-1.3s-0.4-1.1-0.4-1.7
			c0-0.6,0.1-1.2,0.4-1.7s0.6-1,1.1-1.3c0.5-0.3,1-0.5,1.6-0.5c0.8,0,1.4,0.3,1.9,0.8c0.5,0.6,0.7,1.4,0.7,2.6v0.2h-4.5
			c0,0.5,0.1,0.9,0.3,1.2s0.4,0.7,0.7,0.8s0.7,0.3,1.1,0.3c0.7,0,1.5-0.2,2.3-0.7V50.2z M72.6,46.8h3.3v-0.2c0-0.5-0.1-1-0.4-1.3
			s-0.6-0.5-1-0.5c-0.4,0-0.8,0.2-1.1,0.5S72.8,46.1,72.6,46.8z"/>
		<path class="st1" d="M84.2,50.2c-0.9,0.4-1.7,0.6-2.5,0.6c-0.6,0-1.1-0.1-1.6-0.4c-0.5-0.3-0.8-0.7-1.1-1.3s-0.4-1.1-0.4-1.7
			c0-0.6,0.1-1.2,0.4-1.7s0.6-1,1.1-1.3c0.5-0.3,1-0.5,1.6-0.5c0.8,0,1.4,0.3,1.9,0.8c0.5,0.6,0.7,1.4,0.7,2.6v0.2h-4.5
			c0,0.5,0.1,0.9,0.3,1.2s0.4,0.7,0.7,0.8s0.7,0.3,1.1,0.3c0.7,0,1.5-0.2,2.3-0.7V50.2z M79.8,46.8h3.3v-0.2c0-0.5-0.1-1-0.4-1.3
			s-0.6-0.5-1-0.5c-0.4,0-0.8,0.2-1.1,0.5S80,46.1,79.8,46.8z"/>
		<path class="st1" d="M87,45.6c0.3-0.5,0.7-1,1.2-1.2c0.5-0.3,0.9-0.4,1.3-0.4c0.5,0,1,0.2,1.5,0.7c0.4,0.5,0.7,1.2,0.7,2.2
			c0,0.8-0.1,1.4-0.4,2s-0.7,1.1-1.2,1.4s-1.1,0.5-1.8,0.5c-0.2,0-0.5,0-0.9-0.1c-0.1,0-0.2,0-0.3,0v2.5h-1.1v-9.1H87V45.6z
			 M87,46.9v2.8c0.4,0.1,0.8,0.2,1.1,0.2c0.7,0,1.2-0.3,1.7-0.8s0.7-1.2,0.7-2.1c0-0.7-0.1-1.1-0.4-1.5c-0.2-0.3-0.5-0.5-0.8-0.5
			c-0.3,0-0.7,0.2-1.1,0.5S87.3,46.3,87,46.9z"/>
		<path class="st1" d="M95.6,50.4l-3-6.3h1.2l2.4,4.9l2-4.9h1.1l-2.5,6.1c-0.5,1.3-1,2.1-1.5,2.6c-0.5,0.4-1.1,0.6-1.9,0.6
			c-0.3,0-0.6,0-0.9-0.1v-1c0.3,0.1,0.6,0.1,0.9,0.1c0.4,0,0.7-0.1,0.9-0.2s0.5-0.4,0.8-0.7c0.2-0.3,0.4-0.6,0.5-0.9L95.6,50.4z"/>
		<path class="st1" d="M100.4,41c1.1,0.1,2,0.4,2.7,0.9s1.3,1.3,1.8,2.2s0.7,1.9,0.7,2.8s-0.2,1.9-0.7,2.8s-1,1.7-1.8,2.2
			s-1.7,0.9-2.7,0.9v-0.9c0.8-0.1,1.5-0.4,2.1-0.8s1.1-1.1,1.4-1.8s0.5-1.5,0.5-2.4s-0.2-1.6-0.5-2.4s-0.8-1.3-1.4-1.8
			c-0.6-0.5-1.3-0.7-2.1-0.8V41z"/>
		<path class="st1" d="M117.1,46.9c0.4,0.2,0.6,0.4,0.8,0.6s0.3,0.4,0.4,0.6c0.1,0.2,0.1,0.4,0.1,0.7c0,0.2,0,0.5-0.1,0.9l-0.1,0.7
			c-0.1,0.4-0.1,0.6-0.1,0.8c0,0.2,0.1,0.4,0.3,0.6s0.6,0.2,1.1,0.2h0.9v0.9h-0.9c-1.1,0-1.8-0.2-2.1-0.5c-0.3-0.3-0.5-0.7-0.5-1.2
			c0-0.2,0-0.5,0.1-0.7l0.1-0.5l0.1-0.5l0.1-0.3c0-0.1,0-0.3,0-0.4c0-0.4-0.1-0.7-0.4-0.9s-0.7-0.4-1.3-0.4h-0.5v-0.9h0.5
			c0.6,0,1-0.1,1.3-0.4s0.4-0.6,0.4-0.9c0-0.1,0-0.3,0-0.4l-0.1-0.3l-0.1-0.5l-0.1-0.5c-0.1-0.3-0.1-0.5-0.1-0.8
			c0-0.4,0.2-0.8,0.5-1.2c0.3-0.3,1-0.5,2.1-0.5h0.9v0.9h-0.9c-0.6,0-1,0.1-1.1,0.2s-0.3,0.4-0.3,0.6c0,0.2,0,0.4,0.1,0.8l0.1,0.7
			c0.1,0.4,0.1,0.7,0.1,0.9c0,0.2,0,0.5-0.1,0.7c-0.1,0.2-0.2,0.4-0.4,0.6S117.4,46.7,117.1,46.9z"/>
		<path class="st1" d="M29.9,65.1V60h-1.5v-0.9h1.5v-0.3c0-0.9,0.1-1.5,0.3-1.9c0.2-0.4,0.5-0.8,0.9-1s0.9-0.4,1.6-0.4
			c0.5,0,1,0.1,1.5,0.2v1c-0.6-0.2-1.1-0.3-1.5-0.3c-0.3,0-0.7,0.1-0.9,0.2s-0.5,0.3-0.6,0.6S31,57.9,31,58.6v0.4h2.6V60H31v5.1
			H29.9z"/>
		<path class="st1" d="M37.4,65.1v-5.6h-1.8v-0.9h2.9v5.6h1.8v0.9H37.4z M37.2,56.2c0-0.2,0.1-0.4,0.3-0.5c0.2-0.1,0.3-0.2,0.5-0.2
			c0.2,0,0.3,0.1,0.5,0.2c0.2,0.1,0.3,0.3,0.3,0.5c0,0.2-0.1,0.4-0.3,0.5s-0.3,0.2-0.5,0.2c-0.1,0-0.3-0.1-0.5-0.2
			S37.2,56.4,37.2,56.2z"/>
		<path class="st1" d="M44.5,65.1v-8.5h-2v-0.9h3v8.5h2v0.9H44.5z"/>
		<path class="st1" d="M51.7,65.1v-8.5h-2v-0.9h3v8.5h2v0.9H51.7z"/>
		<path class="st1" d="M62.6,65c-0.7,0.3-1.3,0.4-1.8,0.4c-0.7,0-1.4-0.2-2-0.6c-0.6-0.4-1.1-0.9-1.4-1.7s-0.5-1.6-0.5-2.6
			c0-0.9,0.2-1.8,0.5-2.5s0.8-1.3,1.4-1.7s1.3-0.6,2-0.6c0.5,0,1.1,0.1,1.8,0.4v1.1c-0.6-0.4-1.3-0.5-1.9-0.5
			c-0.5,0-0.9,0.2-1.3,0.5c-0.4,0.3-0.7,0.8-0.9,1.4s-0.4,1.3-0.4,2c0,0.7,0.1,1.4,0.4,2s0.6,1.1,0.9,1.4c0.4,0.3,0.8,0.5,1.3,0.5
			c0.6,0,1.2-0.2,1.9-0.5V65z"/>
		<path class="st1" d="M69.7,58.5v6.5h-1.1v-1.4c-0.4,0.5-0.7,0.9-1.2,1.2s-0.9,0.4-1.3,0.4c-0.4,0-0.7-0.1-1.1-0.3
			s-0.5-0.5-0.7-0.8s-0.2-1-0.2-2v-3.7h1.1v3.8c0,0.6,0,1,0.1,1.2s0.2,0.4,0.3,0.5s0.3,0.2,0.5,0.2c0.4,0,0.8-0.2,1.2-0.5
			s0.8-0.8,1.1-1.4v-3.8H69.7z"/>
		<path class="st1" d="M72.6,60c0.3-0.5,0.7-1,1.2-1.2c0.5-0.3,0.9-0.4,1.3-0.4c0.5,0,1,0.2,1.5,0.7s0.7,1.2,0.7,2.2
			c0,0.8-0.1,1.4-0.4,2s-0.7,1.1-1.2,1.4s-1.1,0.5-1.8,0.5c-0.2,0-0.5,0-0.9-0.1c-0.1,0-0.2,0-0.3,0v2.5h-1.1v-9.1h1.1V60z
			 M72.6,61.3v2.8c0.4,0.1,0.8,0.2,1.1,0.2c0.7,0,1.2-0.3,1.7-0.8s0.7-1.2,0.7-2.1c0-0.7-0.1-1.1-0.4-1.5c-0.2-0.3-0.5-0.5-0.8-0.5
			c-0.3,0-0.7,0.2-1.1,0.5S72.9,60.7,72.6,61.3z"/>
		<path class="st1" d="M84.1,67.2c-1.1-0.1-2-0.4-2.7-0.9s-1.3-1.3-1.8-2.2s-0.7-1.9-0.7-2.8s0.2-1.9,0.7-2.8s1-1.7,1.8-2.2
			s1.7-0.9,2.7-0.9v0.9c-0.8,0.1-1.5,0.3-2.1,0.8c-0.6,0.5-1.1,1.1-1.4,1.8c-0.3,0.7-0.5,1.5-0.5,2.4s0.2,1.6,0.5,2.4
			c0.3,0.7,0.8,1.3,1.4,1.8s1.3,0.7,2.1,0.8V67.2z"/>
		<path class="st1" d="M86,55.4c1.1,0.1,2,0.4,2.7,0.9s1.3,1.3,1.8,2.2s0.7,1.9,0.7,2.8s-0.2,1.9-0.7,2.8s-1,1.7-1.8,2.2
			S87,67.2,86,67.2v-0.9c0.8-0.1,1.5-0.4,2.1-0.8s1.1-1.1,1.4-1.8s0.5-1.5,0.5-2.4s-0.2-1.6-0.5-2.4s-0.8-1.3-1.4-1.8
			c-0.6-0.5-1.3-0.7-2.1-0.8V55.4z"/>
		<path class="st1" d="M94.7,67.6v-0.7c0.3-0.1,0.5-0.2,0.6-0.3s0.3-0.3,0.4-0.5s0.1-0.5,0.1-0.8c-0.4,0-0.6-0.1-0.8-0.3
			s-0.3-0.4-0.3-0.7c0-0.3,0.1-0.5,0.3-0.7s0.4-0.3,0.7-0.3c0.3,0,0.6,0.1,0.8,0.4s0.4,0.7,0.4,1.2c0,0.4-0.1,0.8-0.3,1.2
			s-0.4,0.7-0.8,1S95.2,67.6,94.7,67.6z M95.8,60.3c-0.3,0-0.5-0.1-0.7-0.3s-0.3-0.4-0.3-0.7c0-0.3,0.1-0.5,0.3-0.7s0.4-0.3,0.7-0.3
			s0.5,0.1,0.7,0.3s0.3,0.4,0.3,0.7c0,0.3-0.1,0.5-0.3,0.7S96,60.3,95.8,60.3z"/>
		<path class="st1" d="M32.7,78c-0.3,0.5-0.7,1-1.2,1.2c-0.5,0.3-0.9,0.4-1.3,0.4c-0.5,0-1-0.2-1.5-0.7c-0.4-0.5-0.7-1.2-0.7-2.2
			c0-0.8,0.1-1.4,0.4-2c0.3-0.6,0.7-1.1,1.2-1.4s1.1-0.5,1.8-0.5c0.2,0,0.5,0,0.9,0.1c0.1,0,0.2,0,0.3,0V70h1.1v9.5h-1.1V78z
			 M32.7,76.7v-2.8c-0.4-0.1-0.7-0.2-1.1-0.2c-0.7,0-1.2,0.3-1.7,0.8c-0.4,0.5-0.7,1.2-0.7,2.1c0,0.6,0.1,1.1,0.4,1.5
			c0.2,0.3,0.5,0.5,0.8,0.5c0.3,0,0.7-0.2,1.1-0.5C32,77.7,32.4,77.3,32.7,76.7z"/>
		<path class="st1" d="M36.1,79.5v-6.5h1.1v1.4c0.3-0.5,0.7-0.9,1.2-1.2s0.9-0.4,1.5-0.4c0.4,0,0.8,0.1,1.2,0.2v2.4h-1v-1.5
			c-0.2,0-0.3,0-0.4,0c-0.4,0-0.8,0.2-1.2,0.5s-0.8,0.8-1.1,1.4v3.8H36.1z"/>
		<path class="st1" d="M44.6,79.5v-5.6h-1.8v-0.9h2.9v5.6h1.8v0.9H44.6z M44.4,70.6c0-0.2,0.1-0.4,0.3-0.5c0.2-0.1,0.3-0.2,0.5-0.2
			c0.2,0,0.3,0.1,0.5,0.2c0.2,0.1,0.3,0.3,0.3,0.5c0,0.2-0.1,0.4-0.3,0.5c-0.2,0.1-0.3,0.2-0.5,0.2c-0.1,0-0.3-0.1-0.5-0.2
			C44.5,71,44.4,70.8,44.4,70.6z"/>
		<path class="st1" d="M49.9,79.5v-6.5H51v1.4c0.3-0.5,0.7-0.9,1.1-1.2s0.9-0.4,1.3-0.4c0.4,0,0.7,0.1,1.1,0.3
			c0.3,0.2,0.5,0.5,0.7,0.8s0.2,1,0.2,2v3.7h-1.1v-3.8c0-0.6,0-1-0.1-1.2s-0.2-0.4-0.3-0.5s-0.3-0.2-0.5-0.2c-0.4,0-0.8,0.2-1.2,0.5
			s-0.8,0.8-1.1,1.4v3.8H49.9z"/>
		<path class="st1" d="M57.4,79.5V70h1.1V76l3.1-3h1.4l-3.1,3l3.2,3.5h-1.5L58.5,76v3.5H57.4z"/>
		<path class="st1" d="M69.8,79.4c-0.7,0.3-1.3,0.4-1.8,0.4c-0.7,0-1.4-0.2-2-0.6s-1.1-0.9-1.4-1.7s-0.5-1.6-0.5-2.6
			c0-0.9,0.2-1.8,0.5-2.5c0.3-0.8,0.8-1.3,1.4-1.7s1.3-0.6,2-0.6c0.5,0,1.1,0.1,1.8,0.4v1.1c-0.6-0.4-1.3-0.5-1.9-0.5
			c-0.5,0-0.9,0.2-1.3,0.5s-0.7,0.8-0.9,1.4c-0.2,0.6-0.4,1.3-0.4,2c0,0.7,0.1,1.4,0.4,2c0.2,0.6,0.6,1.1,0.9,1.4
			c0.4,0.3,0.8,0.5,1.3,0.5c0.6,0,1.2-0.2,1.9-0.5V79.4z"/>
		<path class="st1" d="M74.2,79.6c-0.9,0-1.7-0.3-2.2-1c-0.6-0.7-0.8-1.5-0.8-2.5s0.3-1.8,0.8-2.5c0.6-0.7,1.3-1,2.2-1
			c0.9,0,1.7,0.3,2.2,1c0.6,0.7,0.8,1.5,0.8,2.5S77,78,76.5,78.7C75.9,79.3,75.2,79.6,74.2,79.6z M74.2,78.7c0.6,0,1-0.2,1.4-0.7
			c0.3-0.5,0.5-1.1,0.5-1.9c0-0.8-0.2-1.4-0.5-1.9c-0.3-0.5-0.8-0.7-1.4-0.7c-0.6,0-1,0.2-1.4,0.7c-0.3,0.5-0.5,1.1-0.5,1.9
			c0,0.8,0.2,1.4,0.5,1.9C73.2,78.5,73.7,78.7,74.2,78.7z"/>
		<path class="st1" d="M80.3,79.5v-5.1h-1.5v-0.9h1.5v-0.3c0-0.9,0.1-1.5,0.3-1.9c0.2-0.4,0.5-0.8,0.9-1c0.4-0.3,0.9-0.4,1.6-0.4
			c0.5,0,1,0.1,1.5,0.2v1c-0.6-0.2-1.1-0.3-1.5-0.3c-0.3,0-0.7,0.1-0.9,0.2s-0.5,0.3-0.6,0.6s-0.2,0.8-0.2,1.5v0.4H84v0.9h-2.6v5.1
			H80.3z"/>
		<path class="st1" d="M87.5,79.5v-5.1H86v-0.9h1.5v-0.3c0-0.9,0.1-1.5,0.3-1.9c0.2-0.4,0.5-0.8,0.9-1c0.4-0.3,0.9-0.4,1.6-0.4
			c0.5,0,1,0.1,1.5,0.2v1c-0.6-0.2-1.1-0.3-1.5-0.3c-0.3,0-0.7,0.1-0.9,0.2s-0.5,0.3-0.6,0.6s-0.2,0.8-0.2,1.5v0.4h2.6v0.9h-2.6v5.1
			H87.5z"/>
		<path class="st1" d="M98.6,79c-0.9,0.4-1.7,0.6-2.5,0.6c-0.6,0-1.1-0.1-1.6-0.4s-0.8-0.7-1.1-1.3c-0.3-0.5-0.4-1.1-0.4-1.7
			c0-0.6,0.1-1.2,0.4-1.7c0.3-0.5,0.6-1,1.1-1.3c0.5-0.3,1-0.5,1.6-0.5c0.8,0,1.4,0.3,1.9,0.8c0.5,0.6,0.7,1.4,0.7,2.6v0.2h-4.5
			c0,0.5,0.1,0.9,0.3,1.2s0.4,0.7,0.7,0.8c0.3,0.2,0.7,0.3,1.1,0.3c0.7,0,1.5-0.2,2.3-0.7V79z M94.2,75.6h3.3v-0.2
			c0-0.5-0.1-1-0.4-1.3s-0.6-0.5-1-0.5c-0.4,0-0.8,0.2-1.1,0.5S94.4,74.9,94.2,75.6z"/>
		<path class="st1" d="M105.8,79c-0.9,0.4-1.7,0.6-2.5,0.6c-0.6,0-1.1-0.1-1.6-0.4s-0.8-0.7-1.1-1.3c-0.3-0.5-0.4-1.1-0.4-1.7
			c0-0.6,0.1-1.2,0.4-1.7c0.3-0.5,0.6-1,1.1-1.3c0.5-0.3,1-0.5,1.6-0.5c0.8,0,1.4,0.3,1.9,0.8c0.5,0.6,0.7,1.4,0.7,2.6v0.2h-4.5
			c0,0.5,0.1,0.9,0.3,1.2s0.4,0.7,0.7,0.8c0.3,0.2,0.7,0.3,1.1,0.3c0.7,0,1.5-0.2,2.3-0.7V79z M101.4,75.6h3.3v-0.2
			c0-0.5-0.1-1-0.4-1.3s-0.6-0.5-1-0.5c-0.4,0-0.8,0.2-1.1,0.5S101.6,74.9,101.4,75.6z"/>
		<path class="st1" d="M112.9,81.6c-1.1-0.1-2-0.4-2.7-0.9s-1.3-1.3-1.8-2.2s-0.7-1.9-0.7-2.8s0.2-1.9,0.7-2.8s1-1.7,1.8-2.2
			s1.7-0.9,2.7-0.9v0.9c-0.8,0.1-1.5,0.3-2.1,0.8c-0.6,0.5-1.1,1.1-1.4,1.8c-0.3,0.7-0.5,1.5-0.5,2.4c0,0.8,0.2,1.6,0.5,2.4
			c0.3,0.7,0.8,1.3,1.4,1.8c0.6,0.5,1.3,0.7,2.1,0.8V81.6z"/>
		<path class="st1" d="M114.8,69.8c1.1,0.1,2,0.4,2.7,0.9s1.3,1.3,1.8,2.2s0.7,1.9,0.7,2.8s-0.2,1.9-0.7,2.8s-1,1.7-1.8,2.2
			s-1.7,0.9-2.7,0.9v-0.9c0.8-0.1,1.5-0.4,2.1-0.8c0.6-0.5,1.1-1.1,1.4-1.8c0.3-0.7,0.5-1.5,0.5-2.4c0-0.8-0.2-1.6-0.5-2.4
			c-0.3-0.7-0.8-1.3-1.4-1.8c-0.6-0.5-1.3-0.7-2.1-0.8V69.8z"/>
		<path class="st1" d="M123.5,82v-0.7c0.3-0.1,0.5-0.2,0.6-0.3s0.3-0.3,0.4-0.5s0.1-0.5,0.1-0.8c-0.4,0-0.6-0.1-0.8-0.3
			s-0.3-0.4-0.3-0.7c0-0.3,0.1-0.5,0.3-0.7s0.4-0.3,0.7-0.3c0.3,0,0.6,0.1,0.8,0.4s0.4,0.7,0.4,1.2c0,0.4-0.1,0.8-0.3,1.2
			s-0.4,0.7-0.8,1S124,82,123.5,82z M124.6,74.7c-0.3,0-0.5-0.1-0.7-0.3s-0.3-0.4-0.3-0.7c0-0.3,0.1-0.5,0.3-0.7s0.4-0.3,0.7-0.3
			c0.3,0,0.5,0.1,0.7,0.3s0.3,0.4,0.3,0.7c0,0.3-0.1,0.5-0.3,0.7S124.8,74.7,124.6,74.7z"/>
		<path class="st1" d="M9.8,90.1c-0.4-0.2-0.6-0.4-0.8-0.6S8.7,89.2,8.6,89s-0.1-0.4-0.1-0.7c0-0.2,0-0.5,0.1-0.9l0.1-0.7
			c0.1-0.4,0.1-0.6,0.1-0.8c0-0.2-0.1-0.4-0.3-0.6c-0.2-0.2-0.6-0.2-1.1-0.2H6.6v-0.9h0.9c1.1,0,1.8,0.2,2.1,0.5s0.5,0.7,0.5,1.2
			c0,0.2,0,0.5-0.1,0.8l-0.1,0.5l-0.1,0.5l-0.1,0.3c0,0.1,0,0.3,0,0.4c0,0.4,0.1,0.7,0.4,0.9s0.7,0.4,1.3,0.4h0.5v0.9h-0.5
			c-0.6,0-1,0.1-1.3,0.4s-0.4,0.6-0.4,1c0,0.1,0,0.3,0,0.4l0.1,0.3l0.1,0.5l0.1,0.5c0.1,0.3,0.1,0.5,0.1,0.8c0,0.4-0.2,0.8-0.5,1.2
			S8.6,96,7.5,96H6.6v-0.9h0.9c0.6,0,1-0.1,1.1-0.2s0.3-0.4,0.3-0.6c0-0.2,0-0.4-0.1-0.8l-0.1-0.7c-0.1-0.4-0.1-0.7-0.1-0.9
			c0-0.2,0-0.5,0.1-0.7s0.2-0.4,0.4-0.6S9.5,90.3,9.8,90.1z"/>
	</g>
	<g>
		<path class="st1" d="M72.3,127.1c0,0.3,0,0.5-0.1,0.7c-0.1,0.2-0.2,0.4-0.3,0.6c-0.1,0.2-0.3,0.3-0.5,0.4
			c-0.2,0.1-0.4,0.1-0.7,0.1h-1.1v-3.5h1.1c0.3,0,0.5,0,0.7,0.1c0.2,0.1,0.4,0.2,0.5,0.4c0.1,0.2,0.2,0.3,0.3,0.6
			C72.3,126.6,72.3,126.9,72.3,127.1z M71.8,127.1c0-0.2,0-0.4-0.1-0.5c0-0.2-0.1-0.3-0.2-0.4s-0.2-0.2-0.4-0.3
			c-0.1-0.1-0.3-0.1-0.5-0.1H70v2.8h0.7c0.2,0,0.4,0,0.5-0.1c0.1-0.1,0.3-0.2,0.4-0.3s0.2-0.3,0.2-0.4c0-0.2,0.1-0.3,0.1-0.5V127.1z
			"/>
		<path class="st1" d="M75.8,128.3L75.8,128.3l0.6-2.9h0.4l-0.8,3.5h-0.5l-0.7-2.9l-0.7,2.9h-0.5l-0.8-3.5h0.4l0.6,2.9h0l0.8-2.9H75
			L75.8,128.3z"/>
		<path class="st1" d="M77.5,125.4h1.2c0.2,0,0.3,0,0.4,0.1c0.1,0.1,0.2,0.1,0.3,0.2c0.1,0.1,0.2,0.2,0.2,0.3
			c0.1,0.1,0.1,0.3,0.1,0.4c0,0.2,0,0.3-0.1,0.4c-0.1,0.1-0.1,0.2-0.2,0.3c-0.1,0.1-0.2,0.2-0.4,0.2c-0.1,0.1-0.3,0.1-0.5,0.1h-0.8
			v1.3h-0.4V125.4z M79.4,126.5c0-0.1,0-0.2,0-0.3c0-0.1-0.1-0.2-0.1-0.2c-0.1-0.1-0.1-0.1-0.2-0.2c-0.1,0-0.2-0.1-0.3-0.1h-0.7v1.5
			h0.7c0.1,0,0.2,0,0.3-0.1c0.1,0,0.2-0.1,0.2-0.1c0.1-0.1,0.1-0.1,0.1-0.2C79.4,126.7,79.4,126.6,79.4,126.5L79.4,126.5z"/>
		<path class="st1" d="M81.3,128.1c0.2,0.2,0.3,0.3,0.5,0.4s0.4,0.1,0.6,0.1c0.1,0,0.3,0,0.4-0.1c0.1,0,0.2-0.1,0.3-0.1
			c0.1-0.1,0.1-0.1,0.2-0.2c0-0.1,0.1-0.2,0.1-0.2c0-0.1,0-0.2-0.1-0.3c0-0.1-0.1-0.1-0.2-0.2c-0.1,0-0.2-0.1-0.3-0.1
			c-0.1,0-0.2,0-0.3-0.1l0,0c-0.1,0-0.2,0-0.2,0c-0.1,0-0.2,0-0.2-0.1c-0.1,0-0.2-0.1-0.2-0.1c-0.1,0-0.1-0.1-0.2-0.1
			c-0.1-0.1-0.1-0.2-0.2-0.3s-0.1-0.2-0.1-0.4c0-0.1,0-0.2,0.1-0.3c0-0.1,0.1-0.2,0.2-0.3c0.1-0.1,0.2-0.2,0.4-0.2
			c0.2-0.1,0.3-0.1,0.6-0.1c0.2,0,0.5,0,0.7,0.1c0.1,0,0.2,0.1,0.2,0.1c0.1,0.1,0.2,0.1,0.2,0.2l-0.3,0.3c-0.1-0.1-0.3-0.2-0.4-0.3
			c-0.2-0.1-0.3-0.1-0.5-0.1c-0.1,0-0.2,0-0.3,0c-0.1,0-0.2,0.1-0.2,0.1s-0.1,0.1-0.2,0.2c0,0.1-0.1,0.1-0.1,0.2
			c0,0.1,0,0.2,0.1,0.3c0,0.1,0.1,0.1,0.2,0.2c0.1,0,0.2,0.1,0.3,0.1c0.1,0,0.2,0,0.3,0.1l0,0c0.2,0,0.3,0.1,0.5,0.1
			c0.2,0,0.3,0.1,0.4,0.2c0.1,0.1,0.2,0.2,0.3,0.3c0.1,0.1,0.1,0.3,0.1,0.4c0,0.1,0,0.3-0.1,0.4c-0.1,0.1-0.1,0.2-0.2,0.3
			s-0.2,0.2-0.4,0.2s-0.4,0.1-0.6,0.1c-0.2,0-0.3,0-0.5-0.1c-0.1,0-0.3-0.1-0.4-0.1c-0.1,0-0.2-0.1-0.3-0.2s-0.2-0.1-0.2-0.2
			L81.3,128.1z"/>
		<path class="st1" d="M85.3,126.3c0.2,0,0.3,0,0.5,0.1s0.3,0.2,0.4,0.3c0.1,0.1,0.2,0.3,0.2,0.4c0.1,0.2,0.1,0.3,0.1,0.5
			c0,0.2,0,0.4-0.1,0.5c-0.1,0.2-0.1,0.3-0.2,0.4c-0.1,0.1-0.2,0.2-0.4,0.3s-0.3,0.1-0.5,0.1c-0.2,0-0.3,0-0.5-0.1s-0.3-0.2-0.4-0.3
			c-0.1-0.1-0.2-0.3-0.2-0.4c-0.1-0.2-0.1-0.3-0.1-0.5c0-0.2,0-0.4,0.1-0.5c0.1-0.2,0.1-0.3,0.2-0.4c0.1-0.1,0.2-0.2,0.4-0.3
			S85.1,126.3,85.3,126.3z M85.3,128.6c0.1,0,0.2,0,0.3-0.1c0.1,0,0.2-0.1,0.2-0.2c0.1-0.1,0.1-0.2,0.1-0.3c0-0.1,0-0.2,0-0.4v0
			c0-0.1,0-0.2,0-0.4c0-0.1-0.1-0.2-0.1-0.3c-0.1-0.1-0.1-0.2-0.2-0.2c-0.1,0-0.2-0.1-0.3-0.1c-0.1,0-0.2,0-0.3,0.1
			c-0.1,0-0.2,0.1-0.2,0.2c-0.1,0.1-0.1,0.2-0.1,0.3c0,0.1,0,0.2,0,0.4v0c0,0.1,0,0.2,0,0.4c0,0.1,0.1,0.2,0.1,0.3
			c0.1,0.1,0.1,0.2,0.2,0.2C85,128.5,85.1,128.6,85.3,128.6z"/>
		<path class="st1" d="M87.6,126.4h0.5v0.4h-0.5v2.1h-0.4v-2.1h-0.4v-0.4h0.4v-0.5c0-0.1,0-0.2,0.1-0.3s0.1-0.1,0.1-0.2
			c0.1,0,0.1-0.1,0.2-0.1c0.1,0,0.2,0,0.3,0c0.1,0,0.2,0,0.3,0c0.1,0,0.1,0,0.1,0l0,0.4c0,0-0.1,0-0.1,0c0,0-0.1,0-0.1,0
			s-0.1,0-0.1,0c0,0-0.1,0-0.1,0c-0.1,0-0.1,0-0.1,0c0,0-0.1,0-0.1,0.1c0,0,0,0.1,0,0.1c0,0,0,0.1,0,0.1V126.4z"/>
		<path class="st1" d="M89.2,128.3c0,0,0,0.1,0,0.1c0,0,0,0.1,0,0.1c0,0,0.1,0,0.1,0.1c0,0,0.1,0,0.2,0c0,0,0,0,0.1,0
			c0,0,0.1,0,0.1,0c0,0,0.1,0,0.1,0c0,0,0.1,0,0.1,0l0,0.4c0,0-0.1,0-0.1,0c0,0-0.1,0-0.1,0c-0.1,0-0.1,0-0.2,0c-0.1,0-0.2,0-0.3,0
			c-0.1,0-0.1-0.1-0.2-0.1c-0.1,0-0.1-0.1-0.1-0.2s0-0.2,0-0.3v-1.6h-0.5v-0.4h0.5v-0.8l0.4-0.1v1h0.7v0.4h-0.7V128.3z"/>
		<path class="st1" d="M92.6,128.4l0.5-2h0.4l-0.6,2.5h-0.5l-0.5-2l-0.5,2h-0.5l-0.6-2.5h0.4l0.4,2l0.5-2h0.5L92.6,128.4z"/>
		<path class="st1" d="M95.4,128.6c-0.1,0.1-0.2,0.2-0.3,0.2c-0.1,0.1-0.3,0.1-0.4,0.1c-0.1,0-0.2,0-0.3-0.1c-0.1,0-0.2-0.1-0.3-0.2
			c-0.1-0.1-0.1-0.1-0.2-0.2s-0.1-0.2-0.1-0.3c0-0.1,0-0.2,0-0.3c0-0.1,0.1-0.2,0.1-0.2c0.1-0.1,0.1-0.1,0.2-0.1
			c0.1,0,0.2-0.1,0.3-0.1l0.9-0.1v-0.2c0-0.1,0-0.2,0-0.2s-0.1-0.1-0.1-0.2c0,0-0.1-0.1-0.2-0.1c-0.1,0-0.1,0-0.2,0
			c-0.1,0-0.3,0-0.4,0.1c-0.1,0-0.2,0.1-0.3,0.1l-0.2-0.3c0.1-0.1,0.3-0.1,0.5-0.2s0.3-0.1,0.5-0.1c0.3,0,0.5,0.1,0.7,0.2
			s0.2,0.3,0.2,0.6v1.2c0,0.1,0,0.2,0,0.2c0,0.1,0.1,0.1,0.2,0.1l-0.2,0.3c-0.1,0-0.1-0.1-0.2-0.1C95.5,128.8,95.4,128.7,95.4,128.6
			L95.4,128.6z M94.7,127.8c-0.1,0-0.1,0-0.2,0c-0.1,0-0.1,0-0.1,0.1s-0.1,0.1-0.1,0.1c0,0,0,0.1,0,0.2c0,0.1,0,0.1,0,0.2
			c0,0.1,0.1,0.1,0.1,0.1c0,0,0.1,0.1,0.2,0.1c0.1,0,0.1,0,0.2,0c0.1,0,0.2,0,0.2,0s0.1-0.1,0.2-0.1c0.1,0,0.1-0.1,0.1-0.1
			c0-0.1,0.1-0.1,0.1-0.2v-0.5L94.7,127.8z"/>
		<path class="st1" d="M97.8,126.7L97.8,126.7c-0.2,0-0.3,0-0.4,0c-0.1,0-0.2,0.1-0.3,0.1c-0.1,0.1-0.1,0.2-0.2,0.3
			c0,0.1-0.1,0.2-0.1,0.4v1.3h-0.4v-2.5h0.4v0.4c0-0.1,0.1-0.1,0.1-0.2c0.1-0.1,0.1-0.1,0.2-0.1c0.1,0,0.1-0.1,0.2-0.1
			c0.1,0,0.2,0,0.2,0h0.1V126.7z"/>
		<path class="st1" d="M98.5,127.8c0,0.1,0,0.2,0.1,0.3c0,0.1,0.1,0.2,0.2,0.3c0.1,0.1,0.1,0.1,0.2,0.2c0.1,0,0.2,0.1,0.3,0.1
			c0.1,0,0.3,0,0.4-0.1c0.1,0,0.2-0.1,0.3-0.2l0.2,0.3c-0.1,0.1-0.2,0.2-0.4,0.2c-0.1,0.1-0.3,0.1-0.5,0.1c-0.2,0-0.3,0-0.5-0.1
			s-0.3-0.2-0.4-0.3c-0.1-0.1-0.2-0.3-0.2-0.4c-0.1-0.2-0.1-0.3-0.1-0.5c0-0.2,0-0.4,0.1-0.5c0.1-0.2,0.1-0.3,0.2-0.4
			c0.1-0.1,0.2-0.2,0.4-0.3c0.1-0.1,0.3-0.1,0.5-0.1c0.2,0,0.3,0,0.4,0.1s0.2,0.2,0.3,0.3c0.1,0.1,0.2,0.3,0.2,0.4
			c0,0.2,0.1,0.3,0.1,0.5v0.1H98.5z M99.2,126.7c-0.1,0-0.2,0-0.3,0.1c-0.1,0-0.2,0.1-0.2,0.2s-0.1,0.1-0.1,0.2s-0.1,0.2-0.1,0.3
			h1.3c0-0.1,0-0.2-0.1-0.3c0-0.1-0.1-0.2-0.1-0.2c-0.1-0.1-0.1-0.1-0.2-0.2S99.3,126.7,99.2,126.7z"/>
		<path class="st1" d="M101.9,125.4h2.1v0.4h-1.7v1.1h1.5v0.4h-1.5v1.2h1.8v0.4h-2.2V125.4z"/>
		<path class="st1" d="M104.7,126.4h0.4v0.3c0.1-0.1,0.2-0.2,0.3-0.3c0.1-0.1,0.3-0.1,0.4-0.1c0.1,0,0.3,0,0.4,0.1
			c0.1,0,0.2,0.1,0.3,0.2c0.1,0.1,0.1,0.2,0.2,0.3c0,0.1,0.1,0.2,0.1,0.3v1.7h-0.4v-1.6c0-0.1,0-0.2,0-0.3c0-0.1-0.1-0.1-0.1-0.2
			c0,0-0.1-0.1-0.2-0.1c-0.1,0-0.1,0-0.2,0c-0.1,0-0.2,0-0.2,0c-0.1,0-0.1,0.1-0.2,0.1c-0.1,0.1-0.1,0.1-0.1,0.2
			c0,0.1-0.1,0.2-0.1,0.3v1.5h-0.4V126.4z"/>
		<path class="st1" d="M107.3,127.5c0-0.2,0-0.3,0.1-0.5c0-0.1,0.1-0.3,0.2-0.4s0.2-0.2,0.3-0.2c0.1-0.1,0.3-0.1,0.4-0.1
			c0.1,0,0.3,0,0.4,0.1c0.1,0.1,0.2,0.1,0.3,0.3v-0.3h0.4v2.5c0,0.2,0,0.3-0.1,0.4c-0.1,0.1-0.1,0.2-0.2,0.3
			c-0.1,0.1-0.2,0.1-0.3,0.1c-0.1,0-0.3,0-0.4,0c-0.1,0-0.1,0-0.2,0c-0.1,0-0.2,0-0.2,0c-0.1,0-0.2,0-0.2-0.1s-0.2-0.1-0.2-0.1
			l0.1-0.3c0,0,0.1,0,0.2,0.1c0.1,0,0.1,0,0.2,0.1c0.1,0,0.1,0,0.2,0c0.1,0,0.1,0,0.2,0c0.1,0,0.2,0,0.3,0c0.1,0,0.2-0.1,0.2-0.1
			c0.1,0,0.1-0.1,0.1-0.2c0-0.1,0-0.2,0-0.2v-0.5c-0.1,0.1-0.2,0.2-0.3,0.3c-0.1,0.1-0.3,0.1-0.4,0.1c-0.2,0-0.3,0-0.4-0.1
			c-0.1-0.1-0.2-0.1-0.3-0.2c-0.1-0.1-0.2-0.2-0.2-0.4C107.3,127.8,107.3,127.7,107.3,127.5z M109,127.5c0-0.1,0-0.2,0-0.3
			c0-0.1-0.1-0.2-0.1-0.2c-0.1-0.1-0.1-0.1-0.2-0.2c-0.1,0-0.2-0.1-0.3-0.1c-0.1,0-0.2,0-0.3,0.1s-0.2,0.1-0.2,0.2
			c-0.1,0.1-0.1,0.2-0.1,0.3c0,0.1,0,0.2,0,0.3v0c0,0.1,0,0.2,0,0.3c0,0.1,0.1,0.2,0.1,0.2c0.1,0.1,0.1,0.1,0.2,0.2
			c0.1,0,0.2,0.1,0.3,0.1c0.1,0,0.2,0,0.3-0.1c0.1,0,0.1-0.1,0.2-0.2c0.1-0.1,0.1-0.2,0.1-0.2S109,127.6,109,127.5L109,127.5z"/>
		<path class="st1" d="M110.1,125.7c0,0,0-0.1,0-0.1s0-0.1,0.1-0.1c0,0,0.1,0,0.1-0.1s0.1,0,0.1,0s0.1,0,0.1,0s0.1,0,0.1,0.1
			c0,0,0,0.1,0.1,0.1s0,0.1,0,0.1s0,0.1,0,0.1s0,0.1-0.1,0.1c0,0-0.1,0-0.1,0.1s-0.1,0-0.1,0s-0.1,0-0.1,0s-0.1,0-0.1-0.1
			c0,0,0-0.1-0.1-0.1S110.1,125.7,110.1,125.7z M110.6,128.9h-0.4v-2.5h0.4V128.9z"/>
		<path class="st1" d="M111.3,126.4h0.4v0.3c0.1-0.1,0.2-0.2,0.3-0.3c0.1-0.1,0.3-0.1,0.4-0.1c0.1,0,0.3,0,0.4,0.1
			c0.1,0,0.2,0.1,0.3,0.2c0.1,0.1,0.1,0.2,0.2,0.3c0,0.1,0.1,0.2,0.1,0.3v1.7h-0.4v-1.6c0-0.1,0-0.2,0-0.3c0-0.1-0.1-0.1-0.1-0.2
			c0,0-0.1-0.1-0.2-0.1c-0.1,0-0.1,0-0.2,0c-0.1,0-0.2,0-0.2,0c-0.1,0-0.1,0.1-0.2,0.1c-0.1,0.1-0.1,0.1-0.1,0.2
			c0,0.1-0.1,0.2-0.1,0.3v1.5h-0.4V126.4z"/>
		<path class="st1" d="M114.3,127.8c0,0.1,0,0.2,0.1,0.3c0,0.1,0.1,0.2,0.2,0.3c0.1,0.1,0.1,0.1,0.2,0.2c0.1,0,0.2,0.1,0.3,0.1
			c0.1,0,0.3,0,0.4-0.1c0.1,0,0.2-0.1,0.3-0.2l0.2,0.3c-0.1,0.1-0.2,0.2-0.4,0.2c-0.1,0.1-0.3,0.1-0.5,0.1c-0.2,0-0.3,0-0.5-0.1
			s-0.3-0.2-0.4-0.3c-0.1-0.1-0.2-0.3-0.2-0.4c-0.1-0.2-0.1-0.3-0.1-0.5c0-0.2,0-0.4,0.1-0.5c0.1-0.2,0.1-0.3,0.2-0.4
			c0.1-0.1,0.2-0.2,0.4-0.3c0.1-0.1,0.3-0.1,0.5-0.1c0.2,0,0.3,0,0.4,0.1s0.2,0.2,0.3,0.3c0.1,0.1,0.2,0.3,0.2,0.4
			c0,0.2,0.1,0.3,0.1,0.5v0.1H114.3z M115,126.7c-0.1,0-0.2,0-0.3,0.1c-0.1,0-0.2,0.1-0.2,0.2s-0.1,0.1-0.1,0.2s-0.1,0.2-0.1,0.3
			h1.3c0-0.1,0-0.2-0.1-0.3c0-0.1-0.1-0.2-0.1-0.2c-0.1-0.1-0.1-0.1-0.2-0.2S115.1,126.7,115,126.7z"/>
		<path class="st1" d="M116.9,127.8c0,0.1,0,0.2,0.1,0.3c0,0.1,0.1,0.2,0.2,0.3s0.1,0.1,0.2,0.2s0.2,0.1,0.3,0.1
			c0.1,0,0.3,0,0.4-0.1c0.1,0,0.2-0.1,0.3-0.2l0.2,0.3c-0.1,0.1-0.2,0.2-0.4,0.2s-0.3,0.1-0.5,0.1c-0.2,0-0.3,0-0.5-0.1
			s-0.3-0.2-0.4-0.3c-0.1-0.1-0.2-0.3-0.2-0.4c-0.1-0.2-0.1-0.3-0.1-0.5c0-0.2,0-0.4,0.1-0.5c0.1-0.2,0.1-0.3,0.2-0.4
			c0.1-0.1,0.2-0.2,0.4-0.3c0.1-0.1,0.3-0.1,0.5-0.1c0.2,0,0.3,0,0.4,0.1s0.2,0.2,0.3,0.3c0.1,0.1,0.2,0.3,0.2,0.4
			c0,0.2,0.1,0.3,0.1,0.5v0.1H116.9z M117.6,126.7c-0.1,0-0.2,0-0.3,0.1c-0.1,0-0.2,0.1-0.2,0.2c-0.1,0.1-0.1,0.1-0.1,0.2
			c0,0.1-0.1,0.2-0.1,0.3h1.3c0-0.1,0-0.2,0-0.3s-0.1-0.2-0.1-0.2s-0.1-0.1-0.2-0.2C117.8,126.7,117.7,126.7,117.6,126.7z"/>
		<path class="st1" d="M120.5,126.7L120.5,126.7c-0.2,0-0.3,0-0.4,0c-0.1,0-0.2,0.1-0.3,0.1c-0.1,0.1-0.1,0.2-0.2,0.3
			c0,0.1-0.1,0.2-0.1,0.4v1.3h-0.4v-2.5h0.4v0.4c0-0.1,0.1-0.1,0.1-0.2c0.1-0.1,0.1-0.1,0.2-0.1c0.1,0,0.1-0.1,0.2-0.1
			c0.1,0,0.2,0,0.2,0h0.1V126.7z"/>
		<path class="st1" d="M120.9,125.7c0,0,0-0.1,0-0.1s0-0.1,0.1-0.1c0,0,0.1,0,0.1-0.1s0.1,0,0.1,0s0.1,0,0.1,0s0.1,0,0.1,0.1
			c0,0,0,0.1,0.1,0.1s0,0.1,0,0.1s0,0.1,0,0.1s0,0.1-0.1,0.1c0,0-0.1,0-0.1,0.1s-0.1,0-0.1,0s-0.1,0-0.1,0s-0.1,0-0.1-0.1
			c0,0,0-0.1-0.1-0.1S120.9,125.7,120.9,125.7z M121.4,128.9H121v-2.5h0.4V128.9z"/>
		<path class="st1" d="M122.2,126.4h0.4v0.3c0.1-0.1,0.2-0.2,0.3-0.3c0.1-0.1,0.3-0.1,0.4-0.1c0.1,0,0.3,0,0.4,0.1
			c0.1,0,0.2,0.1,0.3,0.2c0.1,0.1,0.1,0.2,0.2,0.3c0,0.1,0.1,0.2,0.1,0.3v1.7h-0.4v-1.6c0-0.1,0-0.2,0-0.3c0-0.1-0.1-0.1-0.1-0.2
			c0,0-0.1-0.1-0.2-0.1c-0.1,0-0.1,0-0.2,0c-0.1,0-0.2,0-0.2,0c-0.1,0-0.1,0.1-0.2,0.1c-0.1,0.1-0.1,0.1-0.1,0.2
			c0,0.1-0.1,0.2-0.1,0.3v1.5h-0.4V126.4z"/>
		<path class="st1" d="M124.7,127.5c0-0.2,0-0.3,0.1-0.5c0-0.1,0.1-0.3,0.2-0.4s0.2-0.2,0.3-0.2c0.1-0.1,0.3-0.1,0.4-0.1
			c0.1,0,0.3,0,0.4,0.1c0.1,0.1,0.2,0.1,0.3,0.3v-0.3h0.4v2.5c0,0.2,0,0.3-0.1,0.4c-0.1,0.1-0.1,0.2-0.2,0.3
			c-0.1,0.1-0.2,0.1-0.3,0.1c-0.1,0-0.3,0-0.4,0c-0.1,0-0.1,0-0.2,0c-0.1,0-0.2,0-0.2,0c-0.1,0-0.2,0-0.2-0.1
			c-0.1,0-0.2-0.1-0.2-0.1l0.1-0.3c0,0,0.1,0,0.2,0.1c0.1,0,0.1,0,0.2,0.1c0.1,0,0.1,0,0.2,0c0.1,0,0.2,0,0.2,0c0.1,0,0.2,0,0.3,0
			c0.1,0,0.2-0.1,0.2-0.1c0.1,0,0.1-0.1,0.1-0.2c0-0.1,0-0.2,0-0.2v-0.5c-0.1,0.1-0.2,0.2-0.3,0.3c-0.1,0.1-0.3,0.1-0.4,0.1
			c-0.2,0-0.3,0-0.4-0.1c-0.1-0.1-0.2-0.1-0.3-0.2c-0.1-0.1-0.2-0.2-0.2-0.4C124.8,127.8,124.7,127.7,124.7,127.5z M126.5,127.5
			c0-0.1,0-0.2,0-0.3c0-0.1-0.1-0.2-0.1-0.2c-0.1-0.1-0.1-0.1-0.2-0.2c-0.1,0-0.2-0.1-0.3-0.1c-0.1,0-0.2,0-0.3,0.1
			s-0.2,0.1-0.2,0.2c-0.1,0.1-0.1,0.2-0.1,0.3c0,0.1,0,0.2,0,0.3v0c0,0.1,0,0.2,0,0.3c0,0.1,0.1,0.2,0.1,0.2
			c0.1,0.1,0.1,0.1,0.2,0.2c0.1,0,0.2,0.1,0.3,0.1c0.1,0,0.2,0,0.3-0.1c0.1,0,0.1-0.1,0.2-0.2c0.1-0.1,0.1-0.2,0.1-0.2
			C126.4,127.7,126.5,127.6,126.5,127.5L126.5,127.5z"/>
	</g>
</g>
</svg>
