<?xml version="1.0" encoding="utf-8"?>
<!-- Generator: Adobe Illustrator 17.0.0, SVG Export Plug-In . SVG Version: 6.00 Build 0)  -->
<!DOCTYPE svg PUBLIC "-//W3C//DTD SVG 1.1//EN" "http://www.w3.org/Graphics/SVG/1.1/DTD/svg11.dtd">
<svg version="1.1" id="Layer_1" xmlns="http://www.w3.org/2000/svg" xmlns:xlink="http://www.w3.org/1999/xlink" x="0px" y="0px"
	 width="155.906px" height="155.906px" viewBox="0 0 155.906 155.906" enable-background="new 0 0 155.906 155.906"
	 xml:space="preserve">
<circle fill="#B11F24" cx="77.953" cy="77.953" r="77.953"/>
<linearGradient id="SVGID_1_" gradientUnits="userSpaceOnUse" x1="35.2087" y1="107.5229" x2="112.7626" y2="79.2956">
	<stop  offset="0" style="stop-color:#AAAAAA"/>
	<stop  offset="0.5249" style="stop-color:#FFFFFF"/>
	<stop  offset="0.7533" style="stop-color:#E2E2E2"/>
	<stop  offset="1" style="stop-color:#BFBFBF"/>
</linearGradient>
<path fill="url(#SVGID_1_)" d="M49.17,139.329l0.764-1.751l-1.354-0.59l0.316-0.726l1.354,0.591l0.979-2.245l0.822,0.358
	l-0.979,2.245l1.804,0.787l0.979-2.245l0.827,0.36l-0.979,2.245l1.354,0.59l-0.316,0.726l-1.354-0.591l-0.764,1.751l1.354,0.591
	l-0.312,0.714l-1.354-0.59l-0.989,2.267l-0.827-0.361l0.988-2.267l-1.805-0.786l-0.988,2.266l-0.822-0.358l0.988-2.266l-1.354-0.591
	l0.312-0.714L49.17,139.329z M49.992,139.688l1.805,0.787l0.764-1.751l-1.805-0.787L49.992,139.688z M55.426,141.85
	c0.116-0.377,0.278-0.712,0.486-1.003c0.208-0.292,0.449-0.525,0.724-0.7c0.274-0.175,0.575-0.287,0.903-0.335
	c0.328-0.049,0.668-0.019,1.023,0.091c0.313,0.097,0.594,0.249,0.84,0.458c0.247,0.208,0.427,0.478,0.542,0.808l0.202-0.655
	l0.941,0.289l-1.761,5.724c-0.109,0.354-0.272,0.63-0.49,0.827c-0.218,0.196-0.465,0.332-0.741,0.406s-0.571,0.099-0.883,0.071
	c-0.313-0.026-0.62-0.086-0.923-0.18c-0.168-0.052-0.339-0.114-0.515-0.188c-0.176-0.074-0.349-0.159-0.521-0.252
	c-0.171-0.094-0.337-0.197-0.497-0.31c-0.159-0.112-0.307-0.232-0.444-0.36l0.584-0.685c0.096,0.087,0.198,0.175,0.306,0.263
	c0.108,0.089,0.227,0.175,0.358,0.261c0.131,0.085,0.274,0.166,0.431,0.243c0.156,0.076,0.332,0.145,0.526,0.204
	c0.239,0.073,0.462,0.115,0.669,0.126c0.208,0.011,0.392-0.015,0.554-0.077c0.163-0.062,0.303-0.162,0.423-0.3
	c0.12-0.137,0.213-0.315,0.281-0.535l0.334-1.087c-0.281,0.208-0.582,0.329-0.902,0.363c-0.321,0.034-0.639,0.003-0.952-0.094
	c-0.354-0.109-0.654-0.275-0.897-0.5c-0.244-0.224-0.43-0.486-0.558-0.787c-0.128-0.301-0.197-0.63-0.206-0.986
	C55.256,142.593,55.31,142.227,55.426,141.85z M59.393,143.045c0.079-0.258,0.125-0.504,0.136-0.74
	c0.011-0.235-0.018-0.453-0.088-0.651c-0.069-0.199-0.183-0.373-0.339-0.521c-0.157-0.148-0.364-0.263-0.622-0.342
	c-0.261-0.08-0.501-0.103-0.721-0.068c-0.219,0.035-0.417,0.114-0.591,0.238c-0.175,0.124-0.326,0.287-0.454,0.488
	c-0.128,0.202-0.23,0.429-0.307,0.679l-0.014,0.045c-0.077,0.25-0.119,0.493-0.126,0.73c-0.007,0.236,0.026,0.455,0.102,0.656
	s0.193,0.377,0.355,0.529c0.162,0.151,0.374,0.268,0.635,0.349c0.257,0.079,0.493,0.102,0.706,0.066
	c0.213-0.034,0.404-0.113,0.573-0.237s0.315-0.287,0.439-0.49c0.124-0.203,0.225-0.432,0.303-0.686L59.393,143.045z M65.115,141.578
	c0.406,0.082,0.76,0.231,1.063,0.449c0.303,0.219,0.545,0.486,0.727,0.804c0.182,0.317,0.3,0.676,0.355,1.075
	s0.038,0.823-0.052,1.271c-0.088,0.44-0.235,0.834-0.44,1.182c-0.205,0.347-0.453,0.632-0.742,0.854
	c-0.29,0.223-0.617,0.377-0.98,0.461c-0.364,0.085-0.749,0.086-1.154,0.005c-0.406-0.081-0.76-0.231-1.061-0.449
	s-0.543-0.485-0.726-0.803c-0.184-0.317-0.303-0.676-0.358-1.075c-0.055-0.4-0.039-0.82,0.05-1.261
	c0.09-0.448,0.237-0.846,0.442-1.192c0.205-0.348,0.454-0.633,0.745-0.855c0.292-0.222,0.618-0.376,0.98-0.46
	C64.325,141.499,64.709,141.497,65.115,141.578z M64.061,146.835c0.279,0.057,0.537,0.047,0.773-0.027
	c0.236-0.074,0.446-0.196,0.629-0.366c0.183-0.171,0.338-0.38,0.463-0.628c0.125-0.247,0.217-0.515,0.274-0.802l0.014-0.069
	c0.059-0.295,0.079-0.582,0.059-0.86c-0.02-0.279-0.082-0.531-0.186-0.758c-0.104-0.226-0.251-0.419-0.44-0.578
	s-0.424-0.268-0.703-0.323c-0.28-0.056-0.538-0.047-0.773,0.027c-0.236,0.074-0.445,0.195-0.629,0.364
	c-0.183,0.168-0.337,0.377-0.463,0.627c-0.125,0.249-0.218,0.521-0.277,0.816l-0.014,0.069c-0.058,0.287-0.076,0.569-0.056,0.846
	c0.02,0.277,0.082,0.53,0.186,0.758c0.104,0.228,0.25,0.422,0.439,0.581C63.547,146.671,63.781,146.78,64.061,146.835z
	 M69.652,148.476l-1.25-6.156l1.113,0.119l0.887,5.198l1.962-4.893l1.113,0.119l-2.526,5.752L69.652,148.476z M78.325,148.282
	c-0.18,0.244-0.422,0.436-0.727,0.574c-0.305,0.14-0.651,0.207-1.038,0.2c-0.387-0.006-0.735-0.089-1.045-0.248
	s-0.574-0.379-0.792-0.657c-0.218-0.279-0.384-0.609-0.497-0.99c-0.113-0.381-0.166-0.797-0.159-1.25s0.074-0.869,0.199-1.248
	c0.125-0.379,0.302-0.705,0.529-0.979c0.227-0.273,0.498-0.484,0.813-0.634s0.666-0.221,1.053-0.215
	c0.387,0.007,0.73,0.084,1.03,0.233s0.537,0.349,0.708,0.598l0.05-3.099l0.984,0.016l-0.136,8.401l-0.984-0.017L78.325,148.282z
	 M75.087,145.95c-0.005,0.312,0.027,0.604,0.097,0.875s0.175,0.506,0.317,0.706c0.141,0.199,0.316,0.357,0.525,0.474
	c0.209,0.117,0.452,0.178,0.729,0.182c0.262,0.005,0.492-0.036,0.69-0.123s0.366-0.207,0.501-0.361
	c0.135-0.154,0.238-0.337,0.308-0.549s0.107-0.442,0.111-0.692l0.016-0.973c0.004-0.25-0.025-0.481-0.088-0.696
	c-0.063-0.214-0.16-0.399-0.29-0.558c-0.13-0.159-0.293-0.284-0.489-0.378c-0.196-0.093-0.424-0.142-0.686-0.146
	c-0.277-0.005-0.522,0.048-0.735,0.158c-0.212,0.109-0.393,0.262-0.541,0.457c-0.148,0.195-0.261,0.427-0.339,0.694
	c-0.079,0.269-0.121,0.56-0.125,0.871L75.087,145.95z M81.995,146.162c0.042,0.278,0.12,0.533,0.233,0.763
	c0.112,0.23,0.257,0.425,0.432,0.585c0.176,0.16,0.377,0.279,0.605,0.356c0.228,0.078,0.476,0.105,0.745,0.084
	c0.331-0.027,0.617-0.106,0.859-0.237c0.242-0.132,0.461-0.289,0.658-0.474l0.56,0.665c-0.251,0.236-0.547,0.438-0.889,0.604
	s-0.729,0.269-1.166,0.304c-0.432,0.035-0.83-0.01-1.193-0.136c-0.363-0.125-0.679-0.315-0.949-0.569
	c-0.27-0.255-0.486-0.566-0.649-0.935c-0.163-0.369-0.263-0.777-0.299-1.226c-0.037-0.455-0.006-0.878,0.094-1.269
	c0.1-0.39,0.257-0.731,0.472-1.025s0.482-0.531,0.801-0.712c0.318-0.181,0.68-0.287,1.085-0.32c0.393-0.032,0.753,0.016,1.082,0.145
	c0.328,0.128,0.614,0.32,0.858,0.576c0.245,0.257,0.441,0.57,0.591,0.94s0.243,0.778,0.279,1.227l0.025,0.31L81.995,146.162z
	 M83.43,143.483c-0.25,0.021-0.467,0.087-0.654,0.2c-0.187,0.113-0.343,0.257-0.468,0.432s-0.219,0.371-0.281,0.59
	s-0.09,0.441-0.084,0.669l3.16-0.257c-0.026-0.229-0.084-0.447-0.174-0.653s-0.206-0.385-0.349-0.536
	c-0.144-0.15-0.312-0.268-0.504-0.35C83.882,143.495,83.667,143.463,83.43,143.483z M91.921,145.921
	c0.048,0.276,0.029,0.534-0.054,0.772c-0.084,0.239-0.214,0.45-0.388,0.635c-0.175,0.185-0.385,0.338-0.632,0.46
	c-0.246,0.121-0.506,0.206-0.779,0.253c-0.431,0.074-0.859,0.071-1.283-0.008c-0.424-0.08-0.814-0.231-1.169-0.456l0.413-0.778
	c0.106,0.064,0.228,0.131,0.364,0.198c0.136,0.068,0.286,0.127,0.449,0.176s0.335,0.083,0.517,0.102
	c0.182,0.018,0.369,0.011,0.561-0.022c0.158-0.027,0.306-0.073,0.443-0.139c0.138-0.065,0.253-0.146,0.348-0.244
	s0.164-0.207,0.208-0.327c0.045-0.121,0.056-0.25,0.031-0.389c-0.026-0.154-0.083-0.277-0.167-0.37
	c-0.085-0.092-0.192-0.165-0.32-0.218c-0.128-0.054-0.274-0.094-0.437-0.121s-0.334-0.054-0.513-0.078l-0.391-0.058
	c-0.22-0.034-0.434-0.078-0.641-0.134c-0.208-0.056-0.397-0.135-0.567-0.238s-0.314-0.236-0.431-0.398s-0.197-0.366-0.239-0.612
	c-0.035-0.2-0.026-0.407,0.024-0.62c0.051-0.213,0.15-0.413,0.298-0.601c0.148-0.188,0.348-0.354,0.601-0.499
	c0.252-0.145,0.562-0.248,0.927-0.312c0.404-0.069,0.79-0.066,1.158,0.009c0.368,0.075,0.688,0.192,0.961,0.352l-0.388,0.786
	c-0.099-0.066-0.212-0.126-0.34-0.179c-0.128-0.054-0.263-0.097-0.403-0.13c-0.141-0.033-0.285-0.056-0.434-0.065
	s-0.292-0.003-0.431,0.021c-0.211,0.036-0.386,0.092-0.524,0.165s-0.245,0.156-0.32,0.248c-0.075,0.093-0.125,0.19-0.149,0.293
	c-0.024,0.104-0.028,0.201-0.012,0.294c0.023,0.135,0.071,0.242,0.145,0.322c0.074,0.081,0.163,0.146,0.269,0.195
	c0.105,0.049,0.223,0.086,0.352,0.111c0.129,0.025,0.263,0.05,0.402,0.073l0.513,0.078c0.244,0.037,0.47,0.083,0.678,0.137
	c0.207,0.053,0.394,0.123,0.559,0.21c0.21,0.114,0.383,0.259,0.518,0.434S91.875,145.648,91.921,145.921z M92.029,139.671
	c-0.022-0.091-0.024-0.181-0.008-0.27c0.018-0.088,0.048-0.17,0.093-0.244c0.044-0.075,0.104-0.141,0.176-0.196
	c0.073-0.056,0.155-0.094,0.247-0.115c0.091-0.022,0.181-0.024,0.27-0.008c0.088,0.018,0.169,0.05,0.242,0.096
	c0.073,0.047,0.138,0.106,0.192,0.178c0.056,0.071,0.094,0.152,0.116,0.243c0.021,0.091,0.023,0.182,0.007,0.272
	c-0.017,0.09-0.047,0.172-0.092,0.245c-0.045,0.072-0.103,0.137-0.174,0.191c-0.071,0.056-0.152,0.094-0.244,0.115
	c-0.091,0.022-0.182,0.024-0.272,0.008c-0.09-0.017-0.172-0.047-0.244-0.092c-0.073-0.045-0.138-0.104-0.193-0.178
	C92.088,139.845,92.05,139.762,92.029,139.671z M94.951,146.908l-0.957,0.229l-1.388-5.825l0.957-0.229L94.951,146.908z
	 M95.734,143.328c-0.118-0.376-0.175-0.743-0.169-1.102s0.072-0.688,0.198-0.987c0.127-0.3,0.312-0.562,0.554-0.789
	c0.242-0.226,0.54-0.395,0.894-0.506c0.313-0.099,0.631-0.132,0.952-0.101c0.321,0.032,0.622,0.151,0.904,0.357l-0.206-0.654
	l0.939-0.296l1.8,5.711c0.112,0.354,0.134,0.674,0.066,0.959c-0.067,0.286-0.194,0.538-0.379,0.756
	c-0.186,0.218-0.414,0.405-0.687,0.561s-0.56,0.281-0.861,0.376c-0.168,0.053-0.345,0.099-0.531,0.137
	c-0.188,0.038-0.378,0.067-0.571,0.088c-0.194,0.021-0.39,0.029-0.585,0.027s-0.385-0.017-0.569-0.044l0.092-0.896
	c0.129,0.017,0.262,0.031,0.4,0.043c0.14,0.011,0.287,0.015,0.443,0.011c0.156-0.005,0.32-0.02,0.492-0.045
	c0.173-0.025,0.355-0.069,0.549-0.13c0.238-0.075,0.446-0.167,0.623-0.276s0.313-0.235,0.412-0.379
	c0.098-0.144,0.157-0.306,0.178-0.486c0.021-0.181-0.003-0.381-0.072-0.601l-0.342-1.084c-0.113,0.33-0.292,0.601-0.537,0.812
	c-0.245,0.21-0.523,0.364-0.837,0.463c-0.354,0.112-0.694,0.145-1.022,0.099s-0.63-0.156-0.906-0.332
	c-0.276-0.175-0.52-0.406-0.729-0.694C96.017,144.036,95.853,143.704,95.734,143.328z M99.678,142.06
	c-0.081-0.257-0.185-0.486-0.309-0.687c-0.125-0.2-0.272-0.362-0.442-0.487c-0.171-0.124-0.362-0.203-0.575-0.236
	s-0.448-0.009-0.705,0.072c-0.262,0.082-0.472,0.2-0.633,0.353c-0.16,0.153-0.277,0.33-0.352,0.532
	c-0.073,0.201-0.105,0.421-0.096,0.66c0.01,0.238,0.054,0.482,0.133,0.731l0.014,0.045c0.079,0.25,0.183,0.475,0.311,0.673
	c0.129,0.199,0.28,0.36,0.457,0.483c0.176,0.123,0.373,0.2,0.593,0.233c0.219,0.033,0.459,0.009,0.72-0.073
	c0.257-0.081,0.464-0.196,0.619-0.346s0.268-0.323,0.337-0.521c0.068-0.198,0.096-0.415,0.083-0.653
	c-0.014-0.237-0.061-0.482-0.141-0.735L99.678,142.06z M101.397,138.656l0.905-0.388l0.27,0.63c0.078-0.335,0.229-0.62,0.452-0.856
	s0.505-0.427,0.842-0.571c0.306-0.131,0.595-0.195,0.867-0.193c0.273,0.002,0.523,0.056,0.752,0.162
	c0.229,0.105,0.43,0.256,0.604,0.448c0.174,0.193,0.315,0.415,0.423,0.667l1.603,3.737l-0.904,0.388l-1.48-3.452
	c-0.104-0.24-0.221-0.433-0.354-0.578c-0.132-0.146-0.272-0.249-0.42-0.311c-0.147-0.062-0.301-0.088-0.46-0.077
	s-0.317,0.05-0.476,0.118c-0.172,0.073-0.328,0.178-0.469,0.312c-0.14,0.134-0.25,0.293-0.331,0.477
	c-0.08,0.184-0.121,0.388-0.122,0.613s0.054,0.468,0.165,0.727l1.399,3.264l-0.905,0.388L101.397,138.656z M94.75,35.735
	c0.992-0.412,2.143,0.081,2.555,1.093c0.413,1.01-0.066,2.174-1.053,2.586c-1.014,0.42-2.159-0.061-2.571-1.074
	C93.265,37.33,93.741,36.156,94.75,35.735z M90.302,33.092c0.99-0.415,2.142,0.079,2.556,1.093c0.41,1.008-0.065,2.173-1.055,2.587
	c-1.013,0.421-2.157-0.062-2.57-1.077C88.82,34.686,89.291,33.512,90.302,33.092z M85.338,34.681
	c0.993-0.413,2.146,0.08,2.555,1.095c0.413,1.01-0.065,2.173-1.053,2.585c-1.012,0.421-2.157-0.061-2.57-1.074
	C83.855,36.278,84.327,35.101,85.338,34.681z M76.796,30.824l2.479,0.794l0.008-0.006c0.067-0.091,0.148-0.174,0.238-0.245
	l0.006-0.01l-0.994-3.185h1.791h1.792l-0.997,3.185l0.004,0.01c0.092,0.071,0.174,0.153,0.243,0.245l0.007,0.006l2.481-0.794v3.712
	l-2.483-1.324l-0.005,0.008c-0.075,0.098-0.164,0.184-0.259,0.254l1.427,4.364c0,0.006,0,0.01,0.005,0.016v0.004
	c0.066,0.219,0.101,0.452,0.101,0.689c0,1.183-0.858,2.156-1.976,2.325c-0.015,0.003-0.033,0.004-0.05,0.006
	c-0.094,0.011-0.19,0.022-0.29,0.022c-0.098,0-0.195-0.01-0.293-0.022c-0.014-0.003-0.033-0.004-0.048-0.006
	c-1.117-0.169-1.976-1.141-1.976-2.325c0-0.237,0.034-0.469,0.102-0.689h-0.001l0.003-0.004c0.001-0.006,0.001-0.01,0.005-0.016
	l1.426-4.364c-0.098-0.07-0.186-0.156-0.256-0.254l-0.006-0.008l-2.482,1.324V30.824z M72.762,35.776
	c0.411-1.015,1.562-1.508,2.552-1.095c1.011,0.42,1.487,1.597,1.072,2.605c-0.412,1.013-1.558,1.495-2.569,1.074
	C72.826,37.949,72.351,36.785,72.762,35.776z M67.798,34.185c0.413-1.015,1.566-1.508,2.555-1.093
	c1.012,0.42,1.484,1.594,1.07,2.604c-0.413,1.015-1.559,1.498-2.57,1.077C67.863,36.358,67.386,35.194,67.798,34.185z
	 M63.351,36.829c0.411-1.012,1.564-1.505,2.554-1.093c1.01,0.421,1.484,1.594,1.071,2.605c-0.414,1.013-1.557,1.494-2.57,1.074
	C63.417,39.002,62.941,37.838,63.351,36.829z M62.048,41.847c0.413-1.017,1.566-1.508,2.557-1.096
	c1.008,0.419,1.485,1.596,1.068,2.606c-0.411,1.012-1.556,1.498-2.57,1.073C62.116,44.019,61.638,42.854,62.048,41.847z
	 M93.477,55.47c-3.978-0.577-8.439-0.899-13.153-0.899c-4.71,0-9.171,0.322-13.147,0.899c-1.125-4.812-2.501-7.569-3.918-9.531
	l2.67-0.966c-0.266,1.376-0.31,2.015-0.011,2.902c0.441-0.438,0.855-1.24,1.18-2.467l1.297,4.371
	c-0.788-0.553-1.394-0.907-2.089-0.925c1.232,2.693,2.771,3.386,3.765,3.195c1.22-0.226,1.78-1.323,1.592-2.258
	c-0.283-1.325-1.619-1.67-2.245-0.132c-1.198-2.471,0.832-3.242,2.138-2.51c-2.006-2.032-2.237-3.833-0.615-6.017
	c2.253,1.748,2.28,3.48,1.264,5.918c1.318-1.53,3.369-0.706,2.627,1.762c-0.95-1.49-2.206-0.553-2.008,0.864
	c0.166,1.237,1.773,2.23,3.774,2.057c2.869-0.268,3.039-2.275,3.109-3.936c-0.704-0.132-1.976,0.534-3.056,2.075l-0.399-4.638
	c1.177,1.244,2.249,1.481,3.436,1.522c-0.395-1.254-2.214-3.304-2.214-3.304h3.061h0.001h0.001h2.641c0,0-1.817,2.05-2.215,3.304
	c1.189-0.041,2.258-0.278,3.436-1.522l-0.398,4.638c-1.082-1.541-2.352-2.207-3.056-2.075c0.071,1.66,0.243,3.668,3.111,3.936
	c1.999,0.172,3.608-0.821,3.774-2.057c0.196-1.417-1.062-2.354-2.011-0.864c-0.739-2.468,1.308-3.291,2.627-1.762
	c-1.018-2.438-0.989-4.17,1.267-5.918c1.619,2.184,1.387,3.985-0.616,6.017c1.304-0.732,3.334,0.039,2.138,2.51
	c-0.625-1.539-1.963-1.194-2.243,0.132c-0.189,0.935,0.369,2.032,1.587,2.258c0.998,0.192,2.536-0.502,3.768-3.195
	c-0.695,0.018-1.302,0.372-2.087,0.925l1.292-4.371c0.326,1.226,0.744,2.029,1.185,2.467c0.295-0.887,0.255-1.526-0.011-2.902
	l2.671,0.966C95.979,47.901,94.605,50.658,93.477,55.47z M97.549,44.431c-1.01,0.425-2.157-0.061-2.566-1.073
	c-0.416-1.011,0.059-2.188,1.069-2.606c0.99-0.412,2.141,0.079,2.551,1.096C99.017,42.854,98.543,44.019,97.549,44.431z
	 M48.124,65.539h3.891v8.331l6.869-8.331h4.79l-6.681,7.646l7.11,11.592h-4.521l-5.085-8.626l-2.482,2.776v5.85h-3.891V65.539z
	 M67.833,78.874c0.062,0.432,0.199,0.827,0.41,1.187s0.477,0.667,0.8,0.923c0.322,0.257,0.694,0.456,1.115,0.601
	c0.421,0.144,0.87,0.215,1.345,0.215c0.546,0,1.138-0.105,1.774-0.315c0.636-0.211,1.219-0.518,1.748-0.921l1.784,2.592
	c-0.672,0.563-1.495,1.02-2.471,1.368s-2.015,0.523-3.116,0.523c-0.994,0-1.929-0.17-2.807-0.51
	c-0.877-0.34-1.645-0.832-2.303-1.476c-0.658-0.645-1.178-1.427-1.558-2.349c-0.381-0.921-0.571-1.958-0.571-3.112
	c0-1.055,0.167-2.039,0.503-2.951s0.806-1.704,1.41-2.375c0.604-0.671,1.327-1.196,2.169-1.576c0.841-0.38,1.772-0.57,2.793-0.57
	c0.949,0,1.831,0.173,2.646,0.517c0.814,0.345,1.521,0.827,2.122,1.449c0.6,0.621,1.07,1.366,1.41,2.233
	c0.34,0.868,0.51,1.825,0.51,2.871v1.677H67.833z M70.837,73.347c-0.796,0-1.469,0.267-2.019,0.799s-0.87,1.174-0.959,1.925h5.796
	c-0.018-0.76-0.295-1.404-0.832-1.932C72.286,73.612,71.625,73.347,70.837,73.347z M82.992,78.874
	c0.062,0.432,0.199,0.827,0.41,1.187s0.477,0.667,0.8,0.923c0.322,0.257,0.694,0.456,1.115,0.601
	c0.421,0.144,0.87,0.215,1.345,0.215c0.546,0,1.138-0.105,1.774-0.315c0.636-0.211,1.219-0.518,1.748-0.921l1.784,2.592
	c-0.672,0.563-1.495,1.02-2.471,1.368s-2.015,0.523-3.116,0.523c-0.994,0-1.929-0.17-2.807-0.51
	c-0.877-0.34-1.645-0.832-2.303-1.476c-0.658-0.645-1.178-1.427-1.558-2.349c-0.381-0.921-0.571-1.958-0.571-3.112
	c0-1.055,0.167-2.039,0.503-2.951s0.806-1.704,1.41-2.375c0.604-0.671,1.327-1.196,2.169-1.576c0.841-0.38,1.772-0.57,2.793-0.57
	c0.949,0,1.831,0.173,2.646,0.517c0.814,0.345,1.521,0.827,2.122,1.449c0.6,0.621,1.069,1.366,1.41,2.233
	c0.34,0.868,0.51,1.825,0.51,2.871v1.677H82.992z M85.997,73.347c-0.796,0-1.469,0.267-2.019,0.799s-0.87,1.174-0.959,1.925h5.796
	c-0.018-0.76-0.295-1.404-0.832-1.932C87.446,73.612,86.784,73.347,85.997,73.347z M98.755,89.312h-3.702V70.41h3.702v1.234
	c0.402-0.421,0.899-0.778,1.489-1.073c0.591-0.296,1.306-0.443,2.146-0.443c0.948,0,1.809,0.19,2.583,0.57
	c0.773,0.38,1.438,0.903,1.992,1.569c0.555,0.667,0.983,1.456,1.288,2.368c0.304,0.912,0.456,1.9,0.456,2.965
	s-0.157,2.053-0.47,2.965c-0.313,0.912-0.751,1.7-1.314,2.361c-0.563,0.662-1.239,1.181-2.026,1.557
	c-0.787,0.375-1.654,0.563-2.603,0.563c-0.421,0-0.803-0.038-1.147-0.114c-0.344-0.076-0.659-0.181-0.945-0.315
	c-0.286-0.134-0.55-0.293-0.792-0.477c-0.241-0.183-0.46-0.382-0.657-0.597V89.312z M98.648,78.928c0,0.385,0.069,0.74,0.208,1.066
	c0.139,0.327,0.338,0.611,0.598,0.853c0.259,0.241,0.569,0.429,0.932,0.563c0.362,0.134,0.771,0.201,1.228,0.201
	c0.528,0,0.995-0.096,1.402-0.289c0.407-0.191,0.749-0.462,1.026-0.812c0.277-0.349,0.487-0.762,0.631-1.24
	c0.143-0.479,0.214-1.004,0.214-1.577V77.52c0-0.572-0.071-1.101-0.214-1.583c-0.144-0.483-0.354-0.901-0.631-1.255
	c-0.277-0.353-0.619-0.628-1.026-0.825c-0.407-0.196-0.874-0.295-1.402-0.295c-0.456,0-0.865,0.067-1.228,0.201
	c-0.362,0.135-0.673,0.322-0.932,0.563c-0.26,0.241-0.459,0.528-0.598,0.858c-0.139,0.331-0.208,0.689-0.208,1.073V78.928z
	 M53.477,111.563c-0.331,0.402-0.793,0.722-1.388,0.959c-0.595,0.237-1.241,0.355-1.939,0.355c-0.966,0-1.824-0.17-2.576-0.51
	s-1.384-0.807-1.898-1.402c-0.514-0.595-0.908-1.299-1.181-2.112c-0.273-0.814-0.409-1.708-0.409-2.684
	c0-0.948,0.136-1.836,0.409-2.663s0.667-1.538,1.181-2.133s1.147-1.062,1.898-1.402s1.61-0.51,2.576-0.51
	c0.698,0,1.344,0.121,1.939,0.362c0.595,0.241,1.057,0.563,1.388,0.966v-1.046h3.703v14.234c0,0.876-0.166,1.63-0.496,2.26
	c-0.331,0.631-0.784,1.147-1.36,1.55s-1.244,0.695-2.003,0.879s-1.568,0.275-2.426,0.275c-1.045,0-2.135-0.123-3.27-0.369
	c-1.134-0.246-2.113-0.553-2.935-0.919l1.046-3.004c0.25,0.106,0.559,0.226,0.926,0.354c0.367,0.13,0.76,0.243,1.181,0.342
	c0.42,0.099,0.86,0.181,1.321,0.248c0.46,0.067,0.91,0.101,1.348,0.101c0.385,0,0.756-0.038,1.114-0.113
	c0.357-0.076,0.673-0.201,0.946-0.375c0.272-0.174,0.492-0.4,0.657-0.682s0.248-0.64,0.248-1.076V111.563z M47.909,106.223
	c0,0.475,0.051,0.919,0.154,1.335s0.268,0.77,0.495,1.06c0.228,0.291,0.52,0.52,0.877,0.685c0.357,0.166,0.79,0.248,1.298,0.248
	c1.008,0,1.726-0.319,2.154-0.959c0.429-0.64,0.643-1.429,0.643-2.368v-0.107c0-0.474-0.049-0.916-0.147-1.328
	c-0.098-0.411-0.258-0.765-0.481-1.06s-0.511-0.525-0.863-0.691c-0.353-0.165-0.788-0.248-1.305-0.248c-1,0-1.72,0.317-2.162,0.953
	c-0.442,0.635-0.663,1.427-0.663,2.374V106.223z M66.691,99.461c1.064,0,2.03,0.19,2.897,0.57c0.868,0.38,1.61,0.905,2.227,1.576
	c0.617,0.671,1.094,1.463,1.429,2.375s0.503,1.896,0.503,2.951c0,1.064-0.17,2.051-0.51,2.958c-0.34,0.908-0.818,1.693-1.436,2.354
	c-0.617,0.662-1.36,1.184-2.227,1.563c-0.868,0.38-1.829,0.57-2.884,0.57c-1.064,0-2.031-0.19-2.898-0.57
	c-0.868-0.38-1.61-0.901-2.227-1.563c-0.617-0.661-1.096-1.446-1.436-2.354c-0.34-0.907-0.51-1.894-0.51-2.958
	c0-1.055,0.167-2.039,0.503-2.951s0.812-1.704,1.429-2.375c0.617-0.671,1.362-1.196,2.234-1.576
	C64.659,99.652,65.627,99.461,66.691,99.461z M66.691,110.946c0.527,0,0.995-0.099,1.402-0.295c0.407-0.197,0.749-0.47,1.026-0.818
	c0.277-0.35,0.487-0.768,0.63-1.255s0.215-1.021,0.215-1.604v-0.094c0-0.581-0.072-1.115-0.215-1.603s-0.354-0.908-0.63-1.262
	c-0.277-0.353-0.62-0.628-1.026-0.825c-0.407-0.196-0.875-0.295-1.402-0.295c-0.528,0-0.995,0.099-1.402,0.295
	c-0.407,0.197-0.749,0.473-1.026,0.825c-0.277,0.354-0.488,0.774-0.631,1.262s-0.214,1.021-0.214,1.603v0.094
	c0,0.582,0.071,1.116,0.214,1.604s0.354,0.905,0.631,1.255c0.277,0.349,0.619,0.621,1.026,0.818
	C65.696,110.847,66.164,110.946,66.691,110.946z M75.815,95.973c0-0.304,0.058-0.592,0.174-0.865
	c0.116-0.272,0.275-0.51,0.476-0.711c0.202-0.201,0.436-0.359,0.705-0.477c0.268-0.115,0.559-0.174,0.872-0.174
	c0.304,0,0.592,0.059,0.865,0.174c0.273,0.117,0.51,0.275,0.711,0.477s0.36,0.438,0.477,0.711c0.116,0.273,0.174,0.562,0.174,0.865
	c0,0.313-0.059,0.604-0.174,0.872c-0.117,0.269-0.275,0.503-0.477,0.705c-0.201,0.201-0.438,0.359-0.711,0.476
	s-0.562,0.175-0.865,0.175c-0.313,0-0.604-0.059-0.872-0.175c-0.269-0.116-0.503-0.274-0.705-0.476
	c-0.201-0.202-0.36-0.437-0.476-0.705C75.873,96.578,75.815,96.286,75.815,95.973z M79.906,114.112h-3.703V99.744h3.703V114.112z
	 M83.099,99.744h3.703v1.234c0.197-0.197,0.418-0.387,0.664-0.57s0.517-0.345,0.812-0.483c0.295-0.139,0.624-0.25,0.986-0.335
	s0.762-0.128,1.201-0.128c0.778,0,1.476,0.128,2.093,0.383s1.139,0.605,1.563,1.053s0.749,0.971,0.973,1.57
	c0.224,0.599,0.335,1.247,0.335,1.945v9.699h-3.702v-8.358c0-0.51-0.059-0.941-0.175-1.294c-0.116-0.354-0.275-0.64-0.477-0.859
	c-0.201-0.219-0.438-0.38-0.711-0.482c-0.273-0.103-0.57-0.154-0.892-0.154c-0.376,0-0.727,0.066-1.053,0.201
	c-0.327,0.134-0.61,0.338-0.852,0.61s-0.429,0.615-0.563,1.026s-0.201,0.895-0.201,1.449v7.861h-3.703V99.744z M107.248,111.563
	c-0.331,0.402-0.793,0.722-1.388,0.959c-0.596,0.237-1.241,0.355-1.939,0.355c-0.966,0-1.824-0.17-2.575-0.51
	c-0.752-0.34-1.385-0.807-1.898-1.402c-0.515-0.595-0.908-1.299-1.181-2.112c-0.273-0.814-0.409-1.708-0.409-2.684
	c0-0.948,0.136-1.836,0.409-2.663c0.272-0.827,0.666-1.538,1.181-2.133c0.514-0.595,1.146-1.062,1.898-1.402
	c0.751-0.34,1.609-0.51,2.575-0.51c0.698,0,1.344,0.121,1.939,0.362c0.595,0.241,1.057,0.563,1.388,0.966v-1.046h3.703v14.234
	c0,0.876-0.165,1.63-0.496,2.26c-0.33,0.631-0.784,1.147-1.36,1.55s-1.244,0.695-2.003,0.879c-0.76,0.184-1.568,0.275-2.426,0.275
	c-1.046,0-2.136-0.123-3.271-0.369c-1.134-0.246-2.112-0.553-2.935-0.919l1.047-3.004c0.25,0.106,0.559,0.226,0.926,0.354
	c0.366,0.13,0.76,0.243,1.181,0.342c0.42,0.099,0.86,0.181,1.321,0.248c0.46,0.067,0.91,0.101,1.348,0.101
	c0.385,0,0.756-0.038,1.114-0.113c0.357-0.076,0.673-0.201,0.945-0.375s0.492-0.4,0.657-0.682c0.166-0.281,0.248-0.64,0.248-1.076
	V111.563z M101.68,106.223c0,0.475,0.052,0.919,0.154,1.335s0.268,0.77,0.495,1.06c0.228,0.291,0.52,0.52,0.877,0.685
	c0.356,0.166,0.789,0.248,1.298,0.248c1.009,0,1.727-0.319,2.154-0.959c0.429-0.64,0.643-1.429,0.643-2.368v-0.107
	c0-0.474-0.049-0.916-0.147-1.328c-0.098-0.411-0.258-0.765-0.481-1.06c-0.223-0.295-0.511-0.525-0.863-0.691
	c-0.353-0.165-0.787-0.248-1.305-0.248c-0.999,0-1.72,0.317-2.161,0.953c-0.442,0.635-0.663,1.427-0.663,2.374V106.223z"/>
</svg>
