<?xml version="1.0" encoding="utf-8"?>
<!-- Generator: Adobe Illustrator 17.0.0, SVG Export Plug-In . SVG Version: 6.00 Build 0)  -->
<!DOCTYPE svg PUBLIC "-//W3C//DTD SVG 1.1//EN" "http://www.w3.org/Graphics/SVG/1.1/DTD/svg11.dtd">
<svg version="1.1" id="Layer_1" xmlns="http://www.w3.org/2000/svg" xmlns:xlink="http://www.w3.org/1999/xlink" x="0px" y="0px"
	 width="256px" height="256px" viewBox="0 0 256 256" enable-background="new 0 0 256 256" xml:space="preserve">
<path fill-rule="evenodd" clip-rule="evenodd" fill="#13BBB3" d="M127.6,0.338C57.2,0.338,0.2,57.566,0.2,128
	s57.2,127.662,127.6,127.662S255.4,198.434,255.4,128C255.2,57.566,198.2,0.338,127.6,0.338z"/>
<linearGradient id="SVGID_1_" gradientUnits="userSpaceOnUse" x1="16.2678" y1="148.1936" x2="224.483" y2="111.4797">
	<stop  offset="0" style="stop-color:#D1D3D4"/>
	<stop  offset="0.1591" style="stop-color:#D5D6D7"/>
	<stop  offset="0.3008" style="stop-color:#DFE1E1"/>
	<stop  offset="0.4354" style="stop-color:#F1F2F2"/>
	<stop  offset="0.5098" style="stop-color:#FFFFFF"/>
	<stop  offset="0.6468" style="stop-color:#EEEFEF"/>
	<stop  offset="0.86" style="stop-color:#D9DADB"/>
	<stop  offset="1" style="stop-color:#D1D3D4"/>
</linearGradient>
<path fill-rule="evenodd" clip-rule="evenodd" fill="url(#SVGID_1_)" d="M148.2,54.565c0.6,1.801-0.2,3.602-1.8,4.202
	c-1.6,0.6-3.6,0-4.2-1.801c-0.6-1.601,0-3.602,1.8-4.202C145.6,52.163,147.4,52.964,148.2,54.565z M151.2,57.166
	c-1.8,0.6-2.4,2.601-1.8,4.202c0.6,1.801,2.6,2.401,4.2,1.801c1.6-0.8,2.4-2.601,1.8-4.202C154.6,57.366,152.8,56.566,151.2,57.166z
	 M153.4,65.17c-1.8,0.6-2.4,2.601-1.8,4.202c0.6,1.801,2.6,2.401,4.2,1.801c1.6-0.6,2.2-2.601,1.8-4.202
	C156.8,65.37,155,64.569,153.4,65.17z M135.8,55.365c-1.8,0.6-2.4,2.601-1.8,4.202c0.6,1.801,2.6,2.401,4.2,1.801
	c1.6-0.6,2.4-2.401,1.8-4.202C139.2,55.565,137.4,54.765,135.8,55.365z M23.471,174.819c-0.566,0.535-0.999,1.123-1.3,1.765
	c-0.3,0.641-0.455,1.317-0.463,2.03s0.161,1.431,0.507,2.154c0.242,0.504,0.529,0.936,0.864,1.294
	c0.334,0.358,0.703,0.646,1.104,0.865c0.402,0.218,0.833,0.37,1.29,0.454c0.458,0.085,0.935,0.106,1.43,0.065l-0.168-1.466
	c-0.288,0.039-0.591,0.04-0.91,0.003c-0.319-0.037-0.63-0.125-0.935-0.261c-0.305-0.137-0.591-0.327-0.859-0.573
	s-0.492-0.556-0.671-0.931c-0.268-0.559-0.382-1.101-0.342-1.626c0.04-0.525,0.191-1.017,0.454-1.474s0.619-0.875,1.07-1.254
	c0.451-0.378,0.953-0.7,1.507-0.966l0.187-0.09c0.554-0.265,1.121-0.455,1.701-0.57c0.58-0.115,1.132-0.133,1.655-0.052
	c0.523,0.08,1.002,0.27,1.437,0.568c0.434,0.298,0.785,0.727,1.053,1.285c0.18,0.374,0.281,0.743,0.305,1.106
	c0.023,0.362-0.007,0.705-0.092,1.028c-0.085,0.323-0.212,0.62-0.383,0.893c-0.17,0.271-0.359,0.506-0.565,0.703l1.029,1.053
	c0.342-0.36,0.625-0.746,0.849-1.157c0.224-0.41,0.376-0.841,0.458-1.291s0.088-0.918,0.019-1.403
	c-0.07-0.485-0.226-0.979-0.467-1.483c-0.347-0.724-0.801-1.306-1.364-1.744c-0.563-0.439-1.19-0.742-1.88-0.908
	c-0.69-0.166-1.422-0.196-2.196-0.089c-0.774,0.106-1.545,0.345-2.314,0.713C24.707,173.831,24.037,174.284,23.471,174.819z
	 M35.271,186.402l-0.204-0.353c-0.133-0.229-0.291-0.44-0.472-0.633c-0.182-0.191-0.382-0.354-0.603-0.485
	c-0.22-0.131-0.456-0.227-0.708-0.285c-0.252-0.059-0.512-0.071-0.78-0.037l1.164-0.675l-0.699-1.206l-7.34,4.254l0.699,1.206
	l3.763-2.181c0.503-0.292,0.953-0.467,1.351-0.524c0.398-0.058,0.753-0.033,1.065,0.074c0.312,0.106,0.585,0.281,0.82,0.521
	c0.236,0.241,0.443,0.518,0.624,0.828l0.112,0.194L35.271,186.402z M35.843,196.025l0.366-0.245c0.528-0.354,0.97-0.752,1.324-1.193
	c0.354-0.44,0.605-0.9,0.753-1.38c0.148-0.479,0.188-0.966,0.121-1.46c-0.068-0.493-0.258-0.973-0.569-1.437
	c-0.321-0.479-0.703-0.852-1.146-1.121c-0.444-0.269-0.921-0.435-1.434-0.497c-0.512-0.063-1.043-0.021-1.595,0.125
	c-0.551,0.146-1.096,0.4-1.633,0.761c-0.529,0.354-0.965,0.76-1.308,1.217s-0.579,0.939-0.707,1.449
	c-0.128,0.509-0.145,1.031-0.049,1.566c0.096,0.535,0.315,1.059,0.657,1.568c0.345,0.515,0.739,0.925,1.181,1.231
	c0.442,0.307,0.896,0.534,1.361,0.682l0.437-1.152c-0.364-0.115-0.711-0.277-1.041-0.486c-0.33-0.209-0.626-0.509-0.888-0.899
	c-0.213-0.316-0.35-0.643-0.412-0.978c-0.062-0.336-0.054-0.667,0.023-0.995c0.076-0.328,0.218-0.641,0.424-0.939
	c0.207-0.298,0.467-0.569,0.783-0.814L35.843,196.025z M37.125,191.812c0.032,0.295,0.003,0.583-0.084,0.865
	s-0.228,0.55-0.421,0.803s-0.423,0.475-0.688,0.666l-2.501-3.729c0.276-0.165,0.57-0.284,0.884-0.358
	c0.313-0.074,0.622-0.094,0.924-0.061c0.302,0.034,0.588,0.127,0.857,0.28c0.269,0.152,0.502,0.376,0.7,0.67
	C36.984,191.228,37.093,191.516,37.125,191.812z M37.805,203.449c-0.138,0.209-0.214,0.44-0.229,0.694
	c-0.014,0.255,0.036,0.507,0.148,0.756h1.271c-0.064-0.259-0.056-0.491,0.025-0.697c0.081-0.205,0.232-0.396,0.454-0.57l3.066-2.426
	c0.703-0.557,1.073-1.188,1.11-1.895c0.037-0.707-0.266-1.466-0.908-2.277c-0.323-0.408-0.697-0.784-1.124-1.127
	c-0.427-0.344-0.9-0.62-1.419-0.83l-0.541,1.095c0.345,0.15,0.697,0.347,1.057,0.587c0.36,0.241,0.688,0.548,0.983,0.922
	c0.165,0.208,0.297,0.419,0.396,0.634s0.151,0.428,0.156,0.639s-0.047,0.424-0.157,0.638c-0.109,0.214-0.29,0.42-0.542,0.619
	l-0.423,0.335l-2.178-2.098c-0.252-0.238-0.515-0.425-0.789-0.562c-0.274-0.136-0.552-0.218-0.834-0.245
	c-0.282-0.026-0.564,0.003-0.846,0.088s-0.553,0.231-0.813,0.438c-0.312,0.247-0.546,0.527-0.7,0.84
	c-0.155,0.312-0.237,0.643-0.245,0.987c-0.009,0.346,0.052,0.697,0.182,1.053s0.325,0.699,0.586,1.028
	c0.354,0.447,0.738,0.776,1.152,0.988s0.812,0.326,1.192,0.343L37.805,203.449z M40.275,201.219l-1.283,1.015
	c-0.195,0.154-0.406,0.245-0.631,0.272c-0.226,0.026-0.452,0.006-0.678-0.062s-0.445-0.177-0.656-0.327
	c-0.211-0.151-0.397-0.328-0.559-0.532c-0.144-0.183-0.255-0.379-0.333-0.589c-0.078-0.21-0.115-0.419-0.11-0.627
	s0.054-0.409,0.147-0.604c0.094-0.194,0.238-0.368,0.434-0.522c0.169-0.134,0.335-0.218,0.499-0.252s0.327-0.031,0.489,0.01
	c0.163,0.04,0.327,0.116,0.493,0.229c0.167,0.112,0.334,0.249,0.505,0.41L40.275,201.219z M46.728,203.885l1.583,1.747l0.91-0.825
	l-1.583-1.747l2.418-2.189l-1.299-0.705l-2.055,1.861l-1.076-1.188l-0.911,0.825l1.076,1.187l-4.042,3.662
	c-0.267,0.241-0.459,0.483-0.579,0.727c-0.12,0.242-0.174,0.485-0.163,0.729c0.011,0.243,0.082,0.487,0.21,0.732
	c0.129,0.246,0.307,0.493,0.533,0.744c0.119,0.131,0.242,0.258,0.369,0.382s0.245,0.233,0.354,0.329
	c0.127,0.116,0.253,0.227,0.377,0.33l0.804-0.93c-0.053-0.042-0.116-0.093-0.189-0.153c-0.074-0.061-0.146-0.125-0.22-0.193
	c-0.073-0.068-0.142-0.134-0.208-0.198c-0.065-0.063-0.121-0.12-0.165-0.17c-0.167-0.185-0.279-0.349-0.334-0.492
	c-0.056-0.144-0.074-0.274-0.054-0.394c0.02-0.118,0.069-0.227,0.148-0.324c0.079-0.099,0.172-0.195,0.279-0.292L46.728,203.885z
	 M51.39,206.981l-0.983-0.989l-6.019,5.979l0.983,0.989L51.39,206.981z M51.751,204.405c-0.047,0.122-0.071,0.243-0.072,0.364
	s0.022,0.242,0.069,0.364c0.046,0.121,0.117,0.229,0.21,0.323c0.093,0.095,0.2,0.164,0.319,0.209
	c0.119,0.046,0.239,0.068,0.361,0.069c0.121,0,0.243-0.022,0.364-0.069c0.121-0.047,0.229-0.116,0.323-0.21s0.164-0.2,0.209-0.319
	s0.069-0.24,0.072-0.364c0.002-0.123-0.019-0.244-0.063-0.363c-0.044-0.12-0.114-0.227-0.207-0.321
	c-0.094-0.094-0.201-0.165-0.322-0.212c-0.121-0.048-0.243-0.07-0.367-0.069c-0.123,0.002-0.245,0.025-0.364,0.069
	c-0.119,0.045-0.226,0.114-0.32,0.208C51.869,204.176,51.798,204.283,51.751,204.405z M47.457,215.045l1.04,0.93l3.354-3.749
	c0.266-0.297,0.543-0.512,0.834-0.646s0.578-0.204,0.861-0.21s0.554,0.041,0.81,0.141c0.256,0.099,0.483,0.237,0.682,0.414
	c0.181,0.163,0.327,0.343,0.436,0.54c0.109,0.198,0.168,0.41,0.177,0.638c0.008,0.227-0.041,0.468-0.148,0.725
	c-0.107,0.257-0.285,0.523-0.532,0.8l-3.548,3.966l1.04,0.93l3.841-4.293c0.258-0.289,0.459-0.604,0.603-0.942
	c0.144-0.339,0.216-0.687,0.215-1.044c0-0.356-0.081-0.71-0.241-1.062s-0.416-0.685-0.767-0.998c-0.388-0.347-0.8-0.594-1.237-0.739
	c-0.438-0.146-0.895-0.169-1.371-0.068l0.647-0.724l-1.039-0.93L47.457,215.045z M56.549,218.822
	c-0.16,0.479-0.228,0.949-0.203,1.412c0.025,0.462,0.146,0.902,0.362,1.318s0.534,0.782,0.954,1.1
	c0.371,0.279,0.778,0.475,1.223,0.585c0.444,0.109,0.903,0.094,1.377-0.048l-0.97,1.285c-0.196,0.261-0.408,0.453-0.633,0.578
	c-0.226,0.124-0.461,0.188-0.708,0.193c-0.246,0.005-0.504-0.05-0.775-0.164s-0.548-0.278-0.83-0.492
	c-0.23-0.173-0.43-0.349-0.601-0.526s-0.323-0.354-0.457-0.531c-0.133-0.178-0.25-0.351-0.351-0.521
	c-0.101-0.169-0.194-0.335-0.28-0.497l-1.109,0.629c0.12,0.236,0.259,0.468,0.417,0.694c0.158,0.228,0.329,0.444,0.512,0.652
	c0.183,0.207,0.374,0.402,0.571,0.587c0.198,0.184,0.396,0.351,0.595,0.5c0.357,0.271,0.738,0.499,1.142,0.686
	s0.807,0.297,1.211,0.332c0.404,0.034,0.798-0.027,1.183-0.184c0.385-0.156,0.736-0.444,1.053-0.864l5.111-6.771l-1.113-0.841
	l-0.585,0.775c0.006-0.494-0.104-0.94-0.332-1.337c-0.227-0.397-0.526-0.735-0.897-1.016c-0.419-0.317-0.859-0.522-1.319-0.616
	c-0.459-0.094-0.914-0.091-1.364,0.01c-0.451,0.101-0.885,0.295-1.303,0.582c-0.418,0.288-0.795,0.654-1.132,1.101
	S56.709,218.342,56.549,218.822z M61.959,220.996c-0.227,0.3-0.472,0.556-0.735,0.767c-0.263,0.21-0.537,0.357-0.821,0.44
	s-0.577,0.097-0.877,0.039c-0.3-0.057-0.603-0.2-0.908-0.43c-0.309-0.233-0.535-0.49-0.677-0.771
	c-0.142-0.281-0.214-0.573-0.217-0.877s0.058-0.611,0.183-0.923c0.124-0.312,0.298-0.616,0.521-0.912l0.04-0.053
	c0.223-0.296,0.469-0.548,0.736-0.755c0.268-0.207,0.548-0.351,0.841-0.432c0.293-0.08,0.594-0.091,0.902-0.031
	s0.617,0.206,0.927,0.439c0.305,0.23,0.525,0.482,0.663,0.755c0.137,0.273,0.203,0.56,0.2,0.858
	c-0.004,0.299-0.07,0.603-0.199,0.911s-0.308,0.614-0.538,0.92L61.959,220.996z M70.4,231.063c-0.055,0.245-0.043,0.488,0.035,0.73
	c0.078,0.243,0.214,0.46,0.409,0.653l1.187-0.455c-0.153-0.219-0.228-0.439-0.226-0.66c0.002-0.221,0.075-0.452,0.219-0.694
	l1.995-3.363c0.457-0.771,0.577-1.492,0.358-2.166c-0.218-0.673-0.772-1.273-1.663-1.802c-0.447-0.266-0.932-0.482-1.453-0.649
	c-0.521-0.168-1.062-0.257-1.622-0.268l-0.113,1.216c0.376,0.018,0.775,0.074,1.197,0.17c0.422,0.097,0.838,0.266,1.248,0.509
	c0.229,0.136,0.427,0.285,0.597,0.45c0.169,0.165,0.294,0.345,0.374,0.541c0.08,0.195,0.107,0.412,0.082,0.651
	s-0.121,0.496-0.284,0.772l-0.275,0.464l-2.785-1.18c-0.321-0.132-0.633-0.213-0.938-0.242s-0.593-0.006-0.867,0.07
	s-0.526,0.204-0.759,0.385s-0.434,0.413-0.603,0.699c-0.203,0.342-0.321,0.688-0.354,1.035s0.009,0.684,0.125,1.01
	c0.116,0.326,0.297,0.632,0.546,0.918c0.249,0.285,0.554,0.536,0.916,0.75c0.49,0.291,0.967,0.461,1.43,0.511
	s0.875,0.014,1.236-0.106L70.4,231.063z M71.909,228.098l-0.834,1.406c-0.127,0.214-0.292,0.374-0.492,0.479
	c-0.202,0.106-0.42,0.168-0.656,0.186s-0.479-0.006-0.73-0.071c-0.25-0.064-0.488-0.164-0.711-0.297
	c-0.2-0.118-0.374-0.262-0.522-0.43s-0.257-0.351-0.327-0.547c-0.07-0.195-0.097-0.401-0.079-0.615
	c0.018-0.215,0.09-0.43,0.217-0.644c0.11-0.186,0.235-0.323,0.376-0.414c0.141-0.09,0.294-0.146,0.46-0.166s0.347-0.008,0.542,0.037
	s0.401,0.112,0.618,0.203L71.909,228.098z M79.575,231.943c0.176-0.389,0.391-0.734,0.645-1.038
	c0.254-0.305,0.533-0.544,0.837-0.719s0.631-0.275,0.98-0.303c0.35-0.026,0.711,0.045,1.083,0.214
	c0.242,0.11,0.45,0.246,0.623,0.406c0.173,0.161,0.315,0.336,0.427,0.526c0.111,0.19,0.195,0.395,0.251,0.611
	c0.057,0.217,0.091,0.438,0.104,0.663l1.333-0.124c-0.008-0.332-0.062-0.656-0.165-0.973c-0.103-0.317-0.249-0.613-0.44-0.889
	s-0.423-0.526-0.697-0.754s-0.584-0.42-0.932-0.578c-0.534-0.243-1.064-0.363-1.591-0.362c-0.526,0.001-1.026,0.108-1.5,0.321
	c-0.474,0.214-0.908,0.527-1.302,0.94c-0.395,0.413-0.726,0.915-0.994,1.504c-0.265,0.585-0.423,1.16-0.474,1.727
	c-0.051,0.567,0,1.099,0.151,1.596c0.151,0.497,0.399,0.944,0.745,1.341c0.345,0.397,0.785,0.717,1.319,0.96
	c0.348,0.157,0.697,0.265,1.048,0.321c0.351,0.056,0.693,0.065,1.026,0.028c0.333-0.037,0.652-0.121,0.958-0.253
	c0.306-0.132,0.586-0.304,0.841-0.517l-0.783-1.085c-0.178,0.138-0.368,0.257-0.568,0.357s-0.409,0.171-0.625,0.213
	c-0.216,0.041-0.442,0.05-0.677,0.025c-0.235-0.025-0.474-0.092-0.715-0.202c-0.373-0.169-0.664-0.395-0.874-0.675
	s-0.349-0.593-0.417-0.938c-0.069-0.344-0.072-0.712-0.01-1.103c0.062-0.392,0.182-0.781,0.358-1.169L79.575,231.943z
	 M94.568,233.448l-1.312-0.471l-1.7,4.733c-0.135,0.375-0.308,0.681-0.519,0.917c-0.211,0.235-0.443,0.411-0.696,0.525
	c-0.253,0.115-0.52,0.174-0.8,0.176c-0.28,0.003-0.556-0.045-0.826-0.142c-0.229-0.083-0.432-0.195-0.606-0.337
	c-0.175-0.143-0.31-0.317-0.403-0.524s-0.139-0.448-0.137-0.724s0.067-0.591,0.194-0.945l1.799-5.007l-1.312-0.472l-1.947,5.422
	c-0.131,0.364-0.2,0.73-0.206,1.099c-0.006,0.369,0.059,0.718,0.193,1.049c0.134,0.33,0.341,0.628,0.623,0.894
	c0.281,0.266,0.643,0.478,1.085,0.637c0.489,0.176,0.964,0.25,1.424,0.221c0.46-0.028,0.892-0.18,1.296-0.452l-0.329,0.914
	l1.312,0.472L94.568,233.448z M94.921,240.831c-0.085,0.292-0.111,0.553-0.08,0.78c0.032,0.229,0.107,0.43,0.227,0.603
	s0.278,0.318,0.474,0.436s0.414,0.211,0.653,0.28c0.144,0.042,0.296,0.08,0.459,0.116c0.163,0.035,0.312,0.067,0.448,0.096
	c0.159,0.028,0.317,0.058,0.476,0.086l0.191-1.163c-0.109-0.021-0.235-0.045-0.376-0.074c-0.141-0.03-0.297-0.069-0.467-0.119
	c-0.154-0.044-0.278-0.099-0.372-0.164c-0.094-0.064-0.16-0.14-0.198-0.226s-0.055-0.183-0.049-0.291
	c0.005-0.107,0.027-0.229,0.066-0.361l2.789-9.605l-1.339-0.389L94.921,240.831z M103.049,237.038l2.293,0.545l0.284-1.195
	l-2.293-0.545l0.754-3.174l-1.47,0.154l-0.641,2.697l-1.559-0.371l-0.284,1.195l1.559,0.371l-1.261,5.306
	c-0.083,0.35-0.105,0.659-0.067,0.927s0.132,0.499,0.279,0.693c0.147,0.194,0.343,0.356,0.589,0.485
	c0.245,0.129,0.532,0.233,0.86,0.312c0.172,0.04,0.346,0.076,0.521,0.106s0.334,0.054,0.478,0.07
	c0.17,0.023,0.336,0.043,0.498,0.059l0.137-1.222c-0.067-0.004-0.148-0.011-0.243-0.019c-0.095-0.009-0.191-0.021-0.29-0.035
	c-0.099-0.015-0.193-0.03-0.284-0.046c-0.09-0.016-0.167-0.031-0.232-0.047c-0.242-0.058-0.427-0.13-0.554-0.217
	s-0.216-0.186-0.267-0.294s-0.071-0.227-0.062-0.352c0.01-0.126,0.032-0.259,0.065-0.398L103.049,237.038z M113.767,237.806
	l-1.376-0.226l-0.816,4.963c-0.065,0.394-0.18,0.725-0.345,0.995s-0.361,0.484-0.589,0.644c-0.228,0.158-0.48,0.265-0.755,0.317
	s-0.555,0.056-0.838,0.009c-0.24-0.039-0.459-0.113-0.658-0.222s-0.362-0.256-0.491-0.442c-0.129-0.187-0.218-0.415-0.266-0.687
	s-0.041-0.593,0.02-0.965l0.863-5.25l-1.376-0.227l-0.935,5.685c-0.062,0.382-0.064,0.755-0.003,1.118
	c0.061,0.363,0.187,0.695,0.379,0.996c0.191,0.301,0.45,0.557,0.774,0.767c0.324,0.211,0.718,0.354,1.183,0.431
	c0.513,0.084,0.994,0.07,1.441-0.041s0.845-0.338,1.193-0.679l-0.158,0.958l1.376,0.227L113.767,237.806z M120.542,238.327
	l-0.405-0.039c-0.264-0.024-0.527-0.02-0.79,0.018c-0.262,0.036-0.51,0.105-0.745,0.208c-0.235,0.104-0.449,0.24-0.643,0.41
	c-0.194,0.171-0.355,0.375-0.483,0.613l0.127-1.339l-1.389-0.132l-0.8,8.445l1.389,0.132l0.41-4.33
	c0.055-0.578,0.174-1.047,0.358-1.404c0.184-0.357,0.41-0.632,0.678-0.823s0.569-0.313,0.902-0.365
	c0.333-0.052,0.678-0.061,1.036-0.027l0.223,0.021L120.542,238.327z M128.697,243.454l0.013-0.44
	c0.019-0.636-0.048-1.226-0.201-1.771c-0.153-0.544-0.381-1.016-0.685-1.415s-0.676-0.715-1.118-0.947
	c-0.441-0.231-0.941-0.355-1.5-0.372c-0.576-0.018-1.102,0.076-1.578,0.281c-0.477,0.204-0.89,0.497-1.238,0.877
	c-0.349,0.38-0.625,0.837-0.826,1.37c-0.201,0.534-0.312,1.124-0.331,1.771c-0.019,0.637,0.058,1.227,0.229,1.771
	s0.428,1.018,0.768,1.418s0.755,0.718,1.247,0.95c0.491,0.233,1.044,0.359,1.658,0.378c0.619,0.019,1.182-0.063,1.688-0.245
	c0.507-0.182,0.955-0.418,1.346-0.711l-0.684-1.025c-0.306,0.229-0.639,0.417-1.001,0.563c-0.361,0.147-0.777,0.214-1.247,0.2
	c-0.382-0.012-0.727-0.09-1.035-0.234c-0.309-0.145-0.574-0.344-0.796-0.597s-0.395-0.55-0.518-0.892
	c-0.123-0.341-0.192-0.711-0.208-1.11L128.697,243.454z M126.015,239.961c0.258,0.146,0.477,0.337,0.655,0.572
	c0.179,0.234,0.314,0.505,0.408,0.809c0.093,0.305,0.141,0.62,0.142,0.947l-4.489-0.134c0.026-0.32,0.1-0.629,0.223-0.928
	c0.122-0.298,0.285-0.56,0.488-0.786s0.445-0.405,0.726-0.535s0.598-0.189,0.952-0.18
	C125.458,239.738,125.756,239.816,126.015,239.961z M135.832,238.642c-0.459,0.257-0.844,0.594-1.154,1.011
	c-0.31,0.417-0.536,0.901-0.68,1.455c-0.144,0.553-0.188,1.152-0.136,1.798c0.052,0.634,0.193,1.212,0.426,1.734
	c0.231,0.522,0.534,0.964,0.908,1.325c0.373,0.36,0.808,0.63,1.303,0.809s1.035,0.244,1.619,0.196c0.585-0.048,1.108-0.2,1.57-0.458
	c0.462-0.257,0.847-0.594,1.153-1.011c0.308-0.416,0.533-0.901,0.677-1.454c0.144-0.554,0.188-1.147,0.137-1.781
	c-0.053-0.646-0.195-1.229-0.427-1.752s-0.533-0.964-0.904-1.325c-0.371-0.36-0.806-0.63-1.303-0.809
	c-0.498-0.179-1.039-0.244-1.624-0.196C136.813,238.232,136.291,238.385,135.832,238.642z M136.935,245.589
	c-0.319-0.144-0.595-0.35-0.825-0.62c-0.23-0.27-0.413-0.589-0.549-0.958s-0.221-0.761-0.255-1.175l-0.008-0.099
	c-0.035-0.425-0.016-0.832,0.058-1.221c0.074-0.39,0.202-0.734,0.386-1.035c0.184-0.302,0.422-0.549,0.714-0.742
	s0.64-0.307,1.042-0.339c0.403-0.033,0.765,0.021,1.084,0.165c0.32,0.143,0.595,0.348,0.825,0.615
	c0.23,0.267,0.413,0.586,0.549,0.958c0.137,0.372,0.222,0.771,0.257,1.195l0.008,0.1c0.034,0.413,0.014,0.813-0.06,1.199
	c-0.074,0.387-0.202,0.732-0.386,1.036s-0.421,0.552-0.713,0.745c-0.293,0.193-0.641,0.307-1.043,0.34
	S137.255,245.732,136.935,245.589z M144.897,236.15c-0.02-0.132-0.024-0.259-0.015-0.384c0.01-0.124,0.044-0.238,0.104-0.343
	c0.06-0.104,0.148-0.194,0.266-0.271s0.274-0.129,0.472-0.158c0.065-0.01,0.151-0.02,0.256-0.029s0.214-0.021,0.327-0.032
	c0.112-0.011,0.224-0.019,0.332-0.023s0.204-0.011,0.287-0.018l-0.069-1.198c-0.112,0-0.282,0.001-0.512,0.005
	c-0.229,0.003-0.513,0.029-0.852,0.08c-0.334,0.05-0.637,0.13-0.909,0.24c-0.271,0.11-0.498,0.258-0.681,0.444
	c-0.182,0.187-0.312,0.415-0.39,0.684c-0.077,0.269-0.089,0.584-0.035,0.945l0.231,1.56l-1.396,0.208l0.181,1.215l1.396-0.207
	l1.066,7.176l1.379-0.205l-1.065-7.176l1.666-0.248l-0.181-1.215l-1.666,0.247L144.897,236.15z M158.821,243.24l1.354-0.336
	l-2.867-11.553l-1.354,0.336l1.058,4.262c-0.326-0.278-0.722-0.466-1.188-0.561c-0.465-0.096-0.964-0.077-1.495,0.055
	c-0.532,0.132-0.986,0.357-1.363,0.676c-0.377,0.319-0.672,0.707-0.883,1.164c-0.212,0.458-0.334,0.969-0.368,1.532
	c-0.034,0.564,0.026,1.158,0.181,1.781c0.155,0.623,0.379,1.175,0.672,1.655s0.64,0.872,1.04,1.175s0.841,0.507,1.323,0.612
	s0.989,0.092,1.521-0.04c0.531-0.132,0.98-0.349,1.348-0.651c0.367-0.302,0.63-0.651,0.787-1.05L158.821,243.24z M153.286,240.199
	c-0.107-0.429-0.155-0.842-0.146-1.238c0.01-0.396,0.081-0.754,0.213-1.074c0.131-0.32,0.322-0.595,0.574-0.822
	c0.251-0.228,0.567-0.39,0.948-0.483c0.36-0.09,0.691-0.106,0.993-0.05c0.302,0.056,0.57,0.169,0.807,0.338
	c0.235,0.17,0.436,0.39,0.6,0.66c0.164,0.27,0.289,0.577,0.374,0.92l0.332,1.338c0.085,0.344,0.118,0.673,0.1,0.988
	s-0.093,0.604-0.222,0.863c-0.13,0.261-0.314,0.486-0.555,0.677c-0.241,0.191-0.541,0.331-0.9,0.42
	c-0.382,0.095-0.736,0.101-1.065,0.017s-0.626-0.236-0.893-0.459c-0.266-0.222-0.496-0.505-0.689-0.851
	c-0.194-0.345-0.345-0.732-0.451-1.162L153.286,240.199z M159.689,231.999c0.085,0.098,0.182,0.175,0.29,0.23
	c0.107,0.057,0.226,0.092,0.354,0.106c0.13,0.015,0.258,0.002,0.384-0.038c0.127-0.04,0.238-0.103,0.333-0.188
	c0.096-0.085,0.171-0.182,0.227-0.289c0.057-0.107,0.092-0.226,0.106-0.355c0.015-0.129,0.002-0.257-0.038-0.384
	c-0.04-0.126-0.103-0.237-0.188-0.332c-0.085-0.096-0.182-0.172-0.29-0.231c-0.108-0.059-0.226-0.096-0.353-0.11
	c-0.127-0.016-0.253-0.003-0.38,0.036c-0.127,0.04-0.239,0.104-0.337,0.188c-0.098,0.086-0.174,0.185-0.229,0.295
	c-0.056,0.109-0.091,0.229-0.105,0.354c-0.016,0.127-0.003,0.254,0.036,0.38C159.54,231.789,159.604,231.902,159.689,231.999z
	 M161.811,233.503l-1.33,0.418l2.545,8.093l1.33-0.418L161.811,233.503z M165.867,237.828c0.321,0.39,0.685,0.696,1.09,0.92
	c0.406,0.225,0.843,0.355,1.31,0.393c0.468,0.038,0.947-0.037,1.438-0.226c0.434-0.166,0.815-0.408,1.144-0.726
	c0.329-0.318,0.559-0.716,0.69-1.193l0.575,1.505c0.117,0.305,0.168,0.586,0.154,0.843c-0.015,0.257-0.085,0.491-0.212,0.703
	c-0.126,0.211-0.31,0.401-0.55,0.57c-0.241,0.169-0.526,0.316-0.857,0.443c-0.269,0.103-0.523,0.18-0.765,0.23
	c-0.242,0.051-0.473,0.085-0.693,0.104s-0.43,0.026-0.627,0.022c-0.197-0.005-0.388-0.014-0.57-0.026l-0.055,1.273
	c0.264,0.023,0.533,0.028,0.81,0.015s0.551-0.043,0.824-0.088c0.272-0.046,0.54-0.103,0.801-0.173
	c0.26-0.07,0.507-0.149,0.739-0.238c0.419-0.16,0.814-0.362,1.187-0.604c0.372-0.243,0.68-0.527,0.923-0.852
	c0.243-0.323,0.401-0.69,0.473-1.1c0.071-0.41,0.014-0.86-0.175-1.352l-3.029-7.924l-1.303,0.498l0.347,0.907
	c-0.416-0.268-0.853-0.41-1.31-0.428s-0.903,0.057-1.337,0.223c-0.491,0.188-0.898,0.451-1.222,0.791s-0.562,0.728-0.716,1.162
	c-0.153,0.436-0.219,0.906-0.197,1.413c0.022,0.507,0.133,1.021,0.333,1.544C165.286,236.983,165.547,237.438,165.867,237.828z
	 M170.58,234.395c0.135,0.352,0.222,0.695,0.261,1.029c0.039,0.335,0.018,0.645-0.062,0.931c-0.08,0.285-0.225,0.54-0.432,0.765
	s-0.489,0.405-0.846,0.541c-0.362,0.139-0.699,0.193-1.013,0.165s-0.6-0.122-0.858-0.28c-0.259-0.159-0.487-0.373-0.686-0.645
	c-0.199-0.271-0.364-0.579-0.497-0.926l-0.023-0.062c-0.132-0.347-0.216-0.688-0.249-1.024c-0.034-0.337-0.008-0.65,0.08-0.941
	c0.087-0.291,0.237-0.552,0.451-0.781c0.215-0.23,0.503-0.415,0.864-0.553c0.356-0.137,0.688-0.19,0.991-0.161
	c0.305,0.028,0.582,0.124,0.834,0.285c0.251,0.161,0.474,0.379,0.667,0.651s0.357,0.588,0.494,0.944L170.58,234.395z
	 M171.705,227.519c0.097,0.086,0.202,0.151,0.315,0.193c0.114,0.043,0.235,0.064,0.365,0.062c0.131-0.001,0.256-0.029,0.377-0.084
	s0.224-0.13,0.308-0.226s0.147-0.2,0.19-0.314c0.043-0.113,0.063-0.235,0.062-0.365s-0.029-0.256-0.084-0.377
	c-0.055-0.12-0.131-0.223-0.227-0.308c-0.096-0.084-0.201-0.148-0.315-0.193c-0.114-0.046-0.235-0.068-0.363-0.068
	s-0.252,0.027-0.373,0.082c-0.121,0.056-0.225,0.131-0.312,0.229c-0.087,0.097-0.15,0.203-0.192,0.319
	c-0.041,0.116-0.062,0.237-0.062,0.365s0.028,0.252,0.083,0.373S171.608,227.432,171.705,227.519z M173.992,228.756l-1.27,0.575
	l3.5,7.728l1.271-0.575L173.992,228.756z M178.756,227.799l2.1-1.071l-0.558-1.095l-2.101,1.071l-1.482-2.905l-1.02,1.07l1.26,2.469
	l-1.427,0.729l0.559,1.095l1.427-0.729l2.479,4.857c0.164,0.32,0.348,0.57,0.551,0.749c0.203,0.18,0.424,0.295,0.661,0.348
	c0.238,0.053,0.492,0.049,0.763-0.012s0.557-0.168,0.857-0.321c0.157-0.08,0.312-0.166,0.466-0.256
	c0.152-0.091,0.289-0.176,0.409-0.256c0.146-0.093,0.284-0.186,0.418-0.278l-0.688-1.019c-0.054,0.04-0.119,0.088-0.197,0.143
	c-0.077,0.055-0.158,0.108-0.243,0.161s-0.167,0.103-0.246,0.149c-0.079,0.046-0.147,0.084-0.207,0.114
	c-0.222,0.113-0.409,0.178-0.562,0.194c-0.153,0.016-0.284-0.001-0.394-0.051s-0.201-0.126-0.275-0.228
	c-0.073-0.103-0.144-0.218-0.209-0.346L178.756,227.799z M189.832,228.963c0.189,0.165,0.408,0.271,0.659,0.317
	c0.25,0.047,0.507,0.03,0.769-0.049l0.166-1.26c-0.267,0.03-0.495-0.009-0.688-0.115c-0.193-0.107-0.362-0.282-0.507-0.524
	l-2.007-3.355c-0.46-0.77-1.038-1.218-1.734-1.347c-0.695-0.129-1.487,0.072-2.376,0.604c-0.446,0.268-0.867,0.59-1.264,0.969
	c-0.396,0.379-0.731,0.812-1.007,1.299l1.016,0.679c0.193-0.322,0.434-0.646,0.719-0.972c0.286-0.325,0.633-0.61,1.042-0.854
	c0.228-0.137,0.454-0.24,0.68-0.311s0.443-0.094,0.653-0.071s0.414,0.102,0.612,0.238c0.197,0.137,0.379,0.343,0.543,0.618
	l0.277,0.463l-2.363,1.888c-0.269,0.219-0.488,0.455-0.659,0.708c-0.171,0.254-0.288,0.52-0.352,0.796s-0.071,0.56-0.022,0.851
	c0.048,0.29,0.157,0.578,0.327,0.862c0.205,0.343,0.452,0.61,0.742,0.805c0.29,0.193,0.605,0.317,0.947,0.371
	s0.697,0.039,1.067-0.043c0.369-0.083,0.735-0.232,1.096-0.448c0.489-0.292,0.866-0.63,1.13-1.014s0.429-0.763,0.495-1.138
	L189.832,228.963z M187.943,226.225l0.839,1.403c0.128,0.214,0.19,0.434,0.188,0.661s-0.052,0.449-0.148,0.665
	s-0.233,0.418-0.41,0.607s-0.377,0.352-0.601,0.485c-0.199,0.119-0.408,0.203-0.626,0.254c-0.219,0.05-0.431,0.059-0.637,0.027
	c-0.206-0.032-0.399-0.106-0.579-0.225c-0.181-0.118-0.334-0.283-0.462-0.497c-0.111-0.186-0.173-0.361-0.186-0.528
	c-0.012-0.166,0.013-0.327,0.073-0.483c0.062-0.156,0.159-0.31,0.291-0.46c0.133-0.149,0.291-0.299,0.473-0.446L187.943,226.225z
	 M192.813,226.202c0.172,0.252,0.355,0.438,0.552,0.559s0.398,0.19,0.608,0.208c0.21,0.019,0.423-0.012,0.639-0.088
	c0.215-0.076,0.426-0.185,0.632-0.325c0.123-0.084,0.251-0.178,0.382-0.28s0.25-0.197,0.358-0.284
	c0.123-0.104,0.247-0.208,0.37-0.312l-0.775-0.888c-0.086,0.071-0.185,0.152-0.297,0.242c-0.113,0.091-0.242,0.186-0.389,0.285
	c-0.133,0.09-0.254,0.151-0.363,0.182c-0.109,0.031-0.21,0.034-0.301,0.009c-0.091-0.024-0.176-0.074-0.256-0.146
	c-0.079-0.073-0.158-0.167-0.236-0.281l-5.63-8.268l-1.153,0.785L192.813,226.202z M204.609,219.175l1.077-0.886l-7.556-9.197
	l-1.077,0.885l2.787,3.394c-0.414-0.111-0.852-0.11-1.312,0.004c-0.462,0.114-0.904,0.345-1.327,0.692
	c-0.424,0.348-0.737,0.747-0.94,1.197c-0.203,0.449-0.302,0.927-0.296,1.431c0.005,0.503,0.114,1.018,0.326,1.541
	c0.212,0.524,0.521,1.034,0.93,1.53c0.407,0.496,0.847,0.898,1.317,1.206c0.472,0.308,0.953,0.512,1.444,0.613
	c0.491,0.101,0.978,0.096,1.458-0.017s0.933-0.342,1.356-0.689c0.423-0.349,0.735-0.737,0.937-1.168
	c0.202-0.43,0.288-0.859,0.259-1.287L204.609,219.175z M198.305,218.811c-0.281-0.342-0.502-0.694-0.663-1.056
	c-0.161-0.362-0.251-0.716-0.271-1.062s0.036-0.676,0.165-0.989c0.129-0.314,0.345-0.596,0.648-0.845
	c0.287-0.235,0.578-0.393,0.875-0.472s0.588-0.093,0.874-0.041s0.561,0.164,0.825,0.337c0.264,0.174,0.509,0.397,0.733,0.671
	l0.875,1.064c0.225,0.273,0.396,0.557,0.515,0.85c0.119,0.293,0.176,0.585,0.171,0.875s-0.075,0.573-0.21,0.85
	c-0.135,0.275-0.346,0.531-0.633,0.767c-0.303,0.249-0.621,0.406-0.954,0.473c-0.333,0.065-0.667,0.056-1.003-0.031
	c-0.335-0.085-0.665-0.242-0.988-0.471c-0.324-0.229-0.626-0.514-0.907-0.855L198.305,218.811z M210.357,208.608l-0.306-0.316
	c-0.443-0.456-0.914-0.819-1.411-1.089c-0.496-0.27-0.994-0.435-1.492-0.495c-0.498-0.06-0.983-0.013-1.458,0.143
	c-0.474,0.155-0.911,0.428-1.312,0.817c-0.413,0.4-0.712,0.844-0.897,1.328c-0.185,0.484-0.263,0.984-0.233,1.499
	s0.166,1.03,0.408,1.547c0.243,0.517,0.59,1.007,1.041,1.472c0.443,0.456,0.92,0.812,1.431,1.069
	c0.511,0.256,1.028,0.401,1.553,0.437c0.523,0.035,1.04-0.042,1.55-0.232c0.51-0.189,0.984-0.499,1.426-0.927
	c0.444-0.432,0.778-0.893,1.001-1.382c0.223-0.49,0.364-0.977,0.427-1.461l-1.212-0.224c-0.049,0.379-0.146,0.749-0.293,1.11
	c-0.146,0.362-0.388,0.707-0.726,1.034c-0.273,0.267-0.57,0.459-0.889,0.58c-0.319,0.12-0.646,0.172-0.982,0.155
	c-0.337-0.017-0.67-0.1-1-0.25c-0.331-0.149-0.645-0.357-0.942-0.624L210.357,208.608z M205.983,208.099
	c0.285-0.084,0.574-0.107,0.867-0.072c0.293,0.036,0.581,0.126,0.864,0.271s0.543,0.331,0.778,0.558l-3.223,3.128
	c-0.211-0.242-0.382-0.511-0.51-0.807c-0.129-0.295-0.204-0.595-0.225-0.898c-0.021-0.304,0.02-0.602,0.122-0.894
	c0.102-0.292,0.28-0.561,0.534-0.808C205.435,208.342,205.698,208.183,205.983,208.099z M213.458,208.618
	c0.225,0.205,0.446,0.344,0.665,0.416s0.433,0.093,0.641,0.062c0.208-0.031,0.408-0.109,0.601-0.233
	c0.191-0.124,0.372-0.278,0.54-0.462c0.101-0.11,0.203-0.23,0.307-0.36c0.104-0.131,0.198-0.25,0.283-0.359
	c0.096-0.13,0.192-0.26,0.288-0.39l-0.959-0.685c-0.066,0.089-0.145,0.19-0.233,0.304c-0.089,0.114-0.193,0.236-0.312,0.367
	c-0.108,0.118-0.212,0.205-0.312,0.261c-0.099,0.056-0.195,0.081-0.29,0.077c-0.094-0.003-0.188-0.031-0.283-0.084
	c-0.094-0.052-0.192-0.125-0.295-0.219l-7.385-6.745l-0.94,1.029L213.458,208.618z M209.588,199.353
	c0.125,0.037,0.248,0.05,0.369,0.04c0.12-0.01,0.239-0.044,0.356-0.101s0.219-0.136,0.304-0.237
	c0.086-0.102,0.146-0.214,0.182-0.336c0.035-0.123,0.047-0.244,0.037-0.365s-0.044-0.24-0.101-0.357
	c-0.057-0.116-0.136-0.218-0.237-0.304s-0.213-0.146-0.336-0.182c-0.123-0.034-0.245-0.048-0.368-0.04
	c-0.123,0.009-0.242,0.04-0.357,0.095s-0.216,0.133-0.302,0.234s-0.147,0.215-0.184,0.34c-0.037,0.124-0.049,0.248-0.037,0.371
	c0.013,0.122,0.046,0.241,0.101,0.356s0.133,0.216,0.234,0.302S209.463,199.316,209.588,199.353z M212.186,199.49l-0.901,1.064
	l6.477,5.48l0.9-1.064L212.186,199.49z M222.755,199.788l-5.138-7.267l-0.958,1.264l4.507,5.955l-6.958-2.72l-0.957,1.264
	l8.386,2.979L222.755,199.788z M226.124,188.03l-0.369-0.239c-0.534-0.345-1.074-0.593-1.619-0.743
	c-0.545-0.151-1.066-0.2-1.565-0.146c-0.499,0.053-0.962,0.209-1.389,0.467s-0.792,0.622-1.095,1.092
	c-0.312,0.483-0.504,0.981-0.575,1.495c-0.072,0.515-0.035,1.019,0.109,1.514s0.394,0.967,0.746,1.416
	c0.353,0.448,0.801,0.848,1.345,1.199c0.535,0.345,1.08,0.585,1.635,0.72c0.556,0.135,1.093,0.16,1.611,0.076
	c0.518-0.084,1.004-0.275,1.458-0.575s0.847-0.708,1.181-1.224c0.336-0.521,0.557-1.045,0.664-1.572
	c0.106-0.527,0.136-1.034,0.087-1.52l-1.231,0.055c0.038,0.38,0.026,0.763-0.034,1.148c-0.062,0.386-0.22,0.775-0.475,1.171
	c-0.207,0.32-0.452,0.576-0.736,0.765c-0.283,0.189-0.591,0.313-0.922,0.373c-0.332,0.06-0.675,0.053-1.031-0.019
	c-0.355-0.071-0.708-0.203-1.058-0.396L226.124,188.03z M221.748,188.519c0.259-0.146,0.535-0.234,0.828-0.266
	c0.294-0.031,0.595-0.008,0.903,0.069c0.31,0.078,0.604,0.2,0.884,0.368l-2.436,3.772c-0.261-0.188-0.486-0.411-0.679-0.67
	c-0.191-0.259-0.332-0.534-0.421-0.825s-0.116-0.59-0.082-0.897s0.146-0.61,0.339-0.908
	C221.268,188.879,221.489,188.664,221.748,188.519z M225.061,180.005l-0.196,0.355c-0.129,0.232-0.229,0.476-0.301,0.73
	s-0.107,0.51-0.106,0.767c0,0.256,0.04,0.508,0.118,0.753c0.079,0.247,0.201,0.476,0.368,0.688l-1.176-0.651l-0.676,1.22l7.42,4.111
	l0.676-1.22l-3.804-2.108c-0.509-0.281-0.89-0.578-1.145-0.89c-0.254-0.312-0.415-0.629-0.483-0.951s-0.06-0.646,0.026-0.973
	c0.086-0.325,0.216-0.646,0.39-0.961l0.108-0.195L225.061,180.005z M234.647,180.734l0.317,0.242
	c0.239,0.193,0.383,0.395,0.43,0.604c0.048,0.21,0.007,0.452-0.124,0.727c-0.059,0.125-0.122,0.245-0.189,0.36
	c-0.066,0.115-0.13,0.217-0.19,0.305c-0.069,0.108-0.138,0.207-0.205,0.298l1.014,0.71c0.158-0.23,0.303-0.453,0.432-0.668
	c0.129-0.214,0.243-0.426,0.343-0.636c0.111-0.235,0.197-0.468,0.257-0.696c0.06-0.229,0.079-0.454,0.059-0.675
	c-0.021-0.222-0.085-0.44-0.193-0.657s-0.278-0.432-0.508-0.645l-7.496-6.974l-0.669,1.409l5.477,4.803l-7.227-1.112l-0.676,1.425
	L234.647,180.734z M85.903,20.951c-0.595-0.678-1.262-1.184-2.001-1.52s-1.545-0.489-2.415-0.462
	c-0.871,0.028-1.801,0.268-2.79,0.719l-4.089,1.861l5.804,12.745l4.088-1.862c0.989-0.45,1.781-0.994,2.374-1.633
	s1.005-1.347,1.237-2.125s0.288-1.613,0.168-2.507c-0.121-0.893-0.398-1.816-0.833-2.771C87.013,22.444,86.498,21.628,85.903,20.951
	z M85.884,24.42c0.303,0.664,0.503,1.324,0.602,1.98s0.075,1.276-0.07,1.861c-0.145,0.584-0.427,1.12-0.845,1.607
	s-0.992,0.897-1.721,1.229l-2.488,1.133l-4.573-10.043l2.488-1.133c0.729-0.332,1.415-0.494,2.059-0.487
	c0.644,0.008,1.233,0.148,1.77,0.423c0.537,0.274,1.02,0.664,1.45,1.169c0.431,0.506,0.797,1.09,1.099,1.754L85.884,24.42z
	 M88.134,17.504c0.105,0.111,0.223,0.197,0.352,0.259s0.27,0.098,0.423,0.108c0.152,0.012,0.302-0.009,0.449-0.062
	c0.147-0.052,0.274-0.13,0.383-0.234s0.192-0.221,0.254-0.35s0.098-0.27,0.108-0.423c0.012-0.152-0.009-0.302-0.062-0.449
	c-0.052-0.147-0.131-0.274-0.234-0.383c-0.104-0.108-0.222-0.194-0.352-0.259c-0.13-0.063-0.27-0.103-0.419-0.115
	c-0.149-0.012-0.298,0.008-0.445,0.061s-0.276,0.131-0.388,0.236s-0.196,0.224-0.257,0.355c-0.06,0.133-0.097,0.273-0.108,0.423
	c-0.013,0.149,0.008,0.298,0.06,0.445C87.95,17.264,88.029,17.394,88.134,17.504z M90.695,19.179l-1.546,0.551l3.349,9.401
	l1.545-0.55L90.695,19.179z M95.375,24.146c0.332,0.492,0.723,0.893,1.173,1.201c0.449,0.308,0.946,0.51,1.489,0.605
	c0.544,0.097,1.113,0.062,1.709-0.103c0.527-0.146,1.001-0.386,1.422-0.722s0.734-0.775,0.942-1.319l0.505,1.826
	c0.103,0.37,0.131,0.705,0.085,1.004c-0.045,0.3-0.154,0.566-0.326,0.8s-0.408,0.436-0.709,0.606s-0.651,0.312-1.053,0.423
	c-0.326,0.09-0.634,0.151-0.922,0.184s-0.562,0.048-0.823,0.046c-0.261-0.003-0.507-0.018-0.737-0.045s-0.452-0.06-0.664-0.095
	l-0.207,1.485c0.306,0.058,0.621,0.094,0.946,0.108s0.65,0.011,0.975-0.011c0.325-0.022,0.644-0.061,0.957-0.113
	c0.312-0.053,0.61-0.118,0.893-0.195c0.509-0.141,0.994-0.333,1.457-0.575c0.464-0.243,0.855-0.541,1.177-0.893
	c0.321-0.353,0.547-0.765,0.677-1.236s0.112-1.005-0.053-1.602l-2.659-9.619l-1.581,0.437l0.305,1.102
	c-0.458-0.359-0.953-0.575-1.486-0.647s-1.063-0.035-1.591,0.11c-0.597,0.165-1.103,0.428-1.52,0.79
	c-0.416,0.361-0.739,0.788-0.968,1.28s-0.358,1.036-0.39,1.633c-0.031,0.596,0.041,1.211,0.216,1.845
	C94.789,23.09,95.042,23.654,95.375,24.146z M101.278,20.655c0.118,0.427,0.182,0.838,0.189,1.234
	c0.009,0.396-0.051,0.757-0.177,1.082s-0.323,0.608-0.592,0.848c-0.268,0.239-0.618,0.419-1.051,0.539
	c-0.439,0.121-0.841,0.147-1.204,0.079s-0.688-0.21-0.974-0.425c-0.286-0.215-0.53-0.491-0.731-0.831
	c-0.202-0.339-0.361-0.719-0.478-1.14l-0.021-0.075c-0.116-0.42-0.176-0.829-0.178-1.228s0.064-0.763,0.199-1.094
	s0.341-0.619,0.617-0.864s0.635-0.429,1.074-0.551c0.433-0.119,0.826-0.146,1.179-0.077c0.354,0.067,0.668,0.21,0.944,0.428
	s0.512,0.497,0.708,0.838c0.195,0.341,0.354,0.728,0.473,1.161L101.278,20.655z M104.338,12.869
	c0.088,0.125,0.191,0.228,0.311,0.307c0.118,0.079,0.252,0.136,0.402,0.168c0.148,0.034,0.3,0.035,0.453,0.004
	c0.153-0.03,0.291-0.089,0.413-0.177s0.223-0.19,0.302-0.31c0.079-0.118,0.135-0.253,0.168-0.402s0.035-0.301,0.004-0.454
	c-0.03-0.152-0.09-0.29-0.177-0.412c-0.088-0.122-0.191-0.225-0.311-0.307s-0.252-0.141-0.398-0.174
	c-0.146-0.034-0.296-0.036-0.449-0.005c-0.153,0.03-0.292,0.09-0.417,0.178c-0.126,0.089-0.228,0.193-0.306,0.315
	c-0.079,0.122-0.135,0.256-0.169,0.402c-0.033,0.146-0.035,0.296-0.005,0.449C104.19,12.606,104.25,12.744,104.338,12.869z
	 M106.631,14.896l-1.609,0.322l1.959,9.786l1.608-0.322L106.631,14.896z M112.71,15.356l2.745-0.392l-0.204-1.431l-2.745,0.392
	l-0.543-3.8l-1.542,0.803l0.461,3.229l-1.866,0.267l0.204,1.431l1.866-0.267l0.906,6.352c0.061,0.42,0.169,0.768,0.327,1.044
	c0.157,0.276,0.358,0.489,0.604,0.639s0.529,0.242,0.854,0.277c0.324,0.036,0.683,0.026,1.076-0.03
	c0.206-0.029,0.411-0.064,0.616-0.107c0.204-0.042,0.389-0.085,0.554-0.128c0.196-0.048,0.387-0.099,0.57-0.15l-0.377-1.396
	c-0.075,0.023-0.167,0.052-0.274,0.083c-0.107,0.032-0.218,0.062-0.333,0.087c-0.114,0.026-0.225,0.051-0.33,0.072
	s-0.196,0.038-0.273,0.049c-0.29,0.041-0.523,0.042-0.7,0.001c-0.178-0.04-0.316-0.108-0.42-0.206
	c-0.103-0.097-0.175-0.217-0.219-0.358c-0.043-0.142-0.076-0.297-0.101-0.464L112.71,15.356z M124.029,21.934
	c0.108,0.274,0.28,0.503,0.517,0.688s0.513,0.306,0.83,0.364l0.854-1.227c-0.294-0.112-0.513-0.276-0.656-0.492
	c-0.145-0.217-0.227-0.49-0.247-0.822l-0.283-4.591c-0.065-1.053-0.427-1.834-1.084-2.345c-0.658-0.51-1.595-0.728-2.81-0.653
	c-0.611,0.038-1.226,0.148-1.844,0.33s-1.203,0.452-1.755,0.812l0.694,1.259c0.377-0.232,0.803-0.441,1.277-0.627
	c0.474-0.187,0.99-0.296,1.55-0.331c0.312-0.02,0.604-0.005,0.878,0.044c0.273,0.048,0.515,0.141,0.722,0.278
	c0.208,0.137,0.378,0.33,0.511,0.58c0.133,0.249,0.211,0.562,0.234,0.939l0.039,0.633l-3.489,0.695
	c-0.399,0.084-0.757,0.212-1.072,0.385s-0.581,0.386-0.797,0.641s-0.377,0.547-0.484,0.876c-0.106,0.33-0.147,0.689-0.124,1.079
	c0.029,0.468,0.143,0.882,0.341,1.241s0.462,0.66,0.79,0.9c0.328,0.241,0.707,0.418,1.138,0.531
	c0.432,0.114,0.894,0.155,1.388,0.125c0.669-0.041,1.245-0.191,1.729-0.449s0.86-0.565,1.132-0.921L124.029,21.934z M123.535,18.051
	l0.118,1.92c0.019,0.293-0.036,0.557-0.161,0.793c-0.126,0.236-0.298,0.44-0.515,0.614c-0.218,0.173-0.471,0.311-0.758,0.413
	s-0.583,0.163-0.889,0.183c-0.272,0.017-0.537-0.008-0.792-0.073c-0.256-0.066-0.482-0.171-0.68-0.315
	c-0.198-0.145-0.359-0.327-0.484-0.548c-0.125-0.22-0.195-0.477-0.214-0.77c-0.016-0.253,0.015-0.47,0.092-0.651
	c0.077-0.181,0.189-0.336,0.338-0.466s0.333-0.237,0.553-0.322c0.22-0.086,0.465-0.156,0.735-0.212L123.535,18.051z M128.172,21.026
	c-0.006,0.358,0.044,0.662,0.151,0.911c0.106,0.249,0.254,0.453,0.444,0.612c0.189,0.159,0.414,0.275,0.673,0.348
	c0.259,0.073,0.536,0.111,0.829,0.116c0.176,0.003,0.361-0.001,0.557-0.011s0.374-0.02,0.537-0.03
	c0.189-0.017,0.379-0.032,0.567-0.049l-0.144-1.38c-0.131,0.011-0.28,0.021-0.449,0.032c-0.17,0.01-0.359,0.014-0.567,0.01
	c-0.188-0.003-0.347-0.026-0.473-0.071c-0.126-0.044-0.225-0.109-0.294-0.194c-0.07-0.086-0.119-0.191-0.146-0.315
	s-0.04-0.268-0.037-0.431l0.19-11.766l-1.64-0.026L128.172,21.026z M148.702,14.573c-0.148-0.889-0.448-1.67-0.899-2.346
	c-0.451-0.675-1.055-1.229-1.809-1.665c-0.756-0.436-1.672-0.723-2.75-0.861l-4.455-0.573l-1.788,13.89l4.455,0.573
	c1.079,0.139,2.038,0.093,2.878-0.137s1.564-0.614,2.172-1.153s1.096-1.219,1.465-2.042c0.367-0.822,0.619-1.753,0.753-2.792
	C148.857,16.426,148.85,15.462,148.702,14.573z M146.856,17.511c-0.093,0.723-0.271,1.39-0.532,1.999
	c-0.263,0.609-0.609,1.124-1.041,1.545c-0.432,0.42-0.954,0.728-1.566,0.921s-1.315,0.239-2.109,0.137l-2.713-0.349l1.409-10.945
	l2.712,0.35c0.795,0.102,1.463,0.326,2.006,0.671c0.543,0.346,0.971,0.776,1.281,1.293c0.311,0.516,0.516,1.102,0.615,1.758
	s0.104,1.346,0.01,2.069L146.856,17.511z M161.594,13.459l-1.598-0.449l-6.052,10.269l-0.112-0.031l0.786-11.749l-1.674-0.471
	l-0.8,14.322l1.975,0.555l5.952-10.205l-0.227,11.814l1.965,0.553l6.788-12.639l-1.692-0.476l-5.411,10.448l-0.095-0.026
	L161.594,13.459z M166.904,29.963l1.574,0.689l2.095-4.786l2.747,1.201c0.602,0.264,1.201,0.411,1.795,0.44
	c0.596,0.029,1.154-0.052,1.678-0.241c0.524-0.19,0.996-0.486,1.418-0.889c0.421-0.401,0.762-0.9,1.023-1.497
	c0.258-0.591,0.402-1.174,0.431-1.752c0.028-0.577-0.054-1.119-0.247-1.627s-0.491-0.968-0.893-1.382
	c-0.402-0.414-0.904-0.753-1.506-1.017l-4.5-1.97L166.904,29.963z M177.537,24.202c-0.164,0.376-0.375,0.697-0.635,0.964
	c-0.259,0.267-0.552,0.466-0.879,0.596c-0.327,0.131-0.682,0.19-1.064,0.18c-0.383-0.012-0.779-0.107-1.191-0.287l-2.604-1.14
	l2.334-5.332l2.604,1.14c0.412,0.181,0.75,0.408,1.018,0.685c0.266,0.277,0.461,0.583,0.584,0.917
	c0.123,0.335,0.174,0.689,0.152,1.063c-0.021,0.375-0.114,0.75-0.279,1.125L177.537,24.202z M104.8,105.189h-7.6l-11,13.407v-13.407
	H80v30.815h6.2v-9.405l4-4.402l8.2,13.807h7.2l-11.4-18.609L104.8,105.189z M126,118.996c0.6,1.401,0.8,3.001,0.8,4.602v2.601h-15.2
	v0.4c0,0.6,0.4,1.401,0.6,1.801c0.4,0.6,0.8,1,1.2,1.401c0.6,0.4,1.2,0.8,1.8,1c0.6,0.2,1.4,0.4,2.2,0.4c0.8,0,1.8-0.2,2.8-0.6
	c1-0.4,2-0.8,2.8-1.401l2.8,4.202c-1,1-2.4,1.601-4,2.201c-1.6,0.6-3.2,0.8-5,0.8c-1.6,0-3-0.2-4.4-0.8
	c-1.4-0.6-2.6-1.401-3.6-2.401c-1-1.001-1.8-2.201-2.4-3.802c-0.6-1.401-1-3.202-1-5.002c0-1.601,0.2-3.202,0.8-4.802
	c0.6-1.401,1.2-2.801,2.2-3.802c1-1,2.2-2.001,3.4-2.601c1.4-0.6,2.8-1,4.4-1c1.6,0,3,0.2,4.2,0.8c1.4,0.6,2.4,1.401,3.4,2.401
	C124.8,116.394,125.6,117.595,126,118.996z M120.8,121.797c0-1.201-0.4-2.201-1.4-3.001c-0.6-0.6-1.6-1.201-3-1.201
	c-1.2,0-2.4,0.4-3.2,1.201c-0.8,0.8-1.4,1.801-1.6,3.001H120.8z M150.4,118.996c0.6,1.401,0.8,3.001,0.8,4.602v2.601H136v0.4
	c0,0.6,0.4,1.401,0.6,1.801c0.4,0.6,0.8,1,1.2,1.401c0.6,0.4,1.2,0.8,1.8,1c0.6,0.2,1.4,0.4,2.2,0.4c0.8,0,1.8-0.2,2.8-0.6
	c1-0.4,2-0.8,2.8-1.401l2.8,4.202c-1,1-2.4,1.601-4,2.201s-3.2,0.8-5,0.8c-1.6,0-3-0.2-4.4-0.8c-1.4-0.6-2.6-1.401-3.6-2.401
	c-1-1.001-1.8-2.201-2.4-3.802c-0.6-1.401-1-3.202-1-5.002c0-1.601,0.2-3.202,0.8-4.802c0.6-1.401,1.2-2.801,2.2-3.802
	c1-1,2.2-2.001,3.4-2.601c1.4-0.6,2.8-1,4.4-1c1.6,0,3,0.2,4.2,0.8c1.4,0.6,2.4,1.401,3.4,2.401
	C149.2,116.394,150,117.595,150.4,118.996z M145.2,121.797c0-1.201-0.4-2.201-1.4-3.001c-0.8-0.6-1.8-1.201-3-1.201
	c-1.2,0-2.4,0.4-3.2,1.201c-0.8,0.8-1.4,1.801-1.6,3.001H145.2z M176.4,119.796c0.4,1.401,0.8,3.001,0.8,4.802
	c0,1.801-0.2,3.201-0.8,4.802c-0.6,1.401-1.2,2.801-2.2,3.802c-1,1-2,1.801-3.2,2.401s-2.6,1-4.2,1c-0.6,0-1.2,0-1.8-0.2
	c-0.6-0.2-1-0.2-1.6-0.6c-0.4-0.2-0.8-0.4-1.2-0.8c-0.4-0.2-0.8-0.6-1-1.001v9.204h-6v-30.214h6v2.001c0.6-0.6,1.4-1.201,2.4-1.801
	c1-0.6,2-0.8,3.4-0.8c1.6,0,2.8,0.4,4.2,1c1.2,0.6,2.4,1.401,3.2,2.601C175.2,116.995,176,118.395,176.4,119.796z M171,124.798
	c0-1-0.2-1.801-0.4-2.601c-0.2-0.8-0.6-1.401-1-2.001c-0.4-0.6-1-1-1.6-1.401c-0.6-0.4-1.4-0.4-2.2-0.4c-0.8,0-1.4,0.2-2,0.4
	c-0.6,0.2-1,0.6-1.4,1c-0.4,0.4-0.8,0.8-1,1.401c-0.2,0.6-0.4,1.201-0.4,1.801v3.602c0,0.6,0.2,1.201,0.4,1.801
	c0.2,0.6,0.6,1,1,1.401c0.4,0.4,1,0.6,1.4,1c0.6,0.2,1.2,0.4,2,0.4c0.8,0,1.6-0.2,2.2-0.4c0.6-0.4,1.2-0.8,1.6-1.201
	c0.4-0.6,0.8-1.201,1-2.001c0.2-0.8,0.4-1.601,0.4-2.601V124.798z M88.6,159.015h6v22.811c0,1.401-0.2,2.601-0.8,3.602
	c-0.6,1-1.2,1.801-2.2,2.401s-2,1.201-3.2,1.401c-1.2,0.2-2.6,0.4-3.8,0.4c-1.6,0-3.4-0.2-5.2-0.6c-1.8-0.4-3.4-0.8-4.6-1.401
	l1.6-4.802c0.4,0.2,0.8,0.4,1.4,0.6c0.6,0.2,1.2,0.4,1.8,0.6c0.6,0.2,1.4,0.2,2.2,0.4c0.8,0.2,1.4,0.2,2.2,0.2c0.6,0,1.2,0,1.8-0.2
	c0.6-0.2,1-0.4,1.6-0.6c0.4-0.2,0.8-0.6,1-1c0.2-0.4,0.4-1,0.4-1.801v-3.001h-0.2c-0.6,0.6-1.2,1.201-2.2,1.601s-2,0.6-3.2,0.6
	c-1.6,0-3-0.2-4.2-0.8s-2.2-1.201-3-2.201c-0.8-1-1.4-2.001-1.8-3.402c-0.4-1.401-0.6-2.801-0.6-4.202c0-1.601,0.2-3.001,0.6-4.202
	c0.4-1.401,1-2.401,1.8-3.402s1.8-1.801,3-2.201c1.2-0.6,2.6-0.8,4.2-0.8c1.2,0,2.2,0.2,3.2,0.6s1.6,1,2.2,1.601V159.015z
	 M88.6,169.02c0-0.8,0-1.401-0.2-2.201c-0.2-0.6-0.4-1.201-0.8-1.601c-0.4-0.4-0.8-0.8-1.4-1.201c-0.6-0.2-1.2-0.4-2-0.4
	c-1.6,0-2.8,0.6-3.4,1.601c-0.8,1.201-1,2.401-1,4.202c0,0.8,0,1.401,0.2,2.201c0.2,0.8,0.4,1.201,0.8,1.601c0.4,0.4,0.8,0.8,1.4,1
	c0.6,0.2,1.2,0.4,2,0.4c1.6,0,2.8-0.6,3.4-1.601c0.6-1,1-2.201,1-3.802V169.02z M120.2,166.018c0.6,1.401,0.8,3.001,0.8,4.802
	c0,1.801-0.2,3.202-0.8,4.802c-0.6,1.401-1.4,2.801-2.4,3.802s-2.2,1.801-3.6,2.601c-1.4,0.6-3,1-4.6,1c-1.8,0-3.2-0.4-4.6-1
	c-1.4-0.6-2.6-1.401-3.6-2.601c-1-1-1.8-2.401-2.4-3.802c-0.6-1.401-0.8-3.001-0.8-4.802c0-1.601,0.2-3.202,0.8-4.802
	c0.6-1.401,1.2-2.801,2.2-3.802s2.2-2.001,3.6-2.601c1.8-0.8,3.2-1,5-1s3.2,0.4,4.6,1c1.4,0.6,2.6,1.401,3.6,2.601
	S119.8,164.618,120.2,166.018z M115,170.42c0-1-0.2-1.801-0.4-2.601c-0.2-0.8-0.6-1.401-1-2.001c-0.4-0.6-1-1-1.6-1.401
	s-1.4-0.4-2.2-0.4s-1.6,0.2-2.2,0.4c-0.6,0.4-1.2,0.8-1.6,1.401s-0.8,1.201-1,2.001c-0.2,0.8-0.4,1.601-0.4,2.601v0.2
	c0,1,0.2,1.801,0.4,2.601c0.2,0.8,0.6,1.401,1,2.001s1,1,1.6,1.401c0.6,0.2,1.4,0.4,2.2,0.4s1.6-0.2,2.2-0.4
	c0.6-0.4,1.2-0.8,1.6-1.401c0.4-0.6,0.8-1.201,1-2.001c0.2-0.8,0.4-1.601,0.4-2.601V170.42z M130.6,150.411
	c-0.4-0.4-0.8-0.6-1.2-0.8c-0.4-0.2-1-0.2-1.4-0.2c-0.6,0-1,0-1.4,0.2c-0.6,0.2-0.8,0.4-1.2,0.8c-0.4,0.4-0.6,0.8-0.8,1.201
	c-0.2,0.4-0.2,1-0.2,1.401s0.2,1,0.2,1.401c0.2,0.6,0.4,0.8,0.8,1.201c0.4,0.4,0.8,0.6,1.2,0.8c0.4,0.2,0.8,0.2,1.4,0.2
	c0.4,0,1,0,1.4-0.2c0.4-0.2,0.8-0.4,1.2-0.8c0.4-0.4,0.6-0.8,0.8-1.201c0.2-0.4,0.2-0.8,0.2-1.401s0-1-0.2-1.401
	S131,150.811,130.6,150.411z M125,159.015v23.011h6v-23.011H125z M153.8,160.616c-0.8-0.6-1.6-1.201-2.6-1.601s-2.2-0.6-3.4-0.6
	c-0.8,0-1.4,0-2,0.2c-0.6,0.2-1.2,0.4-1.6,0.6c-0.4,0.2-0.8,0.6-1.2,0.8c-0.4,0.4-0.6,0.6-1,1v-2.001h-6v23.211h6V169.62
	c0-1,0.2-1.801,0.4-2.401c0.4-0.6,0.6-1.201,1-1.601c0.4-0.4,1-0.8,1.4-1c0.4-0.2,1-0.4,1.6-0.4c0.4,0,1,0,1.4,0.2
	c0.4,0.2,0.8,0.4,1.2,0.8c0.4,0.4,0.6,0.8,0.8,1.401c0.2,0.4,0.2,1.201,0.2,2.001v13.406h6v-15.608c0-1.201-0.2-2.201-0.6-3.202
	C155,162.216,154.4,161.416,153.8,160.616z M174.8,159.015h6v22.811c0,1.401-0.2,2.601-0.8,3.602c-0.6,1-1.2,1.801-2.2,2.401
	s-2,1.201-3.2,1.401c-1.2,0.2-2.6,0.4-3.8,0.4c-1.6,0-3.4-0.2-5.2-0.6c-1.8-0.4-3.4-0.8-4.6-1.401l1.6-4.802
	c0.4,0.2,0.8,0.4,1.4,0.6c0.6,0.2,1.2,0.4,1.8,0.6c0.6,0.2,1.4,0.2,2.2,0.4c0.8,0.2,1.4,0.2,2.2,0.2c0.6,0,1.2,0,1.8-0.2
	c0.6-0.2,1-0.4,1.6-0.6c0.4-0.2,0.8-0.6,1-1c0.2-0.4,0.4-1,0.4-1.801v-3.001h-0.2c-0.6,0.6-1.2,1.201-2.2,1.601s-2,0.6-3.2,0.6
	c-1.6,0-3-0.2-4.2-0.8s-2.2-1.201-3-2.201c-0.8-1-1.4-2.001-1.8-3.402c-0.4-1.401-0.6-2.801-0.6-4.202c0-1.601,0.2-3.001,0.6-4.202
	c0.4-1.401,1-2.401,1.8-3.402s1.8-1.801,3-2.201c1.2-0.6,2.6-0.8,4.2-0.8c1.2,0,2.2,0.2,3.2,0.6s1.6,1,2.2,1.601V159.015z
	 M174.6,169.02c0-0.8,0-1.401-0.2-2.201c-0.2-0.6-0.4-1.201-0.8-1.601c-0.4-0.4-0.8-0.8-1.4-1.201c-0.6-0.2-1.2-0.4-2-0.4
	c-1.6,0-2.8,0.6-3.4,1.601c-0.6,1.201-1,2.401-1,4.202c0,0.8,0,1.401,0.2,2.201c0.2,0.8,0.4,1.201,0.8,1.601c0.4,0.4,0.8,0.8,1.4,1
	c0.6,0.2,1.2,0.4,2,0.4c1.6,0,2.8-0.6,3.4-1.601c0.6-1,1-2.201,1-3.802V169.02z M151,76.375c-0.8-0.8-1.4-2.001-2-4.002l-2.2,7.003
	c1.2-0.8,2.2-1.401,3.4-1.401c-2,4.402-4.6,5.403-6.2,5.203c-2-0.4-2.8-2.201-2.6-3.602c0.4-2.201,2.6-2.601,3.6-0.2
	c2-4.002-1.4-5.203-3.4-4.002c3.2-3.201,3.6-6.203,1-9.605c-3.6,2.801-3.8,5.603-2,9.404c-2.2-2.401-5.4-1.201-4.2,2.801
	c1.6-2.401,3.6-0.8,3.2,1.401c-0.2,2.001-2.8,3.602-6.2,3.201c-4.6-0.4-5-3.602-5-6.403c1.2-0.2,3.2,0.8,5,3.402l0.6-7.404
	c-2,2.001-3.6,2.401-5.6,2.401c0.6-2.001,3.6-5.403,3.6-5.403h-4.4h-5c0,0,3,3.202,3.6,5.403c-2,0-3.6-0.4-5.6-2.401l0.6,7.404
	c1.8-2.401,3.8-3.602,5-3.402c-0.2,2.601-0.4,5.803-5,6.403c-3.2,0.2-5.8-1.401-6.2-3.201c-0.4-2.201,1.8-3.802,3.2-1.401
	c1.2-4.002-2.2-5.203-4.2-2.801c1.6-4.002,1.6-6.603-2-9.404c-2.6,3.602-2.2,6.403,1,9.605c-2.2-1.201-5.4,0-3.4,4.002
	c1-2.401,3.2-2.001,3.6,0.2c0.4,1.401-0.6,3.202-2.6,3.602c-1.6,0.2-4.2-0.8-6.2-5.203c1.2,0,2.2,0.6,3.4,1.401l-2.2-7.003
	c-0.6,2.001-1.2,3.202-2,4.002c-0.4-1.401-0.4-2.401,0-4.602l-4.4,1.601c2.4,3.201,4.6,7.604,6.4,15.407
	c7.2-0.8,14.4-1.401,22-1.401c7.6,0,15,0.6,21.4,1.401c1.8-7.804,4-12.206,6.4-15.407l-4.4-1.601
	C151.4,73.974,151.6,74.974,151,76.375z M102,65.17c-1.6-0.6-3.4,0.2-4.2,1.801c-0.6,1.601,0.2,3.602,1.8,4.202
	c1.6,0.6,3.6,0,4.2-1.801C104.4,67.771,103.8,65.77,102,65.17z M104.2,57.166c-1.6-0.6-3.4,0.2-4.2,1.801
	c-0.6,1.601,0.2,3.402,1.8,4.202c1.6,0.6,3.6,0,4.2-1.801C106.6,59.767,106,57.766,104.2,57.166z M111.4,52.764
	c-1.6-0.6-3.4,0.2-4.2,1.801c-0.6,1.801,0.2,3.602,1.8,4.202s3.6,0,4.2-1.801C113.8,55.365,113.2,53.364,111.4,52.764z
	 M119.4,55.365c-1.6-0.6-3.4,0.2-4.2,1.801c-0.6,1.801,0.2,3.602,1.8,4.202c1.6,0.6,3.6,0,4.2-1.801
	C121.8,57.966,121.2,55.965,119.4,55.365z M129,50.162l1.6-5.202h-3h-3l1.6,5.202c-0.2,0.2-0.2,0.2-0.4,0.4l-4-1.201v6.003l4-2.201
	c0.2,0.2,0.2,0.2,0.4,0.4l-2.2,7.003c-0.2,0.4-0.2,0.8-0.2,1.201c0,1.801,1.4,3.402,3.2,3.802h0.4h0.4c1.8-0.2,3.2-1.801,3.2-3.802
	c0-0.4,0-0.8-0.2-1.201l-2.4-7.003c0.6-0.2,0.8-0.2,1-0.4l4,2.201v-6.003l-4,1.201C129.2,50.363,129.2,50.363,129,50.162z"/>
</svg>
