<?xml version="1.0" encoding="utf-8"?>
<!-- Generator: Adobe Illustrator 21.0.0, SVG Export Plug-In . SVG Version: 6.00 Build 0)  -->
<svg version="1.1" xmlns="http://www.w3.org/2000/svg" xmlns:xlink="http://www.w3.org/1999/xlink" x="0px" y="0px"
	 viewBox="0 0 133.7 133" style="enable-background:new 0 0 133.7 133;" xml:space="preserve">
<style type="text/css">
	.st0{fill:#8ABFE2;}
	.st1{fill:none;stroke:#0B4977;stroke-width:2;stroke-miterlimit:10;}
	.st2{fill:#303030;}
	.st3{fill:#212121;}
	.st4{fill:#434343;}
	.st5{fill:#444545;}
	.st6{fill:#545554;}
	.st7{fill:#9197A7;}
	.st8{fill:#CB9233;}
	.st9{fill:#AFB4BF;}
	.st10{fill:#E0E044;}
	.st11{fill:#D6D854;}
	.st12{fill:#49B749;}
	.st13{fill:#797E89;}
	.st14{fill:#FFFFFF;stroke:#A9A8A9;stroke-width:0.1;stroke-miterlimit:10;}
	.st15{fill:#BEDDEB;}
	.st16{fill:#F0EA3D;}
	.st17{fill:#F26767;}
	.st18{fill:#47B649;}
	.st19{fill:#A9B0C0;}
	.st20{fill:#414345;}
	.st21{fill:#059B49;}
	.st22{fill:#FFFFFF;}
	.st23{fill:#505251;}
	.st24{fill:#010101;}
	.st25{fill:#0B4E92;}
</style>
<g id="Layer_1">
</g>
<g id="Layer_4">
	<g>
		<circle class="st0" cx="67.1" cy="65.6" r="59.4"/>
		<line class="st1" x1="67.5" y1="83.1" x2="67.5" y2="55.3"/>
		<line class="st1" x1="49.4" y1="83" x2="85.5" y2="83"/>
		<g>
			<rect x="42.2" y="27.3" class="st2" width="49.8" height="35.2"/>
			<rect x="42.2" y="28.4" class="st3" width="12.6" height="33.4"/>
			<rect x="42.2" y="54.6" class="st4" width="49.8" height="6.9"/>
			<rect x="42.2" y="60.4" class="st5" width="49.8" height="2.2"/>
			<rect x="42.2" y="27.3" class="st6" width="49.8" height="1.5"/>
			<g>
				<path class="st7" d="M52.1,34c-2.4,0-4.8,0-7.1,0c0-0.1,0-0.1,0-0.2c2.4,0,4.8,0,7.3,0C52.2,33.8,52.1,33.9,52.1,34z"/>
				<path class="st7" d="M45,32.7c2.4,0,4.8,0,7.1,0c0,0.1,0,0.1,0,0.2c-2.4,0-4.8,0-7.1,0C45,32.9,45,32.8,45,32.7z"/>
				<path class="st7" d="M51,31.9c-2,0-4,0-6.1,0c0-0.1,0-0.1,0-0.2c2,0,4,0,6.1,0C51,31.8,51,31.8,51,31.9z"/>
				<path class="st7" d="M45,30.7c2.2,0,4.5,0,6.7,0c0,0.1,0,0.1,0,0.2c-2.2,0-4.5,0-6.7,0C45,30.8,45,30.7,45,30.7z"/>
				<path class="st7" d="M52.1,38.1c-2.4,0-4.8,0-7.1,0c0-0.1,0-0.1,0-0.2c2.4,0,4.8,0,7.3,0C52.2,38,52.1,38.1,52.1,38.1z"/>
				<path class="st7" d="M45,36.9c2.4,0,4.8,0,7.1,0c0,0.1,0,0.1,0,0.2c-2.4,0-4.8,0-7.1,0C45,37,45,37,45,36.9z"/>
				<path class="st7" d="M51,36.1c-2,0-4,0-6.1,0c0-0.1,0-0.1,0-0.2c2,0,4,0,6.1,0C51,35.9,51,36,51,36.1z"/>
				<path class="st7" d="M45,34.8c2.2,0,4.5,0,6.7,0c0,0.1,0,0.1,0,0.2c-2.2,0-4.5,0-6.7,0C45,34.9,45,34.9,45,34.8z"/>
				<path class="st7" d="M52.1,42.3c-2.4,0-4.8,0-7.1,0c0-0.1,0-0.1,0-0.2c2.4,0,4.8,0,7.3,0C52.2,42.1,52.1,42.2,52.1,42.3z"/>
				<path class="st7" d="M45,41c2.4,0,4.8,0,7.1,0c0,0.1,0,0.1,0,0.2c-2.4,0-4.8,0-7.1,0C45,41.2,45,41.1,45,41z"/>
				<path class="st7" d="M51,40.2c-2,0-4,0-6.1,0c0-0.1,0-0.1,0-0.2c2,0,4,0,6.1,0C51,40.1,51,40.1,51,40.2z"/>
				<path class="st7" d="M45,39c2.2,0,4.5,0,6.7,0c0,0.1,0,0.1,0,0.2c-2.2,0-4.5,0-6.7,0C45,39.1,45,39,45,39z"/>
				<path class="st7" d="M52.1,46.4c-2.4,0-4.8,0-7.1,0c0-0.1,0-0.1,0-0.2c2.4,0,4.8,0,7.3,0C52.2,46.3,52.1,46.4,52.1,46.4z"/>
				<path class="st7" d="M45,45.2c2.4,0,4.8,0,7.1,0c0,0.1,0,0.1,0,0.2c-2.4,0-4.8,0-7.1,0C45,45.3,45,45.3,45,45.2z"/>
				<path class="st7" d="M51,44.4c-2,0-4,0-6.1,0c0-0.1,0-0.1,0-0.2c2,0,4,0,6.1,0C51,44.2,51,44.3,51,44.4z"/>
				<path class="st7" d="M45,43.1c2.2,0,4.5,0,6.7,0c0,0.1,0,0.1,0,0.2c-2.2,0-4.5,0-6.7,0C45,43.2,45,43.2,45,43.1z"/>
				<path class="st7" d="M52.1,49.5c-2.4,0-4.8,0-7.1,0c0-0.1,0-0.1,0-0.2c2.4,0,4.8,0,7.3,0C52.2,49.4,52.1,49.5,52.1,49.5z"/>
				<path class="st7" d="M45,48.3c2.4,0,4.8,0,7.1,0c0,0.1,0,0.1,0,0.2c-2.4,0-4.8,0-7.1,0C45,48.4,45,48.4,45,48.3z"/>
				<path class="st7" d="M51,47.5c-2,0-4,0-6.1,0c0-0.1,0-0.1,0-0.2c2,0,4,0,6.1,0C51,47.3,51,47.4,51,47.5z"/>
				<path class="st7" d="M52.1,52.7c-2.4,0-4.8,0-7.1,0c0-0.1,0-0.1,0-0.2c2.4,0,4.8,0,7.3,0C52.2,52.5,52.1,52.6,52.1,52.7z"/>
				<path class="st7" d="M45,51.4c2.4,0,4.8,0,7.1,0c0,0.1,0,0.1,0,0.2c-2.4,0-4.8,0-7.1,0C45,51.6,45,51.5,45,51.4z"/>
				<path class="st7" d="M51,50.6c-2,0-4,0-6.1,0c0-0.1,0-0.1,0-0.2c2,0,4,0,6.1,0C51,50.4,51,50.5,51,50.6z"/>
			</g>
			<rect x="44" y="30.5" class="st7" width="0.5" height="0.5"/>
			<rect x="44" y="31.5" class="st7" width="0.5" height="0.5"/>
			<rect x="44" y="32.5" class="st7" width="0.5" height="0.5"/>
			<rect x="44" y="33.5" class="st7" width="0.5" height="0.5"/>
			<rect x="44" y="34.7" class="st7" width="0.5" height="0.5"/>
			<rect x="44" y="35.7" class="st7" width="0.5" height="0.5"/>
			<rect x="44" y="36.8" class="st7" width="0.5" height="0.5"/>
			<rect x="44" y="37.8" class="st7" width="0.5" height="0.5"/>
			<rect x="44" y="38.8" class="st7" width="0.5" height="0.5"/>
			<rect x="44" y="39.9" class="st7" width="0.5" height="0.5"/>
			<rect x="44" y="40.9" class="st7" width="0.5" height="0.5"/>
			<rect x="44" y="38.8" class="st7" width="0.5" height="0.5"/>
			<rect x="44" y="42" class="st7" width="0.5" height="0.5"/>
			<rect x="44" y="43" class="st7" width="0.5" height="0.5"/>
			<rect x="44" y="44" class="st7" width="0.5" height="0.5"/>
			<rect x="44" y="45.1" class="st7" width="0.5" height="0.5"/>
			<rect x="44" y="46.1" class="st7" width="0.5" height="0.5"/>
			<rect x="44" y="47.2" class="st7" width="0.5" height="0.5"/>
			<rect x="44" y="48.2" class="st7" width="0.5" height="0.5"/>
			<rect x="44" y="49.3" class="st7" width="0.5" height="0.5"/>
			<rect x="44" y="50.3" class="st7" width="0.5" height="0.5"/>
			<rect x="44" y="51.3" class="st7" width="0.5" height="0.5"/>
			<rect x="44" y="52.3" class="st7" width="0.5" height="0.5"/>
			<g>
				<path class="st8" d="M66.7,33.9c-3.4,0-6.9,0-10.3,0c0-0.1,0-0.1,0-0.2c3.5,0,7,0,10.5,0C66.9,33.7,66.8,33.8,66.7,33.9z"/>
				<path class="st8" d="M56.4,32.7c2.8,0,5.6,0,8.3,0c0,0.1,0,0.1,0,0.2c-2.8,0-5.5,0-8.3,0C56.4,32.8,56.4,32.7,56.4,32.7z"/>
				<path class="st9" d="M65.6,31.9c-3.1,0-6.1,0-9.2,0c0-0.1,0-0.1,0-0.2c3.1,0,6.1,0,9.2,0C65.6,31.7,65.6,31.8,65.6,31.9z"/>
				<path class="st9" d="M63,37.9c-2.2,0-4.4,0-6.6,0c0-0.1,0-0.1,0-0.2c2.2,0,4.5,0,6.7,0C63.1,37.8,63.1,37.8,63,37.9z"/>
				<path class="st9" d="M56.4,36.7c2.5,0,5,0,7.5,0c0,0.1,0,0.1,0,0.2c-2.5,0-5,0-7.4,0C56.4,36.8,56.4,36.8,56.4,36.7z"/>
				<path class="st9" d="M65.6,35.9c-3.1,0-6.1,0-9.2,0c0-0.1,0-0.1,0-0.2c3.1,0,6.1,0,9.2,0C65.6,35.8,65.6,35.8,65.6,35.9z"/>
				<path class="st9" d="M56.4,34.7c0.2,0,0.5,0,0.7,0c0,0.1,0,0.1,0,0.2c-0.2,0-0.5,0-0.7,0C56.4,34.8,56.4,34.7,56.4,34.7z"/>
				<path class="st9" d="M71.9,41.9c-5.2,0-10.3,0-15.5,0c0-0.1,0-0.1,0-0.2c5.2,0,10.5,0,15.7,0C72,41.8,72,41.9,71.9,41.9z"/>
				<path class="st9" d="M56.4,40.7c1.9,0,3.8,0,5.7,0c0,0.1,0,0.1,0,0.2c-1.9,0-3.8,0-5.6,0C56.4,40.9,56.4,40.8,56.4,40.7z"/>
				<path class="st9" d="M65.9,39.9c-3.1,0-6.3,0-9.4,0c0-0.1,0-0.1,0-0.2c3.1,0,6.3,0,9.4,0C65.9,39.8,65.9,39.9,65.9,39.9z"/>
				<path class="st9" d="M56.4,38.7c3.5,0,7,0,10.5,0c0,0.1,0,0.1,0,0.2c-3.5,0-7,0-10.5,0C56.4,38.8,56.4,38.8,56.4,38.7z"/>
				<path class="st10" d="M60.2,46c-1.3,0-2.5,0-3.8,0c0-0.1,0-0.1,0-0.2c1.3,0,2.6,0,3.8,0C60.2,45.8,60.2,45.9,60.2,46z"/>
				<path class="st9" d="M56.4,44.8c2,0,3.9,0,5.9,0c0,0.1,0,0.1,0,0.2c-1.9,0-3.9,0-5.8,0C56.4,44.9,56.4,44.8,56.4,44.8z"/>
				<path class="st9" d="M72.1,44c-5.2,0-10.5,0-15.7,0c0-0.1,0-0.1,0-0.2c5.2,0,10.5,0,15.7,0C72.1,43.8,72.1,43.9,72.1,44z"/>
				<path class="st9" d="M56.4,42.7c0.2,0,0.5,0,0.7,0c0,0.1,0,0.1,0,0.2c-0.2,0-0.5,0-0.7,0C56.4,42.9,56.4,42.8,56.4,42.7z"/>
				<path class="st9" d="M57.1,49c-0.2,0-0.5,0-0.7,0c0-0.1,0-0.1,0-0.2c0.2,0,0.5,0,0.7,0C57.1,48.9,57.1,48.9,57.1,49z"/>
				<path class="st10" d="M56.4,47.8c1.3,0,2.6,0,3.8,0c0,0.1,0,0.1,0,0.2c-1.3,0-2.6,0-3.8,0C56.4,47.9,56.4,47.8,56.4,47.8z"/>
				<path class="st10" d="M61.7,47c-1.7,0-3.5,0-5.2,0c0-0.1,0-0.1,0-0.2c1.7,0,3.5,0,5.2,0C61.7,46.8,61.7,46.9,61.7,47z"/>
				<path class="st9" d="M59.7,52c-1.1,0-2.2,0-3.3,0c0-0.1,0-0.1,0-0.2c1.1,0,2.2,0,3.3,0C59.7,51.9,59.7,52,59.7,52z"/>
				<path class="st11" d="M56.4,50.8c1.3,0,2.7,0,4,0c0,0.1,0,0.1,0,0.2c-1.3,0-2.7,0-4,0C56.4,50.9,56.4,50.9,56.4,50.8z"/>
				<path class="st11" d="M61,50c-1.5,0-3.1,0-4.6,0c0-0.1,0-0.1,0-0.2c1.5,0,3.1,0,4.6,0C61,49.9,61,49.9,61,50z"/>
				<path class="st12" d="M70.2,37.9c-2.2,0-4.4,0-6.6,0c0-0.1,0-0.1,0-0.2c2.2,0,4.5,0,6.7,0C70.2,37.8,70.2,37.8,70.2,37.9z"/>
				<path class="st12" d="M64.8,36.7c2.5,0,5,0,7.5,0c0,0.1,0,0.1,0,0.2c-2.5,0-5,0-7.4,0C64.8,36.8,64.8,36.8,64.8,36.7z"/>
				<path class="st12" d="M75.2,35.9c-3.1,0-6.1,0-9.2,0c0-0.1,0-0.1,0-0.2c3.1,0,6.1,0,9.2,0C75.2,35.8,75.2,35.8,75.2,35.9z"/>
				<path class="st12" d="M62.8,40.7c1.9,0,3.8,0,5.7,0c0,0.1,0,0.1,0,0.2c-1.9,0-3.8,0-5.6,0C62.8,40.9,62.8,40.8,62.8,40.7z"/>
				<path class="st12" d="M75.9,39.9c-3.1,0-6.3,0-9.4,0c0-0.1,0-0.1,0-0.2c3.1,0,6.3,0,9.4,0C75.9,39.8,75.9,39.9,75.9,39.9z"/>
				<path class="st12" d="M67.9,38.7c2.7,0,5.3,0,8,0c0,0.1,0,0.1,0,0.2c-2.7,0-5.3,0-8,0C67.9,38.8,67.9,38.8,67.9,38.7z"/>
				<path class="st9" d="M64.4,46c-1.3,0-2.5,0-3.8,0c0-0.1,0-0.1,0-0.2c1.3,0,2.6,0,3.8,0C64.4,45.8,64.4,45.9,64.4,46z"/>
				<path class="st9" d="M60.6,47.8c1.3,0,2.6,0,3.8,0c0,0.1,0,0.1,0,0.2c-1.3,0-2.6,0-3.8,0C60.6,47.9,60.6,47.8,60.6,47.8z"/>
				<path class="st9" d="M67.4,47c-1.7,0-3.5,0-5.2,0c0-0.1,0-0.1,0-0.2c1.7,0,3.5,0,5.2,0C67.4,46.8,67.4,46.9,67.4,47z"/>
				<path class="st9" d="M65.6,31c-3.1,0-6.1,0-9.2,0c0-0.1,0-0.1,0-0.2c3.1,0,6.1,0,9.2,0C65.6,30.8,65.6,30.9,65.6,31z"/>
				<path class="st9" d="M61.9,49.8c1.1,0,2.2,0,3.3,0c0,0.1,0,0.1,0,0.2c-1.1,0-2.2,0-3.3,0C61.8,49.9,61.9,49.9,61.9,49.8z"/>
				<path class="st9" d="M65.2,51c-1.3,0-2.7,0-4,0c0-0.1,0-0.1,0-0.2c1.3,0,2.7,0,4,0C65.2,50.9,65.2,50.9,65.2,51z"/>
				<path class="st9" d="M60.6,51.8c1.5,0,3.1,0,4.6,0c0,0.1,0,0.1,0,0.2c-1.5,0-3.1,0-4.6,0C60.6,51.9,60.6,51.9,60.6,51.8z"/>
			</g>
			<rect x="42.7" y="27.8" class="st13" width="0.5" height="0.5"/>
			<rect x="43.8" y="27.8" class="st13" width="0.5" height="0.5"/>
			<rect x="44.8" y="27.8" class="st13" width="0.5" height="0.5"/>
			<rect x="45.9" y="27.8" class="st13" width="0.5" height="0.5"/>
			<rect x="46.9" y="27.8" class="st13" width="0.5" height="0.5"/>
			<rect x="47.9" y="27.8" class="st13" width="0.5" height="0.5"/>
			<rect x="49" y="27.8" class="st13" width="0.5" height="0.5"/>
			<rect x="50" y="27.8" class="st13" width="0.5" height="0.5"/>
			<rect x="51.1" y="27.8" class="st13" width="0.5" height="0.5"/>
			<rect x="53.2" y="27.8" class="st13" width="0.5" height="0.5"/>
			<rect x="54.2" y="27.8" class="st13" width="0.5" height="0.5"/>
			<path class="st7" d="M43.9,56.8c2.8,0,5.6,0,8.3,0c0,0.1,0,0.1,0,0.2c-2.8,0-5.5,0-8.3,0C43.9,56.9,43.9,56.9,43.9,56.8z"/>
			<path class="st7" d="M53.1,56c-3.1,0-6.1,0-9.2,0c0-0.1,0-0.1,0-0.2c3.1,0,6.1,0,9.2,0C53.1,55.8,53.1,55.9,53.1,56z"/>
			<path class="st7" d="M43.9,59.9c2.8,0,5.6,0,8.3,0c0,0.1,0,0.1,0,0.2c-2.8,0-5.5,0-8.3,0C43.9,60.1,43.9,60,43.9,59.9z"/>
			<path class="st7" d="M48.5,59.1c-1.5,0-3.1,0-4.6,0c0-0.1,0-0.1,0-0.2c1.5,0,3.1,0,4.6,0C48.5,59,48.5,59,48.5,59.1z"/>
			<path class="st7" d="M43.9,57.8c1.7,0,3.4,0,5.1,0c0,0.1,0,0.1,0,0.2c-1.7,0-3.4,0-5.1,0C43.9,58,43.9,57.9,43.9,57.8z"/>
			<path class="st7" d="M75.2,56.8c2.8,0,5.6,0,8.3,0c0,0.1,0,0.1,0,0.2c-2.8,0-5.5,0-8.3,0C75.2,56.9,75.2,56.9,75.2,56.8z"/>
			<path class="st7" d="M84.4,56c-3.1,0-6.1,0-9.2,0c0-0.1,0-0.1,0-0.2c3.1,0,6.1,0,9.2,0C84.4,55.8,84.4,55.9,84.4,56z"/>
			<path class="st7" d="M75.2,59.9c2.8,0,5.6,0,8.3,0c0,0.1,0,0.1,0,0.2c-2.8,0-5.5,0-8.3,0C75.2,60.1,75.2,60,75.2,59.9z"/>
			<path class="st7" d="M79.8,59.1c-1.5,0-3.1,0-4.6,0c0-0.1,0-0.1,0-0.2c1.5,0,3.1,0,4.6,0C79.8,59,79.8,59,79.8,59.1z"/>
			<path class="st7" d="M75.2,57.8c1.7,0,3.4,0,5.1,0c0,0.1,0,0.1,0,0.2c-1.7,0-3.4,0-5.1,0C75.2,58,75.2,57.9,75.2,57.8z"/>
		</g>
		<g>
			<g>
				<rect x="81.5" y="70.9" class="st14" width="24.9" height="25.6"/>
				<g>
					<path class="st15" d="M81.5,71.5v-1.7c0-0.2,0.5-0.4,1-0.4h22.9c0.6,0,1,0.2,1,0.4v1.7"/>
					<g>
						<path class="st16" d="M84.7,71c-0.4,0-0.6-0.2-0.6-0.5c0-0.3,0.2-0.5,0.6-0.5c0.3,0,0.5,0.2,0.5,0.4
							C85.3,70.7,85,70.9,84.7,71z"/>
						<path class="st17" d="M82.2,70.4c0.1-0.3,0.3-0.5,0.6-0.4c0.3,0,0.4,0.2,0.5,0.4c0,0.3-0.2,0.5-0.5,0.5
							C82.4,71,82.2,70.8,82.2,70.4z"/>
						<path class="st18" d="M86.5,70c0.4,0,0.6,0.1,0.7,0.4c0,0.3-0.1,0.5-0.5,0.6c-0.4,0-0.6-0.1-0.6-0.4C86,70.2,86.2,70,86.5,70z
							"/>
					</g>
				</g>
			</g>
			<path class="st7" d="M93,88.2c-3.4,0-6.8,0-10.2,0c0-0.1,0-0.1,0-0.2c3.4,0,6.8,0,10.3,0C93.1,88.1,93,88.2,93,88.2z"/>
			<path class="st7" d="M93,89c-3.4,0-6.8,0-10.2,0c0-0.1,0-0.1,0-0.2c3.4,0,6.8,0,10.3,0C93.1,88.9,93,88.9,93,89z"/>
			<path class="st7" d="M93.1,81.2c-3.4,0-6.8,0-10.2,0c0-0.1,0-0.1,0-0.2c3.5,0,6.9,0,10.4,0C93.2,81.1,93.2,81.2,93.1,81.2z"/>
			<path class="st7" d="M82.9,80.2c3.4,0,6.8,0,10.2,0c0,0.1,0,0.1,0,0.2c-3.4,0-6.8,0-10.2,0C82.9,80.3,82.9,80.2,82.9,80.2z"/>
			<path class="st7" d="M91.6,79.5c-2.9,0-5.8,0-8.7,0c0-0.1,0-0.1,0-0.2c2.9,0,5.8,0,8.6,0C91.6,79.3,91.6,79.4,91.6,79.5z"/>
			<path class="st7" d="M82.9,78.4c3.2,0,6.4,0,9.6,0c0,0.1,0,0.1,0,0.2c-3.2,0-6.4,0-9.6,0C82.9,78.5,82.9,78.5,82.9,78.4z"/>
			<path class="st7" d="M82.8,89.8c2,0,4.1,0,6.1,0c0,0.1,0,0.1,0,0.2c-2,0-4.1,0-6.1,0C82.8,89.9,82.8,89.8,82.8,89.8z"/>
			<rect x="82.9" y="75.5" class="st19" width="10.2" height="1.2"/>
			<rect x="81.5" y="71.8" class="st20" width="24.9" height="2.1"/>
			<rect x="82.8" y="90.9" class="st21" width="5.6" height="1.6"/>
			<path class="st7" d="M88.8,85.7c-2,0-4,0-6,0c0-0.1,0-0.1,0-0.2c2,0,4.1,0,6.1,0C88.9,85.6,88.8,85.7,88.8,85.7z"/>
			<path class="st7" d="M82.8,84.7c3.4,0,6.8,0,10.2,0c0,0.1,0,0.1,0,0.2c-3.4,0-6.8,0-10.2,0C82.8,84.9,82.8,84.8,82.8,84.7z"/>
			<path class="st7" d="M91.5,83.9c-2.9,0-5.8,0-8.7,0c0-0.1,0-0.1,0-0.2c2.9,0,5.8,0,8.6,0C91.5,83.8,91.5,83.9,91.5,83.9z"/>
			<path class="st7" d="M82.8,82.9c3.4,0,6.8,0,10.2,0c0,0.1,0,0.1,0,0.2c-3.4,0-6.8,0-10.2,0C82.8,83,82.8,83,82.8,82.9z"/>
			<path class="st7" d="M103,81.2c-1.7,0-3.4,0-5.1,0c0-0.1,0-0.1,0-0.2c1.7,0,3.5,0,5.2,0C103,81.1,103,81.2,103,81.2z"/>
			<path class="st7" d="M97.9,80.2c1.7,0,3.4,0,5.1,0c0,0.1,0,0.1,0,0.2c-1.7,0-3.4,0-5.1,0C97.9,80.3,97.9,80.2,97.9,80.2z"/>
			<path class="st7" d="M102.2,79.5c-1.4,0-2.9,0-4.3,0c0-0.1,0-0.1,0-0.2c1.4,0,2.9,0,4.3,0C102.2,79.3,102.2,79.4,102.2,79.5z"/>
			<path class="st7" d="M97.9,78.4c1.7,0,3.4,0,5.1,0c0,0.1,0,0.1,0,0.2c-1.7,0-3.4,0-5.1,0C97.9,78.5,97.9,78.5,97.9,78.4z"/>
			<path class="st7" d="M102.2,84c-1.4,0-2.9,0-4.3,0c0-0.1,0-0.1,0-0.2c1.4,0,2.9,0,4.3,0C102.2,83.9,102.2,83.9,102.2,84z"/>
			<path class="st7" d="M97.9,82.9c1.7,0,3.4,0,5.1,0c0,0.1,0,0.1,0,0.2c-1.7,0-3.4,0-5.1,0C97.9,83,97.9,83,97.9,82.9z"/>
			<g>
				<path class="st22" d="M82.7,72.7C82.8,72.7,82.8,72.7,82.7,72.7c0.1-0.1,0.1-0.1,0.1-0.1C82.8,72.5,82.7,72.6,82.7,72.7
					C82.7,72.6,82.7,72.7,82.7,72.7"/>
				<path class="st22" d="M82.6,72.8C82.6,72.8,82.7,72.8,82.6,72.8c0.1-0.1,0.1-0.1,0.1-0.1C82.6,72.6,82.6,72.7,82.6,72.8
					C82.5,72.7,82.5,72.8,82.6,72.8"/>
				<path class="st22" d="M82.5,73C82.6,73,82.6,73,82.5,73c0.1-0.1,0.1-0.1,0.1-0.1C82.6,72.8,82.5,72.8,82.5,73
					C82.5,72.9,82.5,72.9,82.5,73"/>
				<path class="st22" d="M82.9,72.7C83,72.8,83,72.7,82.9,72.7c0.1-0.1,0.1-0.1,0.1-0.1C82.9,72.6,82.9,72.6,82.9,72.7
					C82.9,72.7,82.9,72.7,82.9,72.7"/>
				<path class="st22" d="M83.6,72.7C83.5,72.7,83.5,72.7,83.6,72.7c-0.1-0.1-0.1-0.1-0.1-0.1C83.6,72.5,83.6,72.6,83.6,72.7
					C83.6,72.6,83.6,72.7,83.6,72.7"/>
				<path class="st22" d="M83.8,72.7C83.8,72.7,83.8,72.8,83.8,72.7"/>
				<path class="st22" d="M83.7,72.8C83.7,72.8,83.7,72.8,83.7,72.8c-0.1-0.1-0.1-0.1-0.1-0.1C83.7,72.6,83.8,72.7,83.7,72.8"/>
				<path class="st22" d="M83.8,73C83.7,73,83.7,73,83.8,73c-0.1-0.1-0.1-0.1-0.1-0.1C83.8,72.8,83.8,72.8,83.8,73"/>
				<path class="st22" d="M83.4,72.7C83.4,72.8,83.3,72.7,83.4,72.7c-0.1-0.1-0.1-0.1-0.1-0.1C83.4,72.6,83.4,72.6,83.4,72.7
					C83.4,72.7,83.4,72.7,83.4,72.7"/>
				<path class="st22" d="M83.2,72.6L83.2,72.6L83.2,72.6L83.2,72.6L83.2,72.6L83.2,72.6C83.2,72.5,83.2,72.5,83.2,72.6L83.2,72.6
					l0-0.2l-0.1,0l-0.1,0L83.2,72.6L83.2,72.6C83.1,72.5,83.1,72.5,83.2,72.6L83.2,72.6L83,72.5v0.1L83.2,72.6L83.2,72.6
					C83.1,72.6,83.1,72.6,83.2,72.6l-0.1,0.2c0,0,0,0,0,0l0,0l0,0c0,0,0,0,0,0c0,0,0,0.1,0.1,0.1c0,0,0,0,0,0c0,0,0,0,0,0
					c0,0,0,0,0,0c0,0,0,0,0,0c0,0,0.1,0,0.1-0.1c0,0,0,0,0,0v0l0,0c0,0,0,0,0,0L83.2,72.6C83.2,72.6,83.2,72.6,83.2,72.6"/>
				<path class="st22" d="M83.8,73L83.8,73C83.7,73,83.7,73.1,83.8,73c-0.1,0.1-0.1,0-0.1,0l0,0.2c0,0,0.1,0,0.1,0
					c0,0.1-0.1,0.1-0.1,0.1c0,0-0.1,0-0.1-0.1c0,0,0.1-0.1,0.1,0c0-0.1,0-0.1-0.1-0.1c0.1-0.1,0.1-0.1,0-0.2c-0.1,0.1-0.1,0.1,0,0.2
					c0-0.1-0.1,0-0.1,0.1c0-0.1,0.1,0,0.1,0c0,0-0.1,0.1-0.1,0.1c-0.1,0-0.1-0.1-0.1-0.1c0,0,0.1,0,0.1,0.1l0-0.2
					c0,0-0.1,0.1-0.1,0.1c0,0,0.1-0.1,0.1-0.1h-0.1h0h0h-0.1c0,0,0.1,0.1,0.1,0.1c0,0-0.1,0-0.1-0.1l0,0.2c0-0.1,0.1-0.1,0.1-0.1
					c0,0.1,0,0.1-0.1,0.1c-0.1,0-0.1,0-0.1-0.1c0-0.1,0-0.1,0.1,0c0-0.1,0-0.1-0.1-0.1c0-0.1,0-0.1,0-0.2c-0.1,0.1-0.1,0.1,0,0.2
					c0,0-0.1,0-0.1,0.1c0-0.1,0.1,0,0.1,0c0,0,0,0.1-0.1,0.1c0,0-0.1,0-0.1-0.1c0,0,0,0,0.1,0l0-0.2c0,0,0,0.1,0,0.1
					c0,0,0-0.1,0-0.1l-0.1,0c0.1,0.1,0.1,0.2,0.1,0.3c0.1,0,0.3,0,0.5,0"/>
				<path class="st22" d="M83.2,73.3c0.2,0,0.3,0,0.5,0c0-0.2,0.1-0.3,0.1-0.3"/>
			</g>
			<rect x="84.7" y="72.4" class="st22" width="3.2" height="1"/>
		</g>
		<g>
			<path class="st23" d="M33,94.6h18.9V72c0,0-5.8-2.1-9.7-1.9c-8.9,0.4-9.7,2.6-9.7,2.6L33,94.6z"/>
			<path class="st24" d="M52.7,90.8c-0.3-0.2-0.7-0.5-1.1-0.7c0.5-0.3,0.9-0.6,1.1-1v-4.4c-0.3-0.2-0.7-0.5-1.1-0.6
				c0.5-0.3,0.9-0.6,1.1-1v-4.3c-0.3-0.3-0.7-0.6-1.1-0.8c0.5-0.3,0.9-0.6,1.1-1v-4.6c-1.6-1.7-6.4-2.5-10.6-2.5
				c-4.5,0-9.5,0.9-10.7,2.8v3.7c0,0.1,0,0.2,0,0.2c0,0.5,0.4,1,1.2,1.4c-0.5,0.3-0.9,0.7-1.2,1v3.5c0,0.1,0,0.2,0,0.2
				c0,0.5,0.4,1,1.2,1.4c-0.4,0.2-0.9,0.5-1.2,0.8v3.7c0,0,0,0.1,0,0.1c0,0.5,0.4,1,1.2,1.4c-0.5,0.3-0.9,0.6-1.2,1v3.7
				c0,0.1,0,0.1,0,0.1c0,1.7,4.8,3.1,10.7,3.1c5.4,0,9.9-1.2,10.6-2.6V90.8z M32.9,73.5c0.2-0.6,3.4-2,9.1-2c6,0,9.2,1.5,9.2,2.1
				c0,0.1-0.1,0.2-0.3,0.3c-3.3,1.2-8,1.3-8.8,1.3c-0.8,0-5.7-0.1-9-1.3c-0.1-0.1-0.1-0.1-0.1-0.2V73.5z M51.3,92
				c-3.3,1.3-8.3,1.4-9.2,1.4c-0.8,0-5.8-0.1-9.2-1.4v-1.6c1.9,0.9,5.3,1.5,9.2,1.5c3.9,0,7.3-0.6,9.2-1.5V92z M51.3,85.9
				c-3.3,1.3-8.3,1.4-9.2,1.4c-0.8,0-5.8-0.1-9.2-1.4v-1.6c1.9,0.9,5.3,1.5,9.2,1.5c3.9,0,7.3-0.6,9.2-1.5V85.9z M51.3,79.9
				c-3.3,1.3-8.3,1.4-9.2,1.4c-0.8,0-5.8-0.1-9.2-1.4v-1.6c1.9,0.9,5.3,1.5,9.2,1.5c3.9,0,7.3-0.6,9.2-1.5V79.9z"/>
		</g>
		<path class="st25" d="M66.8,0C30.1,0,0.3,29.8,0.3,66.5c0,36.7,29.8,66.5,66.5,66.5s66.5-29.8,66.5-66.5
			C133.3,29.8,103.6,0,66.8,0z M66.8,118.2c-28.6,0-51.7-23.2-51.7-51.7c0-28.6,23.2-51.7,51.7-51.7s51.7,23.2,51.7,51.7
			C118.5,95.1,95.4,118.2,66.8,118.2z"/>
		<g>
			<path class="st22" d="M33.6,115.7c0.3-0.4,0.5-0.8,0.9-1.1c0.3-0.3,0.7-0.5,1.1-0.6c0.4-0.1,0.8-0.2,1.2-0.1
				c0.4,0,0.8,0.2,1.2,0.4c0.3,0.2,0.5,0.4,0.7,0.6c0.2,0.2,0.3,0.4,0.4,0.7c0.1,0.2,0.2,0.5,0.2,0.8c0,0.3,0,0.5,0,0.8l-0.8-0.2
				c0-0.2,0.1-0.3,0.1-0.5c0-0.2,0-0.4-0.1-0.5c-0.1-0.2-0.2-0.4-0.3-0.5c-0.1-0.2-0.3-0.3-0.5-0.4c-0.3-0.2-0.6-0.3-0.9-0.3
				c-0.3,0-0.6,0-0.9,0.2c-0.3,0.1-0.5,0.3-0.8,0.5c-0.2,0.2-0.5,0.5-0.6,0.8l-0.1,0.1c-0.2,0.3-0.3,0.6-0.4,0.9
				c-0.1,0.3-0.1,0.6-0.1,0.9c0,0.3,0.1,0.6,0.2,0.8c0.1,0.3,0.4,0.5,0.7,0.7c0.2,0.1,0.4,0.2,0.6,0.2s0.4,0,0.6,0
				c0.2,0,0.4-0.1,0.5-0.2c0.2-0.1,0.3-0.2,0.4-0.3l0.5,0.6c-0.2,0.2-0.5,0.3-0.7,0.4c-0.2,0.1-0.5,0.2-0.8,0.2
				c-0.3,0-0.5,0-0.8-0.1c-0.3-0.1-0.5-0.2-0.8-0.4c-0.4-0.2-0.7-0.5-0.9-0.9c-0.2-0.3-0.4-0.7-0.4-1.1c-0.1-0.4,0-0.8,0.1-1.2
				C33.2,116.5,33.4,116.1,33.6,115.7z"/>
			<path class="st22" d="M41.8,118.6c0.3,0.1,0.5,0.3,0.7,0.6c0.2,0.2,0.3,0.5,0.4,0.8c0.1,0.3,0.1,0.6,0.1,0.9c0,0.3-0.1,0.6-0.3,1
				c-0.2,0.3-0.4,0.6-0.6,0.8c-0.2,0.2-0.5,0.4-0.8,0.5c-0.3,0.1-0.6,0.2-0.9,0.2c-0.3,0-0.6-0.1-0.9-0.2c-0.3-0.1-0.5-0.3-0.7-0.6
				c-0.2-0.2-0.3-0.5-0.4-0.8c-0.1-0.3-0.1-0.6-0.1-0.9c0-0.3,0.1-0.6,0.3-1c0.2-0.3,0.4-0.6,0.6-0.8c0.2-0.2,0.5-0.4,0.8-0.5
				s0.6-0.2,0.9-0.2C41.2,118.3,41.5,118.4,41.8,118.6z M39.9,122.5c0.2,0.1,0.4,0.1,0.6,0.1c0.2,0,0.4-0.1,0.6-0.2
				c0.2-0.1,0.3-0.2,0.5-0.4c0.1-0.2,0.3-0.4,0.4-0.6l0-0.1c0.1-0.2,0.2-0.4,0.2-0.7c0-0.2,0-0.4,0-0.6c0-0.2-0.1-0.4-0.2-0.5
				c-0.1-0.2-0.3-0.3-0.5-0.4s-0.4-0.1-0.6-0.1c-0.2,0-0.4,0.1-0.6,0.2c-0.2,0.1-0.3,0.2-0.5,0.4c-0.1,0.2-0.3,0.4-0.4,0.6l0,0.1
				c-0.1,0.2-0.2,0.4-0.2,0.6c0,0.2,0,0.4,0,0.6c0,0.2,0.1,0.4,0.2,0.5C39.5,122.2,39.7,122.4,39.9,122.5z"/>
			<path class="st22" d="M44.8,120l0.7,0.3l-0.2,0.5c0.2-0.2,0.5-0.2,0.7-0.2c0.3,0,0.5,0,0.8,0.1c0.3,0.1,0.5,0.2,0.6,0.4
				c0.2,0.2,0.3,0.3,0.3,0.5c0.1,0.2,0.1,0.4,0.1,0.6c0,0.2,0,0.4-0.1,0.6l-1.2,3.1l-0.7-0.3l1.1-2.8c0.1-0.2,0.1-0.4,0.1-0.5
				c0-0.2,0-0.3-0.1-0.4c-0.1-0.1-0.1-0.2-0.2-0.3c-0.1-0.1-0.2-0.1-0.3-0.2c-0.1-0.1-0.3-0.1-0.4-0.1s-0.3,0-0.5,0.1
				c-0.1,0.1-0.3,0.2-0.4,0.3c-0.1,0.1-0.2,0.3-0.3,0.5l-1,2.7l-0.7-0.3L44.8,120z"/>
			<path class="st22" d="M50.7,122.1l0.9,0.3l-0.2,0.7l-0.9-0.3l-1.2,3.9l-0.8-0.2l1.2-3.9l-0.8-0.2l0.2-0.7l0.8,0.2l0.3-0.9
				c0.1-0.2,0.1-0.4,0.2-0.5c0.1-0.1,0.2-0.2,0.4-0.3c0.1-0.1,0.3-0.1,0.5-0.1c0.2,0,0.3,0,0.5,0.1c0.2,0.1,0.3,0.1,0.5,0.2
				c0.1,0.1,0.2,0.1,0.3,0.1l-0.3,0.6c0,0-0.1,0-0.2-0.1s-0.1,0-0.2-0.1c-0.1,0-0.1,0-0.2-0.1c-0.1,0-0.1,0-0.1,0
				c-0.1,0-0.2,0-0.3,0c-0.1,0-0.1,0-0.2,0.1c-0.1,0-0.1,0.1-0.1,0.2c0,0.1-0.1,0.1-0.1,0.2L50.7,122.1z"/>
			<path class="st22" d="M52.4,125.3c0,0.2,0,0.4,0,0.6c0,0.2,0.1,0.4,0.2,0.6c0.1,0.2,0.2,0.3,0.4,0.4c0.2,0.1,0.3,0.2,0.6,0.2
				c0.3,0.1,0.5,0.1,0.7,0c0.2,0,0.4-0.1,0.6-0.2l0.3,0.6c-0.2,0.1-0.5,0.2-0.8,0.3c-0.3,0-0.6,0-1,0c-0.3-0.1-0.6-0.2-0.9-0.4
				c-0.2-0.2-0.4-0.4-0.6-0.7c-0.1-0.3-0.2-0.6-0.3-0.9c0-0.3,0-0.7,0.1-1c0.1-0.4,0.2-0.7,0.4-1c0.2-0.3,0.4-0.5,0.6-0.7
				c0.2-0.2,0.5-0.3,0.8-0.4c0.3-0.1,0.6-0.1,0.9,0c0.3,0.1,0.6,0.2,0.8,0.4c0.2,0.2,0.4,0.4,0.5,0.6c0.1,0.3,0.2,0.5,0.2,0.9
				c0,0.3,0,0.7-0.1,1l-0.1,0.2L52.4,125.3z M54.2,123.6c-0.2,0-0.4,0-0.5,0c-0.2,0-0.3,0.1-0.5,0.2c-0.1,0.1-0.3,0.2-0.4,0.4
				c-0.1,0.2-0.2,0.3-0.2,0.5l2.5,0.6c0-0.2,0-0.4,0-0.5c0-0.2-0.1-0.3-0.1-0.5c-0.1-0.2-0.2-0.3-0.3-0.4
				C54.5,123.7,54.4,123.6,54.2,123.6z"/>
			<path class="st22" d="M59.7,124.7l-0.1,0c-0.2,0-0.4,0-0.6,0c-0.2,0-0.4,0.1-0.5,0.2c-0.2,0.1-0.3,0.2-0.4,0.4
				c-0.1,0.2-0.2,0.5-0.2,0.8l-0.4,2.4l-0.8-0.1l0.7-4.8l0.8,0.1l-0.1,0.8c0.1-0.1,0.2-0.2,0.3-0.3c0.1-0.1,0.2-0.2,0.4-0.2
				c0.1-0.1,0.3-0.1,0.4-0.1c0.1,0,0.3,0,0.4,0l0.2,0L59.7,124.7z"/>
			<path class="st22" d="M60.9,126.8c0,0.2,0,0.4,0.1,0.6c0.1,0.2,0.2,0.4,0.3,0.5c0.1,0.1,0.3,0.3,0.4,0.4c0.2,0.1,0.4,0.1,0.6,0.2
				c0.3,0,0.5,0,0.7-0.1c0.2-0.1,0.4-0.2,0.6-0.3l0.4,0.6c-0.2,0.2-0.5,0.3-0.8,0.4c-0.3,0.1-0.6,0.1-1,0.1c-0.3,0-0.7-0.1-0.9-0.3
				c-0.3-0.1-0.5-0.3-0.7-0.6c-0.2-0.2-0.3-0.5-0.4-0.8c-0.1-0.3-0.1-0.7-0.1-1c0-0.4,0.1-0.7,0.2-1c0.1-0.3,0.3-0.5,0.5-0.8
				c0.2-0.2,0.4-0.4,0.7-0.5c0.3-0.1,0.6-0.1,0.9-0.1c0.3,0,0.6,0.1,0.8,0.3c0.2,0.1,0.4,0.3,0.6,0.6c0.2,0.2,0.3,0.5,0.4,0.8
				c0.1,0.3,0.1,0.6,0.1,1l0,0.2L60.9,126.8z M62.4,124.8c-0.2,0-0.4,0-0.5,0.1c-0.2,0.1-0.3,0.2-0.4,0.3c-0.1,0.1-0.2,0.3-0.3,0.4
				c-0.1,0.2-0.1,0.3-0.2,0.5l2.5,0.2c0-0.2,0-0.4-0.1-0.5c0-0.2-0.1-0.3-0.2-0.5c-0.1-0.1-0.2-0.3-0.4-0.3
				C62.8,124.9,62.6,124.8,62.4,124.8z"/>
			<path class="st22" d="M65.6,124.4l0.8,0l0,0.6c0.2-0.2,0.4-0.4,0.6-0.5c0.2-0.1,0.5-0.2,0.8-0.2c0.3,0,0.5,0,0.7,0.1
				c0.2,0.1,0.4,0.2,0.5,0.3s0.2,0.3,0.3,0.5c0.1,0.2,0.1,0.4,0.1,0.6l0.1,3.3l-0.8,0l0-3c0-0.2,0-0.4-0.1-0.5
				c-0.1-0.1-0.1-0.3-0.2-0.4c-0.1-0.1-0.2-0.2-0.3-0.2c-0.1,0-0.3-0.1-0.4-0.1c-0.2,0-0.3,0-0.4,0.1c-0.1,0.1-0.3,0.1-0.4,0.3
				c-0.1,0.1-0.2,0.3-0.3,0.4c-0.1,0.2-0.1,0.4-0.1,0.6l0,2.9l-0.8,0L65.6,124.4z"/>
			<path class="st22" d="M71.5,126.6c0,0.2,0.1,0.5,0.2,0.7c0.1,0.2,0.2,0.4,0.3,0.5c0.1,0.2,0.3,0.3,0.5,0.3
				c0.2,0.1,0.4,0.1,0.6,0.1c0.2,0,0.3,0,0.4-0.1c0.1-0.1,0.2-0.1,0.3-0.2c0.1-0.1,0.2-0.2,0.2-0.3c0.1-0.1,0.1-0.2,0.2-0.3l0.7,0.3
				c-0.1,0.2-0.2,0.3-0.3,0.5c-0.1,0.2-0.2,0.3-0.4,0.4c-0.2,0.1-0.3,0.2-0.5,0.3c-0.2,0.1-0.4,0.1-0.6,0.1c-0.3,0-0.6,0-0.9-0.1
				c-0.3-0.1-0.5-0.2-0.7-0.4c-0.2-0.2-0.4-0.4-0.5-0.7c-0.1-0.3-0.2-0.6-0.3-1c0-0.4,0-0.7,0.1-1c0.1-0.3,0.2-0.6,0.4-0.8
				c0.2-0.2,0.4-0.4,0.6-0.6c0.3-0.1,0.6-0.2,0.9-0.3c0.2,0,0.4,0,0.6,0c0.2,0,0.4,0.1,0.6,0.2c0.2,0.1,0.3,0.2,0.5,0.3
				c0.1,0.1,0.3,0.3,0.4,0.4l-0.6,0.4c-0.1-0.1-0.2-0.2-0.2-0.3c-0.1-0.1-0.2-0.2-0.3-0.2s-0.2-0.1-0.4-0.1c-0.1,0-0.3,0-0.4,0
				c-0.2,0-0.4,0.1-0.6,0.2c-0.2,0.1-0.3,0.3-0.4,0.4s-0.2,0.4-0.2,0.6C71.5,126.1,71.5,126.4,71.5,126.6L71.5,126.6z"/>
			<path class="st22" d="M76.5,126.3c0.1,0.2,0.1,0.4,0.2,0.6c0.1,0.2,0.2,0.3,0.4,0.4c0.2,0.1,0.3,0.2,0.5,0.2s0.4,0,0.6,0
				c0.3,0,0.5-0.1,0.7-0.3c0.2-0.1,0.3-0.3,0.5-0.4l0.5,0.5c-0.2,0.2-0.4,0.4-0.7,0.6c-0.3,0.2-0.6,0.3-0.9,0.3
				c-0.3,0.1-0.7,0.1-1,0c-0.3-0.1-0.6-0.2-0.8-0.4c-0.2-0.2-0.4-0.4-0.6-0.7c-0.2-0.3-0.3-0.6-0.3-1c-0.1-0.4-0.1-0.7,0-1
				c0-0.3,0.1-0.6,0.3-0.9c0.1-0.3,0.3-0.5,0.6-0.6c0.2-0.2,0.5-0.3,0.8-0.3c0.3-0.1,0.6,0,0.9,0c0.3,0.1,0.5,0.2,0.7,0.4
				c0.2,0.2,0.4,0.4,0.5,0.7c0.1,0.3,0.3,0.6,0.3,1l0,0.2L76.5,126.3z M77.5,124c-0.2,0-0.4,0.1-0.5,0.2c-0.1,0.1-0.3,0.2-0.3,0.4
				c-0.1,0.2-0.1,0.3-0.2,0.5c0,0.2,0,0.4,0,0.5l2.5-0.5c0-0.2-0.1-0.4-0.2-0.5c-0.1-0.2-0.2-0.3-0.3-0.4c-0.1-0.1-0.3-0.2-0.4-0.2
				C77.8,124,77.7,124,77.5,124z"/>
			<path class="st22" d="M84.5,125.9l3.2-1l0.2,0.7l-4.3,1.4l-0.2-0.8c0.3-0.4,0.6-0.8,0.9-1.1c0.3-0.3,0.5-0.7,0.7-0.9
				c0.2-0.3,0.3-0.6,0.5-0.8c0.1-0.2,0.2-0.5,0.3-0.7c0.1-0.2,0.1-0.4,0.1-0.6c0-0.2,0-0.4-0.1-0.6c-0.1-0.2-0.1-0.3-0.3-0.5
				c-0.1-0.1-0.2-0.3-0.4-0.3c-0.2-0.1-0.3-0.1-0.5-0.2c-0.2,0-0.4,0-0.6,0.1c-0.2,0.1-0.3,0.1-0.5,0.2c-0.1,0.1-0.3,0.2-0.4,0.4
				c-0.1,0.1-0.1,0.3-0.2,0.5c0,0.2,0,0.4,0.1,0.7l-0.8,0.2c-0.1-0.3-0.1-0.6-0.1-0.9s0.1-0.5,0.2-0.7c0.1-0.2,0.3-0.4,0.5-0.6
				c0.2-0.2,0.5-0.3,0.8-0.4c0.3-0.1,0.6-0.1,0.9-0.1c0.3,0,0.6,0.1,0.8,0.2c0.3,0.1,0.5,0.3,0.7,0.5c0.2,0.2,0.3,0.5,0.4,0.8
				c0.1,0.3,0.2,0.7,0.1,1c0,0.3-0.1,0.7-0.3,1.1s-0.4,0.8-0.6,1.2c-0.3,0.4-0.6,0.9-1,1.4L84.5,125.9L84.5,125.9z"/>
			<path class="st22" d="M89,117.8c0.3-0.1,0.5-0.2,0.8-0.2c0.2,0,0.5,0,0.7,0.1c0.2,0.1,0.4,0.2,0.6,0.3c0.2,0.2,0.4,0.3,0.6,0.5
				c0.2,0.2,0.3,0.4,0.5,0.7c0.1,0.2,0.3,0.5,0.4,0.8c0.1,0.3,0.2,0.5,0.3,0.8s0.1,0.5,0.2,0.8c0,0.3,0,0.5,0,0.8
				c0,0.3-0.1,0.5-0.2,0.7c-0.1,0.2-0.2,0.4-0.4,0.6c-0.2,0.2-0.4,0.3-0.7,0.4c-0.3,0.1-0.5,0.2-0.8,0.2c-0.2,0-0.5,0-0.7-0.1
				c-0.2-0.1-0.4-0.2-0.6-0.3c-0.2-0.1-0.4-0.3-0.6-0.5c-0.2-0.2-0.3-0.4-0.5-0.7c-0.1-0.2-0.3-0.5-0.4-0.8
				c-0.1-0.3-0.2-0.5-0.3-0.8c-0.1-0.3-0.1-0.5-0.2-0.8c0-0.3,0-0.5,0-0.8c0-0.3,0.1-0.5,0.2-0.7c0.1-0.2,0.2-0.4,0.4-0.6
				C88.5,118,88.7,117.9,89,117.8z M91.5,123.5c0.2-0.1,0.4-0.2,0.5-0.4c0.1-0.2,0.2-0.4,0.2-0.7c0-0.3,0-0.5,0-0.9
				c-0.1-0.3-0.2-0.7-0.3-1l-0.1-0.3c-0.2-0.4-0.3-0.7-0.5-0.9c-0.2-0.3-0.4-0.5-0.6-0.6c-0.2-0.1-0.4-0.2-0.6-0.3
				c-0.2,0-0.4,0-0.6,0.1c-0.2,0.1-0.4,0.2-0.5,0.4c-0.1,0.2-0.2,0.4-0.2,0.7c0,0.3,0,0.5,0,0.9s0.2,0.7,0.3,1l0.1,0.3
				c0.2,0.4,0.3,0.7,0.5,0.9c0.2,0.3,0.4,0.5,0.6,0.6c0.2,0.1,0.4,0.2,0.6,0.3C91.1,123.6,91.3,123.5,91.5,123.5z"/>
			<path class="st22" d="M92.6,117.4c0.2-0.1,0.3-0.2,0.4-0.3s0.2-0.2,0.2-0.3c0-0.1,0-0.2,0-0.3c0-0.1-0.1-0.3-0.2-0.4l-0.1-0.1
				l0.7-0.4l3.2,6l-0.7,0.4l-2.3-4.4l-1.2,0.6l-0.3-0.6L92.6,117.4z"/>
			<path class="st22" d="M98.3,113.6l-3,1.9l-0.4-0.6l3.7-2.4l0.4,0.6l1.1,6.4l-0.8,0.5L98.3,113.6z"/>
		</g>
		<g>
			<path class="st22" d="M21.8,27.4c0.4,0.3,0.7,0.7,1,1c0.2,0.4,0.4,0.7,0.5,1.1c0.1,0.4,0,0.8-0.1,1.2c-0.1,0.4-0.3,0.8-0.7,1.2
				l-1.3,1.7l-5.3-4.2l1.3-1.7c0.3-0.4,0.7-0.7,1-0.9c0.4-0.2,0.7-0.3,1.1-0.3c0.4,0,0.8,0.1,1.2,0.2S21.4,27.1,21.8,27.4z M21.2,28
				c-0.3-0.2-0.6-0.4-0.9-0.5c-0.3-0.1-0.6-0.2-0.9-0.2c-0.3,0-0.6,0.1-0.9,0.2c-0.3,0.1-0.5,0.4-0.8,0.7l-0.8,1l4.2,3.3l0.8-1
				c0.2-0.3,0.4-0.6,0.5-0.9c0.1-0.3,0.1-0.6,0-0.9c-0.1-0.3-0.2-0.6-0.4-0.8c-0.2-0.3-0.4-0.5-0.7-0.7L21.2,28z"/>
			<path class="st22" d="M28.2,24L28.2,24l-3-4.8l0.6-0.6l3.6,5.9l-0.7,0.7l-4.9-3l2.8,5l-0.7,0.7l-5.8-3.8l0.6-0.6l4.7,3.2l0,0
				l-2.8-5l0.6-0.6L28.2,24z"/>
			<path class="st22" d="M27.3,17.5l1.9-1.4c0.3-0.2,0.5-0.3,0.8-0.4c0.3-0.1,0.5-0.1,0.8,0c0.3,0,0.5,0.1,0.7,0.3
				c0.2,0.1,0.4,0.3,0.6,0.6c0.2,0.3,0.3,0.5,0.4,0.8c0.1,0.3,0.1,0.5,0,0.8c0,0.3-0.1,0.5-0.3,0.8c-0.2,0.2-0.4,0.5-0.6,0.7
				l-1.2,0.9l1.5,2l-0.7,0.5L27.3,17.5z M31.5,17c-0.1-0.2-0.3-0.3-0.4-0.4c-0.2-0.1-0.3-0.2-0.5-0.2c-0.2,0-0.3,0-0.5,0
				c-0.2,0-0.4,0.1-0.5,0.3l-1.1,0.8l1.7,2.2l1.1-0.8c0.2-0.1,0.3-0.3,0.4-0.4c0.1-0.2,0.2-0.3,0.2-0.5c0-0.2,0-0.3,0-0.5
				C31.7,17.3,31.6,17.2,31.5,17L31.5,17z"/>
			<path class="st22" d="M36.5,17.3c0.4,0.1,0.8,0.2,1.2,0.1c0.4,0,0.7-0.2,1-0.3c0.2-0.1,0.4-0.3,0.6-0.4c0.1-0.2,0.2-0.3,0.3-0.5
				c0.1-0.2,0.1-0.3,0.1-0.5s-0.1-0.3-0.1-0.4c-0.1-0.2-0.2-0.3-0.4-0.4c-0.1-0.1-0.3-0.1-0.5-0.1c-0.2,0-0.4,0-0.6,0.1
				c-0.2,0.1-0.4,0.1-0.6,0.2l-0.1,0c-0.1,0-0.3,0.1-0.4,0.1c-0.2,0.1-0.3,0.1-0.5,0.1c-0.2,0-0.3,0.1-0.5,0.1c-0.2,0-0.3,0-0.5-0.1
				c-0.2,0-0.4-0.1-0.6-0.3c-0.2-0.1-0.3-0.3-0.5-0.6c-0.1-0.2-0.2-0.4-0.2-0.6c0-0.2,0-0.5,0.1-0.7c0.1-0.3,0.2-0.5,0.4-0.8
				c0.2-0.3,0.5-0.5,0.9-0.7c0.4-0.2,0.8-0.4,1.3-0.4c0.2,0,0.4,0,0.5,0c0.2,0,0.4,0,0.6,0.1l-0.3,0.8c-0.3-0.1-0.6-0.1-0.9,0
				c-0.3,0.1-0.6,0.2-0.9,0.3c-0.2,0.1-0.4,0.2-0.5,0.4s-0.2,0.3-0.3,0.4c-0.1,0.2-0.1,0.3-0.1,0.5c0,0.1,0,0.3,0.1,0.4
				c0.1,0.2,0.2,0.3,0.4,0.4c0.1,0.1,0.3,0.1,0.5,0.1c0.2,0,0.3,0,0.5-0.1c0.2-0.1,0.4-0.1,0.6-0.2l0,0c0.3-0.1,0.6-0.2,0.9-0.3
				c0.3-0.1,0.6-0.1,0.8-0.1c0.3,0,0.5,0.1,0.7,0.2c0.2,0.1,0.4,0.3,0.6,0.6c0.1,0.2,0.2,0.5,0.2,0.7c0,0.3,0,0.5-0.1,0.8
				c-0.1,0.3-0.2,0.5-0.5,0.8c-0.2,0.3-0.5,0.5-0.9,0.7c-0.3,0.2-0.6,0.3-0.8,0.4c-0.3,0.1-0.5,0.1-0.8,0.1c-0.2,0-0.4,0-0.6,0
				c-0.2,0-0.4-0.1-0.6-0.1L36.5,17.3z"/>
			<path class="st22" d="M41.8,10.8c0.3-0.1,0.6-0.2,0.9-0.2c0.3,0,0.6,0.1,0.9,0.2c0.3,0.1,0.5,0.3,0.7,0.5
				c0.2,0.2,0.4,0.5,0.6,0.9c0.1,0.3,0.2,0.7,0.3,1c0,0.3,0,0.6-0.1,0.9c-0.1,0.3-0.2,0.5-0.4,0.8s-0.4,0.4-0.8,0.5
				c-0.3,0.1-0.6,0.2-0.9,0.2c-0.3,0-0.6-0.1-0.9-0.2c-0.3-0.1-0.5-0.3-0.7-0.5c-0.2-0.2-0.4-0.5-0.6-0.8c-0.2-0.3-0.2-0.7-0.3-1
				c0-0.3,0-0.6,0.1-0.9c0.1-0.3,0.2-0.5,0.4-0.8S41.5,10.9,41.8,10.8z M43.6,14.7c0.2-0.1,0.4-0.2,0.5-0.4c0.1-0.2,0.2-0.3,0.2-0.5
				c0-0.2,0-0.4,0-0.6c0-0.2-0.1-0.4-0.2-0.7l0-0.1c-0.1-0.2-0.2-0.4-0.4-0.6c-0.1-0.2-0.3-0.3-0.5-0.4c-0.2-0.1-0.4-0.2-0.6-0.2
				c-0.2,0-0.4,0-0.6,0.1c-0.2,0.1-0.4,0.2-0.5,0.4c-0.1,0.2-0.2,0.3-0.2,0.5c0,0.2,0,0.4,0,0.6c0,0.2,0.1,0.4,0.2,0.7l0,0.1
				c0.1,0.2,0.2,0.4,0.4,0.6c0.1,0.2,0.3,0.3,0.5,0.4c0.2,0.1,0.4,0.2,0.6,0.2C43.2,14.8,43.4,14.8,43.6,14.7z"/>
			<path class="st22" d="M46.2,9.1l0.9-0.3l0.2,0.7l-0.9,0.3l1.4,3.9l-0.7,0.3L45.7,10l-0.8,0.3l-0.2-0.7l0.8-0.3l-0.3-0.8
				C45,8.4,45,8.2,45,8c0-0.2,0.1-0.3,0.1-0.4c0.1-0.1,0.2-0.2,0.3-0.3C45.6,7.2,45.8,7.1,46,7c0.2-0.1,0.3-0.1,0.5-0.1
				c0.1,0,0.2,0,0.3-0.1l0.2,0.7c0,0-0.1,0-0.2,0c-0.1,0-0.1,0-0.2,0.1c-0.1,0-0.1,0-0.2,0.1c-0.1,0-0.1,0-0.1,0
				c-0.1,0-0.2,0.1-0.2,0.1c-0.1,0.1-0.1,0.1-0.1,0.2c0,0.1,0,0.1,0,0.2c0,0.1,0,0.1,0.1,0.2L46.2,9.1z"/>
			<path class="st22" d="M50.4,11.5c0,0.1,0.1,0.1,0.1,0.2c0,0.1,0.1,0.1,0.1,0.2c0.1,0,0.1,0.1,0.2,0.1c0.1,0,0.2,0,0.3-0.1
				c0,0,0.1,0,0.1,0c0,0,0.1,0,0.2-0.1c0.1,0,0.1,0,0.2-0.1c0,0,0.1,0,0.1-0.1l0.3,0.6c-0.1,0-0.2,0.1-0.3,0.1
				c-0.1,0-0.2,0.1-0.3,0.1c-0.1,0-0.2,0.1-0.3,0.1c-0.2,0.1-0.4,0.1-0.5,0.1c-0.2,0-0.3,0-0.4-0.1c-0.1-0.1-0.2-0.1-0.3-0.3
				c-0.1-0.1-0.2-0.3-0.2-0.5l-0.9-3L48,9.2l-0.2-0.7l0.9-0.3l-0.5-1.5l0.7-0.5l0.5,1.8l1.3-0.4l0.2,0.7l-1.3,0.4L50.4,11.5z"/>
			<path class="st22" d="M56.7,10.3l0.1-4l0.8-0.2l-0.2,5l-1,0.2l-1.7-3.6l-0.2,4l-1,0.2l-2.1-4.5l0.8-0.2l1.6,3.6l0.2-4L55,6.7
				L56.7,10.3z"/>
			<path class="st22" d="M62.1,10c-0.1,0.2-0.3,0.3-0.5,0.5c-0.2,0.1-0.5,0.2-0.8,0.2c-0.2,0-0.5,0-0.7,0c-0.2,0-0.4-0.1-0.6-0.2
				s-0.3-0.2-0.4-0.4C59.1,9.9,59,9.7,59,9.5c0-0.2,0-0.4,0-0.5c0-0.2,0.1-0.3,0.2-0.4s0.2-0.2,0.4-0.3S59.9,8,60.1,8l1.7-0.4l0-0.3
				c0-0.2-0.1-0.3-0.1-0.4c-0.1-0.1-0.2-0.2-0.3-0.3c-0.1-0.1-0.2-0.1-0.4-0.1c-0.1,0-0.3,0-0.4,0c-0.3,0-0.5,0.1-0.7,0.2
				c-0.2,0.1-0.4,0.2-0.6,0.3l-0.4-0.6c0.3-0.2,0.5-0.3,0.8-0.4c0.3-0.1,0.6-0.2,0.9-0.2c0.6-0.1,1,0,1.4,0.3
				c0.3,0.2,0.5,0.6,0.6,1.1l0.2,2.2c0,0.2,0.1,0.3,0.1,0.4c0.1,0.1,0.2,0.2,0.3,0.2l-0.4,0.6c-0.2,0-0.3-0.1-0.4-0.2
				C62.3,10.3,62.2,10.2,62.1,10L62.1,10z M60.6,8.5c-0.1,0-0.2,0.1-0.4,0.1c-0.1,0-0.2,0.1-0.3,0.2C59.9,8.9,59.9,9,59.8,9
				c0,0.1,0,0.2,0,0.3c0,0.1,0.1,0.3,0.1,0.4C60,9.8,60,9.9,60.1,10c0.1,0.1,0.2,0.1,0.3,0.1c0.1,0,0.3,0,0.4,0c0.1,0,0.3,0,0.4-0.1
				c0.1-0.1,0.3-0.1,0.4-0.2c0.1-0.1,0.2-0.2,0.2-0.3c0.1-0.1,0.1-0.2,0.1-0.4l-0.1-0.9L60.6,8.5z"/>
			<path class="st22" d="M66.5,6.2l-0.1,0c-0.2,0-0.4,0-0.6,0.1c-0.2,0.1-0.3,0.1-0.5,0.3c-0.1,0.1-0.2,0.3-0.3,0.5
				c-0.1,0.2-0.1,0.5-0.1,0.8l0.1,2.5l-0.8,0L64,5.6l0.8,0l0,0.8c0.1-0.1,0.1-0.3,0.2-0.4c0.1-0.1,0.2-0.2,0.3-0.3
				c0.1-0.1,0.3-0.1,0.4-0.2c0.1,0,0.3-0.1,0.4-0.1l0.2,0L66.5,6.2z"/>
			<path class="st22" d="M68,8.2c0,0.2,0,0.4,0.1,0.6c0.1,0.2,0.2,0.4,0.3,0.5c0.1,0.1,0.3,0.3,0.4,0.3c0.2,0.1,0.4,0.1,0.6,0.1
				c0.3,0,0.5,0,0.7-0.1c0.2-0.1,0.4-0.2,0.6-0.3l0.4,0.6c-0.2,0.2-0.5,0.3-0.8,0.4c-0.3,0.1-0.6,0.1-1,0.1c-0.3,0-0.7-0.1-0.9-0.2
				c-0.3-0.1-0.5-0.3-0.7-0.5c-0.2-0.2-0.3-0.5-0.4-0.8c-0.1-0.3-0.1-0.6-0.1-1c0-0.4,0.1-0.7,0.2-1c0.1-0.3,0.3-0.6,0.5-0.8
				c0.2-0.2,0.4-0.4,0.7-0.5c0.3-0.1,0.6-0.2,0.9-0.2c0.3,0,0.6,0.1,0.9,0.2c0.2,0.1,0.5,0.3,0.6,0.5c0.2,0.2,0.3,0.5,0.4,0.8
				s0.1,0.6,0.1,1l0,0.2L68,8.2z M69.4,6.2c-0.2,0-0.4,0-0.5,0.1c-0.2,0.1-0.3,0.2-0.4,0.3c-0.1,0.1-0.2,0.3-0.3,0.4
				C68.1,7.2,68,7.4,68,7.5l2.5,0.1c0-0.2,0-0.4-0.1-0.5c-0.1-0.2-0.1-0.3-0.2-0.5c-0.1-0.1-0.2-0.2-0.4-0.3
				C69.7,6.2,69.6,6.2,69.4,6.2z"/>
			<path class="st22" d="M75.4,4.1l4,0.7l-0.1,0.7L76.1,5l-0.4,2.2l2.9,0.5l-0.1,0.7l-2.9-0.5l-0.4,2.4l3.4,0.6l-0.1,0.7l-4.2-0.7
				L75.4,4.1z"/>
			<path class="st22" d="M80.7,7.1l0.8,0.2l-0.1,0.5c0.2-0.2,0.5-0.3,0.7-0.3c0.3,0,0.5,0,0.8,0.1c0.3,0.1,0.5,0.2,0.6,0.3
				c0.2,0.1,0.3,0.3,0.4,0.5C84,8.5,84,8.7,84,8.9c0,0.2,0,0.4-0.1,0.6l-0.8,3.2l-0.8-0.2l0.8-2.9c0.1-0.2,0.1-0.4,0.1-0.5
				c0-0.2,0-0.3-0.1-0.4c-0.1-0.1-0.1-0.2-0.3-0.3c-0.1-0.1-0.2-0.1-0.4-0.2c-0.1,0-0.3,0-0.5,0c-0.2,0-0.3,0.1-0.4,0.1
				c-0.1,0.1-0.3,0.2-0.4,0.3C81.1,8.8,81,9,80.9,9.2l-0.7,2.8l-0.8-0.2L80.7,7.1z"/>
			<path class="st22" d="M85,10.5c0.1-0.3,0.3-0.6,0.4-0.8c0.2-0.2,0.4-0.4,0.6-0.5C86.3,9,86.5,9,86.8,8.9s0.5,0,0.8,0.1
				c0.2,0.1,0.5,0.2,0.7,0.4c0.2,0.2,0.3,0.4,0.4,0.7l0.2-0.5l0.7,0.3l-1.7,4.5c-0.1,0.3-0.2,0.5-0.4,0.6c-0.2,0.1-0.4,0.2-0.6,0.3
				c-0.2,0-0.5,0.1-0.7,0c-0.2,0-0.5-0.1-0.7-0.2c-0.1,0-0.3-0.1-0.4-0.2s-0.3-0.1-0.4-0.2c-0.1-0.1-0.3-0.2-0.4-0.3
				c-0.1-0.1-0.2-0.2-0.3-0.3l0.5-0.5c0.1,0.1,0.2,0.1,0.2,0.2c0.1,0.1,0.2,0.2,0.3,0.2c0.1,0.1,0.2,0.1,0.3,0.2
				c0.1,0.1,0.3,0.1,0.4,0.2c0.2,0.1,0.4,0.1,0.5,0.1c0.2,0,0.3,0,0.4,0c0.1,0,0.3-0.1,0.4-0.2s0.2-0.2,0.2-0.4l0.3-0.9
				c-0.2,0.2-0.5,0.2-0.7,0.3c-0.3,0-0.5,0-0.8-0.1c-0.3-0.1-0.5-0.2-0.7-0.4c-0.2-0.2-0.3-0.4-0.4-0.7c-0.1-0.2-0.1-0.5-0.1-0.8
				C84.8,11.1,84.9,10.8,85,10.5z M88.1,11.6c0.1-0.2,0.1-0.4,0.1-0.6c0-0.2,0-0.4,0-0.5c0-0.2-0.1-0.3-0.3-0.4
				c-0.1-0.1-0.3-0.2-0.5-0.3c-0.2-0.1-0.4-0.1-0.6-0.1c-0.2,0-0.3,0.1-0.5,0.2c-0.1,0.1-0.3,0.2-0.4,0.4c-0.1,0.2-0.2,0.3-0.3,0.5
				l0,0c-0.1,0.2-0.1,0.4-0.1,0.6c0,0.2,0,0.4,0.1,0.5c0.1,0.2,0.1,0.3,0.3,0.4c0.1,0.1,0.3,0.2,0.5,0.3c0.2,0.1,0.4,0.1,0.6,0.1
				c0.2,0,0.3-0.1,0.5-0.2c0.1-0.1,0.3-0.2,0.4-0.4C87.9,12,88,11.8,88.1,11.6L88.1,11.6z"/>
			<path class="st22" d="M89.9,15.3l-0.7-0.3l1.9-4.4l0.7,0.3L89.9,15.3z M91.5,9.2c0-0.1,0.1-0.1,0.1-0.2c0.1,0,0.1-0.1,0.2-0.1
				c0.1,0,0.1,0,0.2,0c0.1,0,0.1,0,0.2,0c0.1,0,0.1,0.1,0.2,0.1c0,0.1,0.1,0.1,0.1,0.2c0,0.1,0,0.1,0,0.2c0,0.1,0,0.1,0,0.2
				c0,0.1-0.1,0.1-0.1,0.2c-0.1,0-0.1,0.1-0.2,0.1s-0.1,0-0.2,0c-0.1,0-0.1,0-0.2,0c-0.1,0-0.1-0.1-0.2-0.1c0-0.1-0.1-0.1-0.1-0.2
				c0-0.1,0-0.1,0-0.2S91.5,9.3,91.5,9.2z"/>
			<path class="st22" d="M93.3,11.5l0.7,0.4l-0.3,0.5c0.2-0.1,0.5-0.2,0.8-0.2c0.3,0,0.5,0.1,0.8,0.2c0.2,0.1,0.4,0.3,0.6,0.4
				c0.1,0.2,0.2,0.4,0.3,0.6c0.1,0.2,0.1,0.4,0,0.6c0,0.2-0.1,0.4-0.2,0.6l-1.5,2.9l-0.7-0.4l1.4-2.7c0.1-0.2,0.2-0.4,0.2-0.5
				c0-0.2,0-0.3,0-0.4c0-0.1-0.1-0.2-0.2-0.3c-0.1-0.1-0.2-0.2-0.3-0.2c-0.1-0.1-0.3-0.1-0.4-0.1c-0.2,0-0.3,0-0.5,0
				c-0.2,0-0.3,0.1-0.4,0.2c-0.1,0.1-0.3,0.3-0.4,0.5l-1.3,2.5l-0.7-0.4L93.3,11.5z"/>
			<path class="st22" d="M97.2,16.7c-0.1,0.2-0.2,0.4-0.2,0.6c0,0.2,0,0.4,0,0.6c0,0.2,0.1,0.4,0.2,0.5c0.1,0.2,0.3,0.3,0.4,0.4
				c0.2,0.1,0.4,0.2,0.7,0.3c0.2,0,0.4,0,0.7,0l0,0.7c-0.3,0-0.6,0-0.9,0c-0.3-0.1-0.6-0.2-0.9-0.4c-0.3-0.2-0.5-0.4-0.7-0.7
				c-0.2-0.3-0.3-0.5-0.3-0.8c0-0.3,0-0.6,0-0.9c0.1-0.3,0.2-0.6,0.4-0.9c0.2-0.3,0.4-0.6,0.7-0.8c0.3-0.2,0.5-0.3,0.8-0.4
				c0.3-0.1,0.6-0.1,0.9-0.1s0.6,0.1,0.9,0.3c0.3,0.2,0.5,0.4,0.6,0.6c0.1,0.2,0.2,0.5,0.3,0.8c0,0.3,0,0.6-0.1,0.9
				c-0.1,0.3-0.2,0.6-0.4,0.9l-0.1,0.2L97.2,16.7z M99.4,15.7c-0.2-0.1-0.3-0.2-0.5-0.2c-0.2,0-0.3,0-0.5,0
				c-0.2,0.1-0.3,0.1-0.5,0.2c-0.1,0.1-0.3,0.2-0.4,0.4l2.1,1.4c0.1-0.2,0.2-0.3,0.2-0.5c0-0.2,0.1-0.3,0-0.5c0-0.2-0.1-0.3-0.2-0.5
				C99.7,15.9,99.6,15.8,99.4,15.7z"/>
			<path class="st22" d="M101.4,19.5c-0.1,0.2-0.2,0.4-0.3,0.6c-0.1,0.2-0.1,0.4-0.1,0.6c0,0.2,0.1,0.4,0.2,0.5
				c0.1,0.2,0.2,0.3,0.4,0.5c0.2,0.2,0.4,0.3,0.6,0.3c0.2,0.1,0.4,0.1,0.6,0.1l0,0.7c-0.3,0-0.6,0-0.9-0.1c-0.3-0.1-0.6-0.2-0.9-0.4
				c-0.3-0.2-0.5-0.5-0.6-0.7c-0.1-0.3-0.2-0.6-0.3-0.9c0-0.3,0-0.6,0.1-0.9c0.1-0.3,0.3-0.6,0.5-0.9c0.2-0.3,0.5-0.5,0.7-0.7
				c0.3-0.2,0.5-0.3,0.8-0.4c0.3-0.1,0.6-0.1,0.9,0c0.3,0.1,0.6,0.2,0.8,0.4c0.3,0.2,0.4,0.4,0.6,0.7c0.1,0.3,0.2,0.5,0.2,0.8
				c0,0.3,0,0.6-0.2,0.9s-0.3,0.6-0.5,0.9l-0.2,0.2L101.4,19.5z M103.7,18.7c-0.2-0.1-0.3-0.2-0.5-0.2c-0.2,0-0.3,0-0.5,0
				c-0.2,0-0.3,0.1-0.5,0.2c-0.2,0.1-0.3,0.2-0.4,0.4l2,1.6c0.1-0.2,0.2-0.3,0.2-0.5c0.1-0.2,0.1-0.3,0.1-0.5c0-0.2,0-0.3-0.1-0.5
				C104,18.9,103.9,18.8,103.7,18.7z"/>
			<path class="st22" d="M108.1,22.5L108.1,22.5c-0.2-0.2-0.4-0.3-0.6-0.4c-0.2-0.1-0.3-0.1-0.5-0.1c-0.2,0-0.4,0-0.6,0.1
				c-0.2,0.1-0.4,0.3-0.6,0.5l-1.6,1.8l-0.6-0.5l3.2-3.6l0.6,0.5l-0.5,0.6c0.1-0.1,0.3-0.1,0.4-0.1c0.1,0,0.3,0,0.4,0
				c0.1,0,0.3,0.1,0.4,0.2c0.1,0.1,0.3,0.2,0.4,0.3l0.2,0.2L108.1,22.5z"/>
			<path class="st22" d="M106.5,26.7l-0.6-0.6l3.4-3.4l0.6,0.6L106.5,26.7z M110.2,21.7c0.1-0.1,0.1-0.1,0.2-0.1c0.1,0,0.1,0,0.2,0
				c0.1,0,0.1,0,0.2,0c0.1,0,0.1,0.1,0.2,0.1c0.1,0.1,0.1,0.1,0.1,0.2c0,0.1,0,0.1,0,0.2c0,0.1,0,0.1,0,0.2c0,0.1-0.1,0.1-0.1,0.2
				c-0.1,0.1-0.1,0.1-0.2,0.1c-0.1,0-0.1,0-0.2,0c-0.1,0-0.1,0-0.2,0c-0.1,0-0.1-0.1-0.2-0.1c-0.1-0.1-0.1-0.1-0.1-0.2
				c0-0.1,0-0.1,0-0.2c0-0.1,0-0.1,0-0.2C110.1,21.8,110.2,21.7,110.2,21.7z"/>
			<path class="st22" d="M111.1,24.5l0.5,0.6l-0.4,0.4c0.3,0,0.5,0,0.8,0.1c0.2,0.1,0.5,0.3,0.7,0.5c0.2,0.2,0.3,0.4,0.4,0.6
				c0.1,0.2,0.1,0.4,0.1,0.6c0,0.2-0.1,0.4-0.2,0.6c-0.1,0.2-0.2,0.3-0.4,0.5l-2.4,2.2l-0.5-0.6l2.2-2c0.2-0.1,0.3-0.3,0.3-0.4
				c0.1-0.1,0.1-0.3,0.1-0.4c0-0.1,0-0.3-0.1-0.4c0-0.1-0.1-0.2-0.2-0.3c-0.1-0.1-0.2-0.2-0.4-0.3c-0.1-0.1-0.3-0.1-0.4-0.1
				c-0.2,0-0.3,0-0.5,0.1s-0.3,0.2-0.5,0.3l-2.1,1.9l-0.5-0.6L111.1,24.5z"/>
			<path class="st22" d="M112.8,29.7c0.3-0.2,0.5-0.3,0.8-0.4c0.3-0.1,0.5-0.1,0.8-0.1c0.3,0,0.5,0.1,0.7,0.2
				c0.2,0.1,0.4,0.3,0.6,0.5c0.2,0.2,0.3,0.4,0.3,0.7c0.1,0.3,0,0.5,0,0.8l0.4-0.3l0.5,0.6l-3.9,2.9c-0.2,0.2-0.5,0.3-0.7,0.3
				c-0.2,0-0.5,0-0.7-0.1c-0.2-0.1-0.4-0.2-0.6-0.4c-0.2-0.2-0.4-0.4-0.5-0.6c-0.1-0.1-0.2-0.2-0.2-0.4s-0.2-0.3-0.2-0.4
				c-0.1-0.1-0.1-0.3-0.2-0.4c0-0.1-0.1-0.3-0.1-0.4l0.7-0.2c0,0.1,0,0.2,0.1,0.3c0,0.1,0.1,0.2,0.1,0.3c0,0.1,0.1,0.2,0.2,0.4
				c0.1,0.1,0.1,0.3,0.2,0.4c0.1,0.2,0.2,0.3,0.4,0.4c0.1,0.1,0.3,0.2,0.4,0.2c0.1,0,0.3,0,0.4,0c0.1,0,0.3-0.1,0.4-0.2l0.7-0.5
				c-0.3,0-0.5-0.1-0.8-0.2c-0.2-0.1-0.4-0.3-0.6-0.5c-0.2-0.2-0.3-0.5-0.3-0.8c-0.1-0.3,0-0.5,0-0.8c0.1-0.3,0.2-0.5,0.3-0.7
				C112.4,30.1,112.6,29.9,112.8,29.7z M114.8,32.3c0.2-0.1,0.3-0.3,0.4-0.4c0.1-0.1,0.2-0.3,0.3-0.5c0-0.2,0.1-0.3,0-0.5
				c0-0.2-0.1-0.3-0.2-0.5c-0.1-0.2-0.3-0.3-0.4-0.4c-0.2-0.1-0.3-0.1-0.5-0.1c-0.2,0-0.3,0-0.5,0.1c-0.2,0.1-0.4,0.2-0.5,0.3l0,0
				c-0.2,0.1-0.3,0.3-0.4,0.4c-0.1,0.2-0.2,0.3-0.2,0.5c0,0.2-0.1,0.3,0,0.5c0,0.2,0.1,0.4,0.2,0.5c0.1,0.2,0.3,0.3,0.4,0.4
				c0.2,0.1,0.3,0.1,0.5,0.1c0.2,0,0.3,0,0.5-0.1C114.5,32.6,114.6,32.5,114.8,32.3L114.8,32.3z"/>
		</g>
	</g>
</g>
<g id="Layer_3">
	<g>
	</g>
	<g>
	</g>
	<g>
	</g>
	<g>
	</g>
	<g>
	</g>
	<g>
	</g>
</g>
</svg>
