<?xml version="1.0" encoding="utf-8"?>
<!-- Generator: Adobe Illustrator 21.0.0, SVG Export Plug-In . SVG Version: 6.00 Build 0)  -->
<svg version="1.1" id="Layer_1" xmlns="http://www.w3.org/2000/svg" xmlns:xlink="http://www.w3.org/1999/xlink" x="0px" y="0px"
	 viewBox="0 0 256 256" style="enable-background:new 0 0 256 256;" xml:space="preserve">
<style type="text/css">
	.st0{fill:#42B549;}
	.st1{fill:#E6E7E8;}
	.st2{fill:#FFFFFF;}
</style>
<g>
	<rect width="256" height="256"/>
	<g>
		<path class="st0" d="M41.7,148.7c0.8,1,1.3,1.9,1.3,3.2c0,2.9-2.2,4.4-4.9,4.4h-8.5c-1.5,0-2.7-0.3-3.9-1.2
			c-1-0.8-1.8-2.2-1.8-3.6c0-1.2,0.7-2.3,2-2.3c1.1,0,1.8,0.9,1.8,2c0,1.2,0.6,1.3,1.7,1.3H38c0.3,0,1.3,0.1,1.3-0.5
			c0-0.3-0.5-0.9-0.7-1.1l-13.2-17c-0.8-1-1.3-1.8-1.3-3.2c0-1.5,0.7-2.8,2-3.7c1.1-0.7,2-0.7,3.2-0.7h8.2c1.5,0,2.7,0.3,3.8,1.3
			c1,0.9,1.8,2.3,1.8,3.7c0,1.2-0.6,2.2-2,2.2c-1.2,0-1.8-0.7-1.8-1.8c0-1.3-0.7-1.5-1.8-1.5h-8.2c-0.4,0-1.3-0.1-1.3,0.5
			c0,0.3,0.4,0.8,0.6,1L41.7,148.7z"/>
		<path class="st0" d="M69.8,137.1c0.7,1.5,1,2.6,1,4.3c0,1.8-0.5,3-1.3,4.6L66,153c-0.9,1.8-2.5,3.2-4.7,3.2s-3.8-1.3-4.7-3.2
			l-3.5-7.1c-0.8-1.6-1.3-2.7-1.3-4.6c0-1.7,0.3-2.8,1-4.3l3.9-7.7c0.9-1.8,2.5-3.2,4.7-3.2c2.2,0,3.7,1.3,4.7,3.2L69.8,137.1z
			 M62.6,131.3c-0.3-0.6-0.5-1.2-1.3-1.2c-0.8,0-1,0.5-1.3,1.2l-3.5,7c-0.6,1.1-0.9,1.8-0.9,3.1c0,1,0.2,1.7,0.7,2.5l3.7,7.3
			c0.3,0.5,0.5,1.2,1.3,1.2c0.8,0,1-0.6,1.3-1.2l3.7-7.3c0.4-0.8,0.7-1.5,0.7-2.5c0-1.3-0.3-2-0.9-3.1L62.6,131.3z"/>
		<path class="st0" d="M79.5,126.3h17.1c1,0,1.9,0.5,1.9,1.9s-0.9,1.9-1.9,1.9H83.3v5.9h9.5c1,0,1.9,0.5,1.9,1.9
			c0,1.4-0.9,1.9-1.9,1.9h-9.5v14.4c0,1.2-0.5,1.9-1.9,1.9s-1.9-0.7-1.9-1.9V126.3z"/>
		<path class="st0" d="M111,130.1v1.4c0,1.2-0.5,1.9-1.9,1.9s-1.9-0.7-1.9-1.9v-5.2h19v5.2c0,1.2-0.5,1.9-1.9,1.9
			c-1.4,0-1.9-0.7-1.9-1.9v-1.4h-3.7v24.2c0,1.2-0.5,1.9-1.9,1.9c-1.4,0-1.9-0.7-1.9-1.9v-24.2H111z"/>
		<path class="st0" d="M146.8,156.2c-1.3,0-2.1-0.3-2.3-1.7h-0.1c-0.3,1.4-1,1.7-2.3,1.7h-2.9c-1.3,0-1.7-0.2-2.3-1.4l-1.3-2.3
			c-0.5-0.8-0.5-0.9-0.5-2v-22.3c0-1.2,0.5-1.9,1.9-1.9c1.4,0,1.9,0.7,1.9,1.9v22.3l1,1.8h1.7l1-1.8v-12.1c0-1.2,0.5-2.3,1.9-2.3
			c1.4,0,1.9,1.1,1.9,2.3v12.1l1,1.8h1.7l1-1.8v-22.3c0-1.2,0.5-1.9,1.9-1.9c1.4,0,1.9,0.7,1.9,1.9v22.3c0,1,0,1.1-0.5,2l-1.3,2.3
			c-0.7,1.2-1,1.4-2.3,1.4H146.8z"/>
		<path class="st0" d="M170.2,128.2c0.3-1,0.7-2,2-2c1.3,0,1.7,1,2,2l7.4,26.1c0.3,0.9-0.8,1.9-1.8,1.9c-1.2,0-1.8-1-2.1-1.9
			l-1.4-4.6H168l-1.5,4.6c-0.3,0.9-0.9,1.9-2.1,1.9c-1.1,0-2.1-1-1.8-1.9L170.2,128.2z M172.2,135.4L172.2,135.4l-3.1,10.4h6
			L172.2,135.4z"/>
		<path class="st0" d="M194.2,154.3c0,1.2-0.5,1.9-1.9,1.9c-1.4,0-1.9-0.7-1.9-1.9v-28h12.9c3,0,6.1,2.2,6.1,5.6v2.7
			c0,3.6-3,5.5-6.1,5.5h-3.5l8.7,12.4c0.4,0.6,1,1.3,1,2c0,1.1-0.9,1.8-2,1.8c-0.8,0-1.3-0.5-1.7-1.1L195.1,140h-0.9V154.3z
			 M194.2,136.1h8.5c1.1,0,2.8-0.1,2.8-1.6v-2.7c0-1.5-1.6-1.7-2.7-1.7h-8.6V136.1z"/>
		<path class="st0" d="M235.2,152.4c1,0,1.9,0.5,1.9,1.9c0,1.4-0.9,1.9-1.9,1.9h-17.1v-30h17.1c1,0,1.9,0.5,1.9,1.9
			s-0.9,1.9-1.9,1.9h-13.2v9.2h5.7c1,0,1.9,0.5,1.9,1.9c0,1.4-0.9,1.9-1.9,1.9h-5.7v9.2H235.2z"/>
		<path class="st0" d="M41.1,206.3c1,0,1.9,0.5,1.9,1.9c0,1.4-0.9,1.9-1.9,1.9H24.1v-30h17.1c1,0,1.9,0.5,1.9,1.9
			c0,1.4-0.9,1.9-1.9,1.9H27.9v9.2h5.7c1,0,1.9,0.5,1.9,1.9c0,1.4-0.9,1.9-1.9,1.9h-5.7v9.2H41.1z"/>
		<path class="st0" d="M67,182.1c0-1.2,0.5-1.9,1.9-1.9c1.4,0,1.9,0.7,1.9,1.9v28h-5.1l-10.1-23.1v0h-0.1v21.2
			c0,1.2-0.5,1.9-1.9,1.9s-1.9-0.7-1.9-1.9v-28h5.1l10,23.4h0h0.1L67,182.1z"/>
		<path class="st0" d="M90.9,200.3c-1,0-1.9-0.5-1.9-1.9c0-1.4,0.9-1.9,1.9-1.9h7.6v7.6c0,3.7-2.5,6-6.2,6h-6.6
			c-1.8,0-3.1-0.3-4.4-1.5c-1.5-1.4-1.8-2.8-1.8-4.7v-9.6c0-2.5,0.5-3.7,2-5.6l4.5-5.8c1.5-2,2.9-2.6,5.4-2.6h5.2
			c1,0,1.9,0.5,1.9,1.9c0,1.4-0.9,1.9-1.9,1.9H92c-2.1,0-2,0-3.2,1.6l-4.2,5.4c-1.2,1.5-1.2,3.1-1.2,5v7.5c0,2.1,0.5,2.8,2.7,2.8
			h6.1c1.4,0,2.5-0.3,2.5-2v-3.9H90.9z"/>
		<path class="st0" d="M118.6,206.3h5.7c1,0,1.9,0.5,1.9,1.9c0,1.4-0.9,1.9-1.9,1.9h-15.2c-1,0-1.9-0.5-1.9-1.9
			c0-1.4,0.9-1.9,1.9-1.9h5.7V184h-5.7c-1,0-1.9-0.5-1.9-1.9c0-1.4,0.9-1.9,1.9-1.9h15.2c1,0,1.9,0.5,1.9,1.9c0,1.4-0.9,1.9-1.9,1.9
			h-5.7V206.3z"/>
		<path class="st0" d="M150.1,182.1c0-1.2,0.5-1.9,1.9-1.9c1.4,0,1.9,0.7,1.9,1.9v28h-5.1l-10.1-23.1v0h-0.1v21.2
			c0,1.2-0.5,1.9-1.9,1.9c-1.4,0-1.9-0.7-1.9-1.9v-28h5.1l10,23.4h0h0.1L150.1,182.1z"/>
		<path class="st0" d="M179.7,206.3c1,0,1.9,0.5,1.9,1.9c0,1.4-0.9,1.9-1.9,1.9h-17.1v-30h17.1c1,0,1.9,0.5,1.9,1.9
			c0,1.4-0.9,1.9-1.9,1.9h-13.2v9.2h5.7c1,0,1.9,0.5,1.9,1.9c0,1.4-0.9,1.9-1.9,1.9h-5.7v9.2H179.7z"/>
		<path class="st0" d="M207.4,206.3c1,0,1.9,0.5,1.9,1.9c0,1.4-0.9,1.9-1.9,1.9h-17.1v-30h17.1c1,0,1.9,0.5,1.9,1.9
			c0,1.4-0.9,1.9-1.9,1.9h-13.2v9.2h5.7c1,0,1.9,0.5,1.9,1.9c0,1.4-0.9,1.9-1.9,1.9h-5.7v9.2H207.4z"/>
		<path class="st0" d="M221.9,208.2c0,1.2-0.5,1.9-1.9,1.9c-1.4,0-1.9-0.7-1.9-1.9v-28H231c3,0,6.1,2.2,6.1,5.6v2.7
			c0,3.6-3,5.5-6.1,5.5h-3.5l8.7,12.4c0.4,0.6,1,1.3,1,2c0,1.1-0.9,1.8-2,1.8c-0.8,0-1.3-0.5-1.7-1.1l-10.6-15.2h-0.9V208.2z
			 M221.9,190h8.5c1.1,0,2.8-0.1,2.8-1.6v-2.7c0-1.5-1.6-1.7-2.7-1.7h-8.6V190z"/>
	</g>
	<g>
		<path class="st1" d="M70.9,22.7c0.7,0,1.2,0.5,1.2,1.1c0,0.9-0.8,1.6-1.7,1.6h-5.2l-5,23.5c-0.2,0.8-0.9,1.4-1.7,1.4
			c-0.7,0-1.2-0.6-1.1-1.4l5-23.5h-5.2c-0.7,0-1.1-0.5-1.1-1.2c0-0.8,0.8-1.6,1.7-1.6H70.9z"/>
		<path class="st1" d="M84.6,36.6c-0.2,1.7-2.7,2.2-2.7,0c0-1.6-0.7-2.2-2.5-2.2c-2.1,0-4.1,1.5-4.5,3.5L72.5,49
			c-0.2,0.8-0.9,1.4-1.7,1.4s-1.3-0.6-1.1-1.4l3.3-15.7c0.2-0.7,0.9-1.3,1.7-1.3c0.7,0,1.2,0.5,1.1,1.3c0,0.1-0.1,0.7-0.2,0.8
			c1.2-1.7,3-2.2,4.4-2.2C83.2,31.8,84.8,33.9,84.6,36.6z"/>
		<path class="st1" d="M87.1,43.9l2.3-10.7c0.2-0.7,0.9-1.3,1.6-1.3c0.8,0,1.3,0.6,1.1,1.3l-2.3,10.7c-0.4,2.1,0.8,3.7,2.9,3.7
			c2,0,4-1.2,4.4-3.3l2.4-11.1c0.2-0.7,0.9-1.3,1.6-1.3c0.8,0,1.3,0.6,1.1,1.3L99,49c-0.2,0.7-0.9,1.3-1.7,1.3
			c-0.7,0-1.3-0.7-1.1-1.3l0-0.1c-1.2,0.9-2.6,1.4-4,1.4C88.6,50.4,86.4,47.5,87.1,43.9z"/>
		<path class="st1" d="M103.7,46.7c-0.2-0.7,0.1-1.5,0.8-1.8c0.8-0.3,1.7-0.1,1.9,0.6c0.5,1.9,2.5,2.2,3.7,2.2
			c1.1,0,3.7-0.3,3.7-2.8c0-1.2-1-1.8-3.3-2.6c-2.2-0.8-4.9-1.5-4.9-4.9c0-3.5,3.4-5.5,7.1-5.5c2.9,0,4.8,1.4,5.2,3.8
			c0.1,0.7-0.4,1.5-1.2,1.8c-0.8,0.2-1.5-0.1-1.6-0.8c-0.2-1.3-1.3-2-3-2c-1.5,0-3.7,0.8-3.7,2.7c0,1.7,2.5,2.1,3.7,2.6
			c2.4,0.8,4.5,2,4.5,4.9c0,4-3.9,5.6-7.1,5.6C106.5,50.4,104.3,49,103.7,46.7z"/>
		<path class="st1" d="M133.1,45.9c-1.1,2.8-3,4.5-5.9,4.5c-2.8,0-4.5-2.3-3.9-5.2l2.2-10.3h-2.4c-0.7,0-1.1-0.5-1.1-1.2
			c0-0.8,0.8-1.6,1.7-1.6h2.4l1.7-8.2c0.2-0.8,0.9-1.4,1.7-1.4c0.7,0,1.2,0.6,1.1,1.4l-1.7,8.2h3.9c0.7,0,1.2,0.5,1.2,1.1
			c0,0.9-0.8,1.6-1.7,1.6h-3.9l-2.2,10.3c-0.3,1.5,0.1,2.7,1.7,2.7c1.3,0,2.2-1.2,2.8-2.6C131.3,43.3,133.9,44.1,133.1,45.9z"/>
		<path class="st1" d="M170.5,38.4L168.3,49c-0.2,0.8-0.9,1.4-1.7,1.4c-0.7,0-1.2-0.6-1.1-1.4l2.3-10.6c0.4-2-0.4-3.7-2.5-3.7
			c-2,0-3.6,1.2-4,3.3L159,49c-0.2,0.8-0.9,1.4-1.6,1.4c-0.8,0-1.3-0.6-1.1-1.4l2.3-10.6c0.4-2-0.4-3.7-2.5-3.7c-2,0-3.5,1.2-4,3.3
			L149.7,49c-0.2,0.8-0.9,1.4-1.7,1.4s-1.3-0.6-1.1-1.4l3.3-15.7c0.2-0.8,0.9-1.4,1.7-1.4c0.8,0,1.2,0.6,1.1,1.4v0
			c1-0.9,2.1-1.4,3.5-1.4c1.8,0,3.3,0.9,3.9,2.5c1.2-1.7,3.1-2.5,5.4-2.5C169.4,31.9,171.3,34.7,170.5,38.4z"/>
		<path class="st1" d="M188.1,38.4l-0.6,2.7c-0.2,0.7-0.9,1.3-1.7,1.3h-8.8l-0.3,1.5c-0.6,2.8,0.9,3.7,2.9,3.7c1.4,0,2.9-0.7,3.8-2
			c0.5-0.7,1.4-1,2-0.7c0.6,0.3,0.7,1.3,0.3,2c-1.5,2.3-4.2,3.5-6.7,3.5c-3.6,0-5.9-2.9-5.1-6.5l1.2-5.5c0.7-3.5,4.3-6.5,7.9-6.5
			C186.6,31.9,188.9,34.8,188.1,38.4z M177.6,39.7h7.4l0.3-1.3c0.5-2.2-0.3-3.7-2.9-3.7c-2.1,0-4.1,1.7-4.5,3.7L177.6,39.7z"/>
		<path class="st1" d="M192.8,49.7c0,0.1-0.3,0.6-3.2,5.1c-0.3,0.5-0.8,0.9-1.4,0.9c-0.9,0-1.4-1-0.8-1.9l2.1-3.4
			c-0.3-0.3-0.5-0.7-0.5-1.1c0-1.3,1.2-2.5,2.5-2.5c1,0,1.7,0.8,1.7,1.8C193.2,49,193,49.4,192.8,49.7z"/>
		<path class="st1" d="M92.9,94.7c0,0.9-0.8,1.6-1.7,1.6h-9.6c-0.7,0-1.1-0.5-1.1-1.2c0-0.9,0.8-1.6,1.7-1.6h3.5l4.7-21.9h-3.5
			c-0.7,0-1.1-0.5-1.1-1.2c0-0.9,0.8-1.6,1.7-1.6h9.6c0.7,0,1.1,0.5,1.1,1.2c0,0.9-0.8,1.6-1.7,1.6H93l-4.7,21.9h3.4
			C92.5,93.6,92.9,94.1,92.9,94.7z"/>
		<path class="st1" d="M106,71.7c0,0.1-0.3,0.6-3.2,5.1c-0.3,0.5-0.8,0.9-1.4,0.9c-0.9,0-1.4-1-0.8-1.9l2.1-3.4
			c-0.3-0.3-0.5-0.7-0.5-1.1c0-1.3,1.2-2.5,2.5-2.5c1,0,1.7,0.8,1.7,1.8C106.4,71,106.2,71.4,106,71.7z"/>
		<path class="st1" d="M128.8,84.6l-2.3,10.6c-0.2,0.8-0.9,1.4-1.7,1.4c-0.7,0-1.2-0.6-1.1-1.4l2.3-10.6c0.4-2-0.4-3.7-2.5-3.7
			c-2,0-3.6,1.2-4,3.3l-2.3,11.1c-0.2,0.8-0.9,1.4-1.6,1.4c-0.8,0-1.3-0.6-1.1-1.4l2.3-10.6c0.4-2-0.4-3.7-2.5-3.7
			c-2,0-3.5,1.2-4,3.3L108,95.2c-0.2,0.8-0.9,1.4-1.7,1.4c-0.8,0-1.3-0.6-1.1-1.4l3.3-15.7c0.2-0.8,0.9-1.4,1.7-1.4
			c0.8,0,1.2,0.6,1.1,1.4v0c1-0.9,2.1-1.4,3.5-1.4c1.8,0,3.3,0.9,3.9,2.5c1.2-1.7,3.1-2.5,5.4-2.5C127.7,78.1,129.6,80.9,128.8,84.6
			z"/>
		<path class="st1" d="M157.8,79.4l-3.4,15.7c-0.2,0.8-0.9,1.4-1.7,1.4c-0.7,0-1.3-0.7-1.1-1.4l0-0.1c-1.2,0.9-2.6,1.5-4,1.5
			c-3.6,0-5.9-2.9-5.1-6.5l1.2-5.5c0.9-4,4.1-6.5,7.9-6.5c1.4,0,2.6,0.5,3.4,1.4v-0.1c0-0.7,0.9-1.3,1.7-1.3
			C157.4,78.1,157.9,78.7,157.8,79.4z M152.6,90.6l1.4-6.5c0.4-2.1-1-3.3-3-3.3c-2.2,0-4,1.2-4.5,3.7l-1.2,5.5
			c-0.5,2.6,1,3.9,2.9,3.9C150.3,93.9,152.2,92.6,152.6,90.6z"/>
	</g>
	<g>
		<path class="st2" d="M132.8,242.2c0,0.5-0.1,1-0.2,1.4c-0.1,0.4-0.3,0.8-0.6,1.1c-0.3,0.3-0.6,0.5-1,0.7c-0.4,0.2-0.8,0.2-1.4,0.2
			h-2.2v-6.7h2.2c0.5,0,1,0.1,1.4,0.2c0.4,0.2,0.7,0.4,1,0.7c0.3,0.3,0.4,0.6,0.6,1.1C132.8,241.2,132.8,241.6,132.8,242.2z
			 M131.9,242c0-0.4,0-0.7-0.1-1c-0.1-0.3-0.2-0.6-0.4-0.8c-0.2-0.2-0.4-0.4-0.7-0.5c-0.3-0.1-0.6-0.2-1-0.2h-1.3v5.3h1.3
			c0.4,0,0.7-0.1,1-0.2c0.3-0.1,0.5-0.3,0.7-0.5c0.2-0.2,0.3-0.5,0.4-0.8c0.1-0.3,0.1-0.6,0.1-1V242z"/>
		<path class="st2" d="M139.5,244.3L139.5,244.3l1.2-5.5h0.8l-1.5,6.7h-1l-1.4-5.5l-1.4,5.5h-1l-1.5-6.7h0.8l1.2,5.5h0.1l1.5-5.5
			h0.8L139.5,244.3z"/>
		<path class="st2" d="M142.8,238.8h2.4c0.3,0,0.6,0.1,0.9,0.2c0.3,0.1,0.5,0.2,0.7,0.4c0.2,0.2,0.3,0.4,0.4,0.7
			c0.1,0.3,0.1,0.5,0.1,0.9c0,0.3-0.1,0.6-0.2,0.9c-0.1,0.3-0.3,0.5-0.5,0.7c-0.2,0.2-0.4,0.3-0.7,0.4c-0.3,0.1-0.6,0.2-0.9,0.2
			h-1.4v2.5h-0.8V238.8z M146.4,240.9c0-0.2,0-0.4-0.1-0.5c-0.1-0.2-0.2-0.3-0.3-0.4c-0.1-0.1-0.3-0.2-0.4-0.3
			c-0.2-0.1-0.4-0.1-0.6-0.1h-1.4v2.8h1.4c0.2,0,0.4,0,0.6-0.1s0.3-0.2,0.4-0.3s0.2-0.3,0.3-0.4
			C146.4,241.3,146.4,241.1,146.4,240.9L146.4,240.9z"/>
		<path class="st2" d="M150.2,244c0.3,0.3,0.6,0.6,1,0.7c0.3,0.1,0.7,0.2,1.1,0.2c0.3,0,0.5,0,0.7-0.1c0.2-0.1,0.4-0.2,0.5-0.3
			c0.1-0.1,0.2-0.2,0.3-0.4c0.1-0.1,0.1-0.3,0.1-0.5c0-0.2,0-0.4-0.1-0.5c-0.1-0.1-0.2-0.2-0.4-0.3c-0.2-0.1-0.3-0.2-0.5-0.2
			c-0.2,0-0.4-0.1-0.6-0.1l-0.1,0c-0.1,0-0.3-0.1-0.5-0.1c-0.2,0-0.3-0.1-0.5-0.1c-0.2-0.1-0.3-0.1-0.4-0.2
			c-0.1-0.1-0.3-0.2-0.4-0.3c-0.1-0.1-0.3-0.3-0.4-0.5c-0.1-0.2-0.1-0.4-0.1-0.7c0-0.2,0-0.4,0.1-0.6s0.2-0.4,0.4-0.6
			c0.2-0.2,0.4-0.3,0.7-0.4c0.3-0.1,0.7-0.2,1.1-0.2c0.5,0,0.9,0.1,1.3,0.3c0.2,0.1,0.3,0.2,0.5,0.3c0.2,0.1,0.3,0.2,0.5,0.4
			l-0.6,0.5c-0.2-0.2-0.5-0.4-0.8-0.5c-0.3-0.1-0.6-0.2-0.9-0.2c-0.2,0-0.4,0-0.6,0.1c-0.2,0.1-0.3,0.1-0.5,0.2
			c-0.1,0.1-0.2,0.2-0.3,0.3c-0.1,0.1-0.1,0.3-0.1,0.4c0,0.2,0,0.4,0.1,0.5c0.1,0.1,0.2,0.2,0.4,0.3c0.2,0.1,0.3,0.1,0.5,0.2
			c0.2,0,0.4,0.1,0.6,0.1l0,0c0.3,0.1,0.6,0.1,0.9,0.2c0.3,0.1,0.5,0.2,0.8,0.3c0.2,0.1,0.4,0.3,0.5,0.6c0.1,0.2,0.2,0.5,0.2,0.9
			c0,0.2-0.1,0.5-0.2,0.7c-0.1,0.2-0.3,0.5-0.5,0.6c-0.2,0.2-0.5,0.3-0.8,0.4s-0.7,0.2-1.1,0.2c-0.3,0-0.6,0-0.9-0.1
			c-0.3-0.1-0.5-0.2-0.8-0.3c-0.2-0.1-0.3-0.2-0.5-0.3s-0.3-0.3-0.5-0.4L150.2,244z"/>
		<path class="st2" d="M157.7,240.6c0.3,0,0.6,0.1,0.9,0.2c0.3,0.1,0.5,0.3,0.7,0.5c0.2,0.2,0.3,0.5,0.4,0.8c0.1,0.3,0.2,0.6,0.2,1
			c0,0.4-0.1,0.7-0.2,1c-0.1,0.3-0.3,0.6-0.4,0.8c-0.2,0.2-0.4,0.4-0.7,0.5c-0.3,0.1-0.6,0.2-0.9,0.2c-0.3,0-0.6-0.1-0.9-0.2
			s-0.5-0.3-0.7-0.5c-0.2-0.2-0.3-0.5-0.5-0.8c-0.1-0.3-0.2-0.6-0.2-1c0-0.4,0.1-0.7,0.2-1c0.1-0.3,0.3-0.6,0.5-0.8
			c0.2-0.2,0.4-0.4,0.7-0.5C157.1,240.7,157.4,240.6,157.7,240.6z M157.7,244.9c0.2,0,0.4,0,0.6-0.1c0.2-0.1,0.3-0.2,0.4-0.4
			c0.1-0.2,0.2-0.4,0.3-0.6c0.1-0.2,0.1-0.4,0.1-0.7v-0.1c0-0.2,0-0.5-0.1-0.7c-0.1-0.2-0.1-0.4-0.3-0.6c-0.1-0.2-0.3-0.3-0.4-0.4
			c-0.2-0.1-0.4-0.1-0.6-0.1c-0.2,0-0.4,0-0.6,0.1c-0.2,0.1-0.3,0.2-0.4,0.4c-0.1,0.2-0.2,0.3-0.3,0.6c-0.1,0.2-0.1,0.4-0.1,0.7v0.1
			c0,0.2,0,0.5,0.1,0.7c0.1,0.2,0.1,0.4,0.3,0.6c0.1,0.2,0.3,0.3,0.4,0.4C157.3,244.9,157.5,244.9,157.7,244.9z"/>
		<path class="st2" d="M162.2,240.7h1v0.7h-1v4.1h-0.8v-4.1h-0.8v-0.7h0.8v-0.9c0-0.2,0-0.4,0.1-0.5c0.1-0.1,0.2-0.3,0.3-0.3
			c0.1-0.1,0.3-0.2,0.4-0.2c0.2,0,0.3-0.1,0.5-0.1c0.2,0,0.4,0,0.5,0c0.1,0,0.2,0,0.3,0l-0.1,0.7c0,0-0.1,0-0.2,0
			c-0.1,0-0.1,0-0.2,0c-0.1,0-0.1,0-0.2,0c-0.1,0-0.1,0-0.1,0c-0.1,0-0.2,0-0.3,0.1c-0.1,0-0.1,0.1-0.2,0.1c0,0.1-0.1,0.1-0.1,0.2
			c0,0.1,0,0.1,0,0.2V240.7z"/>
		<path class="st2" d="M165.4,244.3c0,0.1,0,0.2,0,0.2c0,0.1,0,0.1,0.1,0.2c0,0.1,0.1,0.1,0.2,0.1c0.1,0,0.2,0,0.3,0
			c0,0,0.1,0,0.1,0c0,0,0.1,0,0.2,0c0.1,0,0.1,0,0.2,0c0.1,0,0.1,0,0.1,0l0.1,0.7c-0.1,0-0.2,0-0.3,0c-0.1,0-0.2,0-0.3,0
			c-0.1,0-0.2,0-0.3,0c-0.2,0-0.4,0-0.5-0.1c-0.2,0-0.3-0.1-0.4-0.2c-0.1-0.1-0.2-0.2-0.2-0.3c-0.1-0.1-0.1-0.3-0.1-0.5v-3.1h-0.9
			v-0.7h0.9v-1.6l0.8-0.3v1.8h1.3v0.7h-1.3V244.3z"/>
		<path class="st2" d="M171.8,244.6l0.9-3.9h0.8l-1.2,4.8h-1l-1-3.8l-1,3.8h-1l-1.2-4.8h0.9l0.8,3.9l1-3.9h0.9L171.8,244.6z"/>
		<path class="st2" d="M177.3,245c-0.1,0.2-0.3,0.3-0.6,0.4c-0.2,0.1-0.5,0.2-0.8,0.2c-0.2,0-0.5,0-0.7-0.1
			c-0.2-0.1-0.4-0.2-0.5-0.3c-0.2-0.1-0.3-0.3-0.4-0.5c-0.1-0.2-0.1-0.4-0.1-0.6c0-0.2,0-0.4,0.1-0.5c0.1-0.2,0.1-0.3,0.3-0.4
			c0.1-0.1,0.2-0.2,0.4-0.3c0.2-0.1,0.3-0.1,0.5-0.2l1.7-0.2v-0.3c0-0.2,0-0.3-0.1-0.5c-0.1-0.1-0.1-0.2-0.2-0.3
			c-0.1-0.1-0.2-0.1-0.3-0.2c-0.1,0-0.3,0-0.4,0c-0.3,0-0.5,0-0.8,0.1c-0.2,0.1-0.4,0.2-0.6,0.3l-0.3-0.6c0.3-0.2,0.6-0.3,0.9-0.3
			c0.3-0.1,0.6-0.1,0.9-0.1c0.6,0,1,0.1,1.3,0.4c0.3,0.3,0.5,0.7,0.5,1.2v2.2c0,0.2,0,0.3,0.1,0.4c0.1,0.1,0.2,0.2,0.3,0.3l-0.4,0.6
			c-0.2,0-0.3-0.1-0.4-0.2C177.4,245.3,177.3,245.2,177.3,245L177.3,245z M175.9,243.4c-0.1,0-0.3,0-0.4,0.1c-0.1,0-0.2,0.1-0.3,0.1
			c-0.1,0.1-0.1,0.1-0.2,0.2c0,0.1-0.1,0.2-0.1,0.3c0,0.1,0,0.3,0.1,0.4c0.1,0.1,0.1,0.2,0.2,0.3c0.1,0.1,0.2,0.1,0.3,0.2
			c0.1,0,0.2,0.1,0.4,0.1c0.1,0,0.3,0,0.4-0.1s0.3-0.1,0.4-0.2c0.1-0.1,0.2-0.2,0.3-0.3c0.1-0.1,0.1-0.2,0.1-0.4v-0.9L175.9,243.4z"
			/>
		<path class="st2" d="M181.8,241.4h-0.1c-0.2,0-0.4,0-0.6,0.1c-0.2,0-0.3,0.1-0.5,0.3c-0.1,0.1-0.3,0.3-0.3,0.5
			c-0.1,0.2-0.1,0.5-0.1,0.8v2.5h-0.8v-4.8h0.8v0.8c0.1-0.1,0.1-0.3,0.2-0.4c0.1-0.1,0.2-0.2,0.3-0.3c0.1-0.1,0.3-0.1,0.4-0.2
			c0.1,0,0.3-0.1,0.4-0.1h0.2V241.4z"/>
		<path class="st2" d="M183.2,243.4c0,0.2,0.1,0.4,0.1,0.6c0.1,0.2,0.2,0.4,0.3,0.5c0.1,0.1,0.3,0.2,0.5,0.3
			c0.2,0.1,0.4,0.1,0.6,0.1c0.3,0,0.5,0,0.7-0.1c0.2-0.1,0.4-0.2,0.6-0.3l0.4,0.6c-0.2,0.2-0.5,0.3-0.8,0.4c-0.3,0.1-0.6,0.2-1,0.2
			c-0.3,0-0.7-0.1-0.9-0.2s-0.5-0.3-0.7-0.5c-0.2-0.2-0.4-0.5-0.5-0.8c-0.1-0.3-0.2-0.6-0.2-1c0-0.4,0.1-0.7,0.2-1
			c0.1-0.3,0.3-0.6,0.4-0.8c0.2-0.2,0.4-0.4,0.7-0.5c0.3-0.1,0.6-0.2,0.9-0.2c0.3,0,0.6,0.1,0.9,0.2c0.3,0.1,0.5,0.3,0.6,0.5
			c0.2,0.2,0.3,0.5,0.4,0.8c0.1,0.3,0.1,0.6,0.1,1v0.2H183.2z M184.5,241.3c-0.2,0-0.4,0-0.5,0.1c-0.2,0.1-0.3,0.2-0.4,0.3
			c-0.1,0.1-0.2,0.3-0.3,0.5c-0.1,0.2-0.1,0.3-0.1,0.5h2.5c0-0.2,0-0.4-0.1-0.5c-0.1-0.2-0.1-0.3-0.2-0.5c-0.1-0.1-0.2-0.2-0.4-0.3
			C184.9,241.4,184.7,241.3,184.5,241.3z"/>
		<path class="st2" d="M189.8,238.8h4v0.7h-3.2v2.2h2.9v0.7h-2.9v2.4h3.4v0.7h-4.2V238.8z"/>
		<path class="st2" d="M195.2,240.7h0.8v0.6c0.2-0.2,0.4-0.4,0.6-0.5c0.2-0.1,0.5-0.2,0.8-0.2c0.3,0,0.5,0,0.7,0.1s0.4,0.2,0.5,0.4
			c0.1,0.2,0.2,0.3,0.3,0.5c0.1,0.2,0.1,0.4,0.1,0.6v3.3h-0.8v-3c0-0.2,0-0.4-0.1-0.5c-0.1-0.1-0.1-0.3-0.2-0.4
			c-0.1-0.1-0.2-0.2-0.3-0.2c-0.1,0-0.2-0.1-0.4-0.1c-0.2,0-0.3,0-0.4,0.1c-0.1,0.1-0.3,0.1-0.4,0.2c-0.1,0.1-0.2,0.2-0.3,0.4
			c-0.1,0.2-0.1,0.4-0.1,0.6v2.8h-0.8V240.7z"/>
		<path class="st2" d="M200.1,242.9c0-0.3,0-0.6,0.1-0.9c0.1-0.3,0.2-0.5,0.4-0.7s0.4-0.4,0.6-0.5c0.2-0.1,0.5-0.2,0.8-0.2
			c0.3,0,0.5,0.1,0.8,0.2c0.2,0.1,0.4,0.3,0.6,0.5v-0.6h0.8v4.8c0,0.3-0.1,0.5-0.2,0.8c-0.1,0.2-0.3,0.4-0.5,0.5
			c-0.2,0.1-0.4,0.2-0.7,0.3c-0.2,0.1-0.5,0.1-0.8,0.1c-0.1,0-0.3,0-0.4,0c-0.2,0-0.3,0-0.5-0.1c-0.2,0-0.3-0.1-0.5-0.1
			c-0.1,0-0.3-0.1-0.4-0.2l0.3-0.7c0.1,0,0.2,0.1,0.3,0.1c0.1,0,0.2,0.1,0.3,0.1c0.1,0,0.2,0.1,0.4,0.1c0.1,0,0.3,0,0.5,0
			c0.2,0,0.4,0,0.5-0.1c0.2,0,0.3-0.1,0.4-0.2c0.1-0.1,0.2-0.2,0.3-0.3c0.1-0.1,0.1-0.3,0.1-0.5v-0.9c-0.2,0.2-0.4,0.4-0.6,0.5
			c-0.2,0.1-0.5,0.2-0.8,0.2c-0.3,0-0.6-0.1-0.8-0.2c-0.2-0.1-0.4-0.3-0.6-0.5c-0.2-0.2-0.3-0.4-0.4-0.7
			C200.2,243.5,200.1,243.2,200.1,242.9z M203.4,242.8c0-0.2,0-0.4-0.1-0.6c0-0.2-0.1-0.3-0.2-0.5c-0.1-0.1-0.2-0.2-0.4-0.3
			c-0.2-0.1-0.3-0.1-0.6-0.1c-0.2,0-0.4,0-0.6,0.1c-0.2,0.1-0.3,0.2-0.4,0.3c-0.1,0.1-0.2,0.3-0.2,0.5c0,0.2-0.1,0.4-0.1,0.6v0
			c0,0.2,0,0.4,0.1,0.6c0,0.2,0.1,0.3,0.2,0.5c0.1,0.1,0.2,0.2,0.4,0.3c0.2,0.1,0.3,0.1,0.6,0.1c0.2,0,0.4,0,0.6-0.1
			c0.2-0.1,0.3-0.2,0.4-0.3c0.1-0.1,0.2-0.3,0.2-0.5C203.4,243.3,203.4,243.1,203.4,242.8L203.4,242.8z"/>
		<path class="st2" d="M205.5,239.3c0-0.1,0-0.1,0-0.2c0-0.1,0.1-0.1,0.1-0.2c0,0,0.1-0.1,0.2-0.1c0.1,0,0.1,0,0.2,0
			c0.1,0,0.1,0,0.2,0c0.1,0,0.1,0.1,0.2,0.1c0,0.1,0.1,0.1,0.1,0.2c0,0.1,0,0.1,0,0.2c0,0.1,0,0.1,0,0.2c0,0.1-0.1,0.1-0.1,0.2
			c0,0-0.1,0.1-0.2,0.1c-0.1,0-0.1,0-0.2,0c-0.1,0-0.1,0-0.2,0c-0.1,0-0.1-0.1-0.2-0.1c0,0-0.1-0.1-0.1-0.2S205.5,239.4,205.5,239.3
			z M206.4,245.5h-0.8v-4.8h0.8V245.5z"/>
		<path class="st2" d="M207.9,240.7h0.8v0.6c0.2-0.2,0.4-0.4,0.6-0.5c0.2-0.1,0.5-0.2,0.8-0.2c0.3,0,0.5,0,0.7,0.1
			c0.2,0.1,0.4,0.2,0.5,0.4c0.1,0.2,0.2,0.3,0.3,0.5c0.1,0.2,0.1,0.4,0.1,0.6v3.3h-0.8v-3c0-0.2,0-0.4-0.1-0.5
			c0-0.1-0.1-0.3-0.2-0.4s-0.2-0.2-0.3-0.2c-0.1,0-0.2-0.1-0.4-0.1c-0.2,0-0.3,0-0.4,0.1c-0.1,0.1-0.3,0.1-0.4,0.2
			c-0.1,0.1-0.2,0.2-0.3,0.4c-0.1,0.2-0.1,0.4-0.1,0.6v2.8h-0.8V240.7z"/>
		<path class="st2" d="M213.6,243.4c0,0.2,0.1,0.4,0.1,0.6c0.1,0.2,0.2,0.4,0.3,0.5c0.1,0.1,0.3,0.2,0.5,0.3
			c0.2,0.1,0.4,0.1,0.6,0.1c0.3,0,0.5,0,0.7-0.1c0.2-0.1,0.4-0.2,0.6-0.3l0.4,0.6c-0.2,0.2-0.5,0.3-0.7,0.4c-0.3,0.1-0.6,0.2-1,0.2
			s-0.7-0.1-0.9-0.2c-0.3-0.1-0.5-0.3-0.7-0.5c-0.2-0.2-0.4-0.5-0.5-0.8c-0.1-0.3-0.2-0.6-0.2-1c0-0.4,0.1-0.7,0.2-1
			c0.1-0.3,0.3-0.6,0.4-0.8c0.2-0.2,0.4-0.4,0.7-0.5c0.3-0.1,0.6-0.2,0.9-0.2c0.3,0,0.6,0.1,0.9,0.2c0.3,0.1,0.5,0.3,0.6,0.5
			c0.2,0.2,0.3,0.5,0.4,0.8c0.1,0.3,0.1,0.6,0.1,1v0.2H213.6z M215,241.3c-0.2,0-0.4,0-0.5,0.1c-0.2,0.1-0.3,0.2-0.4,0.3
			c-0.1,0.1-0.2,0.3-0.3,0.5s-0.1,0.3-0.1,0.5h2.5c0-0.2,0-0.4-0.1-0.5c-0.1-0.2-0.1-0.3-0.2-0.5c-0.1-0.1-0.2-0.2-0.4-0.3
			C215.3,241.4,215.1,241.3,215,241.3z"/>
		<path class="st2" d="M218.7,243.4c0,0.2,0.1,0.4,0.1,0.6c0.1,0.2,0.2,0.4,0.3,0.5s0.3,0.2,0.5,0.3c0.2,0.1,0.4,0.1,0.6,0.1
			c0.3,0,0.5,0,0.7-0.1c0.2-0.1,0.4-0.2,0.6-0.3l0.4,0.6c-0.2,0.2-0.5,0.3-0.8,0.4c-0.3,0.1-0.6,0.2-1,0.2c-0.3,0-0.7-0.1-0.9-0.2
			c-0.3-0.1-0.5-0.3-0.7-0.5c-0.2-0.2-0.4-0.5-0.5-0.8c-0.1-0.3-0.2-0.6-0.2-1c0-0.4,0.1-0.7,0.2-1c0.1-0.3,0.3-0.6,0.4-0.8
			c0.2-0.2,0.4-0.4,0.7-0.5c0.3-0.1,0.6-0.2,0.9-0.2c0.3,0,0.6,0.1,0.9,0.2c0.3,0.1,0.5,0.3,0.6,0.5c0.2,0.2,0.3,0.5,0.4,0.8
			c0.1,0.3,0.1,0.6,0.1,1v0.2H218.7z M220,241.3c-0.2,0-0.4,0-0.5,0.1c-0.2,0.1-0.3,0.2-0.4,0.3s-0.2,0.3-0.3,0.5
			c-0.1,0.2-0.1,0.3-0.1,0.5h2.5c0-0.2,0-0.4-0.1-0.5s-0.1-0.3-0.2-0.5c-0.1-0.1-0.2-0.2-0.4-0.3C220.4,241.4,220.2,241.3,220,241.3
			z"/>
		<path class="st2" d="M225.6,241.4h-0.1c-0.2,0-0.4,0-0.6,0.1c-0.2,0-0.3,0.1-0.5,0.3c-0.1,0.1-0.3,0.3-0.3,0.5
			c-0.1,0.2-0.1,0.5-0.1,0.8v2.5h-0.8v-4.8h0.8v0.8c0.1-0.1,0.1-0.3,0.2-0.4c0.1-0.1,0.2-0.2,0.3-0.3c0.1-0.1,0.3-0.1,0.4-0.2
			c0.1,0,0.3-0.1,0.4-0.1h0.2V241.4z"/>
		<path class="st2" d="M226.4,239.3c0-0.1,0-0.1,0-0.2c0-0.1,0.1-0.1,0.1-0.2c0,0,0.1-0.1,0.2-0.1c0.1,0,0.1,0,0.2,0
			c0.1,0,0.1,0,0.2,0c0.1,0,0.1,0.1,0.2,0.1c0,0.1,0.1,0.1,0.1,0.2c0,0.1,0,0.1,0,0.2c0,0.1,0,0.1,0,0.2c0,0.1-0.1,0.1-0.1,0.2
			c0,0-0.1,0.1-0.2,0.1c-0.1,0-0.1,0-0.2,0c-0.1,0-0.1,0-0.2,0c-0.1,0-0.1-0.1-0.2-0.1c0,0-0.1-0.1-0.1-0.2S226.4,239.4,226.4,239.3
			z M227.4,245.5h-0.8v-4.8h0.8V245.5z"/>
		<path class="st2" d="M228.8,240.7h0.8v0.6c0.2-0.2,0.4-0.4,0.6-0.5c0.2-0.1,0.5-0.2,0.8-0.2c0.3,0,0.5,0,0.7,0.1
			c0.2,0.1,0.4,0.2,0.5,0.4c0.1,0.2,0.2,0.3,0.3,0.5c0.1,0.2,0.1,0.4,0.1,0.6v3.3h-0.8v-3c0-0.2,0-0.4-0.1-0.5
			c0-0.1-0.1-0.3-0.2-0.4s-0.2-0.2-0.3-0.2c-0.1,0-0.2-0.1-0.4-0.1c-0.2,0-0.3,0-0.4,0.1c-0.1,0.1-0.3,0.1-0.4,0.2
			c-0.1,0.1-0.2,0.2-0.3,0.4c-0.1,0.2-0.1,0.4-0.1,0.6v2.8h-0.8V240.7z"/>
		<path class="st2" d="M233.7,242.9c0-0.3,0-0.6,0.1-0.9c0.1-0.3,0.2-0.5,0.4-0.7s0.4-0.4,0.6-0.5c0.2-0.1,0.5-0.2,0.8-0.2
			c0.3,0,0.5,0.1,0.8,0.2c0.2,0.1,0.4,0.3,0.6,0.5v-0.6h0.8v4.8c0,0.3-0.1,0.5-0.2,0.8c-0.1,0.2-0.3,0.4-0.5,0.5
			c-0.2,0.1-0.4,0.2-0.7,0.3c-0.2,0.1-0.5,0.1-0.8,0.1c-0.1,0-0.3,0-0.4,0c-0.2,0-0.3,0-0.5-0.1s-0.3-0.1-0.5-0.1
			c-0.2,0-0.3-0.1-0.4-0.2l0.3-0.7c0.1,0,0.2,0.1,0.3,0.1c0.1,0,0.2,0.1,0.3,0.1c0.1,0,0.2,0.1,0.4,0.1c0.1,0,0.3,0,0.5,0
			c0.2,0,0.4,0,0.5-0.1c0.2,0,0.3-0.1,0.4-0.2c0.1-0.1,0.2-0.2,0.3-0.3c0.1-0.1,0.1-0.3,0.1-0.5v-0.9c-0.2,0.2-0.4,0.4-0.6,0.5
			c-0.2,0.1-0.5,0.2-0.8,0.2c-0.3,0-0.6-0.1-0.8-0.2c-0.2-0.1-0.4-0.3-0.6-0.5c-0.2-0.2-0.3-0.4-0.4-0.7
			C233.8,243.5,233.7,243.2,233.7,242.9z M237.1,242.8c0-0.2,0-0.4-0.1-0.6c0-0.2-0.1-0.3-0.2-0.5c-0.1-0.1-0.2-0.2-0.4-0.3
			c-0.2-0.1-0.3-0.1-0.6-0.1c-0.2,0-0.4,0-0.6,0.1c-0.2,0.1-0.3,0.2-0.4,0.3c-0.1,0.1-0.2,0.3-0.2,0.5c-0.1,0.2-0.1,0.4-0.1,0.6v0
			c0,0.2,0,0.4,0.1,0.6c0,0.2,0.1,0.3,0.2,0.5c0.1,0.1,0.2,0.2,0.4,0.3c0.2,0.1,0.3,0.1,0.6,0.1c0.2,0,0.4,0,0.6-0.1
			c0.2-0.1,0.3-0.2,0.4-0.3c0.1-0.1,0.2-0.3,0.2-0.5C237,243.3,237.1,243.1,237.1,242.8L237.1,242.8z"/>
	</g>
</g>
</svg>
