<?xml version="1.0" encoding="utf-8"?>
<!-- Generator: Adobe Illustrator 17.0.0, SVG Export Plug-In . SVG Version: 6.00 Build 0)  -->
<!DOCTYPE svg PUBLIC "-//W3C//DTD SVG 1.1//EN" "http://www.w3.org/Graphics/SVG/1.1/DTD/svg11.dtd">
<svg version="1.1" id="Layer_1" xmlns="http://www.w3.org/2000/svg" xmlns:xlink="http://www.w3.org/1999/xlink" x="0px" y="0px"
	 width="155.91px" height="155.91px" viewBox="0 0 155.91 155.91" enable-background="new 0 0 155.91 155.91" xml:space="preserve">
<path d="M77.955,0C34.902,0,0,34.902,0,77.955c0,43.053,34.902,77.955,77.955,77.955s77.955-34.902,77.955-77.955
	C155.91,34.902,121.008,0,77.955,0z M107.908,60.984c2.059-0.856,4.451,0.169,5.305,2.27c0.857,2.097-0.138,4.515-2.187,5.371
	c-2.106,0.872-4.485-0.127-5.339-2.231C104.826,64.295,105.812,61.859,107.908,60.984z M98.671,55.495
	c2.057-0.861,4.449,0.163,5.308,2.271c0.852,2.094-0.135,4.512-2.192,5.374c-2.103,0.874-4.48-0.129-5.337-2.236
	C95.593,58.806,96.572,56.367,98.671,55.495z M88.361,58.795c2.062-0.859,4.456,0.166,5.306,2.273
	c0.857,2.097-0.135,4.512-2.187,5.368c-2.101,0.875-4.48-0.126-5.337-2.231C85.281,62.112,86.262,59.667,88.361,58.795z
	 M70.621,50.785l5.148,1.649l0.017-0.013c0.139-0.19,0.306-0.361,0.495-0.508l0.012-0.021l-2.065-6.614h3.719h3.721l-2.07,6.614
	l0.008,0.021c0.192,0.148,0.361,0.319,0.504,0.508l0.016,0.013l5.152-1.649v7.71l-5.157-2.75l-0.01,0.016
	c-0.156,0.203-0.34,0.382-0.538,0.527l2.963,9.064c0,0.013,0,0.021,0.01,0.034v0.008c0.138,0.456,0.21,0.938,0.21,1.43
	c0,2.458-1.781,4.478-4.103,4.828c-0.031,0.005-0.068,0.008-0.104,0.013c-0.195,0.024-0.395,0.045-0.602,0.045
	c-0.203,0-0.405-0.021-0.608-0.045c-0.029-0.005-0.068-0.008-0.1-0.013c-2.319-0.35-4.103-2.371-4.103-4.828
	c0-0.492,0.072-0.974,0.212-1.43h-0.003l0.005-0.008c0.001-0.013,0.001-0.021,0.01-0.034l2.961-9.064
	c-0.203-0.145-0.387-0.324-0.532-0.527l-0.013-0.016l-5.155,2.75V50.785z M62.245,61.069c0.853-2.107,3.245-3.132,5.299-2.273
	c2.1,0.872,3.088,3.316,2.226,5.41c-0.856,2.105-3.236,3.106-5.335,2.231C62.376,65.581,61.39,63.165,62.245,61.069z M51.934,57.765
	c0.858-2.107,3.251-3.132,5.307-2.271c2.102,0.872,3.081,3.311,2.222,5.408c-0.857,2.107-3.238,3.111-5.337,2.236
	C52.069,62.278,51.079,59.86,51.934,57.765z M42.699,63.255c0.854-2.102,3.247-3.127,5.304-2.27c2.097,0.874,3.083,3.311,2.224,5.41
	c-0.86,2.105-3.233,3.103-5.337,2.231C42.835,67.77,41.847,65.352,42.699,63.255z M39.993,73.678
	c0.858-2.112,3.251-3.132,5.31-2.276c2.093,0.869,3.084,3.314,2.219,5.413c-0.854,2.102-3.231,3.111-5.337,2.228
	C40.133,78.187,39.141,75.769,39.993,73.678z M105.264,101.97c-8.261-1.198-17.527-1.868-27.317-1.868
	c-9.783,0-19.047,0.669-27.304,1.868c-2.337-9.994-5.194-15.72-8.136-19.795l5.546-2.007c-0.552,2.858-0.644,4.185-0.022,6.027
	c0.917-0.909,1.776-2.576,2.452-5.123l2.693,9.077c-1.637-1.148-2.896-1.883-4.339-1.92c2.559,5.592,5.755,7.033,7.819,6.635
	c2.535-0.469,3.697-2.747,3.306-4.689c-0.587-2.753-3.363-3.469-4.662-0.274c-2.488-5.131,1.727-6.733,4.441-5.213
	c-4.167-4.22-4.646-7.96-1.278-12.496c4.678,3.63,4.734,7.228,2.626,12.291c2.737-3.177,6.997-1.467,5.455,3.659
	c-1.972-3.095-4.582-1.148-4.171,1.794c0.344,2.568,3.683,4.631,7.839,4.272c5.957-0.556,6.311-4.725,6.456-8.173
	c-1.462-0.274-4.103,1.109-6.347,4.309l-0.83-9.633c2.445,2.584,4.671,3.077,7.136,3.161c-0.819-2.605-4.598-6.862-4.598-6.862
	h6.357h0.003h0.003h5.485c0,0-3.773,4.257-4.599,6.862c2.47-0.084,4.69-0.577,7.136-3.161l-0.826,9.633
	c-2.246-3.201-4.885-4.583-6.347-4.309c0.148,3.448,0.504,7.618,6.461,8.173c4.153,0.358,7.492-1.704,7.838-4.272
	c0.408-2.942-2.205-4.889-4.176-1.794c-1.535-5.126,2.716-6.835,5.456-3.659c-2.114-5.063-2.054-8.661,2.631-12.291
	c3.363,4.536,2.88,8.276-1.28,12.496c2.709-1.52,6.923,0.082,4.441,5.213c-1.298-3.195-4.077-2.479-4.659,0.274
	c-0.392,1.941,0.766,4.22,3.295,4.689c2.072,0.398,5.267-1.043,7.825-6.635c-1.444,0.037-2.703,0.772-4.334,1.92l2.683-9.077
	c0.678,2.547,1.545,4.214,2.462,5.123c0.613-1.841,0.53-3.169-0.023-6.027l5.547,2.007C110.461,86.25,107.607,91.977,105.264,101.97
	z M113.723,79.043c-2.098,0.882-4.48-0.126-5.329-2.228c-0.865-2.099,0.122-4.544,2.22-5.413c2.057-0.856,4.446,0.163,5.298,2.276
	C116.771,75.769,115.787,78.187,113.723,79.043z"/>
</svg>
